<?xml version="1.0" encoding="UTF-8" standalone="no"?>
<!-- Created with Inkscape (http://www.inkscape.org/) -->

<svg
   width="210mm"
   height="297mm"
   viewBox="0 0 210 297"
   version="1.1"
   id="svg43669"
   xml:space="preserve"
   inkscape:version="1.2.1 (9c6d41e410, 2022-07-14)"
   sodipodi:docname="mechanic.svg"
   inkscape:export-filename="mechanic.png"
   inkscape:export-xdpi="96"
   inkscape:export-ydpi="96"
   xmlns:inkscape="http://www.inkscape.org/namespaces/inkscape"
   xmlns:sodipodi="http://sodipodi.sourceforge.net/DTD/sodipodi-0.dtd"
   xmlns="http://www.w3.org/2000/svg"
   xmlns:svg="http://www.w3.org/2000/svg"><sodipodi:namedview
     id="namedview43671"
     pagecolor="#ffffff"
     bordercolor="#000000"
     borderopacity="0.25"
     inkscape:showpageshadow="2"
     inkscape:pageopacity="0.0"
     inkscape:pagecheckerboard="0"
     inkscape:deskcolor="#d1d1d1"
     inkscape:document-units="mm"
     showgrid="false"
     inkscape:zoom="1.4912879"
     inkscape:cx="288.34138"
     inkscape:cy="368.13818"
     inkscape:window-width="1920"
     inkscape:window-height="1017"
     inkscape:window-x="-8"
     inkscape:window-y="-8"
     inkscape:window-maximized="1"
     inkscape:current-layer="layer1" /><defs
     id="defs43666" /><g
     inkscape:label="Vrstva 1"
     inkscape:groupmode="layer"
     id="layer1"><path
       style="fill:#5fd3bc;stroke:#5fd3bc;stroke-width:0.6;stroke-linecap:square;stroke-linejoin:bevel;stroke-miterlimit:1;stroke-dasharray:none;paint-order:markers stroke fill"
       d="m 54.749657,177.15322 c 0.914919,-15.73929 9.769629,-28.61285 24.626895,-35.80418 3.419282,-1.65503 10.099795,-3.93067 10.452575,-3.56055 0.1278,0.13407 1.98887,4.6349 4.1357,10.00183 8.109423,20.27293 11.764163,29.18995 12.116543,29.56252 0.14999,0.15858 1.23079,-2.0769 2.40178,-4.96774 1.17099,-2.89084 4.80341,-11.88268 8.07203,-19.98188 3.26863,-8.09919 5.98146,-14.76873 6.02853,-14.8212 0.0471,-0.0525 1.58339,0.39407 3.41406,0.99231 12.03226,3.93196 21.63114,11.53165 26.89499,21.29351 2.68217,4.97409 5.01047,14.04261 5.01047,19.51533 v 1.40715 h -51.6825 -51.682496 z"
       id="path43871" /><path
       style="fill:#008080;stroke:#008080;stroke-width:3.04129;stroke-linecap:square;stroke-linejoin:bevel;stroke-miterlimit:1;stroke-dasharray:none;paint-order:markers stroke fill"
       d="m 400.65755,666.39416 c -0.40321,-0.65852 -4.66968,-10.65699 -9.48106,-22.21882 l -8.74796,-21.02151 3.80706,-25.91778 3.80705,-25.91779 -4.24662,-4.61426 c -2.33564,-2.53784 -5.0488,-5.4954 -6.02925,-6.57235 -1.51831,-1.66776 -0.0269,-3.72197 10.05791,-13.85376 l 11.84055,-11.89567 5.26546,5.72736 c 2.89601,3.15004 8.00207,8.59271 11.34682,12.09482 l 6.08135,6.36747 -5.81283,5.92283 -5.81282,5.92284 3.71368,26.22151 3.71368,26.2215 -7.74814,19.15647 c -9.12369,22.55738 -10.77383,25.97941 -11.75488,24.37714 z"
       id="path44374"
       transform="scale(0.26458333)" /><path
       style="fill:#e9c6af;stroke:#e9c6af;stroke-width:3.77952761;stroke-linecap:square;stroke-linejoin:bevel;stroke-miterlimit:1;stroke-dasharray:none;paint-order:markers stroke fill"
       d="m 379.36911,492.16096 c -36.58361,-8.21469 -67.08865,-35.30436 -80.19483,-71.21616 -2.15629,-5.90839 -4.59106,-14.44027 -5.4106,-18.95973 -1.64551,-9.07445 -2.92352,-37.1728 -1.82138,-40.04493 0.5045,-1.3147 2.24541,-0.49652 6.26041,2.94225 l 5.56158,4.76337 0.37312,-18.18839 0.37313,-18.18838 h 97.19355 97.19355 v 18.26121 18.26121 l 5.36835,-4.84998 c 2.9526,-2.6675 5.74915,-4.84999 6.21459,-4.84999 0.46542,0 0.51858,9.20345 0.11815,20.45212 -0.83182,23.36607 -3.24565,33.93074 -11.72066,51.29794 -6.97978,14.30315 -17.11825,27.39899 -28.69699,37.06787 -10.568,8.82486 -29.39731,18.78465 -41.69237,22.05326 -11.46924,3.04907 -37.99549,3.6962 -49.11959,1.19833 z M 360.86516,377.6292 c 10.22039,-10.22038 -0.43323,-26.97952 -13.66621,-21.49824 -7.05018,2.92028 -9.69677,11.33825 -5.88326,18.71277 4.07399,7.87822 13.16185,9.17309 19.54947,2.78547 z m 97.69589,0.44818 c 3.47894,-2.92733 4.12628,-4.41629 4.12628,-9.49102 0,-13.93256 -16.28586,-18.95385 -23.248,-7.16787 -2.76453,4.67996 -2.82578,8.38948 -0.22168,13.42524 3.92266,7.58559 12.47276,9.01491 19.3434,3.23365 z"
       id="path44656"
       transform="scale(0.26458333)" /><path
       style="fill:#e9c6af;stroke:#e9c6af;stroke-width:1.03251;stroke-linecap:square;stroke-linejoin:bevel;stroke-miterlimit:1;stroke-dasharray:none;paint-order:markers stroke fill"
       d="m 97.589025,138.98335 c -3.996869,-0.92332 -7.306914,-1.68438 -7.355658,-1.69126 -0.04874,-0.007 -0.08862,-2.66783 -0.08862,-5.91323 0,-3.24541 0.11964,-5.84331 0.265866,-5.77312 0.146229,0.0702 1.621791,0.84359 3.27903,1.71866 3.942252,2.08163 6.449537,2.76989 11.035177,3.02921 5.56593,0.31475 10.81241,-0.96222 15.46291,-3.7636 l 1.86107,-1.12108 v 5.89812 c 0,5.80508 -0.0126,5.90126 -0.7976,6.09741 -4.73758,1.18379 -12.90025,2.89539 -14.44545,3.02903 -1.4365,0.12424 -3.86249,-0.27325 -9.216723,-1.51014 z"
       id="path44658" /><path
       style="fill:#e9c6af;stroke:#e9c6af;stroke-width:3.77952761;stroke-linecap:square;stroke-linejoin:bevel;stroke-miterlimit:1;stroke-dasharray:none;paint-order:markers stroke fill"
       d="m 512.30886,374.99985 v -17.27854 l 5.36836,-4.84999 c 2.95259,-2.66749 5.9076,-4.84998 6.56668,-4.84998 0.65908,0 3.0416,2.09936 5.29448,4.66525 9.66167,11.00403 6.30883,29.54914 -6.6601,36.83808 -2.69476,1.51455 -6.17528,2.75371 -7.73449,2.75371 -2.73913,0 -2.83493,-0.58389 -2.83493,-17.27853 z"
       id="path44660"
       transform="scale(0.26458333)" /><path
       style="fill:#e9c6af;stroke:#e9c6af;stroke-width:3.77952761;stroke-linecap:square;stroke-linejoin:bevel;stroke-miterlimit:1;stroke-dasharray:none;paint-order:markers stroke fill"
       d="m 280.32883,389.92934 c -11.77803,-5.92696 -16.14015,-21.6286 -9.37323,-33.73939 5.14027,-9.19957 6.77556,-9.60288 13.80748,-3.40527 l 6.00789,5.29508 0.12632,17.09931 c 0.12469,16.87656 0.087,17.09929 -2.8912,17.09723 -1.65964,-10e-4 -5.11441,-1.05728 -7.67727,-2.34696 z"
       id="path44662"
       transform="scale(0.26458333)" /><path
       style="fill:#552200;stroke:#552200;stroke-width:5.06881;stroke-linecap:square;stroke-linejoin:bevel;stroke-miterlimit:1;stroke-dasharray:none;paint-order:markers stroke fill"
       d="m 292.25546,356.09734 c -4.73441,-4.40961 -9.66415,-8.37307 -10.95498,-8.80768 -1.8112,-0.60981 -2.34696,-2.30032 -2.34696,-7.40544 v -6.61523 h 11.39954 11.39954 v 15.42291 c 0,8.4826 -0.20005,15.42291 -0.44456,15.42291 -0.24451,0 -4.31817,-3.60786 -9.05258,-8.01747 z"
       id="path44733"
       transform="scale(0.26458333)" /><path
       style="fill:#552200;stroke:#552200;stroke-width:5.06881;stroke-linecap:square;stroke-linejoin:bevel;stroke-miterlimit:1;stroke-dasharray:none;paint-order:markers stroke fill"
       d="m 501.57988,348.17558 v -14.90659 h 10.72898 10.72899 v 5.59208 c 0,5.07105 -0.71852,6.26925 -7.71146,12.85977 -4.2413,3.99723 -9.06934,8.18875 -10.72898,9.31451 l -3.01753,2.04682 z"
       id="path44735"
       transform="scale(0.26458333)" /><path
       style="fill:#ffff00;stroke:#ffdd55;stroke-width:2;stroke-linecap:square;stroke-linejoin:bevel;stroke-miterlimit:1;stroke-dasharray:none;paint-order:markers stroke fill"
       d="m 67.774192,82.322579 v -4.790321 h 3.147896 3.147899 l 0.25386,-3.991936 c 0.408842,-6.429057 1.654352,-10.678485 4.597095,-15.684372 1.858696,-3.161819 6.466737,-7.769858 9.628555,-9.628556 2.373355,-1.395193 6.789402,-3.340298 7.583602,-3.340298 0.268594,0 0.383029,4.876551 0.383029,16.32258 v 16.322582 h 9.935482 9.93549 V 61.171208 44.81016 l 0.9758,0.241427 c 4.35101,1.076497 8.4392,3.574339 12.5075,7.641961 6.12149,6.12046 8.84274,12.846862 8.86451,21.911288 l 0.007,2.927422 h 3.19355 3.19355 v 4.790321 4.790323 h -38.6774 -38.677418 z"
       id="path44514" /><path
       style="fill:#ffff00;stroke:#ffcc00;stroke-width:1;stroke-linecap:square;stroke-linejoin:bevel;stroke-miterlimit:1;stroke-dasharray:none;paint-order:markers stroke fill"
       d="m 97.578458,61.298386 c -0.002,-13.077653 -0.0857,-15.684367 -0.53226,-16.540559 -0.29154,-0.559004 -0.53007,-1.636826 -0.53007,-2.395162 v -1.378794 h 9.633242 9.63324 l -0.22789,2.927419 c -0.12534,1.610079 -0.22884,9.673791 -0.23001,17.919353 l -0.002,14.991937 h -8.87098 -8.870962 z"
       id="path44585" /><ellipse
       style="fill:#000000;stroke:#000000;stroke-width:1.31915;stroke-linecap:square;stroke-linejoin:bevel;stroke-miterlimit:1;stroke-dasharray:none;paint-order:markers stroke fill"
       id="path46316"
       cx="119.06452"
       cy="97.41935"
       rx="2.3404248"
       ry="2.3404255" /><ellipse
       style="fill:#000000;stroke:#000000;stroke-width:1.31915;stroke-linecap:square;stroke-linejoin:bevel;stroke-miterlimit:1;stroke-dasharray:none;paint-order:markers stroke fill"
       id="path46316-9"
       cx="93.145164"
       cy="97.403236"
       rx="2.3404248"
       ry="2.3404255" /><path
       style="fill:#000000;stroke:#000000;stroke-width:1.2672;stroke-linecap:square;stroke-linejoin:bevel;stroke-miterlimit:1;stroke-dasharray:none;paint-order:markers stroke fill"
       d=""
       id="path49387"
       transform="scale(0.26458333)" /><path
       style="fill:#000000;stroke:#000000;stroke-width:1.2672;stroke-linecap:square;stroke-linejoin:bevel;stroke-miterlimit:1;stroke-dasharray:none;paint-order:markers stroke fill"
       d=""
       id="path49389"
       transform="scale(0.26458333)" /><path
       style="fill:#f9f9f9;stroke:#800000;stroke-width:1;stroke-linecap:square;stroke-linejoin:bevel;stroke-miterlimit:1;stroke-dasharray:none;paint-order:markers stroke fill"
       d="m 115.82014,113.49049 c 0,0 -8.17263,10.05957 -17.778797,-0.11838 1.91105,0.55994 5.737377,1.37691 7.966967,1.38237 9.39693,0.023 9.81183,-1.26399 9.81183,-1.26399 z"
       id="path49763"
       sodipodi:nodetypes="ccsc" /><path
       style="fill:#000000;stroke:#000000;stroke-width:0.39614;stroke-linecap:square;stroke-linejoin:bevel;stroke-miterlimit:1;stroke-dasharray:none;paint-order:markers stroke fill"
       id="path50623"
       d="m 106.17386,103.68758 c -0.56084,0.78502 -1.12606,1.57619 -1.57314,2.50568 -0.2575,0.58125 -0.31086,1.0993 -0.2276,1.56908 0.0981,0.3899 0.33947,0.55024 0.59687,0.67214 0.3626,0.16474 0.7821,0.16348 1.19894,0.16127 0.17831,-0.0619 0.38032,0.11409 0.56983,-0.10615 8.1e-4,-6.4e-4 -1.9e-4,-0.0157 -0.002,-0.0143 v 0 c -0.0504,0.0152 -0.068,-0.025 -0.11325,-0.0336 -0.13216,-0.025 -0.2821,0.007 -0.41807,-0.004 -0.40973,4.8e-4 -0.8243,0.007 -1.18404,-0.14746 -0.2428,-0.11448 -0.479,-0.25465 -0.56906,-0.62656 -0.0723,-0.42461 -0.034,-0.88197 0.20217,-1.4095 0.44005,-0.9219 1.00866,-1.69067 1.54843,-2.4922 0.004,-0.006 -0.0256,-0.0791 -0.0303,-0.0732 z" /></g></svg>
