<?xml version="1.0" encoding="UTF-8" standalone="no"?>
<!-- Created with Inkscape (http://www.inkscape.org/) -->

<svg
   width="210mm"
   height="297mm"
   viewBox="0 0 210 297"
   version="1.1"
   id="svg5"
   xml:space="preserve"
   inkscape:version="1.2.1 (9c6d41e410, 2022-07-14)"
   sodipodi:docname="banka.svg"
   inkscape:export-filename="banka.png"
   inkscape:export-xdpi="96"
   inkscape:export-ydpi="96"
   xmlns:inkscape="http://www.inkscape.org/namespaces/inkscape"
   xmlns:sodipodi="http://sodipodi.sourceforge.net/DTD/sodipodi-0.dtd"
   xmlns="http://www.w3.org/2000/svg"
   xmlns:svg="http://www.w3.org/2000/svg"><sodipodi:namedview
     id="namedview7"
     pagecolor="#ffffff"
     bordercolor="#000000"
     borderopacity="0.25"
     inkscape:showpageshadow="2"
     inkscape:pageopacity="0.0"
     inkscape:pagecheckerboard="0"
     inkscape:deskcolor="#d1d1d1"
     inkscape:document-units="mm"
     showgrid="false"
     inkscape:zoom="0.74564394"
     inkscape:cx="396.97231"
     inkscape:cy="347.35077"
     inkscape:window-width="1920"
     inkscape:window-height="1017"
     inkscape:window-x="-8"
     inkscape:window-y="-8"
     inkscape:window-maximized="1"
     inkscape:current-layer="layer1" /><defs
     id="defs2" /><g
     inkscape:label="Vrstva 1"
     inkscape:groupmode="layer"
     id="layer1"><path
       style="fill:#1a1a1a;stroke:#1a1a1a;stroke-width:0;stroke-linecap:round;stroke-miterlimit:3.6;stroke-dasharray:none"
       d="m 105.91182,698.52871 c -6.451768,-4.29587 -6.668742,-5.19665 -6.668742,-27.68563 v -21.33412 l 4.165202,-3.89088 c 3.95006,-3.68991 4.78129,-3.89088 16.09347,-3.89088 h 11.92827 v -13.4543 c 0,-20.88458 3.75587,-26.77938 17.06244,-26.77938 h 7.07777 V 556.56591 511.6383 h -5.16436 c -14.61421,0 -18.97585,-6.15291 -18.97585,-26.76902 v -13.46466 h -11.30405 c -10.9925,0 -11.43605,-0.12445 -16.09347,-4.51701 l -4.789422,-4.51699 v -20.36038 c 0,-29.42412 1.270972,-30.95614 25.681462,-30.95614 h 13.2111 v -50.64974 -50.64972 l -7.71146,-0.0204 c -10.45061,-0.0275 -19.8193,-5.29051 -26.00679,-14.60965 -4.10763,-6.18662 -4.50375,-7.66789 -4.50375,-16.84164 0,-9.37044 0.33446,-10.54757 4.88985,-17.20976 4.85053,-7.09383 9.03502,-10.16533 29.97934,-22.00552 7.58598,-4.28848 16.80429,-9.81719 27.49301,-16.48902 8.64297,-5.39488 26.09046,-15.73103 32.1088,-19.02171 3.2763,-1.79139 9.0096,-5.23392 12.74067,-7.65004 3.73107,-2.41613 9.49953,-5.89399 12.81881,-7.72857 8.30514,-4.5903 19.30895,-11.30527 28.54095,-17.41684 4.26447,-2.82307 8.37124,-5.13285 9.12617,-5.13285 0.75493,0 4.94851,-2.42835 9.31907,-5.39634 4.37056,-2.96799 9.01461,-5.79028 10.32012,-6.27175 1.30551,-0.48147 6.36452,-3.48466 11.24227,-6.67376 4.87773,-3.1891 9.28526,-5.79836 9.79451,-5.79836 0.50924,0 4.96744,-2.62978 9.9071,-5.84395 4.93966,-3.21418 10.80691,-6.78055 13.03834,-7.92526 2.23142,-1.14471 7.34745,-4.24823 11.36895,-6.89671 4.02151,-2.64847 7.81135,-4.81541 8.42185,-4.81541 0.61051,0 4.68591,-2.42835 9.05647,-5.39634 4.37056,-2.96799 9.01461,-5.78773 10.32011,-6.26609 1.30552,-0.47837 5.98138,-3.24284 10.39083,-6.143279 20.72429,-13.631983 32.97974,-13.631983 53.70403,0 4.40945,2.900439 9.08531,5.664909 10.39083,6.143279 1.3055,0.47836 5.94955,3.2981 10.32011,6.26609 4.37056,2.96799 8.44596,5.39634 9.05647,5.39634 0.6105,0 4.11379,1.97704 7.78504,4.39341 6.03943,3.97506 14.72851,9.16539 30.58115,18.26736 3.07922,1.76797 9.65277,5.84163 14.6079,9.05258 4.95513,3.21095 9.48142,5.851 10.05842,5.86678 0.577,0.0158 5.22157,2.73156 10.32123,6.03506 5.09967,3.30349 9.78302,6.00635 10.40746,6.00635 0.62442,0 3.99579,1.99214 7.49191,4.42699 5.79247,4.03411 10.51822,6.88414 31.57547,19.04266 3.83242,2.21285 9.62744,5.75023 12.87781,7.86084 3.25037,2.11061 8.38017,5.19037 11.39955,6.84391 5.71308,3.12872 16.33577,9.42508 28.95942,17.16507 4.0569,2.48741 13.41123,8.06117 20.7874,12.38613 7.37618,4.32494 16.4868,9.83704 20.24583,12.24909 3.75902,2.41206 8.4059,5.10149 10.32639,5.97652 1.92049,0.87503 5.78523,4.97806 8.58831,9.11783 4.7792,7.0582 5.09652,8.15311 5.09652,17.58527 0,9.17375 -0.39611,10.65502 -4.50374,16.84164 -6.1875,9.31914 -15.5562,14.58215 -26.0068,14.6097 l -7.71146,0.0204 v 50.64972 50.64974 h 13.21111 c 24.60405,-4e-5 25.68145,1.27133 25.68145,30.30496 v 21.01152 l -4.78942,4.51699 c -4.65742,4.39252 -5.10097,4.51701 -16.09347,4.51701 h -11.30405 v 13.46466 c 0,20.61611 -4.36163,26.76902 -18.97584,26.76902 h -5.16437 v 44.92761 44.92761 h 7.07776 c 13.43892,0 17.06245,5.53968 17.06245,26.0853 v 14.14838 h 11.92826 c 11.31219,0 12.14341,0.20097 16.09348,3.89088 l 4.1652,3.89088 v 21.33412 c 0,22.48898 -0.21698,23.38976 -6.66874,27.68563 -3.02319,2.01297 -15.16242,2.20789 -137.50195,2.20789 -119.27825,0 -134.51715,-0.23195 -137.16666,-2.08772 -3.89219,-2.7262 -3.77899,-6.62373 0.3112,-10.7139 l -51.69419,-1.95073 185.80645,-1.34112 H 679.9492 V 671.2319 657.82068 H 397.64288 115.33655 v 13.41122 13.41123 H 248.1077 c 130.98298,0 202.54565,1.37722 205.19177,4.02336 3.21449,3.2145 39.23298,12.60395 -57.09352,12.64488 -101.93755,0.0433 -28.36577,-0.57477 -150.57788,-0.57477 -124.39526,0 -136.69216,-0.19433 -139.71625,-2.20789 z M 257.49555,629.6571 V 617.587 h -55.65659 -55.65659 v 11.17601 c 0,6.14682 0.40234,11.57837 0.89408,12.07011 0.49175,0.49175 25.53721,0.89408 55.6566,0.89408 h 54.7625 z m 69.88679,-5.36449 c 0.45043,-9.22022 0.90306,-16.92378 1.00585,-17.11903 0.10273,-0.19524 2.14826,-1.55087 4.54552,-3.01251 2.87941,-1.75561 6.74818,-2.65922 11.39954,-2.66253 l 7.04089,-0.005 V 556.56591 511.6383 l -6.37033,-0.005 c -7.52496,-0.005 -14.54548,-3.75889 -16.46219,-8.80021 -0.71923,-1.89137 -1.30769,-9.73665 -1.30769,-17.43363 v -13.99448 h -26.82245 -26.82245 l -0.0475,14.41707 c -0.03,9.13561 -0.67736,15.55209 -1.76682,17.51539 -2.9448,5.30675 -8.91153,8.2827 -16.62609,8.29239 l -7.04094,0.009 v 44.92761 44.92761 h 8.00006 c 7.03593,0 8.5714,0.50164 12.74067,4.1623 l 4.7406,4.16229 v 15.9829 15.9829 l 26.48717,-0.36364 26.48717,-0.36363 z m 125.91713,5.36449 V 617.587 h -55.65659 -55.6566 v 12.0701 12.0701 h 55.6566 55.65659 z m 68.39725,-3.88444 v -15.95455 l 4.7406,-4.16229 c 4.16927,-3.66066 5.70474,-4.1623 12.74067,-4.1623 h 8.00006 V 556.56591 511.6383 l -7.04089,-0.009 c -7.71455,-0.009 -13.68129,-2.98564 -16.62609,-8.29239 -1.08946,-1.9633 -1.73671,-8.37978 -1.76682,-17.51539 L 521.69675,471.405 H 494.8743 468.05185 v 13.99448 c 0,7.69698 -0.58846,15.54226 -1.30769,17.43398 -1.91671,5.04132 -8.93723,8.79429 -16.46219,8.80021 l -6.37033,0.005 v 44.92761 44.92761 h 6.77221 c 8.10724,0 14.32966,2.91216 16.08449,7.52772 0.70592,1.85674 1.28351,9.97514 1.28351,18.04092 v 14.66504 h 26.82245 26.82245 z m 127.12359,3.54916 0.3875,-11.73482 H 593.499 537.7902 v 12.08497 12.08499 l 55.32131,-0.35016 55.32131,-0.35016 z M 233.35535,556.56591 V 511.6383 H 202.50953 171.6637 v 44.92761 44.92761 h 30.84583 30.84582 z m 195.80391,0 V 511.6383 h -31.51638 -31.51639 v 44.92761 44.92761 h 31.51639 31.51638 z m 194.46279,0 V 511.6383 H 592.77623 561.9304 v 44.92761 44.92761 h 30.84583 30.84582 z m -366.1265,-73.09118 v -12.07011 h -55.65659 -55.65659 v 11.17602 c 0,6.14682 0.40234,11.57837 0.89408,12.0701 0.49175,0.49175 25.53721,0.89409 55.6566,0.89409 h 54.7625 z m 195.80392,0 v -12.07011 h -55.65659 -55.6566 v 12.07011 12.0701 h 55.6566 55.65659 z m 195.52084,-0.33528 0.3875,-11.73483 H 593.499 537.7902 v 12.08498 12.08499 l 55.32131,-0.35017 55.32131,-0.35015 z m 31.12889,-42.57417 v -14.74587 l -133.77699,-0.34176 -133.77699,-0.34176 -0.41258,-5.70358 c -0.36854,-5.09487 -0.0371,-5.84629 3.10483,-7.04089 2.23563,-0.84998 44.04941,-1.33732 114.7433,-1.33732 h 111.22587 v -55.50189 -55.50188 l -19.78156,-11.75448 c -10.87986,-6.46497 -23.40259,-13.97639 -27.82829,-16.69206 -17.81644,-10.9324 -31.22332,-18.80216 -32.03123,-18.80216 -0.46958,0 -3.8259,-2.08906 -7.45849,-4.64234 -3.63259,-2.55328 -8.73262,-5.72169 -11.3334,-7.04089 -4.43462,-2.2494 -13.31492,-7.50941 -32.32649,-19.14775 -18.04033,-11.04377 -31.22282,-18.79056 -31.97537,-18.79056 -0.43887,0 -4.28703,-2.31444 -8.55149,-5.1432 -4.26445,-2.82876 -13.78861,-8.65513 -21.16478,-12.94749 -7.37618,-4.29237 -15.5235,-9.15449 -18.10516,-10.80472 -2.58166,-1.65023 -7.4097,-4.48195 -10.72898,-6.29271 -3.31928,-1.81077 -9.47621,-5.4973 -13.68208,-8.1923 -4.20587,-2.695 -8.00677,-4.9 -8.44644,-4.9 -0.43968,0 -4.24058,2.20698 -8.44645,4.90439 -4.20587,2.69741 -10.3628,6.48514 -13.68208,8.41717 -9.32967,5.43045 -14.37619,8.41736 -22.59877,13.37563 -4.16707,2.51276 -10.89577,6.39995 -14.95266,8.6382 -4.0569,2.23825 -10.23663,6.06653 -13.73275,8.50729 -3.49612,2.44075 -6.8154,4.46345 -7.37618,4.49487 -0.56077,0.0314 -8.26166,4.54522 -17.11307,10.03065 -8.85141,5.48543 -19.111,11.57832 -22.79909,13.53975 -3.68808,1.96144 -10.14265,5.89671 -14.34348,8.74506 -4.20082,2.84837 -8.19457,5.17884 -8.87498,5.17884 -0.68042,0 -5.28706,2.71577 -10.23697,6.03505 -4.94991,3.31928 -9.30613,6.03506 -9.68049,6.03506 -0.64367,0 -34.68064,20.15731 -52.08379,30.84497 -4.4257,2.71792 -12.42215,7.52027 -17.76987,10.67187 l -9.72314,5.73018 v 55.48064 55.48062 l 114.71514,0.35738 c 100.24724,0.3123 114.8755,0.61109 115.98658,2.36906 1.78226,2.81992 1.61982,8.54409 -0.29684,10.46075 -1.23022,1.23022 -33.14063,1.60935 -135.4534,1.60935 H 115.33655 v 14.75235 14.75235 H 397.64288 679.9492 Z M 140.96252,289.8494 c 8.95945,-4.73128 19.13256,-10.70806 32.71287,-19.21905 4.4257,-2.77367 9.61862,-5.74151 11.53981,-6.59521 1.92119,-0.85369 6.59217,-3.73048 10.37995,-6.39285 3.78778,-2.66236 7.27107,-4.84066 7.74065,-4.84066 0.80123,0 13.62682,-7.52392 32.03123,-18.79057 17.34038,-10.61528 27.75828,-16.83036 31.2355,-18.63439 1.99853,-1.03686 7.14652,-4.20526 11.43998,-7.04089 4.29347,-2.83563 8.23001,-5.15569 8.74789,-5.15569 0.51787,0 4.2471,-2.17696 8.28717,-4.83769 4.04008,-2.66073 9.72857,-6.0534 12.6411,-7.53928 2.91253,-1.48588 8.34407,-4.65094 12.0701,-7.03346 9.40359,-6.0129 25.60346,-15.75256 29.96337,-18.01453 1.99852,-1.03686 7.14652,-4.20526 11.43997,-7.04089 4.29347,-2.83563 8.23002,-5.15569 8.74789,-5.15569 0.51788,0 4.24711,-2.17696 8.28717,-4.83769 9.34087,-6.15173 16.70974,-9.91466 19.41571,-9.91466 2.70597,0 10.07483,3.76293 19.4157,9.91466 4.04006,2.66073 7.76929,4.83769 8.28717,4.83769 0.51787,0 4.45442,2.32006 8.74789,5.15569 4.29345,2.83563 9.4571,6.00403 11.47478,7.04089 2.01766,1.03686 7.14746,4.04089 11.39954,6.67562 4.25207,2.63472 13.7661,8.32655 21.14228,12.64851 7.37617,4.32196 16.53206,9.86166 20.34642,12.31044 3.81436,2.44878 7.9895,4.8569 9.27809,5.35138 1.28859,0.49448 6.31508,3.5101 11.16996,6.70138 4.85489,3.19129 9.31281,5.80355 9.90649,5.80503 0.59369,0.001 4.51648,2.33317 8.7173,5.18153 4.20083,2.84837 10.6554,6.78364 14.34348,8.74507 3.68809,1.96143 13.94768,8.05433 22.79909,13.53974 8.85141,5.48544 16.49,9.99923 16.97466,10.03066 0.48465,0.0314 5.01094,2.77169 10.05842,6.08949 5.04747,3.31779 9.66297,6.03357 10.25666,6.03505 0.59369,10e-4 4.51647,2.33177 8.7173,5.17843 4.20082,2.84664 10.16761,6.462 13.25952,8.03413 3.0919,1.57213 7.91994,4.42268 10.72898,6.33458 2.80903,1.91189 8.34264,5.01055 12.29691,6.88594 6.39626,3.03355 7.75718,3.23973 12.33344,1.86865 7.00947,-2.10009 10.65224,-7.04661 10.65224,-14.46471 0,-6.12159 -3.05096,-13.83432 -5.47252,-13.83432 -0.75914,0 -4.95617,-2.42836 -9.32673,-5.39634 -4.37056,-2.96799 -9.01461,-5.79027 -10.32011,-6.27175 -1.30552,-0.48148 -6.36453,-3.48467 -11.24227,-6.67376 -4.87773,-3.1891 -9.28526,-5.79836 -9.79452,-5.79836 -0.50923,0 -5.08619,-2.71577 -10.171,-6.03505 -5.08482,-3.31928 -9.6111,-6.03505 -10.05842,-6.03505 -0.44732,0 -4.99821,-2.73183 -10.11307,-6.07073 -5.11487,-3.3389 -10.36342,-6.4602 -11.66345,-6.93622 -1.30003,-0.47603 -5.82184,-3.19008 -10.04846,-6.03123 -4.22663,-2.84116 -8.75292,-5.55967 -10.05842,-6.04114 -1.30551,-0.48147 -6.36452,-3.48466 -11.24227,-6.67376 -4.87773,-3.1891 -9.28526,-5.79836 -9.79451,-5.79836 -0.50924,0 -5.0862,-2.71577 -10.17101,-6.03505 -5.08481,-3.31928 -9.6111,-6.03505 -10.05842,-6.03505 -0.44732,0 -4.97361,-2.71578 -10.05842,-6.03505 -5.08481,-3.31928 -9.66177,-6.03506 -10.17101,-6.03506 -0.50925,0 -5.08988,-2.74324 -10.1792,-6.0961 -5.0893,-3.35285 -10.2872,-6.47415 -11.55086,-6.93622 -1.26366,-0.46207 -5.74245,-3.1557 -9.95287,-5.98586 -4.21043,-2.83015 -9.03847,-5.68349 -10.72899,-6.34075 -1.69051,-0.65727 -5.35346,-2.75732 -8.13989,-4.66678 -2.78641,-1.90946 -7.01094,-4.46989 -9.38785,-5.68983 -2.3769,-1.21995 -8.36318,-4.84786 -13.30284,-8.06204 -4.93967,-3.21417 -9.39787,-5.84396 -9.9071,-5.84396 -0.50925,0 -5.21854,-2.86064 -10.46508,-6.35699 -9.1055,-6.06798 -9.96597,-6.35699 -18.92703,-6.35699 -8.96106,0 -9.82154,0.28901 -18.92704,6.35699 -5.24654,3.49635 -9.95583,6.35699 -10.46508,6.35699 -0.50923,0 -4.96743,2.62979 -9.9071,5.84396 -4.93966,3.21418 -10.9114,6.83458 -13.27054,8.04534 -2.35914,1.21076 -6.97295,4.01252 -10.25292,6.22614 -3.27996,2.21363 -6.41147,4.02477 -6.95889,4.02477 -0.54742,0 -5.11759,2.71578 -10.15593,6.03506 -5.03836,3.31927 -9.63274,6.03626 -10.20974,6.03774 -0.57701,0.001 -5.27364,2.78082 -10.43697,6.1763 -5.16332,3.39549 -11.6015,7.30407 -14.30708,8.68575 -2.70557,1.38168 -7.62113,4.33564 -10.92347,6.56437 -3.30234,2.22872 -6.40149,4.05222 -6.88697,4.05222 -0.4855,0 -5.04303,2.71577 -10.12784,6.03505 -5.08481,3.31928 -9.66177,6.03505 -10.17101,6.03505 -0.50925,0 -5.04818,2.71578 -10.08653,6.03505 -5.03835,3.31928 -9.64079,6.03506 -10.22764,6.03506 -0.58685,0 -4.19194,2.10445 -8.0113,4.67655 -3.81936,2.57211 -9.84635,6.26714 -13.39332,8.21118 -3.54697,1.94405 -9.56884,5.5729 -13.38193,8.06412 -3.81309,2.49121 -7.31536,4.52948 -7.78282,4.52948 -0.46747,0 -5.01024,2.71577 -10.09506,6.03505 -5.08481,3.31928 -9.66177,6.03505 -10.17101,6.03505 -0.50924,0 -4.91677,2.60926 -9.79451,5.79836 -4.87774,3.18909 -9.93676,6.19228 -11.24226,6.67376 -1.30551,0.48148 -5.94956,3.30376 -10.32012,6.27175 -4.37055,2.96798 -8.56758,5.39634 -9.32673,5.39634 -2.40317,0 -5.47252,7.69327 -5.47252,13.71677 0,6.84772 2.77616,11.34616 8.55409,13.86084 6.07108,2.64228 7.58007,2.41247 17.07188,-2.59994 z"
       id="path1117"
       transform="scale(0.26458333)"
       sodipodi:nodetypes="sscsscsscccsscsscssccccssssssssssssssssssssssssssssssssssssssssssscccsscsscsscccsscsscssssscccccccccsssssccccsssccsssscccccsccccsccccsscccccscccccccccccssccccsscccssscccsssccccccccccccccccccccccccccccccccccccccccccccsssccccccccccccccccccccccccssscccssssssssssssssssssssssssssscccssssccccccsssssssssssssssssssssssssscssssscsssssssssssssssssssssssssssssssssssssssscsssssssssssssssssssss" /><path
       style="fill:#e6e6e6;stroke:#b3b3b3;stroke-width:0;stroke-linecap:round;stroke-miterlimit:3.6;stroke-dasharray:none"
       d="m 115.33655,440.5588 v -14.75235 l 133.77699,-0.0205 c 73.57734,-0.0107 134.57313,-0.52536 135.54619,-1.14235 1.10859,-0.70293 1.60937,-3.07396 1.34113,-6.3498 -0.41606,-5.0811 -0.59765,-5.25345 -6.46314,-6.13442 -3.31928,-0.49853 -55.3783,-0.95116 -115.68671,-1.00584 l -109.65166,-0.0994 0.35016,-55.13995 0.35016,-55.13996 31.8314,-19.13419 c 35.13159,-21.11798 57.40335,-34.37995 66.68762,-39.70988 6.73757,-3.86792 54.1222,-32.17733 77.16805,-46.10318 44.36769,-26.80993 66.81712,-39.7074 68.1938,-39.17818 0.84952,0.32657 17.83922,10.40166 37.75489,22.38908 19.91567,11.98742 40.1331,24.03001 44.92761,26.76132 4.79452,2.73132 23.50318,13.90391 41.57481,24.828 18.07162,10.92408 37.38379,22.44701 42.91592,25.60651 5.53213,3.1595 24.54255,14.45422 42.24537,25.09937 l 32.18694,19.35483 0.35015,55.18311 0.35017,55.18312 H 528.5269 c -61.90772,0 -113.51411,0.36632 -114.68086,0.81405 -1.53447,0.58883 -2.12138,2.62954 -2.12138,7.37617 v 6.56213 H 545.83693 679.9492 v 14.75235 14.75235 H 397.64288 115.33655 Z"
       id="path1422"
       transform="scale(0.26458333)" /><path
       style="fill:#b3b3b3;stroke:#b3b3b3;stroke-width:0;stroke-linecap:round;stroke-miterlimit:3.6;stroke-dasharray:none"
       d="m 45.685485,132.20759 -6.653226,-0.12817 v -1.01104 c 0,-0.55607 -0.102587,-2.21063 -0.22797,-3.67681 L 38.576321,124.7258 H 53.352676 68.12903 v 3.90323 3.90323 l -7.895159,-0.0983 c -4.342339,-0.054 -10.889114,-0.15593 -14.548386,-0.22641 z"
       id="path1424" /><path
       style="fill:#e6e6e6;stroke:#b3b3b3;stroke-width:0;stroke-linecap:round;stroke-miterlimit:3.6;stroke-dasharray:none"
       d="M 171.6637,556.56591 V 511.6383 h 30.84583 30.84582 v 44.92761 44.92761 H 202.50953 171.6637 Z"
       id="path1426"
       transform="scale(0.26458333)" /><path
       style="fill:#b3b3b3;stroke:#b3b3b3;stroke-width:0;stroke-linecap:round;stroke-miterlimit:3.6;stroke-dasharray:none"
       d="M 172.66955,640.72321 147.5235,640.3269 v -3.12649 c 0,-1.71956 -0.38773,-6.83604 -0.86162,-11.36995 l -0.86161,-8.24346 h 55.84764 55.84764 v 12.0701 12.0701 l -29.83997,-0.30384 c -16.41199,-0.16711 -41.15571,-0.48218 -54.98603,-0.70015 z"
       id="path1428"
       transform="scale(0.26458333)" /><path
       style="fill:#b3b3b3;stroke:#b3b3b3;stroke-width:0;stroke-linecap:round;stroke-miterlimit:3.6;stroke-dasharray:none"
       d="M 341.98628,629.6571 V 617.587 h 55.6566 55.65659 v 12.0701 12.0701 h -55.65659 -55.6566 z"
       id="path1430"
       transform="scale(0.26458333)" /><path
       style="fill:#ececec;stroke:#b3b3b3;stroke-width:0;stroke-linecap:round;stroke-miterlimit:3.6;stroke-dasharray:none"
       d="M 366.12649,556.56591 V 511.6383 h 31.51639 31.51638 v 44.92761 44.92761 h -31.51638 -31.51639 z"
       id="path1432"
       transform="scale(0.26458333)" /><path
       style="fill:#b3b3b3;stroke:#b3b3b3;stroke-width:0;stroke-linecap:round;stroke-miterlimit:3.6;stroke-dasharray:none"
       d="m 90.483869,128.09677 v -3.37097 h 14.725811 14.7258 v 3.37097 3.37097 h -14.7258 -14.725811 z"
       id="path1434" /><path
       style="fill:#b3b3b3;stroke:#b3b3b3;stroke-width:0;stroke-linecap:round;stroke-miterlimit:3.6;stroke-dasharray:none"
       d="m 142.29022,128.18548 1.1e-4,-3.45968 h 15.17198 15.17198 l -0.13361,3.26198 c -0.0735,1.7941 -0.15745,3.29004 -0.1866,3.32432 -0.0291,0.0343 -6.79645,0.12325 -15.03847,0.1977 l -14.98549,0.13536 z"
       id="path1436" /><path
       style="fill:#ececec;stroke:#b3b3b3;stroke-width:0;stroke-linecap:round;stroke-miterlimit:3.6;stroke-dasharray:none"
       d="M 561.9304,556.56591 V 511.6383 h 30.84583 30.84582 v 44.92761 44.92761 H 592.77623 561.9304 Z"
       id="path1438"
       transform="scale(0.26458333)" /><path
       style="fill:#b3b3b3;stroke:#b3b3b3;stroke-width:0;stroke-linecap:round;stroke-miterlimit:3.6;stroke-dasharray:none"
       d="m 142.29022,166.8629 1.1e-4,-3.45967 h 15.17198 15.17198 l -0.13361,3.26198 c -0.0735,1.79408 -0.15746,3.29003 -0.1866,3.32431 -0.0291,0.0343 -6.79645,0.12325 -15.03847,0.1977 l -14.98549,0.13536 z"
       id="path1440" /><path
       style="fill:#b3b3b3;stroke:#b3b3b3;stroke-width:0;stroke-linecap:round;stroke-miterlimit:3.6;stroke-dasharray:none"
       d="m 30.516128,178.12903 v -4.08064 h 74.693552 74.69354 v 4.08064 4.08065 H 105.20968 30.516128 Z"
       id="path1444" /><path
       style="fill:#2b0000;stroke:#2b0000;stroke-width:0;stroke-linecap:round;stroke-miterlimit:3.6;stroke-dasharray:none"
       d="m 123.08172,290.94476 c -4.72025,-2.56158 -6.40405,-5.84458 -6.40405,-12.48633 0,-6.83847 1.98622,-12.07043 5.00909,-13.19462 1.3019,-0.48418 5.38461,-2.80662 9.0727,-5.16101 3.68809,-2.35438 26.31953,-15.92817 50.2921,-30.16399 48.78031,-28.96759 106.51148,-63.40472 167.78687,-100.08627 53.32203,-31.920395 45.23479,-31.402054 88.26532,-5.65725 17.39024,10.40443 36.74842,21.95535 43.01817,25.6687 6.26975,3.71336 15.02057,8.98631 19.44628,11.71769 4.4257,2.73137 17.70282,10.70379 29.5047,17.71648 104.84825,62.301 129.63312,77.08611 135.45339,80.80304 3.68809,2.35526 7.7708,4.67843 9.07271,5.16261 3.02286,1.12419 5.00908,6.35615 5.00908,13.19462 0,6.75986 -1.71618,9.98506 -6.67877,12.55131 -7.556,3.90736 -9.18167,3.28835 -40.26053,-15.32982 -10.69545,-6.40726 -33.02514,-19.68598 -49.62154,-29.50828 -16.59639,-9.8223 -35.30505,-20.99141 -41.5748,-24.82025 -6.26975,-3.82883 -16.52934,-10.00483 -22.79908,-13.72442 -6.26975,-3.7196 -33.12573,-19.73028 -59.67996,-35.57929 -55.52416,-33.13984 -55.70868,-33.24148 -60.35052,-33.24148 -4.55798,0 -5.84283,0.69457 -48.28042,26.09936 -19.91567,11.9223 -60.35052,36.03885 -89.85522,53.59234 -29.5047,17.55349 -56.66243,33.74247 -60.35052,35.97552 -66.177,40.06846 -67.91297,40.90071 -76.075,36.47134 z"
       id="path1584"
       transform="scale(0.26458333)" /><path
       style="fill:#2b0000;stroke:#2b0000;stroke-width:6.8031497;stroke-linecap:round;stroke-miterlimit:3.6;stroke-dasharray:none"
       d="m 121.31064,288.40233 c -2.67531,-2.67531 -3.29184,-4.63674 -3.29184,-10.47265 0,-3.94943 0.75438,-8.12125 1.6764,-9.2707 0.92202,-1.14945 24.91135,-15.96816 53.30963,-32.93048 169.05052,-100.97406 206.23576,-123.01232 212.40959,-125.88701 7.72629,-3.59756 16.21374,-4.12281 22.66523,-1.40266 2.37356,1.00077 41.43115,24.01453 86.79462,51.14168 45.36347,27.12715 104.20523,62.28274 130.75946,78.12354 26.55423,15.8408 49.0348,29.75621 49.95682,30.92313 0.92202,1.16694 1.6764,5.35445 1.6764,9.30558 0,6.04584 -0.56215,7.70487 -3.54863,10.47266 -6.46758,5.99394 -11.5941,4.4173 -39.36729,-12.10728 -7.74498,-4.60813 -53.00788,-31.60422 -100.5842,-59.99131 -106.75566,-63.69726 -121.59441,-72.49333 -127.00478,-75.28556 -5.47196,-2.82402 -12.75678,-2.82694 -18.23835,-0.007 -4.3995,2.26303 -96.89825,57.26889 -188.49243,112.09004 -68.31307,40.88689 -71.6402,42.37878 -78.72063,35.29835 z"
       id="path1586"
       transform="scale(0.26458333)" /><path
       style="fill:#00112b;stroke:#00112b;stroke-width:9.12386;stroke-linecap:round;stroke-miterlimit:3.6;stroke-dasharray:none"
       d="m 202.24201,499.61682 c -29.28302,-0.44394 -53.49729,-1.08913 -53.80947,-1.43374 -0.31219,-0.34461 -0.86209,-6.51074 -1.22201,-13.70251 l -0.6544,-13.07595 h 55.46971 55.46971 v 14.75235 c 0,8.11379 -0.45262,14.64315 -1.00584,14.50969 -0.55321,-0.13347 -24.96468,-0.60589 -54.2477,-1.04984 z"
       id="path1657"
       transform="scale(0.26458333)" /><path
       style="fill:#00112b;stroke:#00112b;stroke-width:9.12386;stroke-linecap:round;stroke-miterlimit:3.6;stroke-dasharray:none"
       d="m 341.98628,484.14529 v -12.74067 h 55.6566 55.65659 v 12.74067 12.74066 h -55.65659 -55.6566 z"
       id="path1659"
       transform="scale(0.26458333)" /><path
       style="fill:#00112b;stroke:#00112b;stroke-width:9.12386;stroke-linecap:round;stroke-miterlimit:3.6;stroke-dasharray:none"
       d="m 537.7902,484.36162 v -12.957 h 57.19691 57.19691 l -0.81649,11.5698 c -0.44907,6.36338 -1.02535,11.77865 -1.28062,12.03392 -0.25528,0.25528 -25.62647,0.87952 -56.38043,1.38721 l -55.91628,0.92307 z"
       id="path1661"
       transform="scale(0.26458333)" /><path
       style="fill:#00112b;stroke:#00112b;stroke-width:9.12386;stroke-linecap:round;stroke-miterlimit:3.6;stroke-dasharray:none"
       d="M 537.7902,630.54399 V 617.587 h 57.19691 57.19691 l -0.81649,11.56979 c -0.44907,6.36339 -1.02535,11.77865 -1.28062,12.03393 -0.25528,0.25527 -25.62647,0.87951 -56.38043,1.3872 l -55.91628,0.92307 z"
       id="path1663"
       transform="scale(0.26458333)" /><path
       style="fill:#00112b;stroke:#00112b;stroke-width:9.12386;stroke-linecap:round;stroke-miterlimit:3.6;stroke-dasharray:none"
       d="M 341.98628,629.6571 V 617.587 h 55.6566 55.65659 v 12.0701 12.0701 h -55.65659 -55.6566 z"
       id="path1665"
       transform="scale(0.26458333)" /><path
       style="fill:#00112b;stroke:#00112b;stroke-width:9.12386;stroke-linecap:round;stroke-miterlimit:3.6;stroke-dasharray:none"
       d="m 152.4735,640.62464 c -4.46284,-0.51177 -4.57535,-0.7923 -5.33958,-13.31451 l -0.59341,-9.72313 h 55.47752 55.47752 l 2.2e-4,11.73482 2.2e-4,11.73482 h -50.6276 c -27.84518,0 -52.32288,-0.1944 -54.39489,-0.432 z"
       id="path1667"
       transform="scale(0.26458333)" /><path
       style="fill:#00112b;stroke:#00112b;stroke-width:9.12386;stroke-linecap:round;stroke-miterlimit:3.6;stroke-dasharray:none"
       d="M 171.6637,556.56591 V 511.6383 h 30.84583 30.84582 v 44.92761 44.92761 H 202.50953 171.6637 Z"
       id="path1671"
       transform="scale(0.26458333)" /><path
       style="fill:#00112b;stroke:#00112b;stroke-width:9.12386;stroke-linecap:round;stroke-miterlimit:3.6;stroke-dasharray:none"
       d="M 366.12649,556.56591 V 511.6383 h 31.51639 31.51638 v 44.92761 44.92761 h -31.51638 -31.51639 z"
       id="path1673"
       transform="scale(0.26458333)" /><path
       style="fill:#00112b;stroke:#00112b;stroke-width:9.12386;stroke-linecap:round;stroke-miterlimit:3.6;stroke-dasharray:none"
       d="M 561.9304,556.56591 V 511.6383 h 30.84583 30.84582 v 44.92761 44.92761 H 592.77623 561.9304 Z"
       id="path1675"
       transform="scale(0.26458333)" /><text
       xml:space="preserve"
       style="font-size:16.7892px;font-family:Calibri;-inkscape-font-specification:Calibri;fill:#1a1a1a;stroke:#1a1a1a;stroke-width:1.58639;stroke-linecap:round;stroke-miterlimit:3.6;stroke-dasharray:none"
       x="80.847244"
       y="92.062584"
       id="text1731"
       transform="scale(0.9935949,1.0064464)"><tspan
         sodipodi:role="line"
         id="tspan1729"
         style="fill:#1a1a1a;stroke:#1a1a1a;stroke-width:1.58639;stroke-dasharray:none"
         x="80.847244"
         y="92.062584">BANKA</tspan></text><path
       style="fill:#d4aa00;stroke:#1a1a1a;stroke-width:0;stroke-linecap:round;stroke-miterlimit:3.6;stroke-dasharray:none"
       d="m 87.604434,75.598292 c -0.994812,-2.082548 -1.727518,-3.867684 -1.628235,-3.966966 0.09929,-0.09928 0.834771,0.0155 1.634416,0.255085 1.306689,0.391493 1.453901,0.550092 1.453901,1.566373 0,1.98991 2.402453,3.260084 4.08323,2.158796 1.521264,-0.99677 0.972613,-3.904795 -0.851422,-4.512805 -0.45339,-0.15113 0.950109,-3.856839 1.460736,-3.856839 0.161496,0 1.086641,0.592034 2.055873,1.315635 1.165709,0.870281 1.643052,1.434828 1.410139,1.667743 -1.261287,1.261285 0.724141,4.468233 2.766293,4.468233 1.387535,0 2.913855,-1.230881 2.913855,-2.349825 0,-1.142606 -0.87861,-2.825491 -1.62461,-3.11176 -0.48936,-0.187782 -0.35947,-0.476805 0.78526,-1.747247 0.75439,-0.837237 1.70698,-1.991207 2.11688,-2.564381 l 0.74527,-1.042133 0.55613,1.0609 c 0.30587,0.583493 1.18539,1.670015 1.95449,2.414494 l 1.39835,1.353595 -1.01427,1.01427 c -1.75518,1.755182 -1.25298,4.407173 0.91147,4.813226 2.45338,0.460259 4.55179,-1.601698 3.80631,-3.74019 -0.3378,-0.968996 -0.25746,-1.098198 1.51516,-2.436534 l 1.87187,-1.41328 0.77903,1.879539 0.77902,1.879536 -1.0805,1.080503 c -1.65308,1.653088 -1.32092,3.708739 0.66993,4.146002 1.79234,0.393666 3.53994,-0.946697 3.56086,-2.731103 0.01,-0.822886 0.22189,-1.018836 1.46646,-1.353965 0.80035,-0.215511 1.52876,-0.318257 1.61869,-0.228322 0.12102,0.121012 -3.1757,7.119244 -3.57424,7.587384 -0.0352,0.04137 -1.65358,-0.250317 -3.59635,-0.648197 -6.79939,-1.392526 -16.09467,-1.449755 -23.0734,-0.142058 -1.646843,0.308592 -3.234468,0.653251 -3.528055,0.765911 -0.398944,0.153088 -0.990721,-0.751705 -2.342541,-3.58162 z"
       id="path3363" /></g></svg>
