<?xml version="1.0" encoding="UTF-8" standalone="no"?>
<!-- Created with Inkscape (http://www.inkscape.org/) -->

<svg
   width="210mm"
   height="297mm"
   viewBox="0 0 210 297"
   version="1.1"
   id="svg5"
   xml:space="preserve"
   inkscape:version="1.2.1 (9c6d41e410, 2022-07-14)"
   sodipodi:docname="kino.svg"
   inkscape:export-filename="kino.png"
   inkscape:export-xdpi="96"
   inkscape:export-ydpi="96"
   xmlns:inkscape="http://www.inkscape.org/namespaces/inkscape"
   xmlns:sodipodi="http://sodipodi.sourceforge.net/DTD/sodipodi-0.dtd"
   xmlns="http://www.w3.org/2000/svg"
   xmlns:svg="http://www.w3.org/2000/svg"><sodipodi:namedview
     id="namedview7"
     pagecolor="#ffffff"
     bordercolor="#000000"
     borderopacity="0.25"
     inkscape:showpageshadow="2"
     inkscape:pageopacity="0.0"
     inkscape:pagecheckerboard="0"
     inkscape:deskcolor="#d1d1d1"
     inkscape:document-units="mm"
     showgrid="false"
     inkscape:zoom="0.74564394"
     inkscape:cx="646.42113"
     inkscape:cy="425.13589"
     inkscape:window-width="1920"
     inkscape:window-height="1017"
     inkscape:window-x="-8"
     inkscape:window-y="-8"
     inkscape:window-maximized="1"
     inkscape:current-layer="layer1" /><defs
     id="defs2" /><g
     inkscape:label="Vrstva 1"
     inkscape:groupmode="layer"
     id="layer1"><path
       style="fill:#550000;stroke:#550000;stroke-width:3.04794;stroke-linecap:square;stroke-miterlimit:3.6;paint-order:stroke fill markers"
       d="m 21.85576,154.57742 c 0,-17.6134 -0.318373,-17.20341 13.359332,-17.20341 5.396822,0 10.542257,0.39885 11.434307,0.88633 2.686438,1.46807 3.581913,6.03382 3.581913,18.26307 v 11.63565 H 36.043537 21.85576 Z"
       id="path317" /><path
       style="fill:#550000;stroke:#550000;stroke-width:3.04794;stroke-linecap:square;stroke-miterlimit:3.6;paint-order:stroke fill markers"
       d="m 55.551732,154.74814 c 0,-17.60168 -0.168159,-17.37905 13.113898,-17.36177 5.223834,0.006 10.370592,0.25136 11.437256,0.54344 2.965699,0.81211 3.824404,4.88533 3.824404,18.14088 v 12.08837 H 69.739509 55.551732 Z"
       id="path321" /><path
       style="fill:#550000;stroke:#550000;stroke-width:3.04794;stroke-linecap:square;stroke-miterlimit:3.6;paint-order:stroke fill markers"
       d="m 89.247704,155.42334 c 0,-12.27215 0.59675,-15.70785 3.014641,-17.35638 1.14629,-0.78154 18.732125,-0.90525 21.484185,-0.15112 3.14226,0.86104 3.87673,4.19727 3.87673,17.60964 v 12.63358 H 103.43547 89.247704 Z"
       id="path323" /><path
       style="fill:#550000;stroke:#550000;stroke-width:3.04794;stroke-linecap:square;stroke-miterlimit:3.6;paint-order:stroke fill markers"
       d="m 122.94367,155.52548 c 0,-13.41237 0.73448,-16.7486 3.87672,-17.60964 1.0379,-0.2844 6.16112,-0.52266 11.38494,-0.52947 13.28206,-0.0173 13.1139,-0.23991 13.1139,17.36177 v 13.41092 h -14.18778 -14.18778 z"
       id="path325" /><path
       style="fill:#550000;stroke:#550000;stroke-width:3.04794;stroke-linecap:square;stroke-miterlimit:3.6;paint-order:stroke fill markers"
       d="m 156.63966,156.52341 c 0,-12.22925 0.89546,-16.795 3.5819,-18.26307 0.89205,-0.48748 6.03749,-0.88633 11.43431,-0.88633 13.6777,0 13.35934,-0.40999 13.35934,17.20341 v 13.58164 h -14.18778 -14.18777 z"
       id="path327" /><path
       style="fill:#550000;stroke:#550000;stroke-width:3.04794;stroke-linecap:square;stroke-miterlimit:3.6;paint-order:stroke fill markers"
       d="m 118.11884,133.27073 c -1.05473,-0.8146 -3.71594,-1.32938 -6.87222,-1.32938 h -5.15092 v -3.55606 c 0,-2.76321 0.5209,-3.97444 2.33641,-5.43265 2.034,-1.63367 3.56806,-1.87659 11.85136,-1.87659 8.28331,0 9.81736,0.24292 11.85135,1.87659 1.8155,1.45821 2.33643,2.66944 2.33643,5.43265 v 3.55606 h -5.15094 c -3.15628,0 -5.81748,0.51478 -6.87221,1.32938 -0.94668,0.73115 -1.92078,1.32937 -2.16463,1.32937 -0.24385,0 -1.21794,-0.59822 -2.16463,-1.32937 z"
       id="path331" /><path
       style="fill:#550000;stroke:#550000;stroke-width:3.04794;stroke-linecap:square;stroke-miterlimit:3.6;paint-order:stroke fill markers"
       d="m 84.422859,133.27073 c -1.054722,-0.8146 -3.715923,-1.32938 -6.872205,-1.32938 h -5.150936 v -3.55606 c 0,-2.76321 0.520918,-3.97444 2.336425,-5.43265 2.033997,-1.63367 3.568049,-1.87659 11.851352,-1.87659 8.283308,0 9.817359,0.24292 11.851349,1.87659 1.815516,1.45821 2.336426,2.66944 2.336426,5.43265 v 3.55606 h -5.150929 c -3.156281,0 -5.817482,0.51478 -6.872205,1.32938 -0.946698,0.73115 -1.920788,1.32937 -2.164641,1.32937 -0.243854,0 -1.217939,-0.59822 -2.164636,-1.32937 z"
       id="path333" /><path
       style="fill:#550000;stroke:#552200;stroke-width:3.04794;stroke-linecap:square;stroke-miterlimit:3.6;paint-order:stroke fill markers"
       d="m 50.622479,133.32832 c -1.0365,-0.80051 -3.749683,-1.34082 -6.820003,-1.35817 l -5.098729,-0.0287 v -3.44871 c 0,-6.31934 1.097978,-6.92392 13.194563,-7.26528 10.435422,-0.29449 10.732632,-0.24863 12.930954,1.99609 1.562722,1.59569 2.250035,3.27811 2.250035,5.50771 v 3.21019 h -5.15093 c -3.156286,0 -5.817482,0.51479 -6.872205,1.32937 -2.163913,1.67123 -2.341357,1.67354 -4.433685,0.0577 z"
       id="path335" /><path
       style="fill:#cccccc;stroke:#552200;stroke-width:0;stroke-linecap:square;stroke-miterlimit:3.6;stroke-dasharray:none;paint-order:stroke fill markers"
       d="M 95.472466,90.064659 C 89.652325,87.028383 86.37873,82.328716 85.889714,76.30739 c -0.220975,-2.720859 -0.169118,-5.893522 0.115232,-7.050365 0.794711,-3.233182 6.611075,-9.650532 10.093278,-11.136175 13.128276,-5.601069 26.867626,7.225855 22.783106,21.270079 -1.45536,5.004098 -4.67379,8.663892 -9.68207,11.009796 -4.75252,2.226108 -9.01553,2.121747 -13.726794,-0.336066 z M 106.15202,79.392118 c 3.38296,-2.017428 6.15082,-3.923586 6.15082,-4.235895 0,-0.857745 -2.83516,-3.879493 -3.63992,-3.879493 -0.38767,0 -2.47861,-1.222339 -4.64653,-2.716327 -2.16793,-1.493976 -4.781626,-2.716325 -5.808236,-2.716325 -1.76426,0 -1.86656,0.463147 -1.86656,8.450795 0,4.647934 0.27843,8.735094 0.61873,9.08259 0.81628,0.833481 1.8968,0.364981 9.191696,-3.985345 z"
       id="path481" /><path
       style="fill:#550000;stroke:#550000;stroke-width:3.04794;stroke-linecap:square;stroke-miterlimit:3.6;paint-order:stroke fill markers"
       d="m 152.18648,133.31354 c -1.05471,-0.81458 -3.71593,-1.32936 -6.87221,-1.32936 h -5.15093 v -3.55606 c 0,-2.76321 0.52093,-3.97444 2.33643,-5.43265 2.03398,-1.63369 3.56805,-1.87659 11.85135,-1.87659 8.28331,0 9.81735,0.2429 11.85136,1.87659 1.81551,1.45821 2.33641,2.66944 2.33641,5.43265 v 3.55606 h -5.15092 c -3.15628,0 -5.81749,0.51478 -6.8722,1.32936 -0.94671,0.73115 -1.9208,1.32938 -2.16465,1.32938 -0.24386,0 -1.21793,-0.59823 -2.16464,-1.32938 z"
       id="path331-7" /><path
       style="fill:#cccccc;stroke:#cccccc;stroke-width:0.847474;stroke-linecap:square;stroke-miterlimit:3.6;stroke-dasharray:none;paint-order:stroke fill markers"
       id="path2091"
       d="m 111.45271,72.034729 c 0.49782,0.297443 0.22857,0.138882 0.80871,0.473913 0.002,0.0014 0.0199,-0.02768 0.018,-0.02901 v 0 c -0.58163,-0.332577 -0.30977,-0.178593 -0.8151,-0.462803 -0.001,-8.57e-4 -0.0128,0.01705 -0.0117,0.01788 z" /><path
       style="fill:#cccccc;stroke:#cccccc;stroke-width:0.847474;stroke-linecap:square;stroke-miterlimit:3.6;stroke-dasharray:none;paint-order:stroke fill markers"
       id="path2093"
       d="m 107.64587,69.366489 c 1.80977,1.236852 3.66442,2.398689 5.54521,3.514705 0.51458,0.247879 0.9841,0.612702 1.52807,0.795044 0.001,5.7e-4 0.008,-0.01414 0.007,-0.01468 v 0 c -0.51214,-0.250662 -0.97455,-0.59677 -1.47368,-0.872382 -1.86608,-1.143843 -3.71965,-2.309445 -5.58256,-3.458639 -0.002,-0.0018 -0.027,0.03415 -0.0244,0.03595 z" /><path
       style="fill:#cccccc;stroke:#cccccc;stroke-width:0.847474;stroke-linecap:square;stroke-miterlimit:3.6;stroke-dasharray:none;paint-order:stroke fill markers"
       id="path2095"
       d="m 106.51379,69.306515 c 1.55528,1.178585 3.19492,2.229794 4.84301,3.260913 0.66391,0.391789 1.30958,0.824734 2.00782,1.150096 8.2e-4,5.72e-4 0.009,-0.01309 0.008,-0.01371 v 0 c -0.65514,-0.402781 -1.30214,-0.820061 -1.95881,-1.220274 -1.64407,-1.038743 -3.27962,-2.091956 -4.87711,-3.206895 -0.002,-0.0018 -0.0251,0.02816 -0.0232,0.02986 z" /><path
       style="fill:#cccccc;stroke:#cccccc;stroke-width:0.847474;stroke-linecap:square;stroke-miterlimit:3.6;stroke-dasharray:none;paint-order:stroke fill markers"
       id="path2097"
       d="m 106.54474,69.370279 c 1.53084,1.202062 3.14716,2.281643 4.77099,3.34189 0.63214,0.416575 1.28077,0.804833 1.92621,1.198439 0.002,0.0014 0.0219,-0.02742 0.0198,-0.02887 v 0 c -0.63002,-0.416389 -1.25372,-0.842955 -1.89037,-1.248491 -1.62008,-1.066904 -3.23096,-2.149512 -4.80618,-3.286956 -0.002,-0.0014 -0.0222,0.02248 -0.0204,0.02399 z" /><path
       style="fill:#cccccc;stroke:#cccccc;stroke-width:0.847474;stroke-linecap:square;stroke-miterlimit:3.6;stroke-dasharray:none;paint-order:stroke fill markers"
       id="path2099"
       d="m 107.53385,70.266645 c 1.32256,0.97552 2.65402,1.937637 3.99782,2.881365 0.7909,0.552987 1.59401,1.086972 2.42154,1.578958 0.002,0.0012 0.0171,-0.0214 0.0155,-0.02254 v 0 c -0.79605,-0.539981 -1.58897,-1.084994 -2.37981,-1.633147 -1.34506,-0.944234 -2.67673,-1.909748 -4.03586,-2.83197 -0.002,-0.0014 -0.0211,0.02591 -0.0192,0.02733 z" /><path
       style="fill:#cccccc;stroke:#cccccc;stroke-width:0.847474;stroke-linecap:square;stroke-miterlimit:3.6;stroke-dasharray:none;paint-order:stroke fill markers"
       id="path2101"
       d="m 107.27011,69.814138 c 1.3225,0.951153 2.65043,1.894269 3.97652,2.840048 1.06358,0.765518 2.13692,1.516534 3.1976,2.286381 10e-4,0.0012 0.0183,-0.0199 0.0169,-0.02114 v 0 c -1.02678,-0.816938 -2.08555,-1.588171 -3.15631,-2.341656 -1.33003,-0.943194 -2.65893,-1.889516 -4.02122,-2.782146 -0.001,-8.57e-4 -0.0148,0.01755 -0.0135,0.0185 z" /><path
       style="fill:#cccccc;stroke:#cccccc;stroke-width:0.847474;stroke-linecap:square;stroke-miterlimit:3.6;stroke-dasharray:none;paint-order:stroke fill markers"
       id="path2103"
       d="m 108.8167,71.002023 c 1.38803,0.731603 2.67879,1.634296 3.94656,2.566861 0.5447,0.414717 1.08493,0.835389 1.61723,1.267092 0.002,0.0014 0.0231,-0.02251 0.0215,-0.02408 v 0 c -0.5167,-0.451336 -1.03623,-0.899724 -1.58322,-1.311645 -1.26709,-0.940712 -2.56491,-1.849612 -3.98519,-2.526244 -0.002,-0.0012 -0.0187,0.02679 -0.0168,0.02803 z" /><path
       style="fill:#cccccc;stroke:#cccccc;stroke-width:0;stroke-linecap:square;stroke-miterlimit:3.6;stroke-dasharray:none;paint-order:stroke fill markers"
       id="path2109"
       d="m 112.05701,76.527675 c 0.35963,-0.710161 0.6279,-1.458964 0.78974,-2.242814 0.0113,-0.103789 0.13136,-0.790822 -0.17138,-0.632602 -0.1082,0.102587 -0.0932,0.267779 -0.093,0.407118 2.5e-4,0.160204 0.0104,0.394348 0.0159,0.549698 0.0141,0.340279 0.0291,0.681966 0.002,1.022092 -0.0104,0.127447 -0.0289,0.300642 -0.081,0.424182 -0.0146,0.03446 -0.0414,0.06176 -0.0621,0.09265 -0.11379,0.06466 -0.2219,-0.01947 -0.28435,-0.120741 0.1971,-0.194758 0.28475,-0.455443 0.37428,-0.716896 0.10507,-0.396345 0.21444,-0.798373 0.002,-1.173852 -0.0846,-0.102072 -0.32818,-0.30599 -0.26244,-0.0021 0.1129,0.414801 0.24909,0.8369 0.251,1.272808 5.5e-4,0.105776 -0.0134,0.211099 -0.0201,0.316644 -0.0302,0.165837 -0.12478,0.802184 -0.37799,0.793031 -0.0946,-0.05321 -0.0566,-0.166179 -0.0286,-0.250424 0.17971,-0.462833 0.26152,-0.95516 0.31882,-1.447965 0.0115,-0.355538 0.0318,-0.768868 -0.33362,-0.929168 -0.14924,-0.02243 -0.27777,-0.02965 -0.181,0.160601 0.22591,0.395038 0.36187,0.831265 0.45607,1.277431 0.0564,0.459882 -0.11364,0.8572 -0.41392,1.183428 -0.0653,0.05684 -0.13203,0.122424 -0.21478,0.15195 -0.007,0.0026 -0.0278,0.0084 -0.0221,0.0035 0.11585,-0.100158 -0.0317,0.08665 0.0977,-0.09639 0.2885,-0.394988 0.42817,-0.874126 0.55796,-1.34386 0.0618,-0.37362 0.2457,-0.8195 0.0803,-1.190459 -0.0812,-0.118986 -0.18378,-0.219151 -0.27506,-0.329524 -0.005,0.02737 -0.0164,0.05435 -0.0143,0.08205 0.004,0.04948 0.0227,0.09647 0.0321,0.145156 0.0246,0.128869 0.0627,0.365491 0.0724,0.48874 0.0231,0.290157 0.009,0.374802 -0.003,0.670291 -0.0524,0.343118 -0.13757,1.110494 -0.45821,1.312161 -0.0469,-0.0014 -0.15231,-0.06442 -0.12555,-0.126396 0.18468,-0.13086 0.2845,-0.356177 0.3883,-0.552817 0.19998,-0.45019 0.40035,-0.920318 0.37768,-1.425018 -0.0236,-0.191648 -0.1233,-0.357505 -0.15003,-0.548134 -0.0271,-0.0059 0.0223,-0.165357 0.0223,-0.162159 0.002,0.216924 -0.0468,-0.135192 0.0138,0.20441 0.0812,0.56681 -0.0193,1.134326 -0.1306,1.688574 -0.0928,0.314497 -0.1402,0.703062 -0.38339,0.941084 -0.0915,0.04297 -0.0658,0.07154 -0.0125,-0.0012 0.0214,-0.02912 0.14822,-0.303743 0.14838,-0.304091 0.24156,-0.526327 0.41351,-1.081457 0.48621,-1.659466 0.0273,-0.263683 -0.003,-0.49904 -0.15804,-0.710184 -0.0541,-0.07831 -0.1332,-0.142816 -0.17442,-0.228973 -0.004,0.02296 -0.0161,0.04554 -0.0139,0.06893 0.003,0.03378 0.0218,0.06414 0.0291,0.09719 0.0246,0.109004 0.0459,0.270843 0.051,0.376873 0.0128,0.264479 -0.002,0.415772 -0.0165,0.687557 -0.0681,0.579434 -0.096,1.204036 -0.35785,1.733533 -0.0845,0.114388 -0.0785,-0.05405 -0.0688,-0.110875 0.0929,-0.14025 0.17401,-0.288135 0.24527,-0.443368 0.21827,-0.647119 0.39402,-1.321003 0.43813,-2.007485 0.0133,-0.183415 -0.0632,-0.253704 -0.18085,-0.358925 -0.0433,-0.0427 -0.08,-0.09198 -0.11027,-0.145347 -0.0225,-0.03945 -0.029,-0.06353 -0.0314,-0.0607 -0.0161,0.01914 -0.0196,0.04648 -0.0295,0.06973 0.0792,0.433883 0.0707,0.879426 0.0615,1.318875 -0.0451,0.574189 -0.0695,1.202387 -0.39261,1.69366 -0.0866,0.0964 -0.16905,0.08844 -0.26503,0.01802 -0.057,-0.04455 0.007,-0.09707 0.0382,-0.142539 0.32454,-0.48485 0.51176,-1.047881 0.69678,-1.600997 0.0338,-0.167971 0.28221,-0.790797 0.17615,-0.959657 -0.008,-0.01397 -0.0253,-0.02051 -0.0381,-0.03075 -0.0247,-0.02109 -0.0521,0.0014 -0.0774,-0.0038 -0.0553,-0.01149 -0.0971,-0.174579 -0.11324,-0.21536 -0.0104,-0.02859 -0.0204,-0.05712 -0.0301,-0.08579 -0.0214,-0.06199 -0.0396,-0.125986 -0.0674,-0.185417 -0.004,-0.0081 -0.0104,-0.03183 -0.013,-0.02339 -0.0135,0.03811 -0.0142,0.07991 -0.0213,0.11987 0.0782,0.373529 0.23514,0.729644 0.2865,1.109675 0.0128,0.09472 0.0131,0.190797 0.0195,0.286193 -0.007,0.689512 -0.25725,1.335533 -0.5283,1.953833 -0.21844,0.420595 -0.41562,0.863613 -0.69361,1.247448 0.0239,-0.02334 0.0526,-0.04237 0.0718,-0.07003 0.0392,-0.05642 0.0568,-0.126076 0.0868,-0.188204 0.0374,-0.07712 0.078,-0.150476 0.12285,-0.223118 0.24107,-0.326815 0.39852,-0.707368 0.55999,-1.080273 0.28851,-0.717948 0.56178,-1.456547 0.63585,-2.235679 -0.001,-0.05616 -0.002,-0.112306 -0.004,-0.168459 -6e-5,-0.0012 -0.0155,-2.2e-4 -0.0154,8.57e-4 v 0 c -0.002,0.05532 -0.005,0.110662 -0.007,0.165992 -0.13709,0.764661 -0.36836,1.506212 -0.66268,2.221243 -0.15649,0.371642 -0.30655,0.753024 -0.54153,1.080557 -0.0622,0.100734 -0.1903,0.306008 -0.21276,0.416246 -0.006,0.03309 0.002,0.06765 0.002,0.101486 0.3046,-0.367787 0.48944,-0.831042 0.71453,-1.250426 0.27465,-0.626721 0.52706,-1.280741 0.5282,-1.9803 -0.007,-0.09755 -0.009,-0.195819 -0.0227,-0.292665 -0.0533,-0.379557 -0.20759,-0.735612 -0.29486,-1.106414 -0.0206,-0.02881 -0.0401,-0.0585 -0.0618,-0.08641 -0.0141,-0.01803 0.0193,0.04177 0.0273,0.06341 0.0277,0.0757 0.0498,0.153438 0.0784,0.228804 0.0415,0.102981 0.0763,0.254664 0.20656,0.236328 0.0583,0.02544 0.0391,0.118142 0.0321,0.167862 -0.0373,0.264486 -0.1268,0.518907 -0.20178,0.773061 -0.1831,0.548963 -0.36547,1.107475 -0.67699,1.595213 -0.0407,0.06443 -0.0992,0.132403 -0.0267,0.193609 0.11639,0.0946 0.23232,0.09145 0.33808,-0.02702 0.33481,-0.497024 0.36894,-1.1343 0.40764,-1.720767 0.006,-0.442477 0.0104,-0.891893 -0.0794,-1.326914 -0.0174,-0.0122 -0.0323,-0.02954 -0.052,-0.0366 -0.022,-0.0077 0.0202,0.04335 0.0319,0.06416 0.0319,0.05703 0.0705,0.109698 0.11729,0.15457 0.12191,0.107037 0.16968,0.131116 0.15931,0.325328 -0.0584,0.679146 -0.23271,1.344698 -0.43404,1.991586 -0.069,0.160075 -0.15198,0.307813 -0.23832,0.455812 -0.0183,0.118049 0.0359,0.27905 0.15418,0.130631 0.27573,-0.531592 0.3085,-1.164645 0.37296,-1.752299 0.0129,-0.309029 0.0286,-0.610767 -0.0188,-0.917526 -0.003,-0.02034 -0.0392,-0.221952 -0.0658,-0.260968 -0.0145,-0.02114 -0.0423,-0.0275 -0.0635,-0.04124 0.0208,0.09928 0.13188,0.162505 0.17869,0.246473 0.14784,0.203528 0.17072,0.42932 0.14203,0.681803 -0.0768,0.571949 -0.2503,1.121201 -0.48082,1.646416 -0.0274,0.06056 -0.0541,0.121425 -0.0821,0.181674 -0.0378,0.08136 -0.16534,0.317048 0.0252,0.164364 0.25146,-0.243968 0.31168,-0.634366 0.4045,-0.960649 0.11273,-0.560128 0.2122,-1.134043 0.11987,-1.705971 -0.0185,-0.08817 -0.0104,-0.160181 -0.0936,-0.209673 -0.0265,-0.01562 -0.0303,0.183464 -0.0274,0.187367 0.0269,0.189003 0.12211,0.354609 0.14561,0.544497 0.0166,0.49623 -0.18821,0.956918 -0.37808,1.402027 -0.10498,0.205964 -0.20705,0.411622 -0.37824,0.565753 -0.0176,0.107125 0.0983,0.179434 0.18948,0.161702 0.35844,-0.238059 0.42333,-0.954007 0.48366,-1.344158 0.0157,-0.400517 0.003,-0.77731 -0.0813,-1.169555 -0.0105,-0.04891 -0.0158,-0.100281 -0.0366,-0.145474 -0.009,-0.0214 -0.0346,-0.03096 -0.0519,-0.04643 0.0831,0.114092 0.18995,0.206096 0.26814,0.324296 0.15627,0.34614 -0.0423,0.81562 -0.0959,1.163715 -0.12639,0.465164 -0.25933,0.941025 -0.53816,1.336375 -0.20359,0.298904 0.12751,0.06405 0.20638,-0.01839 0.31161,-0.336191 0.4869,-0.744712 0.4269,-1.220383 -0.0941,-0.45024 -0.23167,-0.891249 -0.47046,-1.283554 -0.0844,-0.151022 -0.004,-0.115486 0.12855,-0.105927 0.34782,0.146383 0.31332,0.563024 0.30339,0.891765 -0.0575,0.489273 -0.13687,0.978375 -0.30277,1.442399 -0.0335,0.107959 -0.0639,0.236086 0.0569,0.294902 0.33377,-0.03391 0.37846,-0.579151 0.4346,-0.830417 0.006,-0.107719 0.0206,-0.215223 0.0197,-0.323152 -0.003,-0.438177 -0.1385,-0.863846 -0.26397,-1.277142 -0.006,-0.02485 -0.0118,-0.05011 -0.0195,-0.07457 -0.003,-0.0095 -0.0164,-0.01765 -0.0128,-0.02697 0.0211,-0.05497 0.22172,0.10557 0.21976,0.136166 0.20029,0.356359 0.0866,0.766566 -0.0127,1.14107 -0.0688,0.2068 -0.078,0.26079 -0.17057,0.447401 -0.0237,0.04764 -0.05,0.09407 -0.0794,0.138089 -0.0286,0.04277 -0.0753,0.07188 -0.0988,0.117855 -0.006,0.01274 -0.005,0.02839 -0.007,0.04256 0.0767,0.130134 0.21148,0.214331 0.34892,0.120829 0.023,-0.03405 0.0522,-0.06437 0.069,-0.102144 0.17544,-0.395586 0.0902,-1.036349 0.0896,-1.460299 -0.006,-0.140404 -0.0188,-0.398968 -0.0214,-0.54676 -0.002,-0.123744 -0.0238,-0.281401 0.0741,-0.373867 0.0344,-0.03211 0.0693,-0.03813 0.0941,0.01902 0.0768,0.176627 0.006,0.398514 -0.008,0.57569 -0.168,0.778014 -0.43715,1.52072 -0.77023,2.238943 -8.1e-4,0.0028 0.0367,0.01391 0.0375,0.01117 z" /><path
       style="fill:#cccccc;stroke:#cccccc;stroke-width:0;stroke-linecap:square;stroke-miterlimit:3.6;stroke-dasharray:none;paint-order:stroke fill markers"
       id="path2111"
       d="m 112.26944,76.126711 c 0.14822,-0.245301 0.27673,-0.503315 0.39705,-0.76436 0.0418,-0.09055 0.13597,-0.296136 0.1671,-0.412017 0.004,-0.01414 -0.001,-0.02934 -0.002,-0.044 -0.0315,0.02206 -0.0703,0.0358 -0.0946,0.06614 -0.0431,0.05385 -0.0697,0.120036 -0.10337,0.18075 -0.0484,0.08733 -0.0957,0.175361 -0.14303,0.263359 -0.15671,0.291476 -0.31393,0.582194 -0.47545,0.870842 -0.0479,0.08342 -0.12575,0.222524 -0.18268,0.312018 -0.007,0.01145 -0.0353,0.02494 -0.0243,0.03256 0.0438,0.03049 0.0699,-0.05586 0.0989,-0.111891 0.0272,-0.05242 0.0546,-0.104675 0.0818,-0.157016 0.18858,-0.375595 0.3917,-0.74519 0.54851,-1.136922 0.0264,-0.06573 0.049,-0.132945 0.0736,-0.199419 0.0122,-0.04084 0.0584,-0.170134 0.0556,-0.230903 -5.5e-4,-0.01225 -0.005,-0.03367 -0.0174,-0.03205 -0.0777,0.01079 -0.10769,0.101516 -0.13567,0.158769 -0.0265,0.05393 -0.0496,0.109519 -0.0742,0.164279 -0.17229,0.40748 -0.32269,0.824621 -0.51156,1.224402 -0.0121,0.0215 -0.0242,0.04301 -0.0363,0.06452 -0.003,0.0018 -0.0125,0.0065 -0.009,0.0054 0.0134,-0.004 0.0314,-0.0028 0.0396,-0.01459 0.0158,-0.02299 0.0164,-0.05385 0.0255,-0.08039 0.0143,-0.04121 0.0295,-0.08216 0.0455,-0.122764 0.0212,-0.05397 0.0439,-0.107276 0.0658,-0.160916 0.14275,-0.347973 0.31549,-0.683889 0.42413,-1.046126 0.0165,-0.05492 0.0285,-0.111204 0.0426,-0.166806 0.005,-0.03805 0.0151,-0.0757 0.0162,-0.114139 0.002,-0.08173 -0.0457,-0.128376 -0.11814,-0.06791 -0.0443,0.03695 -0.0831,0.137865 -0.10405,0.182838 -0.12468,0.357695 -0.19387,0.732534 -0.28905,1.099216 -0.0135,0.04593 -0.0337,0.125575 -0.057,0.173949 -0.003,0.0057 -0.0184,0.01216 -0.0126,0.0138 0.0387,0.01069 0.029,-0.02065 0.0314,-0.03999 0.003,-0.0215 0.006,-0.04283 0.009,-0.06426 0.0845,-0.327145 0.22329,-0.636551 0.34804,-0.94874 0.0404,-0.119621 0.098,-0.235083 0.12452,-0.359668 0.002,-0.01157 0.0138,-0.03242 0.003,-0.03544 -0.0745,-0.02039 -0.0864,0.03918 -0.11409,0.08697 -0.14617,0.310443 -0.25256,0.639079 -0.373,0.960821 -0.0342,0.08416 -0.0654,0.170304 -0.11215,0.248082 -0.001,0.0023 10e-4,-0.0064 0.003,-0.0068 0.0104,-0.0021 0.0241,0.0081 0.0316,5.71e-4 0.0104,-0.0103 0.006,-0.02853 0.0104,-0.04281 0.089,-0.26335 0.2143,-0.512059 0.32976,-0.763653 0.0638,-0.143937 0.13087,-0.287147 0.17937,-0.437695 0.007,-0.02414 0.0148,-0.04862 0.0195,-0.07358 0.002,-0.01145 0.0117,-0.03118 0.001,-0.03498 -0.0224,-0.008 -0.0468,0.0068 -0.0703,0.0103 -0.15753,0.223043 -0.23028,0.498579 -0.30928,0.759125 -0.0438,0.143598 -0.0786,0.289977 -0.12153,0.433871 -0.006,0.02243 -0.029,0.108453 -0.0452,0.113668 0.0104,-5.72e-4 0.0224,0.0048 0.0306,-0.0014 0.006,-0.0047 0.002,-0.0162 0.003,-0.02419 0.002,-0.01488 0.005,-0.02992 0.008,-0.04445 0.0279,-0.100013 0.0746,-0.195371 0.11545,-0.289814 0.11878,-0.272001 0.24083,-0.546518 0.29712,-0.84097 0.003,-0.03511 0.011,-0.128779 -0.0635,-0.07825 -0.031,0.02109 -0.11958,0.23812 -0.13141,0.265055 -0.1217,0.292222 -0.24071,0.586626 -0.33195,0.890871 -0.003,0.01246 -0.0199,0.03247 -0.008,0.03732 0.0192,0.0082 0.045,-8.57e-4 0.0608,-0.01499 0.006,-0.0051 0.0601,-0.147228 0.0615,-0.150618 0.0415,-0.108257 0.0542,-0.143888 0.0958,-0.257275 0.086,-0.220382 0.16618,-0.44362 0.26208,-0.659694 -0.0168,0.0029 -0.0376,-0.003 -0.0504,0.0088 -0.0148,0.01371 -0.0139,0.03842 -0.0209,0.05758 -0.0115,0.03143 -0.0232,0.06276 -0.0347,0.0942 -0.0557,0.152032 -0.11008,0.30449 -0.1654,0.456625 -0.10044,0.268186 -0.19082,0.541589 -0.31357,0.800051 -0.0109,0.01036 -0.05,0.08684 0.003,0.02977 0.002,-0.0026 -0.024,-0.0386 -0.027,-0.04254 -0.03,-0.02588 -0.0181,-0.06166 -0.007,-0.09565 0.0786,-0.197215 0.20229,-0.370528 0.31778,-0.54565 0.0647,-0.09709 0.0306,-0.04661 0.0838,-0.124574 0.006,-0.0084 0.025,-0.01897 0.0173,-0.02536 -0.0443,-0.03634 -0.0738,0.03699 -0.0866,0.05552 -0.0196,0.02826 -0.0392,0.05655 -0.0588,0.08482 -0.12019,0.172796 -0.23522,0.35077 -0.37595,0.506672 -0.006,0.0057 -0.0131,0.01069 -0.0191,0.01679 -0.002,0.0023 0.005,-0.0061 0.007,-0.0053 0.008,0.0023 0.015,0.01504 0.0238,0.01319 0.008,-0.0018 0.0104,-0.01459 0.0156,-0.02148 0.0276,-0.03437 0.0569,-0.06715 0.0854,-0.100621 0.17411,-0.207671 0.34432,-0.418998 0.50485,-0.638207 0.007,-0.01502 0.11119,-0.121835 -0.001,-0.08623 -0.0107,0.0034 -0.1053,0.131706 -0.11056,0.138426 -0.13557,0.17851 -0.26569,0.361508 -0.38374,0.55301 -0.0131,0.01631 -0.0958,0.150868 0.0169,0.07368 0.0168,-0.01145 0.0229,-0.03417 0.034,-0.05139 0.0155,-0.02376 0.0305,-0.04775 0.046,-0.07162 0.14179,-0.229204 0.28706,-0.45609 0.43413,-0.681675 -0.11442,0.01256 0.0605,-0.04997 0.0396,-0.06208 -0.0131,-0.0075 -0.0307,-0.01443 -0.0444,-0.008 -0.0155,0.0073 -0.0196,0.02891 -0.0298,0.04317 -0.041,0.05788 -0.0863,0.119515 -0.12774,0.176279 -0.14842,0.199303 -0.27798,0.412661 -0.42098,0.615993 0.069,-0.0023 -0.0476,0.03325 -0.0321,0.03822 0.013,0.0041 0.0283,0.0066 0.0408,8.57e-4 0.007,-0.0036 0.006,-0.01654 0.0104,-0.02408 0.0192,-0.03366 0.0497,-0.07014 0.0721,-0.0995 0.20504,-0.244294 0.4096,-0.489165 0.5983,-0.747391 0.008,0.0043 0.0899,-0.140333 0.0751,-0.152326 -0.056,-0.04523 -0.0925,0.02319 -0.12472,0.05883 -0.17278,0.218561 -0.32085,0.45702 -0.4662,0.695712 -0.0475,0.105441 -0.14273,0.202497 -0.15701,0.32207 -5.5e-4,0.0014 0.0173,0.01069 0.0179,0.0094 v 0 c 0.0849,-0.08075 0.12574,-0.201962 0.19607,-0.294692 0.14573,-0.235267 0.28773,-0.473913 0.44913,-0.69805 0.0118,-0.01446 0.0234,-0.02923 0.0357,-0.04335 0.0276,-0.03187 0.0328,-0.0161 0.004,-0.0558 -8.4e-4,-0.0014 5.5e-4,0.0036 -2.9e-4,0.0049 -0.0233,0.04044 -0.0528,0.0766 -0.0804,0.113793 -0.19801,0.250488 -0.4004,0.497442 -0.59064,0.754423 -0.007,0.01132 -0.0892,0.123173 -0.0832,0.144822 0.005,0.01802 0.0174,0.03484 0.0325,0.04501 0.0166,0.01111 0.0324,-0.06734 0.044,-0.04123 0.15546,-0.194356 0.28616,-0.408183 0.429,-0.612369 0.007,-0.01058 0.14772,-0.215222 0.14753,-0.234553 -1.6e-4,-0.01707 -0.0144,-0.03279 -0.0283,-0.04202 -0.0218,-0.01448 -0.0368,0.124586 -0.0525,0.05913 -0.15772,0.21893 -0.30068,0.448733 -0.43299,0.685092 -0.0142,0.02436 -0.0286,0.04872 -0.0428,0.0731 -0.0104,0.0177 -0.0287,0.03257 -0.0311,0.05313 -0.0147,0.12865 0.068,-0.01206 0.0666,-0.01728 0.1258,-0.18478 0.25311,-0.368412 0.3818,-0.551038 0.002,-0.0032 0.10307,-0.136157 0.10349,-0.141703 0.008,-0.119829 -0.0711,0.01529 -0.0793,0.02171 -0.16977,0.210904 -0.3367,0.424266 -0.50035,0.640347 -0.008,0.01069 -0.0968,0.117902 -0.0982,0.13919 -0.002,0.03364 0.005,0.05405 0.0339,0.04229 0.009,-0.004 0.017,-0.01188 0.0254,-0.01779 0.15338,-0.147511 0.26889,-0.33162 0.3861,-0.509795 0.0182,-0.02948 0.0367,-0.0587 0.0546,-0.08844 0.0132,-0.02211 0.0647,-0.07741 0.0142,-0.106921 -0.003,-0.0018 -0.10753,0.139154 -0.1105,0.145859 -0.11945,0.177033 -0.24239,0.357545 -0.31094,0.56345 -0.009,0.04324 -0.0182,0.08442 0.004,0.124908 0.0325,0.06317 0.0571,0.108082 0.11189,0.02302 0.14147,-0.25137 0.23098,-0.529919 0.33082,-0.800671 0.053,-0.153573 0.10536,-0.307228 0.15349,-0.46253 0.0104,-0.03233 0.0198,-0.06473 0.0292,-0.09728 0.006,-0.02105 0.0213,-0.04197 0.017,-0.06349 -0.004,-0.02003 -0.0259,-0.03081 -0.0388,-0.04621 -0.12495,0.196715 -0.19355,0.443724 -0.28052,0.6595 -0.18153,0.530965 0.067,-0.196654 -0.0882,0.259813 -0.0104,0.02945 -0.0201,0.05883 -0.0304,0.08819 -0.007,0.02122 -0.024,0.04109 -0.0224,0.0636 0.002,0.02084 0.0125,0.04571 0.0311,0.05375 0.011,0.0047 0.009,-0.0227 0.0144,-0.03405 0.11513,-0.293932 0.22258,-0.591048 0.33484,-0.886162 0.0348,-0.08929 0.0488,-0.128875 0.0851,-0.21121 0.006,-0.01522 0.0206,-0.02836 0.0214,-0.04508 5.4e-4,-0.01047 -0.0125,-0.01636 -0.0185,-0.02471 -0.001,-0.0021 0.003,0.0038 0.004,0.0057 -0.002,0.01608 -0.004,0.03219 -0.006,0.04827 -0.0735,0.286278 -0.19043,0.557394 -0.30242,0.829107 -0.0394,0.09957 -0.0829,0.199312 -0.10637,0.304707 -0.002,0.0069 -0.0148,0.08024 -0.007,0.09237 0.009,0.01471 0.0281,0.01897 0.0421,0.02848 0.0429,-0.03095 0.0572,-0.08184 0.075,-0.131732 0.0505,-0.141462 0.0877,-0.287534 0.13077,-0.431416 0.0748,-0.254718 0.13705,-0.522551 0.2767,-0.749114 -0.003,-0.01702 -8.1e-4,-0.03584 -0.008,-0.05108 -0.004,-0.0073 -0.002,0.01662 -0.005,0.02451 -0.007,0.02299 -0.0166,0.04548 -0.0254,0.0679 -0.0583,0.145244 -0.12393,0.287241 -0.18887,0.429373 -0.11686,0.255255 -0.24114,0.510324 -0.31734,0.78255 -0.003,0.01747 -0.0122,0.03518 -0.008,0.0524 0.009,0.03898 0.028,0.06872 0.0603,0.04103 0.026,-0.02242 0.0666,-0.104642 0.0757,-0.123484 0.0203,-0.0419 0.0384,-0.08501 0.0576,-0.12751 0.12592,-0.317596 0.22756,-0.644644 0.35698,-0.960678 0.0238,-0.04842 0.0565,-0.07431 0.0142,-0.126069 -0.005,-0.0069 -0.004,0.01768 -0.007,0.02618 -0.008,0.02407 -0.0176,0.04775 -0.0269,0.07141 -0.0151,0.03834 -0.10522,0.258911 -0.11286,0.277643 -0.12795,0.315846 -0.26654,0.632477 -0.33407,0.969415 -0.004,0.04791 -0.034,0.153399 0.0509,0.149676 0.0378,-0.0018 0.0937,-0.189369 0.0987,-0.202219 0.10471,-0.361996 0.17117,-0.734042 0.27708,-1.095621 0.10427,-0.258156 -0.0113,0.01094 0.0818,-0.169149 0.005,-0.0092 0.003,-0.02154 0.009,-0.02995 0.003,-0.0045 0.0135,-0.01019 0.0157,-0.0049 0.006,0.0158 0.006,0.03449 0.004,0.05161 -0.004,0.03606 -0.0154,0.07087 -0.0231,0.106306 -0.12483,0.414626 -0.30324,0.80627 -0.46622,1.205591 -0.0366,0.09992 -0.0731,0.191694 -0.10177,0.293859 -0.0151,0.05378 -0.0447,0.111575 0.0144,0.153829 0.0297,0.02132 0.0761,-0.122061 0.0762,-0.07994 0.21459,-0.388455 0.35704,-0.812363 0.51591,-1.227269 0.022,-0.05502 0.0429,-0.110365 0.0656,-0.165035 0.0157,-0.03787 0.0385,-0.07291 0.0494,-0.112555 0.004,-0.01691 -0.004,-0.03502 -0.004,-0.0526 3e-5,-0.0018 0.005,-0.0037 0.005,-0.0021 -0.005,0.02576 -0.012,0.05125 -0.02,0.07619 -0.0154,0.0471 -0.0336,0.09317 -0.0504,0.139738 -0.18372,0.455067 -0.40546,0.890937 -0.61679,1.332565 -0.0247,0.05428 -0.0507,0.108035 -0.0744,0.16285 -0.009,0.02277 -0.0861,0.139628 -0.0114,0.172203 0.0154,0.0067 0.0287,-0.01866 0.0399,-0.03155 0.0736,-0.08516 0.14829,-0.213601 0.2052,-0.303103 0.16746,-0.287176 0.32608,-0.577285 0.47463,-0.875585 0.0446,-0.0894 0.0878,-0.17949 0.13102,-0.269522 0.0297,-0.06183 0.0666,-0.120658 0.0882,-0.186075 0.0108,-0.03278 0.004,-0.06907 0.007,-0.103596 -0.18639,0.401873 -0.37936,0.800407 -0.56413,1.203087 -0.002,0.0032 0.0422,0.02976 0.044,0.02653 z" /><path
       style="fill:#cccccc;stroke:#cccccc;stroke-width:0;stroke-linecap:square;stroke-miterlimit:3.6;stroke-dasharray:none;paint-order:stroke fill markers"
       id="path2113"
       d="m 111.72967,75.869235 c 0.16275,-0.207289 0.31383,-0.42982 0.42595,-0.671523 0.0246,-0.05311 0.044,-0.108696 0.066,-0.163048 0.0115,-0.04873 0.023,-0.09747 0.0344,-0.146201 8.1e-4,-0.0021 -0.0255,-0.01246 -0.0263,-0.01047 v 0 c -0.0198,0.04366 -0.0399,0.08732 -0.0597,0.130983 -0.14137,0.288378 -0.29993,0.566405 -0.47295,0.835604 -0.002,0.0023 0.0309,0.0271 0.0326,0.02471 z" /><path
       style="fill:#cccccc;stroke:#cccccc;stroke-width:0;stroke-linecap:square;stroke-miterlimit:3.6;stroke-dasharray:none;paint-order:stroke fill markers"
       id="path2115"
       d="m 111.79852,75.830337 c 0.17363,-0.259368 0.32842,-0.530625 0.44175,-0.824024 0.009,-0.03039 0.0194,-0.06076 0.0292,-0.09116 5.5e-4,-0.0014 -0.0184,-0.0096 -0.019,-0.0082 v 0 c -0.0127,0.02848 -0.0252,0.05692 -0.038,0.08539 -0.14651,0.273939 -0.3052,0.54058 -0.45026,0.815359 -0.002,0.0026 0.0347,0.0253 0.0363,0.02265 z" /><path
       style="fill:#cccccc;stroke:#cccccc;stroke-width:0;stroke-linecap:square;stroke-miterlimit:3.6;stroke-dasharray:none;paint-order:stroke fill markers"
       id="path2117"
       d="m 111.84502,75.684793 c 0.0679,-0.11103 0.12274,-0.229939 0.1809,-0.346563 8.3e-4,-0.0018 -0.0208,-0.01349 -0.0217,-0.0119 v 0 c -0.0603,0.115335 -0.1232,0.229201 -0.18132,0.345758 -8.2e-4,0.0018 0.0212,0.01431 0.022,0.01271 z" /><path
       style="fill:#cccccc;stroke:#cccccc;stroke-width:0;stroke-linecap:square;stroke-miterlimit:3.6;stroke-dasharray:none;paint-order:stroke fill markers"
       id="path2119"
       d="m 111.88909,73.914403 c 0.15032,0.379915 0.29934,0.759447 0.41749,1.151735 0.0405,0.153695 0.0361,0.12604 0.062,0.255846 0.009,0.04801 0.0202,0.04942 -0.003,0.03813 -5.4e-4,6e-5 1.8e-4,0.0093 8.3e-4,0.0092 v 0 c 0.009,-2.86e-4 0.0206,0.0058 0.0269,-8.57e-4 0.0683,-0.07157 -0.0133,-0.247566 -0.0124,-0.317487 -0.0189,-0.06977 -0.0353,-0.140307 -0.0567,-0.209312 -0.10085,-0.325925 -0.24026,-0.639037 -0.3938,-0.941327 -10e-4,-0.003 -0.042,0.01109 -0.0411,0.01411 z" /><path
       style="fill:#cccccc;stroke:#cccccc;stroke-width:0;stroke-linecap:square;stroke-miterlimit:3.6;stroke-dasharray:none;paint-order:stroke fill markers"
       id="path2121"
       d="m 111.83629,73.91922 c 0.18255,0.3131 0.31588,0.650693 0.42855,0.99635 0.0325,0.125319 0.0723,0.252968 0.0774,0.384031 0.002,0.04492 0.006,0.0395 -0.02,0.03814 -8.3e-4,1.97e-4 0.002,0.012 0.003,0.0118 v 0 c 0.0104,-0.0014 0.0223,0.0026 0.0302,-0.004 0.0965,-0.07742 0.002,-0.359862 -0.0129,-0.4472 -0.0215,-0.06891 -0.0403,-0.138708 -0.0641,-0.206724 -0.0987,-0.28115 -0.23145,-0.55345 -0.41121,-0.788258 -0.001,-0.0023 -0.0319,0.01362 -0.0309,0.01588 z" /><path
       style="fill:#cccccc;stroke:#cccccc;stroke-width:0;stroke-linecap:square;stroke-miterlimit:3.6;stroke-dasharray:none;paint-order:stroke fill markers"
       id="path2123"
       d="m 111.8582,73.947231 c 0.0793,0.332128 0.1738,0.661052 0.22752,0.999243 0.0105,0.06634 0.0166,0.133363 0.0249,0.200045 0.008,0.199967 0.0105,0.107784 -0.002,0.276642 -2.6e-4,0.0018 0.0237,0.0074 0.0241,0.0057 v 0 c 0.0523,-0.17065 0.0335,-0.07635 0.0459,-0.284897 -0.006,-0.06848 -0.008,-0.13734 -0.0177,-0.20547 -0.0452,-0.343031 -0.14481,-0.678408 -0.26349,-1.000828 -5.4e-4,-0.0029 -0.0401,0.0067 -0.0394,0.0096 z" /><path
       style="fill:#cccccc;stroke:#cccccc;stroke-width:0;stroke-linecap:square;stroke-miterlimit:3.6;stroke-dasharray:none;paint-order:stroke fill markers"
       id="path2125"
       d="m 111.99659,74.115884 c 0.11452,0.336183 0.20972,0.678579 0.29399,1.02413 0.004,0.02965 0.009,0.05928 0.0136,0.08893 0,0.0014 0.0182,0.0014 0.0182,-1e-5 v 0 c 5.5e-4,-0.03059 0.001,-0.0612 0.002,-0.09181 -0.004,-0.0488 -0.005,-0.09794 -0.0117,-0.146405 -0.0428,-0.308793 -0.14634,-0.607444 -0.27703,-0.887007 -8.1e-4,-0.0028 -0.0397,0.0093 -0.0389,0.01216 z" /><path
       style="fill:#cccccc;stroke:#cccccc;stroke-width:0;stroke-linecap:square;stroke-miterlimit:3.6;stroke-dasharray:none;paint-order:stroke fill markers"
       id="path2127"
       d="m 111.95999,74.193723 c 0.0747,0.333201 0.15512,0.665166 0.24316,0.994839 0.008,0.03578 0.0164,0.07155 0.0244,0.10733 1e-4,0.0014 0.0214,1.24e-4 0.0213,-0.0014 v 0 c -0.002,-0.03676 -0.004,-0.07353 -0.006,-0.110292 -0.006,-0.053 -0.0105,-0.10636 -0.0192,-0.158997 -0.0475,-0.286315 -0.1358,-0.564073 -0.22692,-0.837959 -5.5e-4,-0.0026 -0.0364,0.0039 -0.036,0.0065 z" /><path
       style="fill:#cccccc;stroke:#cccccc;stroke-width:0;stroke-linecap:square;stroke-miterlimit:3.6;stroke-dasharray:none;paint-order:stroke fill markers"
       id="path2129"
       d="m 111.95488,74.24727 c 0.0768,0.351575 0.12953,0.707724 0.16274,1.066415 0.002,0.09553 0.0159,0.190842 -0.0116,0.283084 -5.4e-4,0.0012 0.0133,0.0074 0.0137,0.0065 v 0 c 0.0579,-0.09697 0.0614,-0.174242 0.0626,-0.290126 -0.0192,-0.36398 -0.0684,-0.728362 -0.18847,-1.072724 -5.5e-4,-0.0028 -0.0393,0.0041 -0.0389,0.0069 z" /><path
       style="fill:#cccccc;stroke:#cccccc;stroke-width:0;stroke-linecap:square;stroke-miterlimit:3.6;stroke-dasharray:none;paint-order:stroke fill markers"
       id="path2131"
       d="m 111.97677,74.147172 c 0.0658,0.324775 0.11795,0.651701 0.15289,0.981605 0.006,0.105862 0.0172,0.21226 0.0154,0.318549 -5.5e-4,0.03786 0.006,0.03106 -0.0143,0.03898 -5.5e-4,2.37e-4 0.003,0.0074 0.003,0.0072 v 0 c 0.007,-0.0021 0.0156,-0.0012 0.0211,-0.0062 0.0687,-0.06311 0.0379,-0.28161 0.041,-0.36017 -0.0279,-0.3339 -0.078,-0.667625 -0.18072,-0.986389 -5.5e-4,-0.0028 -0.0389,0.0036 -0.0385,0.0064 z" /><path
       style="fill:#cccccc;stroke:#cccccc;stroke-width:0;stroke-linecap:square;stroke-miterlimit:3.6;stroke-dasharray:none;paint-order:stroke fill markers"
       id="path2133"
       d="m 111.82798,74.056543 c 0.14198,0.318847 0.22779,0.655989 0.2884,1.000294 0.0189,0.111721 0.0259,0.224652 0.0292,0.337778 -2.3e-4,0.0012 0.0149,0.0045 0.0152,0.0035 v 0 c 0.008,-0.02271 0.0211,-0.04422 0.0255,-0.06815 0.0182,-0.09579 0.005,-0.181527 -7e-5,-0.278844 -0.0104,-0.06664 -0.0178,-0.13379 -0.0306,-0.199924 -0.0555,-0.283324 -0.15294,-0.55787 -0.29424,-0.807188 -8.2e-4,-0.0026 -0.0342,0.01019 -0.0334,0.01256 z" /><path
       style="fill:#cccccc;stroke:#cccccc;stroke-width:0;stroke-linecap:square;stroke-miterlimit:3.6;stroke-dasharray:none;paint-order:stroke fill markers"
       id="path2135"
       d="m 111.95442,74.125572 c 0.0575,0.277754 0.10965,0.556605 0.13891,0.839209 0.0188,0.2434 -0.068,0.465034 -0.15524,0.68517 -0.0485,0.132109 -0.0232,0.07176 -0.0738,0.181956 -5.5e-4,0.0012 0.0134,0.009 0.0139,0.008 v 0 c 0.0662,-0.103336 0.031,-0.04718 0.10525,-0.168816 0.10543,-0.228553 0.19032,-0.448146 0.17312,-0.707459 -0.0243,-0.286532 -0.0732,-0.571265 -0.15838,-0.845443 -5.4e-4,-0.0032 -0.0444,0.0042 -0.0439,0.0074 z" /><path
       style="fill:#cccccc;stroke:#cccccc;stroke-width:0;stroke-linecap:square;stroke-miterlimit:3.6;stroke-dasharray:none;paint-order:stroke fill markers"
       id="path2137"
       d="m 111.78513,74.021221 c 0.15655,0.279222 0.27651,0.576948 0.36606,0.8858 0.0348,0.167904 0.0733,0.344445 0.0492,0.517476 -0.0105,0.07537 -0.0298,0.120459 -0.0544,0.19219 -0.0495,0.131292 -0.0244,0.06758 -0.0749,0.191235 -5.6e-4,0.0014 0.0183,0.01117 0.0189,0.0097 v 0 c 0.0667,-0.117528 0.0337,-0.05633 0.0983,-0.183859 0.0305,-0.07891 0.05,-0.117968 0.0653,-0.2016 0.0329,-0.178813 10e-4,-0.362949 -0.0375,-0.537383 -0.0895,-0.315118 -0.20956,-0.623439 -0.40094,-0.8882 -0.001,-0.0023 -0.0309,0.01237 -0.0299,0.01456 z" /><path
       style="fill:#cccccc;stroke:#cccccc;stroke-width:0;stroke-linecap:square;stroke-miterlimit:3.6;stroke-dasharray:none;paint-order:stroke fill markers"
       id="path2139"
       d="m 110.79436,72.987829 c 0.28207,0.329042 0.58107,0.642269 0.89021,0.943817 0.19992,0.182708 0.10639,0.09996 0.27953,0.249584 0.001,0.0018 0.0235,-0.01973 0.0221,-0.02137 v 0 c -0.15482,-0.166544 -0.0703,-0.07563 -0.25367,-0.272722 -0.29783,-0.313594 -0.59542,-0.628099 -0.90881,-0.925061 -0.002,-0.0023 -0.031,0.0236 -0.0293,0.02573 z" /><path
       style="fill:#cccccc;stroke:#cccccc;stroke-width:0;stroke-linecap:square;stroke-miterlimit:3.6;stroke-dasharray:none;paint-order:stroke fill markers"
       id="path2141"
       d="m 110.63157,72.827232 c 0.33807,0.324295 0.6858,0.637395 1.04005,0.942423 0.26622,0.214706 0.13821,0.112929 0.38368,0.305788 0.002,0.0021 0.0296,-0.02791 0.0277,-0.02993 v 0 c -0.22823,-0.210819 -0.10887,-0.100127 -0.35798,-0.332232 -0.34968,-0.312618 -0.69762,-0.630193 -1.07293,-0.909546 -0.002,-0.0014 -0.0221,0.02198 -0.0204,0.0235 z" /><path
       style="fill:#cccccc;stroke:#cccccc;stroke-width:0;stroke-linecap:square;stroke-miterlimit:3.6;stroke-dasharray:none;paint-order:stroke fill markers"
       id="path2143"
       d="m 111.34029,76.27563 c 0.36496,-0.245409 0.66349,-0.58349 0.94377,-0.924743 0.0841,-0.131347 0.21572,-0.261485 0.2463,-0.424618 0.003,-0.01486 -0.004,-0.0299 -0.007,-0.04485 7e-5,-8.56e-4 -0.0109,-0.0018 -0.011,-0.0012 v 0 c -0.0175,0.05817 -0.008,0.03744 -0.06,0.114446 -0.0837,0.124457 -0.13277,0.182515 -0.2292,0.306694 -0.28118,0.335571 -0.57565,0.659784 -0.90103,0.949988 -0.002,0.0014 0.0165,0.02544 0.0182,0.02414 z" /><path
       style="fill:#cccccc;stroke:#cccccc;stroke-width:0;stroke-linecap:square;stroke-miterlimit:3.6;stroke-dasharray:none;paint-order:stroke fill markers"
       id="path2145"
       d="m 111.48545,76.169979 c 0.29464,-0.311506 0.56666,-0.645287 0.8246,-0.989816 0.0636,-0.09422 0.12424,-0.173748 0.17196,-0.276607 0.011,-0.02376 0.0164,-0.04993 0.0245,-0.07489 5.4e-4,-0.0012 -0.0153,-0.0094 -0.0158,-0.0082 v 0 c -0.0765,0.107708 -0.15728,0.211964 -0.23698,0.317138 -0.26451,0.337276 -0.53879,0.666359 -0.79679,1.009019 -0.002,0.0021 0.027,0.02544 0.0285,0.02336 z" /><path
       style="fill:#cccccc;stroke:#cccccc;stroke-width:0;stroke-linecap:square;stroke-miterlimit:3.6;stroke-dasharray:none;paint-order:stroke fill markers"
       id="path2147"
       d="m 111.59655,75.952075 c 0.25431,-0.275393 0.48388,-0.576129 0.67936,-0.899114 0.0217,-0.04329 0.0432,-0.08659 0.0649,-0.129874 8.2e-4,-0.0018 -0.0219,-0.01522 -0.0228,-0.01357 v 0 c -0.0264,0.03947 -0.0529,0.07891 -0.0794,0.118372 -0.22087,0.301896 -0.44517,0.601032 -0.67217,0.897996 -0.002,0.0023 0.0283,0.02839 0.03,0.02618 z" /><path
       style="fill:#cccccc;stroke:#cccccc;stroke-width:0;stroke-linecap:square;stroke-miterlimit:3.6;stroke-dasharray:none;paint-order:stroke fill markers"
       id="path2149"
       d="m 111.51355,76.07922 c 0.23502,-0.245128 0.46174,-0.502978 0.65658,-0.784221 0.042,-0.06056 0.0802,-0.12384 0.12022,-0.185761 0.0736,-0.137437 0.1082,-0.185784 0.15446,-0.330645 0.0135,-0.04236 0.0203,-0.08677 0.0303,-0.130147 5.5e-4,-0.0018 -0.023,-0.0097 -0.0235,-0.008 v 0 c -0.057,0.152343 -0.12601,0.296867 -0.21747,0.430986 -0.23096,0.342783 -0.49067,0.661281 -0.7513,0.979954 -0.002,0.0023 0.0288,0.03006 0.0306,0.02778 z" /><path
       style="fill:#cccccc;stroke:#cccccc;stroke-width:0;stroke-linecap:square;stroke-miterlimit:3.6;stroke-dasharray:none;paint-order:stroke fill markers"
       id="path2151"
       d="m 112.05567,75.264625 c 0.0644,-0.268833 0.1042,-0.54739 0.10033,-0.825061 -8.2e-4,-0.05399 -0.006,-0.107805 -0.009,-0.161705 -0.007,-0.04334 -0.0143,-0.0867 -0.0215,-0.130031 -5e-5,-0.0018 -0.0227,-8.57e-4 -0.0226,8.56e-4 v 0 c 0.002,0.04255 0.003,0.08508 0.005,0.127629 -0.007,0.32805 -0.0404,0.654207 -0.0947,0.977512 -8.3e-4,0.0031 0.0421,0.01402 0.0428,0.01085 z" /><path
       style="fill:#cccccc;stroke:#cccccc;stroke-width:0;stroke-linecap:square;stroke-miterlimit:3.6;stroke-dasharray:none;paint-order:stroke fill markers"
       id="path2153"
       d="m 112.10936,75.249921 c 0.0342,-0.346666 0.048,-0.695346 0.0237,-1.043013 -0.0364,-0.182998 -0.0166,-0.09859 -0.0573,-0.253795 -1.7e-4,-0.0018 -0.0228,0.0012 -0.0226,0.0028 v 0 c 0.0222,0.15361 0.0138,0.0703 0.0212,0.250323 0.0114,0.34662 -0.005,0.692625 -0.0106,1.039231 -2.7e-4,0.0033 0.0454,0.0077 0.0457,0.0044 z" /><path
       style="fill:#cccccc;stroke:#cccccc;stroke-width:0;stroke-linecap:square;stroke-miterlimit:3.6;stroke-dasharray:none;paint-order:stroke fill markers"
       id="path2155"
       d="m 112.07107,75.228643 c 0.0336,-0.293685 0.0388,-0.589373 0.0123,-0.883658 2e-5,-0.0021 -0.0262,-0.0023 -0.0262,-2.86e-4 v 0 c 0.004,0.293539 -0.0107,0.586612 -0.0184,0.879992 -2.7e-4,0.0023 0.0321,0.0064 0.0323,0.004 z" /><path
       style="fill:#cccccc;stroke:#cccccc;stroke-width:0;stroke-linecap:square;stroke-miterlimit:3.6;stroke-dasharray:none;paint-order:stroke fill markers"
       id="path2157"
       d="m 112.07766,75.32589 c 0.0282,-0.293427 0.0496,-0.591712 0.0112,-0.885416 -0.008,-0.06503 -0.0233,-0.128993 -0.035,-0.193488 -1.7e-4,-0.0026 -0.036,-8.8e-5 -0.0358,0.0026 v 0 c 0.0192,0.188012 0.0241,0.204377 0.0303,0.397736 0.007,0.224895 -0.006,0.449423 -0.006,0.674275 -2.7e-4,0.0026 0.0354,0.007 0.0357,0.0043 z" /><path
       style="fill:#ffffff;stroke:#ffffff;stroke-width:0.0753445;stroke-linecap:square;stroke-miterlimit:3.6;stroke-dasharray:none;paint-order:stroke fill markers"
       d="m 99.975654,98.84244 c -5.454919,-0.714908 -10.291269,-3.241813 -14.202233,-7.420404 -2.088348,-2.231254 -3.638572,-4.56275 -5.058955,-7.608537 -1.063213,-2.27989 -1.380011,-3.753636 -1.491755,-6.939698 -0.20806,-5.932003 0.751924,-10.567204 3.003998,-14.504539 2.24094,-3.917877 5.825618,-7.125635 10.621355,-9.504551 4.06522,-2.016548 8.474616,-2.71945 12.879756,-2.053164 6.67862,1.010148 12.58764,4.98755 16.18829,10.896473 1.93662,3.178106 2.49725,4.850098 2.69021,8.022969 0.18114,2.978482 0.13164,9.4422 -0.0868,11.340719 -0.23331,2.027336 -0.59736,3.121839 -1.63264,4.908332 -2.69362,4.648163 -6.54701,8.299117 -11.28515,10.692318 -2.16688,1.094467 -4.05894,1.714861 -6.42402,2.106398 -0.95687,0.158407 -4.17834,0.197848 -5.202016,0.06369 z m 4.644946,-6.973057 c 3.49121,-0.54584 7.37292,-2.538225 9.98053,-5.122755 2.92356,-2.897695 4.65515,-6.795544 4.99701,-11.248355 0.16899,-2.201356 -0.18729,-4.825 -0.94869,-6.985961 -0.35174,-0.998292 -1.19852,-2.734394 -1.76563,-3.619998 -1.30191,-2.033071 -2.94257,-3.756759 -4.82944,-5.073865 -2.12642,-1.484322 -4.35182,-2.407165 -6.8812,-2.853549 -1.03724,-0.183052 -3.11025,-0.25028 -4.20739,-0.136445 -1.739786,0.180513 -3.972466,0.796287 -5.278314,1.455759 -3.538974,1.787235 -8.933227,7.85778 -9.681593,10.895397 -0.185804,0.754189 -0.262874,1.850719 -0.262406,3.733485 0.0011,4.28287 0.41478,6.580193 1.658177,9.207794 1.216473,2.570712 2.975367,4.61654 5.515568,6.415342 2.737399,1.938451 5.759142,3.162004 8.477788,3.432798 0.79796,0.07948 2.39553,0.03013 3.22559,-0.09965 z"
       id="path2370" /><path
       style="fill:#cccccc;stroke:#cccccc;stroke-width:0.15069;stroke-linecap:square;stroke-miterlimit:3.6;stroke-dasharray:none;paint-order:stroke fill markers"
       d="M 99.047154,98.697189 C 93.443914,97.79911 87.950333,94.409374 84.163091,89.51319 82.027086,86.751743 80.238764,83.298441 79.66876,80.834508 c -0.504302,-2.179937 -0.605364,-6.191563 -0.238782,-9.478614 0.713512,-6.397908 3.528783,-11.555426 8.353964,-15.30428 6.864551,-5.333309 14.427278,-6.794279 21.959028,-4.242053 1.64258,0.556618 4.59493,2.109854 6.06529,3.19098 1.51107,1.111049 4.22951,3.909943 5.25517,5.410664 1.06383,1.55661 2.24673,3.721136 2.7024,4.944995 0.77093,2.070614 0.84693,2.925276 0.84668,9.520321 -2.6e-4,7.574002 -0.10914,8.273979 -1.7196,11.058575 -2.47805,4.28468 -5.88361,7.683849 -10.08469,10.065787 -2.58107,1.463417 -5.23246,2.411248 -7.73781,2.766156 -1.38846,0.196684 -4.59211,0.159535 -6.023256,-0.06985 z m 7.144016,-7.144917 c 4.27575,-1.156774 8.37366,-4.070848 10.60267,-7.539697 1.90187,-2.959732 2.79654,-6.061475 2.79691,-9.696582 2.7e-4,-3.834266 -1.11588,-7.274383 -3.36185,-10.360554 -3.32375,-4.567135 -8.26106,-7.155985 -13.6475,-7.155985 -4.127056,0 -7.12847,1.126739 -10.118945,3.798671 -3.28494,2.935035 -6.065841,6.698674 -6.509551,8.809958 -0.230956,1.098935 -0.301263,3.826996 -0.154007,5.975663 0.324107,4.729114 1.665686,7.949169 4.557027,10.937761 2.489287,2.573015 6.37035,4.771324 9.53907,5.403112 0.394556,0.07867 0.834786,0.170995 0.978276,0.205167 0.14347,0.03418 1.11196,0.04079 2.1522,0.01468 1.49916,-0.03759 2.15556,-0.118922 3.1657,-0.392206 z"
       id="path4761" /><path
       style="fill:#cccccc;stroke:#cccccc;stroke-width:2.11869;stroke-linecap:square;stroke-miterlimit:3.6;stroke-dasharray:none;paint-order:stroke fill markers"
       d="M 39.372364,74.491477 V 40.576172 l 0.489139,0.05387 c 0.269025,0.02964 1.751111,0.149501 3.293527,0.266375 2.931671,0.222143 6.064989,0.506019 15.521967,1.406272 12.651283,1.204337 22.385687,1.548435 43.826733,1.549215 14.57018,5.71e-4 21.01189,-0.113251 29.93521,-0.52876 5.69651,-0.265255 7.31236,-0.382944 14.02194,-1.021286 10.42786,-0.992092 11.26347,-1.0691 15.31139,-1.411096 2.21574,-0.187201 4.19676,-0.340365 4.40224,-0.340365 h 0.37363 v 10.371379 10.371379 l -0.66483,-0.588095 c -4.06993,-3.600218 -8.50471,-5.624745 -13.58024,-6.199528 -9.96448,-1.128444 -19.77279,4.493271 -24.17081,13.85372 -1.85584,3.94981 -2.62605,8.040617 -2.39343,12.712215 0.31687,6.363683 3.39142,12.901606 8.04279,17.10274 9.09334,8.213123 22.29924,8.384973 31.5357,0.410395 l 1.1656,-1.006357 0.0341,5.359255 c 0.0187,2.9476 0.003,5.3912 -0.0342,5.43021 -0.0833,0.0865 -4.26502,-0.31965 -12.32617,-1.19723 -3.33593,-0.36316 -6.88707,-0.72421 -7.89142,-0.80233 -16.29314,-1.26732 -72.028627,-1.26801 -88.305647,-0.001 -1.573782,0.12249 -16.468878,1.7432 -18.032872,1.96212 l -0.554357,0.0776 z m 64.696596,24.415314 c -0.11354,-0.07895 -0.98941,-0.12446 -2.08699,-0.108436 -1.04022,0.0152 -2.082096,-0.0189 -2.315236,-0.07575 -0.26724,-0.06516 -0.42392,-0.05208 -0.42392,0.03538 0,0.173373 0.72417,0.234102 3.130466,0.262514 1.30326,0.01539 1.8305,-0.01996 1.69568,-0.113712 z m 1.2526,-0.108048 c -0.0636,-0.106731 -0.86129,-0.05069 -0.86129,0.06049 0,0.02879 0.2089,0.05233 0.46423,0.05233 0.25532,0 0.43399,-0.05077 0.39706,-0.112832 z M 98.851494,98.64076 c -0.25288,-0.16966 -0.3913,-0.16966 -0.3913,0 0,0.07448 0.13206,0.134474 0.29348,0.133333 0.23731,-0.0018 0.25604,-0.02719 0.0978,-0.133333 z m 8.152296,-0.127191 c 5.91853,-1.478652 11.7263,-5.78982 15.26219,-11.329271 0.78043,-1.222664 1.63272,-2.785262 1.62308,-2.975817 -0.003,-0.06829 -0.19421,0.234718 -0.42392,0.673347 -0.61472,1.173856 -1.7938,3.057816 -2.17581,3.476551 -0.10912,0.119603 -0.28642,0.357752 -0.39402,0.52922 -0.59567,0.949136 -3.91476,4.360716 -4.67151,4.801672 -0.11925,0.06949 -0.33057,0.236361 -0.4696,0.370824 -0.13903,0.134467 -0.35984,0.279755 -0.49067,0.322862 -0.13084,0.0431 -0.23788,0.135207 -0.23788,0.204662 0,0.06946 -0.0881,0.126285 -0.19566,0.126285 -0.10761,0 -0.19566,0.05382 -0.19566,0.119617 0,0.06579 -0.10274,0.156479 -0.22826,0.201535 -0.12554,0.04505 -0.40435,0.20174 -0.61958,0.348187 -0.34591,0.235383 -1.02682,0.626315 -1.8261,1.048447 -0.14349,0.07578 -0.55436,0.278004 -0.91306,0.449392 -0.35871,0.171393 -0.79893,0.385683 -0.97828,0.476206 -0.35636,0.179865 -1.87276,0.709907 -2.32542,0.812829 -0.15582,0.03542 -0.40071,0.09489 -0.54418,0.13212 -0.44224,0.114773 -0.83114,0.202734 -1.23519,0.279385 -0.21305,0.0404 -0.41359,0.100723 -0.44566,0.13401 -0.1256,0.130392 0.48941,0.04672 1.48519,-0.202063 z m -8.674036,0.07528 c 0,-0.02856 -0.11739,-0.08379 -0.26088,-0.122732 -0.14347,-0.03896 -0.26086,-0.0156 -0.26086,0.05191 0,0.0675 0.11739,0.122732 0.26086,0.122732 0.14349,0 0.26088,-0.02336 0.26088,-0.05191 z m -0.65219,-0.136713 c 0,-0.02927 -0.088,-0.0883 -0.19565,-0.131161 -0.10761,-0.04286 -0.19566,-0.01894 -0.19566,0.05321 0,0.07214 0.088,0.131161 0.19566,0.131161 0.10761,0 0.19565,-0.02396 0.19565,-0.05321 z m -0.52174,-0.135409 c 0,-0.02927 -0.088,-0.0883 -0.19566,-0.13116 -0.10761,-0.04287 -0.19565,-0.01894 -0.19565,0.05321 0,0.07214 0.088,0.13116 0.19565,0.13116 0.10761,0 0.19566,-0.02396 0.19566,-0.05321 z m -0.55436,-0.161181 c -0.0418,-0.04344 -0.125,-0.07991 -0.18478,-0.08106 -0.0598,-0.0011 -0.21142,-0.05913 -0.336964,-0.12889 -0.143857,-0.07992 -0.228266,-0.07866 -0.228266,0.0034 0,0.126503 0.26449,0.237771 0.64131,0.269803 0.10164,0.0086 0.15055,-0.01985 0.1087,-0.06328 z m -0.880447,-0.251542 c 0,-0.03284 -0.0587,-0.09738 -0.130437,-0.1434 -0.07174,-0.04603 -0.130437,-0.01916 -0.130437,0.05971 0,0.07887 0.0587,0.1434 0.130437,0.1434 0.07174,0 0.130437,-0.02688 0.130437,-0.05971 z m -0.391308,-0.135411 c 0,-0.03285 -0.0587,-0.09738 -0.130438,-0.1434 -0.07174,-0.04603 -0.130437,-0.01916 -0.130437,0.05971 0,0.07887 0.0587,0.1434 0.130437,0.1434 0.07174,0 0.130438,-0.02687 0.130438,-0.05971 z m -0.847838,-0.366489 c -0.286962,-0.154003 -0.595119,-0.283598 -0.684796,-0.287991 -0.08967,-0.0044 -0.163043,-0.05876 -0.163043,-0.120827 0,-0.06206 -0.04403,-0.0984 -0.09782,-0.08075 -0.299327,0.09821 -3.896817,-2.051342 -4.956941,-2.961846 -0.161602,-0.138798 -0.484435,-0.404693 -0.717401,-0.590878 -0.865659,-0.691839 -3.874783,-3.918677 -3.88385,-4.164852 -0.0019,-0.05528 -0.23682,-0.372518 -0.521745,-0.704958 -0.284925,-0.332437 -0.518046,-0.673365 -0.518046,-0.757614 0,-0.08425 -0.117393,-0.263469 -0.260874,-0.398268 -0.14348,-0.134798 -0.260871,-0.300829 -0.260871,-0.368963 0,-0.06813 -0.168048,-0.378592 -0.373442,-0.689908 -0.205392,-0.311318 -0.413104,-0.697631 -0.461581,-0.858473 -0.04847,-0.160846 -0.182338,-0.373602 -0.29747,-0.472796 -0.466295,-0.401743 0.925679,2.059539 2.132929,3.771428 2.654237,3.763737 6.450511,6.861716 10.606593,8.655593 0.895862,0.386677 1.153512,0.404157 0.458366,0.0311 z m 6.391399,-5.531785 c 0.045,-0.07551 -0.0526,-0.134492 -0.22057,-0.133335 -0.24231,0.0018 -0.26293,0.02773 -0.10553,0.133335 0.2427,0.162831 0.22915,0.162831 0.3261,0 z m 4.09787,-0.08567 c 0.11208,-0.102578 -0.58656,-0.02579 -0.83695,0.09199 -0.18183,0.08552 -0.10276,0.09771 0.26086,0.04022 0.28697,-0.04536 0.54621,-0.104856 0.57609,-0.132213 z m -4.81527,-0.04974 c 0,-0.07448 -0.10276,-0.134475 -0.228276,-0.133336 -0.19507,0.0018 -0.1998,0.02116 -0.0327,0.133336 0.246146,0.165146 0.260856,0.165146 0.260856,0 z m 5.47833,-0.0835 c 0,-0.02856 -0.11739,-0.05191 -0.26087,-0.05191 -0.14349,0 -0.26088,0.05523 -0.26088,0.122732 0,0.06751 0.11739,0.09087 0.26088,0.05191 0.14348,-0.03896 0.26087,-0.09419 0.26087,-0.122732 z m -6.130526,-0.05191 c 0,-0.07448 -0.10274,-0.134476 -0.22826,-0.133334 -0.19507,0.0018 -0.19981,0.02117 -0.0326,0.133334 0.24616,0.165146 0.26086,0.165146 0.26086,0 z m 7.159136,-0.218927 c 0.044,-0.05053 -0.0667,-0.05325 -0.24598,-0.0061 -0.17936,0.04721 -0.39947,0.08668 -0.48914,0.0877 -0.0896,0.0011 -0.16304,0.05853 -0.16304,0.127804 0,0.132676 0.75293,-0.04293 0.89816,-0.209474 z m -7.680876,0.08352 c 0,-0.07448 -0.0621,-0.135409 -0.13813,-0.135409 -0.076,0 -0.10187,0.06093 -0.0575,0.135409 0.0444,0.07448 0.1065,0.135407 0.13814,0.135407 0.0317,0 0.0575,-0.06093 0.0575,-0.135407 z m -0.3913,-0.12073 c 0,-0.06641 -0.14129,-0.157541 -0.31398,-0.202537 -0.17269,-0.04499 -0.42215,-0.122242 -0.55436,-0.17166 -0.13454,-0.05029 -0.19452,-0.03773 -0.13623,0.02856 0.0573,0.06513 0.29207,0.189435 0.52175,0.276237 0.22967,0.0868 0.43227,0.165094 0.4502,0.173979 0.018,0.0089 0.0326,-0.03818 0.0326,-0.104573 z m 8.413156,-0.01468 c 0.0443,-0.07448 0.0184,-0.13541 -0.0575,-0.13541 -0.0759,0 -0.13814,0.06094 -0.13814,0.13541 0,0.07448 0.026,0.135409 0.0575,0.135409 0.0316,0 0.0938,-0.06094 0.13814,-0.135409 z m 0.39131,-0.13541 c 0.0443,-0.07448 0.0184,-0.135409 -0.0575,-0.135409 -0.0759,0 -0.13813,0.06094 -0.13813,0.135409 0,0.07448 0.0258,0.13541 0.0575,0.13541 0.0316,0 0.0938,-0.06094 0.13814,-0.13541 z m 0.39131,-0.135409 c 0.0443,-0.07448 0.0184,-0.135409 -0.0575,-0.135409 -0.0759,0 -0.13813,0.06094 -0.13813,0.135409 0,0.07448 0.0259,0.135409 0.0575,0.135409 0.0316,0 0.0938,-0.06093 0.13813,-0.135409 z M 97.416694,90.922452 c 0,-0.07448 -0.0622,-0.135409 -0.13813,-0.135409 -0.076,0 -0.10186,0.06094 -0.0575,0.135409 0.0443,0.07448 0.1065,0.135409 0.13814,0.135409 0.0316,0 0.0575,-0.06093 0.0575,-0.135409 z m 11.021896,-0.1354 c 0.10208,-0.171372 -0.0706,-0.171372 -0.32608,0 -0.16863,0.113123 -0.16518,0.131549 0.0249,0.133336 0.1213,0.0011 0.25684,-0.05886 0.30117,-0.133336 z m -11.674076,-0.20311 c -0.4268,-0.253279 -0.65803,-0.250295 -0.33377,0.0043 0.13925,0.109346 0.34469,0.19665 0.45652,0.194011 0.13034,-0.0031 0.0863,-0.07427 -0.12275,-0.198314 z m 12.599866,-0.302733 c -0.0772,-0.08026 -0.46926,0.129096 -0.46926,0.250661 0,0.06713 0.11472,0.0477 0.25494,-0.04321 0.14021,-0.09091 0.23666,-0.18426 0.21432,-0.207451 z M 94.621829,89.49776 c -0.138245,-0.108576 -0.283286,-0.164258 -0.322317,-0.123741 -0.08187,0.085 0.249409,0.326701 0.443229,0.32338 0.07174,-0.0011 0.01733,-0.09107 -0.120912,-0.199639 z M 111.11254,89.4124 c 0,-0.06871 -0.11675,-0.05952 -0.26087,0.02056 -0.14347,0.07972 -0.26088,0.167556 -0.26088,0.1952 0,0.02765 0.11741,0.01839 0.26088,-0.02056 0.14348,-0.03896 0.26087,-0.126792 0.26087,-0.195202 z m 0.51798,-0.24497 c 0.10553,-0.06929 0.16414,-0.154772 0.13023,-0.189969 -0.0339,-0.0352 -0.17549,0.02243 -0.31464,0.128046 -0.27828,0.211239 -0.12264,0.263503 0.18441,0.06191 z m -17.735617,-0.065 c 0,-0.03285 -0.0587,-0.09738 -0.130437,-0.143404 -0.07174,-0.04603 -0.130434,-0.01916 -0.130434,0.05971 0,0.07887 0.0587,0.143399 0.130434,0.143399 0.07174,0 0.130437,-0.02687 0.130437,-0.05971 z m -0.391309,-0.270823 c 0,-0.03285 -0.0587,-0.09738 -0.130436,-0.143399 -0.07174,-0.04603 -0.130439,-0.01916 -0.130439,0.05971 0,0.07887 0.0587,0.143404 0.130439,0.143404 0.07174,0 0.130436,-0.02687 0.130436,-0.05971 z m 18.652446,-0.07569 c 0,-0.07448 -0.026,-0.13541 -0.0575,-0.13541 -0.0316,0 -0.0938,0.06094 -0.13813,0.13541 -0.0443,0.07448 -0.0185,0.13541 0.0575,0.13541 0.0759,0 0.13814,-0.06094 0.13814,-0.13541 z m 0.45998,-0.380074 c -0.0401,-0.04169 -0.14541,-8.9e-5 -0.23389,0.09246 -0.12786,0.133733 -0.11287,0.149285 0.073,0.07581 0.12864,-0.05085 0.20103,-0.126567 0.16087,-0.168256 z m -19.895046,-0.07728 c 0,-0.02813 -0.08939,-0.128138 -0.19864,-0.222264 -0.166092,-0.1431 -0.18518,-0.134721 -0.116481,0.05112 0.07016,0.189806 0.315121,0.322844 0.315121,0.17114 z m -0.521748,-0.406228 c 0,-0.02813 -0.102724,-0.134751 -0.228262,-0.236962 -0.206882,-0.168434 -0.211496,-0.163643 -0.04925,0.05112 0.170401,0.225556 0.277512,0.297285 0.277512,0.185838 z M 91.41399,87.195439 c -0.09074,-0.113511 -0.198951,-0.171131 -0.240457,-0.128044 -0.0415,0.04308 0.01087,0.135027 0.116415,0.204311 0.276128,0.181286 0.312209,0.159106 0.124042,-0.07627 z m 23.53578,-0.747198 c 0.27481,-0.301049 0.47265,-0.575375 0.43966,-0.609618 -0.033,-0.03425 -0.30765,0.21207 -0.61037,0.54736 -0.30271,0.33529 -0.50056,0.609618 -0.43966,0.609618 0.0609,0 0.33557,-0.246313 0.61037,-0.54736 z M 89.457439,85.164315 c -0.09074,-0.113514 -0.191857,-0.178499 -0.224687,-0.144418 -0.09047,0.09391 0.09334,0.350805 0.250975,0.350805 0.08649,0 0.0766,-0.0777 -0.0263,-0.206387 z m 26.628461,-0.09828 c 0.14181,-0.276265 0.13615,-0.287343 -0.0606,-0.118829 -0.11937,0.102217 -0.21702,0.239313 -0.21702,0.304667 0,0.206838 0.11592,0.129252 0.27764,-0.185838 z m -35.194936,-0.84461 c -0.119307,-0.259727 -0.240077,-0.44819 -0.268379,-0.41881 -0.05967,0.06195 0.33629,0.89104 0.425544,0.89104 0.03287,0 -0.03786,-0.212504 -0.157165,-0.47223 z m 8.04473,0.265843 c -0.09074,-0.113511 -0.198953,-0.171132 -0.240458,-0.128044 -0.0415,0.04308 0.01087,0.135026 0.116412,0.204313 0.276131,0.181284 0.312213,0.159104 0.124046,-0.07627 z m 27.655196,-0.08042 c 0,-0.07448 -0.0587,-0.09775 -0.13044,-0.05172 -0.0717,0.04603 -0.13045,0.14462 -0.13045,0.219095 0,0.07448 0.0587,0.09775 0.13045,0.05172 0.0717,-0.04603 0.13044,-0.144619 0.13044,-0.219095 z m -27.913455,-0.31454 c 0,-0.03285 -0.0587,-0.09738 -0.130434,-0.143401 -0.07174,-0.04603 -0.130438,-0.01916 -0.130438,0.05971 0,0.07887 0.0587,0.143399 0.130438,0.143399 0.07174,0 0.130434,-0.02688 0.130434,-0.05971 z m 10.634499,-0.656724 c 2.591126,-1.091136 12.331876,-7.073752 12.709306,-7.805863 0.2783,-0.539814 0.16123,-1.321865 -0.2751,-1.83775 -0.54876,-0.648834 -3.15376,-2.521814 -6.4734,-4.654326 -4.21606,-2.708367 -5.679506,-3.401213 -7.184106,-3.401213 -1.48212,0 -1.65264,0.353987 -1.859,3.859147 -0.21568,3.663599 0.0383,11.926196 0.41074,13.362052 0.26734,1.030653 1.03354,1.16773 2.67156,0.477953 z m -10.895371,0.250499 c 0,-0.03285 -0.0587,-0.09738 -0.130436,-0.1434 -0.07174,-0.04603 -0.130438,-0.01916 -0.130438,0.05971 0,0.07887 0.0587,0.143399 0.130438,0.143399 0.07174,0 0.130436,-0.02688 0.130436,-0.05971 z m -8.000242,-0.642926 c -0.163977,-0.269402 -0.582094,-1.561806 -0.685693,-2.119501 -0.05012,-0.269799 -0.18376,-0.368294 -0.18376,-0.135434 0,0.47855 0.931476,2.967916 1.014171,2.71037 0.02517,-0.07838 -0.03996,-0.283326 -0.144718,-0.455435 z m 7.388193,-0.380493 c -0.201424,-0.372298 -0.414247,-0.676969 -0.472937,-0.677044 -0.05869,-7.6e-5 0.0069,0.167429 0.145933,0.372236 0.138954,0.204804 0.293649,0.509474 0.343765,0.677042 0.05012,0.167569 0.149247,0.304671 0.22029,0.304671 0.07104,0 -0.03563,-0.304608 -0.237051,-0.676905 z m 29.699436,0.270677 c 0,-0.07448 -0.0259,-0.135408 -0.0575,-0.135408 -0.0316,0 -0.0938,0.06094 -0.13813,0.135408 -0.0443,0.07448 -0.0185,0.13541 0.0575,0.13541 0.076,0 0.13814,-0.06093 0.13814,-0.13541 z m 6.88545,-0.560144 c -0.0326,-0.101424 -0.0917,-0.04004 -0.13781,0.143065 -0.0568,0.225232 -0.0397,0.278101 0.057,0.177618 0.0758,-0.07869 0.11215,-0.222996 0.0808,-0.320683 z m 0.14512,-0.692384 c -0.0122,-0.411346 -0.0193,-0.417977 -0.10989,-0.101558 -0.0532,0.186187 -0.0734,0.384221 -0.0445,0.440077 0.10939,0.212152 0.16695,0.08598 0.15441,-0.33852 z M 87.166529,81.260115 c -0.04523,-0.122373 -0.136726,-0.222496 -0.203315,-0.222496 -0.06663,0 -0.0556,0.126988 0.02451,0.282417 0.166089,0.32217 0.303062,0.276265 0.17879,-0.05992 z m 31.120041,0.04832 c 0.0771,-0.149616 0.086,-0.270818 0.0197,-0.270818 -0.0659,0 -0.15052,0.12187 -0.18804,0.270818 -0.0375,0.148952 -0.0464,0.270819 -0.0197,0.270819 0.0266,0 0.11124,-0.121867 0.18804,-0.270819 z m 6.50888,-6.106182 c 0.0135,-3.905116 -0.0961,-6.776091 -0.2471,-6.465691 -0.0486,0.100085 -0.0291,1.643455 0.0432,3.429708 0.0892,2.199882 0.0888,4.099247 -0.001,5.88691 -0.0734,1.451545 -0.0983,2.762558 -0.0555,2.913363 0.13799,0.487028 0.24762,-1.935159 0.26089,-5.76429 z m -37.968714,5.259881 c -0.0778,-0.242044 -0.195617,-0.501013 -0.261818,-0.575486 -0.122586,-0.137911 -0.115866,-0.108882 0.148868,0.64319 0.184857,0.525142 0.284338,0.465508 0.11295,-0.0677 z m 31.956994,-0.473933 c 0.0777,-0.242044 0.0922,-0.44008 0.0319,-0.44008 -0.0602,0 -0.14497,0.146672 -0.1883,0.325943 -0.0434,0.179268 -0.11705,0.438234 -0.16378,0.575486 -0.0571,0.167602 -0.0417,0.205081 0.0469,0.114137 0.0724,-0.07448 0.19548,-0.333446 0.27329,-0.575486 z m -39.191297,0.164923 c -0.103463,-0.279905 -0.176004,-0.246921 -0.176004,0.08004 0,0.153343 0.05614,0.242795 0.124741,0.198776 0.06861,-0.04402 0.09168,-0.169482 0.05126,-0.278809 z m -0.168187,-0.946771 c -0.114472,-0.398254 -0.11596,-0.396707 -0.12704,0.131886 -0.0073,0.347045 0.03339,0.48855 0.115829,0.40298 0.07856,-0.08156 0.08283,-0.285663 0.01119,-0.534866 z m 39.579714,0.07095 c 0.0443,-0.07448 0.0185,-0.135407 -0.0575,-0.135407 -0.0759,0 -0.13813,0.06094 -0.13813,0.135407 0,0.07448 0.0259,0.135408 0.0575,0.135408 0.0316,0 0.0938,-0.06094 0.13812,-0.135408 z M 86.345761,78.970378 c -0.128822,-0.132737 -0.143803,-0.117181 -0.07303,0.07581 0.04898,0.133541 0.121918,0.208693 0.162079,0.167002 0.04015,-0.04169 8.3e-5,-0.150954 -0.08906,-0.242808 z m 32.770589,-0.167002 c 0.0413,-0.111712 0.0182,-0.203114 -0.0513,-0.203114 -0.0695,0 -0.12634,0.09141 -0.12634,0.203114 0,0.111712 0.0231,0.203113 0.0513,0.203113 0.0282,0 0.0851,-0.0914 0.12634,-0.203113 z M 86.215325,78.428745 c -0.128823,-0.132736 -0.143804,-0.117184 -0.07302,0.07581 0.04898,0.133545 0.121917,0.208697 0.162078,0.167005 0.04015,-0.04168 8.2e-5,-0.150953 -0.08906,-0.242805 z m -6.923586,-0.844049 -0.101972,-0.812452 -0.0171,0.94109 c -0.0104,0.570758 0.02975,0.890472 0.101972,0.812452 0.0684,-0.07389 0.07567,-0.474411 0.0171,-0.94109 z m 39.955051,0.677047 c 0.0413,-0.111716 0.0182,-0.203115 -0.0513,-0.203115 -0.0695,0 -0.12634,0.09141 -0.12634,0.203115 0,0.11171 0.0231,0.20311 0.0513,0.20311 0.0282,0 0.0851,-0.0914 0.12635,-0.20311 z M 86.068085,77.555947 c -0.142127,-0.230098 -0.145807,-0.229803 -0.07444,0.006 0.04129,0.136423 0.0797,0.319224 0.08537,0.406228 0.0074,0.114171 0.02814,0.112506 0.07445,-0.006 0.03528,-0.09029 -0.0032,-0.273091 -0.08537,-0.406228 z m 33.309145,0.02875 c 0.0413,-0.111713 0.0182,-0.203111 -0.0513,-0.203111 -0.0695,0 -0.12634,0.09141 -0.12634,0.203111 0,0.111712 0.0231,0.203113 0.0513,0.203113 0.0282,0 0.0851,-0.09141 0.12634,-0.203113 z M 85.93719,76.607238 c -0.141283,-0.228634 -0.145143,-0.22828 -0.074,0.0068 0.04129,0.136423 0.08188,0.349689 0.0902,0.473928 0.01365,0.203506 0.02097,0.202829 0.07399,-0.0068 0.03238,-0.127992 -0.0082,-0.341261 -0.0902,-0.473931 z m 33.48197,0.07191 c -0.0416,-0.108019 -0.0725,-0.07594 -0.0789,0.08181 -0.005,0.142743 0.0251,0.22272 0.0686,0.177724 0.0434,-0.04499 0.0479,-0.161786 0.0104,-0.259533 z M 85.880363,74.703573 c -0.168296,-0.17471 -0.209375,0.119745 -0.111658,0.800333 l 0.104343,0.726703 0.03993,-0.725868 c 0.02196,-0.399228 0.0073,-0.759755 -0.0326,-0.801168 z m 33.670517,0.547898 c -0.0331,-0.131748 -0.0623,-0.05674 -0.065,0.166686 -0.003,0.223425 0.0244,0.331218 0.0601,0.239542 0.0358,-0.09168 0.038,-0.27448 0.005,-0.406228 z M 79.340629,72.813287 c 0.0406,-0.686475 0.08123,-1.29522 0.09026,-1.352765 0.0091,-0.05754 0.0016,-0.196028 -0.01645,-0.30774 -0.05895,-0.364227 -0.235748,1.127181 -0.247463,2.08755 -0.01604,1.313169 0.08547,1.063567 0.173642,-0.427045 z m 40.208961,0.480646 c -0.0416,-0.10802 -0.0724,-0.07594 -0.0789,0.08181 -0.005,0.142742 0.0251,0.222718 0.0686,0.177723 0.0434,-0.045 0.0479,-0.161787 0.0104,-0.259533 z M 85.766494,73.023114 c -0.04165,-0.108019 -0.07255,-0.07594 -0.0788,0.08181 -0.0056,0.142744 0.02517,0.222719 0.06851,0.177723 0.04333,-0.04499 0.04797,-0.161784 0.0103,-0.259532 z m 33.730446,-1.063251 c -0.0383,-0.151903 -0.0987,-0.245933 -0.13434,-0.208954 -0.0706,0.07325 0.0541,0.485141 0.14681,0.485141 0.0314,0 0.0257,-0.124283 -0.0125,-0.276187 z m -0.12188,-0.745219 c -0.0424,-0.114923 -0.10521,-0.179911 -0.13941,-0.144417 -0.0342,0.0355 -0.0235,0.129523 0.0238,0.208954 0.12862,0.21604 0.20379,0.174067 0.11559,-0.06454 z M 85.922834,70.569303 c -0.01458,-0.536037 -0.02096,-0.544976 -0.115004,-0.161272 -0.147263,0.600795 -0.147263,0.906937 0,0.812453 0.07174,-0.04603 0.123491,-0.33906 0.115004,-0.651181 z m -6.343449,-0.0291 c 0.03462,-0.187961 0.01211,-0.37436 -0.05002,-0.414216 -0.06212,-0.03985 -0.112945,0.113935 -0.112945,0.341754 0,0.502695 0.0774,0.537113 0.162956,0.07246 z m 39.665255,-0.0026 c -0.0424,-0.114922 -0.10523,-0.179911 -0.13941,-0.144417 -0.0342,0.0355 -0.0235,0.129524 0.0238,0.208954 0.12862,0.21604 0.2038,0.174069 0.11561,-0.06454 z m -0.0451,-0.527798 c 0,-0.03284 -0.0587,-0.09738 -0.13045,-0.1434 -0.0717,-0.04603 -0.13043,-0.01916 -0.13043,0.05971 0,0.07887 0.0587,0.143402 0.13043,0.143402 0.0717,0 0.13045,-0.02687 0.13045,-0.05971 z M 79.734269,69.456101 c 0.07461,-0.423891 0.156259,-0.812153 0.276753,-1.316121 0.04006,-0.167569 0.09427,-0.396071 0.120457,-0.507782 0.02619,-0.111715 0.05944,-0.218349 0.07389,-0.236967 0.01445,-0.01862 0.0377,-0.07955 0.05166,-0.135409 0.17725,-0.709358 0.394217,-1.409171 0.556255,-1.794166 0.498167,-1.183623 1.402961,-3.050973 1.498095,-3.091833 0.05779,-0.02482 0.107475,-0.116227 0.110391,-0.203111 0.0029,-0.0869 0.179004,-0.368945 0.391308,-0.626796 0.212308,-0.257848 0.386012,-0.52117 0.386012,-0.585156 0,-0.06399 0.07336,-0.195928 0.163046,-0.293197 0.08967,-0.09726 0.251089,-0.315133 0.358699,-0.484146 0.10761,-0.169014 0.342397,-0.471317 0.521748,-0.671786 0.179349,-0.20047 0.534446,-0.602823 0.789107,-0.894122 0.637083,-0.728741 2.204237,-2.169751 2.858557,-2.628465 0.159351,-0.111711 0.445675,-0.340143 0.636283,-0.507618 0.190605,-0.167477 0.419927,-0.30458 0.5096,-0.304672 0.08967,-8.8e-5 0.163718,-0.04586 0.164544,-0.101722 8.24e-4,-0.05585 0.235606,-0.217995 0.521745,-0.360307 0.286139,-0.142314 0.520253,-0.309882 0.520253,-0.372376 0,-0.06249 0.08385,-0.113622 0.186335,-0.113622 0.102485,0 0.263903,-0.07894 0.358702,-0.175398 0.0948,-0.09647 0.759327,-0.463786 1.476729,-0.816256 1.76527,-0.8673 2.046592,-0.999563 2.333921,-1.097282 0.135813,-0.04618 0.216816,-0.115244 0.180004,-0.15346 -0.173977,-0.18061 -3.094515,1.276075 -4.959379,2.473602 -4.306862,2.765671 -7.396268,6.423726 -9.010656,10.669197 -0.548511,1.442461 -1.06985,3.267281 -1.200934,4.203582 -0.09918,0.708379 0.0059,0.812284 0.126869,0.125386 z m 6.332437,-0.03774 c -0.0016,-0.197329 -0.01947,-0.200902 -0.12844,-0.02585 -0.165082,0.265179 -0.165082,0.444436 0,0.338521 0.07174,-0.04603 0.129538,-0.186725 0.12844,-0.312662 z m 32.917044,0.036 c -0.0424,-0.114921 -0.1052,-0.17991 -0.13939,-0.144417 -0.0342,0.0355 -0.0235,0.129524 0.0238,0.208954 0.12861,0.21604 0.20378,0.174069 0.11558,-0.06454 z M 86.199138,68.986283 c 0,-0.07448 -0.02588,-0.135409 -0.05751,-0.135409 -0.03163,0 -0.0938,0.06093 -0.138136,0.135409 -0.04433,0.07448 -0.01846,0.13541 0.05752,0.13541 0.07598,0 0.138135,-0.06093 0.138136,-0.13541 z m 0.184771,-0.493311 c 0.119832,-0.324181 0.02643,-0.349075 -0.158203,-0.04217 -0.08758,0.145564 -0.106301,0.264659 -0.04163,0.264659 0.06467,0 0.154595,-0.100127 0.19983,-0.222494 z M 118.5694,68.277888 c -0.0969,-0.100487 -0.11376,-0.04761 -0.057,0.177613 0.0461,0.183101 0.10524,0.244483 0.13781,0.14307 0.0313,-0.0977 -0.005,-0.241999 -0.0808,-0.320683 z m 5.83954,-0.695161 c -0.12403,-0.118603 -0.14143,-0.09708 -0.0762,0.0944 0.0464,0.13642 0.0925,0.349688 0.10224,0.473929 0.009,0.12424 0.044,0.08176 0.0762,-0.0944 0.0322,-0.176157 -0.0138,-0.389426 -0.10218,-0.473928 z m -6.07554,0.05364 c -0.12582,-0.221133 -0.24873,-0.381342 -0.27313,-0.356023 -0.079,0.08197 0.26443,0.758082 0.38504,0.758082 0.0643,0 0.0139,-0.180928 -0.11191,-0.402059 z M 86.908099,67.239735 c -0.08187,-0.085 -0.314701,0.258912 -0.311504,0.460121 0.0011,0.07448 0.08773,0.01799 0.19231,-0.125521 0.104587,-0.143516 0.158224,-0.294086 0.119194,-0.3346 z m 37.456811,-0.230461 c -0.0464,-0.125585 -0.11374,-0.197867 -0.14962,-0.160631 -0.0359,0.03724 -0.0273,0.170454 0.0191,0.296038 0.0464,0.125585 0.11375,0.197867 0.14963,0.160631 0.0359,-0.03723 0.0273,-0.170455 -0.0191,-0.296038 z m -37.187496,-0.05416 c 0.04433,-0.07448 0.01846,-0.135409 -0.05753,-0.135409 -0.07598,0 -0.138137,0.06094 -0.138137,0.135409 0,0.07448 0.02589,0.135408 0.05752,0.135408 0.03163,0 0.0938,-0.06093 0.138134,-0.135408 z m 30.673306,-0.372373 c -0.16976,-0.279279 -0.35054,-0.644884 -0.40173,-0.812452 -0.0512,-0.167568 -0.15178,-0.304671 -0.22353,-0.304671 -0.0717,0 0.0631,0.365605 0.29976,0.812453 0.23664,0.446848 0.47613,0.812451 0.53222,0.812451 0.0561,0 -0.0369,-0.2285 -0.20672,-0.507781 z m 6.43593,-0.03384 c 0,-0.07448 -0.0622,-0.135409 -0.13814,-0.135409 -0.0759,0 -0.10177,0.06093 -0.0575,0.135409 0.0443,0.07448 0.1065,0.135408 0.13814,0.135408 0.0316,0 0.0575,-0.06094 0.0575,-0.135408 z M 87.633943,66.210364 c 0.09359,-0.117073 0.10627,-0.203115 0.02993,-0.203115 -0.07284,0 -0.166238,0.0914 -0.207531,0.203115 -0.04129,0.111711 -0.05476,0.203114 -0.02994,0.203114 0.02485,0 0.118227,-0.09141 0.207535,-0.203114 z m 36.100427,-1.259172 c -0.52453,-1.259478 -1.79879,-3.513006 -2.73387,-4.834874 -0.36853,-0.520963 -1.43809,-1.741731 -2.37678,-2.712812 -2.27703,-2.355566 -4.54981,-3.935508 -7.37669,-5.127953 -0.79662,-0.336038 -1.23284,-0.417193 -0.62343,-0.11599 2.16746,1.071285 3.71779,1.886283 3.85701,2.027585 0.0947,0.09622 0.22931,0.17495 0.29893,0.17495 0.0696,0 0.25258,0.121868 0.40659,0.270816 0.15401,0.148952 0.35699,0.270819 0.45108,0.270819 0.0941,0 0.17105,0.06093 0.17105,0.135409 0,0.07448 0.0536,0.13541 0.11936,0.13541 0.20849,0 2.09283,1.746945 3.12949,2.901302 0.32947,0.366886 0.77583,0.859886 0.99191,1.095561 0.21608,0.235673 0.53891,0.651052 0.7174,0.923065 0.17849,0.272014 0.36856,0.494986 0.42236,0.495496 0.0537,5.72e-4 0.0979,0.09233 0.0979,0.204037 0,0.111711 0.0545,0.203114 0.12101,0.203114 0.0666,0 0.22458,0.243736 0.35119,0.541633 0.12662,0.297899 0.27236,0.541636 0.3239,0.541636 0.0516,0 0.2214,0.273867 0.37749,0.608589 0.15608,0.334723 0.33838,0.643604 0.40507,0.686401 0.0666,0.04279 0.0922,0.126671 0.0567,0.186384 -0.0356,0.05971 0.0516,0.247633 0.19352,0.417588 0.2422,0.289893 0.31035,0.466163 0.27362,0.707657 -0.008,0.05585 0.053,0.101558 0.13673,0.101558 0.0837,0 0.11511,0.03849 0.0698,0.0855 -0.0454,0.04702 -0.0131,0.214596 0.0714,0.372372 0.0847,0.157779 0.16379,0.317333 0.17598,0.354572 0.0122,0.03724 0.0686,0.218466 0.12532,0.402736 0.0567,0.184263 0.12672,0.26158 0.15555,0.171814 0.0288,-0.08977 -0.14647,-0.64074 -0.38954,-1.224382 z m -35.632068,0.549272 c -0.09046,-0.09391 -0.337921,0.09689 -0.337921,0.26054 0,0.08979 0.07484,0.07952 0.198805,-0.02731 0.109346,-0.09422 0.171945,-0.199169 0.139116,-0.233254 z m 0.391309,-0.541633 c -0.09046,-0.09391 -0.337922,0.09689 -0.337922,0.260537 0,0.0898 0.07484,0.07951 0.198808,-0.02731 0.109344,-0.09421 0.171945,-0.19917 0.139114,-0.233251 z m 0.517903,-0.585139 c 0.224663,-0.243437 0.291882,-0.378627 0.162666,-0.327151 -0.187006,0.0745 -0.717208,0.74203 -0.58937,0.74203 0.02409,0 0.216116,-0.186695 0.426704,-0.414879 z m 27.188056,-0.532981 c -0.0767,-0.148952 -0.20534,-0.270818 -0.28567,-0.270818 -0.0804,0 -0.0399,0.121866 0.09,0.270818 0.12984,0.148947 0.2584,0.270819 0.28568,0.270819 0.0273,0 -0.0132,-0.121872 -0.09,-0.270819 z M 93.278787,60.056353 c 0.414409,-0.322675 0.72536,-0.615863 0.691004,-0.651529 -0.03435,-0.03567 -0.146111,0.0186 -0.24835,0.120536 -0.102234,0.101959 -0.316923,0.276781 -0.477081,0.388494 -0.620689,0.432931 -3.386477,3.155502 -3.782852,3.723741 -0.103899,0.148948 0.542952,-0.463891 1.437451,-1.361872 0.894496,-0.897979 1.96542,-1.896695 2.379828,-2.21937 z m 22.529473,3.316577 c 0,-0.09493 -0.65319,-0.750901 -0.74773,-0.750901 -0.0461,0 0.085,0.182803 0.2912,0.406228 0.36935,0.400201 0.45653,0.466027 0.45653,0.344673 z m -0.78261,-0.927451 c 0,-0.02262 -0.22012,-0.25113 -0.48915,-0.507782 l -0.48913,-0.466641 0.44951,0.507781 c 0.41838,0.472633 0.52877,0.570044 0.52877,0.466642 z m -1.30437,-1.312945 c -0.15326,-0.223424 -0.34432,-0.406228 -0.4246,-0.406228 -0.0803,0 0.0228,0.182804 0.22894,0.406228 0.2062,0.223423 0.39726,0.406224 0.42459,0.406224 0.0274,0 -0.0757,-0.182801 -0.22893,-0.406224 z m -0.84805,-0.751203 c -0.14337,-0.103081 -0.33156,-0.250436 -0.41821,-0.327451 -0.0866,-0.07702 -0.20403,-0.138387 -0.26087,-0.136383 -0.0568,0.002 0.10176,0.180117 0.35236,0.395808 0.25063,0.21569 0.48533,0.361406 0.52155,0.323809 0.0362,-0.0376 -0.0515,-0.152698 -0.19483,-0.255783 z m -1.04436,-0.780567 c -0.1429,-0.08656 -0.37719,-0.229992 -0.52067,-0.318755 -0.64137,-0.396776 -2.02177,-1.077182 -2.02177,-0.996538 0,0.04899 0.35471,0.26509 0.78823,0.480194 0.43354,0.215106 1.0326,0.559043 1.33126,0.764302 0.29866,0.205258 0.57445,0.340565 0.61287,0.30068 0.0384,-0.03988 -0.047,-0.14333 -0.18992,-0.229883 z M 94.351432,59.23681 c 0.04433,-0.07448 0.01846,-0.135409 -0.05753,-0.135409 -0.07598,0 -0.138133,0.06093 -0.138133,0.135409 0,0.07448 0.02588,0.135409 0.05752,0.135409 0.03163,0 0.0938,-0.06093 0.138135,-0.135409 z m 0.643148,-0.528448 c -0.03432,-0.03563 -0.163716,0.04504 -0.287553,0.179268 -0.215127,0.233165 -0.212349,0.236053 0.06239,0.06477 0.158153,-0.0986 0.259475,-0.208415 0.22516,-0.244037 z m 13.90054,-0.614534 c 0,-0.03284 -0.0587,-0.09738 -0.13043,-0.143403 -0.0717,-0.04603 -0.13044,-0.01916 -0.13044,0.05971 0,0.07887 0.0587,0.143399 0.13044,0.143399 0.0717,0 0.13043,-0.02687 0.13043,-0.05971 z M 96.764514,57.882725 c 0,-0.07448 -0.0259,-0.13541 -0.0575,-0.13541 -0.0316,0 -0.0938,0.06093 -0.13814,0.13541 -0.0443,0.07448 -0.0185,0.135405 0.0575,0.135405 0.076,0 0.13813,-0.06093 0.13813,-0.135405 z m 11.667546,0.01799 c -0.15464,-0.146526 -1.44048,-0.59551 -1.30957,-0.457274 0.0524,0.05542 0.37006,0.202665 0.70575,0.327226 0.73734,0.273587 0.76061,0.278601 0.60382,0.130048 z M 97.624464,57.664349 c 0.17268,-0.04499 0.31397,-0.136952 0.31397,-0.204353 0,-0.0674 -0.21709,-0.02839 -0.48243,0.08671 -0.50136,0.21747 -0.8073,0.446827 -0.38589,0.289304 0.13221,-0.04941 0.38167,-0.126669 0.55435,-0.171663 z m 0.83573,-0.247567 c 0,-0.142924 -0.25032,-0.202968 -0.32478,-0.07791 -0.0451,0.07569 0.009,0.137616 0.12143,0.137616 0.11184,0 0.20335,-0.02687 0.20335,-0.05971 z m 0.52174,-0.211107 c 0,-0.07448 -0.0553,-0.13541 -0.12273,-0.13541 -0.0675,0 -0.15902,0.06094 -0.20335,0.13541 -0.0443,0.07448 0.0108,0.135408 0.12273,0.135408 0.11184,0 0.20335,-0.06093 0.20335,-0.135408 z m 7.434896,0.08219 c 0,-0.02927 -0.0911,-0.08951 -0.20243,-0.133858 -0.11609,-0.04623 -0.16844,-0.02354 -0.12274,0.05321 0.0766,0.128667 0.32517,0.190311 0.32517,0.08064 z m -6.782706,-0.204921 c 0,-0.06751 -0.1174,-0.09087 -0.26088,-0.05191 -0.14348,0.03894 -0.26087,0.09419 -0.26087,0.122732 0,0.02856 0.11739,0.05191 0.26087,0.05191 0.14348,0 0.26088,-0.05522 0.26088,-0.12273 z m 6.130526,0.06951 c 0,-0.02927 -0.0911,-0.0895 -0.20244,-0.133858 -0.11608,-0.04623 -0.16843,-0.02354 -0.12273,0.05322 0.0766,0.128666 0.32517,0.190311 0.32517,0.08064 z m -5.2827,-0.217598 c 0.0953,-0.16016 -0.0323,-0.16016 -0.39131,0 -0.251506,0.112198 -0.250606,0.116715 0.0249,0.125892 0.15719,0.0053 0.32206,-0.05141 0.36639,-0.125892 z m 1.14132,-0.08969 c -0.0896,-0.03756 -0.23641,-0.03756 -0.32608,0 -0.0896,0.03757 -0.0163,0.0683 0.16304,0.0683 0.17935,0 0.25271,-0.03074 0.16304,-0.0683 z m 1.76434,-0.0088 c -0.26713,-0.0291 -0.73669,-0.0295 -1.04349,-8.56e-4 -0.30679,0.02861 -0.0882,0.05241 0.48569,0.05289 0.57393,5.71e-4 0.82493,-0.02291 0.5578,-0.05201 z m -8.057901,-4.979402 c 0,0.05547 0.07519,0.03608 0.167095,-0.04309 0.09191,-0.07918 0.312016,-0.174919 0.489139,-0.212752 0.303701,-0.06487 0.558551,-0.127125 1.169881,-0.285783 0.14348,-0.03723 0.38621,-0.09627 0.53939,-0.131162 0.32833,-0.07481 0.4889,-0.20736 0.25118,-0.20736 -0.57428,0 -3.007996,0.789116 -3.007996,0.975324 0,0.08567 0.07688,0.07488 0.195654,-0.02747 0.107611,-0.09271 0.195657,-0.123178 0.195657,-0.0677 z m 14.869771,0.0677 c 0,-0.07448 -0.0622,-0.13541 -0.13813,-0.13541 -0.076,0 -0.10177,0.06094 -0.0575,0.13541 0.0444,0.07448 0.1065,0.135408 0.13814,0.135408 0.0316,0 0.0575,-0.06094 0.0575,-0.135408 z m -0.3913,-0.13541 c 0,-0.07448 -0.0622,-0.135407 -0.13814,-0.135407 -0.076,0 -0.10177,0.06093 -0.0575,0.135407 0.0443,0.07448 0.10651,0.13541 0.13814,0.13541 0.0316,0 0.0575,-0.06094 0.0575,-0.13541 z m -0.39131,-0.135407 c 0,-0.07448 -0.0622,-0.135409 -0.13813,-0.135409 -0.0759,0 -0.10177,0.06093 -0.0575,0.135409 0.0443,0.07448 0.1065,0.135407 0.13813,0.135407 0.0316,0 0.0575,-0.06093 0.0575,-0.135407 z m -0.84784,-0.341701 c -0.53504,-0.183685 -1.07614,-0.256397 -0.95245,-0.127984 0.0382,0.03957 0.20259,0.0986 0.36548,0.131163 0.16291,0.03257 0.31429,0.07802 0.33643,0.101002 0.0222,0.02299 0.20496,0.04924 0.40627,0.05836 0.30671,0.01391 0.28147,-0.01245 -0.15573,-0.162545 z m -1.10871,-0.199935 c 0,-0.07448 -0.10275,-0.134475 -0.22827,-0.133336 -0.19507,0.0018 -0.19981,0.02116 -0.0326,0.133336 0.24615,0.165146 0.26087,0.165146 0.26087,0 z M 98.721054,50.89461 c 0,-0.02927 -0.12085,-0.05321 -0.26857,-0.05321 -0.1477,0 -0.23387,0.05827 -0.19148,0.129497 0.0696,0.116912 0.46005,0.05217 0.46005,-0.07628 z m 8.152296,0.08219 c 0.0468,-0.07868 -0.0729,-0.13142 -0.28579,-0.125891 -0.32228,0.0083 -0.33499,0.02354 -0.10551,0.125891 0.14346,0.06401 0.27208,0.120659 0.28577,0.125893 0.0137,0.0053 0.0611,-0.05141 0.10553,-0.125893 z m -7.239226,-0.218897 c 0,-0.02856 -0.17956,-0.05192 -0.39901,-0.05192 -0.21946,0 -0.3676,0.05276 -0.32921,0.11725 0.065,0.109079 0.72822,0.04957 0.72822,-0.06533 z m 6.521826,0.08349 c 0,-0.07448 -0.16142,-0.131126 -0.3587,-0.12589 -0.31786,0.0084 -0.329,0.02277 -0.0979,0.12589 0.35627,0.158932 0.45653,0.158932 0.45653,0 z m -5.35877,-0.222561 c 0.0298,-0.02654 -0.19369,-0.04825 -0.49684,-0.04825 -0.321796,0 -0.518736,0.05451 -0.473216,0.130975 0.0679,0.114105 0.820656,0.04992 0.970056,-0.08272 z m 4.38049,0.08715 c 0.0496,-0.0831 -0.13653,-0.129221 -0.48143,-0.119388 -0.52417,0.01494 -0.53567,0.02299 -0.17075,0.119388 0.56258,0.148611 0.56371,0.148611 0.65218,0 z m -1.55491,-0.152773 c 0.0387,-0.06492 -0.49426,-0.118046 -1.18425,-0.118046 -0.83378,0 -1.22649,0.04714 -1.17087,0.140556 0.10095,0.169573 2.25303,0.149002 2.35512,-0.02251 z"
       id="path4763" /><ellipse
       style="fill:#ffffff;stroke:#1a1a1a;stroke-width:0.274561;stroke-linecap:square;stroke-miterlimit:3.6;stroke-dasharray:none;paint-order:stroke fill markers"
       id="path2424"
       cx="101.77212"
       cy="74.658699"
       rx="20.659542"
       ry="21.447052" /><ellipse
       style="fill:#ffffff;stroke:#1a1a1a;stroke-width:0.20592;stroke-linecap:square;stroke-miterlimit:3.6;stroke-dasharray:none;paint-order:stroke fill markers"
       id="path2424-5"
       cx="102.00087"
       cy="74.760735"
       rx="15.494655"
       ry="16.085289" /><path
       style="fill:#333333;stroke:#333333;stroke-width:0.317803;stroke-linecap:square;stroke-miterlimit:3.6;stroke-dasharray:none;paint-order:stroke fill markers"
       d="m 97.084964,83.106357 c -0.35249,-0.112474 -0.51464,-0.281996 -0.61038,-0.638108 -0.30075,-1.118776 -0.49046,-4.825682 -0.490727,-9.589007 -2.48e-4,-4.450809 0.116837,-6.168664 0.470207,-6.898891 0.2361,-0.487874 0.409,-0.578617 1.15353,-0.60541 0.58743,-0.02114 0.69252,-0.0041 1.31984,0.213803 1.447566,0.502856 3.062646,1.368366 5.030376,2.695782 0.60247,0.406416 1.55363,1.017216 2.11371,1.357336 0.8749,0.531302 2.06239,1.357958 4.35339,3.030575 0.59153,0.431852 1.03621,0.957028 1.15299,1.361685 0.11708,0.405679 -0.0679,0.942909 -0.42907,1.246264 -1.08292,0.909507 -5.64428,3.755754 -9.70466,6.055623 -2.519736,1.427217 -3.802246,1.948069 -4.359206,1.770348 z"
       id="path2368" /><path
       style="fill:#cccccc;stroke:#cccccc;stroke-width:0.89689;stroke-linecap:square;stroke-miterlimit:3.6;stroke-dasharray:none;paint-order:stroke fill markers"
       d="m 157.00073,109.36041 c -23.63959,-2.80433 -88.093755,-2.69171 -115.016174,0.20096 l -5.280187,0.56732 V 74.124577 38.120442 l 7.116767,0.566657 c 3.914231,0.311654 13.521865,1.088929 21.35031,1.72728 17.284307,1.409396 73.864854,0.609102 91.140564,-1.289124 l 11.70826,-1.286478 v 36.513328 c 0,20.082328 -0.10349,36.456575 -0.22959,36.387185 -0.12628,-0.0693 -4.98176,-0.68986 -10.78995,-1.37888 z M 110.01057,98.263707 c 5.27896,-2.284788 9.75775,-6.203956 12.81033,-11.209661 2.24973,-3.689169 2.49873,-4.975741 2.49873,-12.910813 0,-7.955234 -0.25587,-9.26897 -2.62821,-13.493247 -6.24905,-11.127467 -19.45112,-15.505352 -30.281592,-10.041559 -9.715129,4.90112 -14.388586,12.673305 -14.373661,23.904105 0.0072,5.396705 0.4685,7.340618 2.747925,11.578961 6.202764,11.53334 18.688222,16.733277 29.226478,12.172214 z"
       id="path479" /><path
       style="fill:#333333;stroke:#333333;stroke-width:1.00459;stroke-linecap:square;stroke-miterlimit:3.6;stroke-dasharray:none;paint-order:stroke fill markers"
       d="M 99.634124,95.916163 C 95.065137,95.371157 90.928506,93.384689 87.622611,90.148066 84.645683,87.233515 82.597702,83.45167 81.625775,79.074194 c -0.347103,-1.563337 -0.49179,-5.59362 -0.26078,-7.264097 0.672041,-4.859634 2.809854,-9.174409 6.238014,-12.590264 2.850085,-2.839858 6.368578,-4.727775 10.364165,-5.561099 2.085106,-0.434873 5.521416,-0.434111 7.631516,0.0018 7.33568,1.515056 13.34398,6.958118 15.68385,14.208366 0.80744,2.501923 0.96685,3.609348 0.96973,6.736913 0.002,2.443151 -0.0384,3.039014 -0.28831,4.231391 -0.63982,3.052094 -1.96941,6.154683 -3.64135,8.49703 -4.31794,6.049335 -11.65915,9.420529 -18.688486,8.582038 z m 5.322776,-5.199926 c 7.30884,-1.43931 12.67749,-8.150458 12.67749,-15.847655 0,-2.733067 -0.4764,-4.871173 -1.62743,-7.304132 -2.20656,-4.664056 -6.37326,-7.920258 -11.26903,-8.806553 -1.43301,-0.259419 -4.13161,-0.253997 -5.513316,0.01108 -10.677602,2.04845 -16.176244,14.34018 -10.788503,24.116741 3.284845,5.96066 9.956983,9.123117 16.520789,7.830521 z"
       id="path9218" /><path
       style="fill:#1a1a1a;stroke:#552200;stroke-width:0;stroke-linecap:square;stroke-miterlimit:3.6;stroke-dasharray:none;paint-order:stroke fill markers"
       d="M 33.383327,74.359828 V 34.00946 l 5.542102,0.528322 c 3.048157,0.290578 12.078935,1.178789 20.068389,1.973791 11.656836,1.159941 21.641055,1.356824 50.543962,0.996699 19.80972,-0.246823 39.0104,-0.864156 42.66819,-1.371851 3.65779,-0.507705 9.54349,-1.164378 13.07935,-1.459276 l 6.42884,-0.536196 v 40.264449 40.264442 l -5.98547,-0.48862 c -3.29202,-0.26874 -11.17288,-1.06782 -17.51304,-1.77572 -16.02421,-1.78918 -77.260432,-1.78451 -92.628153,0.007 -6.115983,0.71302 -13.613911,1.52167 -16.662068,1.79702 l -5.542102,0.50064 z m 22.168405,33.841462 c 13.847383,-1.57462 79.229068,-1.57694 93.107288,-0.003 5.60861,0.63595 12.29238,1.35255 14.85283,1.59243 l 4.65537,0.43615 V 74.487676 38.748865 l -5.98547,0.477605 c -3.29201,0.262649 -11.87483,1.062215 -19.07293,1.77678 -17.4856,1.735826 -63.660722,1.734185 -81.120158,-0.0027 C 54.790565,40.284402 46.407265,39.508143 43.35911,39.275524 l -5.542098,-0.422955 v 35.661787 35.661794 l 3.768628,-0.40762 c 2.072742,-0.22419 8.357487,-0.92943 13.966092,-1.56721 z"
       id="path406" /></g></svg>
