<?xml version="1.0" encoding="UTF-8" standalone="no"?>
<!-- Created with Inkscape (http://www.inkscape.org/) -->

<svg
   width="210mm"
   height="297mm"
   viewBox="0 0 210 297"
   version="1.1"
   id="svg5"
   inkscape:version="1.2.1 (9c6d41e410, 2022-07-14)"
   sodipodi:docname="nemocnice.svg"
   xml:space="preserve"
   inkscape:export-filename="nemocnice.png"
   inkscape:export-xdpi="96"
   inkscape:export-ydpi="96"
   xmlns:inkscape="http://www.inkscape.org/namespaces/inkscape"
   xmlns:sodipodi="http://sodipodi.sourceforge.net/DTD/sodipodi-0.dtd"
   xmlns="http://www.w3.org/2000/svg"
   xmlns:svg="http://www.w3.org/2000/svg"><sodipodi:namedview
     id="namedview7"
     pagecolor="#ffffff"
     bordercolor="#000000"
     borderopacity="0.25"
     inkscape:showpageshadow="2"
     inkscape:pageopacity="0.0"
     inkscape:pagecheckerboard="0"
     inkscape:deskcolor="#d1d1d1"
     inkscape:document-units="mm"
     showgrid="false"
     showguides="false"
     inkscape:zoom="1"
     inkscape:cx="289"
     inkscape:cy="368"
     inkscape:window-width="1920"
     inkscape:window-height="1017"
     inkscape:window-x="-8"
     inkscape:window-y="-8"
     inkscape:window-maximized="1"
     inkscape:current-layer="layer1" /><defs
     id="defs2" /><g
     inkscape:label="Vrstva 1"
     inkscape:groupmode="layer"
     id="layer1"><path
       style="fill:#d40000;stroke:#000000;stroke-width:9.82677177;stroke-linejoin:round;stroke-miterlimit:3.6;stroke-dasharray:none;paint-order:stroke fill markers"
       d="m 374.84379,370.54171 c -5.28594,-3.03148 -5.94856,-5.33635 -5.9924,-20.84397 l -0.0426,-15.08763 h -13.54383 c -15.95057,0 -21.70206,-2.0095 -23.91424,-8.35537 -2.21449,-6.35249 -1.83958,-39.04168 0.51233,-44.67058 2.58475,-6.18618 6.15185,-7.32457 22.95126,-7.32457 h 13.99448 v -15.24205 c 0,-13.38925 0.33788,-15.6716 2.77958,-18.77572 l 2.77959,-3.53367 h 24.10383 c 23.80355,0 24.14483,0.041 27.39567,3.29185 3.11489,3.11489 3.29185,4.12422 3.29185,18.77572 v 15.48387 h 14.14839 c 16.29818,0 20.97183,1.64903 23.25764,8.20611 1.84286,5.28643 1.9475,36.3494 0.14432,42.84039 -1.98517,7.14608 -7.59447,9.30402 -24.18463,9.30402 h -13.36572 l -0.0427,15.08763 c -0.0461,16.29791 -0.85214,18.65847 -7.19485,21.06996 -5.06557,1.92592 -43.64867,1.74071 -47.07797,-0.22599 z m 38.24177,-29.56127 c 0.0123,-9.4432 0.65295,-16.34194 1.71226,-18.44043 1.64516,-3.25904 2.17911,-3.37157 19.09123,-4.02337 l 17.39873,-0.67056 0.3822,-13.74651 0.3822,-13.74651 h -17.44707 -17.44708 l -2.04612,-3.95677 c -1.48759,-2.87667 -2.04612,-8.18499 -2.04612,-19.44628 V 251.4605 H 398.984 384.90221 v 15.91261 c 0,14.06764 -0.32228,16.32232 -2.77958,19.44628 -2.73718,3.47976 -3.0346,3.53367 -19.4932,3.53367 h -16.71361 l 0.3822,13.74651 0.38219,13.74651 16.36347,0.37603 c 15.8275,0.36372 16.45347,0.49044 19.111,3.86895 2.40323,3.05521 2.74753,5.40292 2.74753,18.73496 v 15.24205 h 14.08179 14.08179 z"
       id="path4321"
       transform="scale(0.26458333)" /><path
       style="fill:#000000;stroke:#000000;stroke-width:0;stroke-linejoin:round;stroke-miterlimit:3.6;stroke-dasharray:none;paint-order:stroke fill markers"
       d="m 357.22691,418.8734 c -1.57549,-0.76287 -3.56253,-2.91897 -4.41564,-4.79135 -1.33081,-2.92082 -1.12887,-3.85376 1.42191,-6.56894 l 2.97301,-3.16462 h 41.98067 41.98067 l 2.23284,3.40774 c 2.80667,4.28353 0.88637,9.41736 -4.25351,11.37154 -4.70194,1.78767 -78.17383,1.55953 -81.91995,-0.25437 z"
       id="path4489"
       transform="scale(0.26458333)" /><path
       style="fill:#000000;stroke:#000000;stroke-width:0;stroke-linejoin:round;stroke-miterlimit:3.6;stroke-dasharray:none;paint-order:stroke fill markers"
       d="m 355.37845,460.92988 c -3.26722,-2.64563 -4.03559,-8.8049 -1.42453,-11.41908 1.64953,-1.65152 79.54435,-3.12592 85.56033,-1.6195 5.82164,1.45776 6.99936,8.64963 2.20202,13.44696 -1.70993,1.70993 -8.25451,2.01963 -42.67949,2.01963 -37.24247,0 -40.91189,-0.20407 -43.65833,-2.42801 z"
       id="path4491"
       transform="scale(0.26458333)" /><path
       style="fill:#000000;stroke:#4d4d4d;stroke-width:0;stroke-linejoin:round;stroke-miterlimit:3.6;stroke-dasharray:none;paint-order:stroke fill markers"
       d="m 52.126821,176.72076 c -17.497356,-0.15087 -21.611447,-0.27611 -22.08871,-0.6724 -0.540247,-0.4486 -0.586499,-4.34456 -0.586499,-49.40408 V 77.727194 l -1.330645,-0.684392 c -2.783689,-1.43174 -4.346774,-4.000233 -4.346774,-7.142708 0,-2.04466 0.642744,-3.541691 2.257467,-5.257922 2.083597,-2.214581 0.998377,-2.110012 24.817171,-2.391341 L 72.741935,61.992246 V 55.867568 49.74289 L 71.23387,49.491345 C 67.104688,48.8026 64.560028,46.254509 64.291302,42.53941 c -0.279273,-3.860911 1.896239,-7.191063 5.325684,-8.152251 2.185117,-0.612434 68.631764,-0.616339 70.815094,-0.0042 5.97709,1.675905 7.41118,10.303057 2.25611,13.572302 -0.89589,0.568158 -2.23014,1.194911 -2.96499,1.392787 l -1.3361,0.359776 v 6.152721 6.152721 l 21.73387,0.256559 c 24.07797,0.284231 22.98038,0.167536 25.25482,2.685073 3.25913,3.607459 2.38955,8.9252 -1.91071,11.684672 L 181.78583,77.717139 181.52824,98.19 c -0.1496,11.89029 0.11243,43.34219 -0.0858,43.71263 -0.47448,0.88657 -4.06534,1.50078 -4.06133,-0.87812 l 0.0383,-22.72849 V 98.18184 78.067612 H 157.90322 138.3871 v 47.370978 47.37096 h 19.51612 c 10.73387,0 19.49722,-0.11975 19.47411,-0.26613 -0.0231,-0.14637 -0.0231,-10.02122 0,-21.94412 l 0.042,-21.67799 0.70002,9.12761 c 0.10662,1.39023 1.75952,-10.45045 2.6582,-9.60618 l 0.61922,-0.55781 0.27863,24.49454 -0.002,23.09137 -1.17275,0.79839 -1.17276,0.79839 -52.84901,-0.0807 c -29.06791,-0.0444 -62.525959,-0.16418 -74.352175,-0.26616 z M 72.741935,125.43858 V 78.067607 H 53.048386 33.354838 v 47.370973 47.37097 h 19.693548 19.693549 z m 12.921823,29.77149 c 0.140976,-9.67972 0.335312,-17.80535 0.431864,-18.05696 0.09655,-0.25161 0.664337,-0.55523 1.261738,-0.67471 1.41722,-0.28345 34.64225,-0.28345 36.05947,0 0.5974,0.11948 1.16164,0.41385 1.25385,0.65415 0.0922,0.2403 0.28515,8.36593 0.42875,18.05696 l 0.26109,17.62004 h 4.38426 4.38425 V 111.24503 49.680512 H 105.56452 76.999998 v 61.564518 61.56452 h 4.203724 4.203721 z m 17.587242,1.2769 0.0201,-16.32258 h -6.74844 -6.74844 v 16.32258 16.32258 h 6.72838 6.72837 l 0.0201,-16.32258 z m 17.749,0 v -16.32258 h -6.74194 -6.74193 v 16.32258 16.32258 H 114.25806 121 Z m -48.257962,-86.669362 9.8e-5,-3.991936 -21.556551,0.08989 -21.556554,0.0899 -0.786233,0.89157 c -1.939997,2.199907 -1.650942,5.923457 0.49672,6.398659 0.549556,0.121597 1.158868,0.274352 1.354029,0.339452 0.195162,0.0651 9.735889,0.130977 21.201613,0.146384 l 20.846775,0.02801 z m 108.920442,3.589133 c 1.38827,-0.483952 1.78913,-1.246145 1.78913,-3.40179 0,-1.3657 -0.202,-1.958345 -0.97581,-2.862874 l -0.9758,-1.140655 -21.55656,-0.08788 -21.55655,-0.08787 1e-4,3.997021 1.1e-4,3.997023 21.09047,-0.01572 c 14.08877,-0.0105 21.45381,-0.142386 22.18491,-0.397251 z M 141.45667,44.53535 c 0.38577,-0.518239 0.48552,-1.326226 0.36976,-2.995274 -0.27352,-3.943503 3.58374,-3.569242 -36.78563,-3.569242 -34.913618,0 -35.045293,0.0027 -35.976817,0.73543 -0.836785,0.658215 -0.934953,0.974895 -0.934953,3.016131 0,1.822678 0.14541,2.426105 0.724061,3.004757 0.720641,0.72064 0.892437,0.723572 36.399689,0.620966 35.20201,-0.101721 35.68263,-0.112511 36.20389,-0.812768 z"
       id="path4493"
       sodipodi:nodetypes="csscsssscccssscsscccssscssscccccccssscsscccccscccccccccccsssssscccccccccccscccccccccccccccccccccccssssccssscccccsssssssssss" /><path
       style="fill:#d40000;stroke:#000000;stroke-width:0;stroke-linejoin:round;stroke-miterlimit:3.6;stroke-dasharray:none;paint-order:stroke fill markers"
       d="m 387.35855,338.16423 c -0.30906,-11.51199 -1.00594,-17.23757 -2.28527,-18.77572 -1.53598,-1.84673 -4.69902,-2.213 -19.111,-2.213 H 348.6919 v -12.74066 -12.74067 h 16.15443 c 15.36346,0 16.31561,-0.16118 19.44628,-3.29184 3.11489,-3.11489 3.29185,-4.12422 3.29185,-18.77572 v -15.48387 h 11.39954 11.39954 v 15.48387 c 0,14.6515 0.17696,15.66083 3.29185,18.77572 3.13066,3.13066 4.08282,3.29184 19.44628,3.29184 h 16.15443 v 12.74067 12.74066 h -17.27038 c -14.41198,0 -17.57502,0.36627 -19.111,2.213 -1.27933,1.53815 -1.97621,7.26373 -2.28528,18.77572 l -0.44465,16.56272 H 398.984 387.80321 Z"
       id="path4495"
       transform="scale(0.26458333)" /><path
       style="fill:#d40000;stroke:#000000;stroke-width:0;stroke-linejoin:round;stroke-miterlimit:3.6;stroke-dasharray:none;paint-order:stroke fill markers"
       d="m 388.43731,348.50472 c -0.46907,-3.42223 -0.85285,-10.32326 -0.85285,-15.33561 0,-5.01235 -0.58857,-10.66142 -1.30793,-12.55348 l -1.30793,-3.44012 H 366.83025 348.6919 v -12.74066 -12.74067 h 16.53025 c 15.54486,0 16.70409,-0.18503 19.44628,-3.10396 2.65051,-2.82133 2.91603,-4.53095 2.91603,-18.77572 v -15.67175 h 11.39954 11.39954 v 15.85969 c 0,14.84393 0.1988,16.04646 3.10396,18.77572 2.83634,2.6646 4.51304,2.91602 19.44628,2.91602 h 16.34232 v 12.74067 12.74066 H 431.13775 412.9994 l -1.30793,3.44012 c -0.71936,1.89206 -1.30793,7.54113 -1.30793,12.55348 0,5.01235 -0.38378,11.91338 -0.85285,15.33561 l -0.85285,6.22223 h -9.69384 -9.69384 z"
       id="path4497"
       transform="scale(0.26458333)" /><path
       style="fill:#d40000;stroke:#000000;stroke-width:0;stroke-linejoin:round;stroke-miterlimit:3.6;stroke-dasharray:none;paint-order:stroke fill markers"
       d="m 388.44525,349.69774 c -0.4572,-2.76607 -0.83792,-9.66709 -0.84603,-15.3356 -0.008,-5.66852 -0.60333,-11.85445 -1.32269,-13.74651 l -1.30793,-3.44012 H 366.83025 348.6919 v -12.74066 -12.74067 h 16.53025 c 15.54486,0 16.70409,-0.18503 19.44628,-3.10396 2.65051,-2.82133 2.91603,-4.53095 2.91603,-18.77572 v -15.67175 h 11.39954 11.39954 v 15.85969 c 0,14.84393 0.1988,16.04646 3.10396,18.77572 2.83634,2.6646 4.51304,2.91602 19.44628,2.91602 h 16.34232 v 12.74067 12.74066 H 431.13775 412.9994 l -1.30793,3.44012 c -0.71936,1.89206 -1.31457,8.07799 -1.32269,13.74651 -0.008,5.66851 -0.38883,12.56953 -0.84604,15.3356 l -0.83127,5.02921 h -9.70747 -9.70747 z"
       id="path4499"
       transform="scale(0.26458333)" /><path
       style="fill:#d40000;stroke:#000000;stroke-width:0;stroke-linejoin:round;stroke-miterlimit:3.6;stroke-dasharray:none;paint-order:stroke fill markers"
       d="m 388.86255,354.39167 c -0.0347,-0.18441 -0.54388,-7.93503 -1.13158,-17.22361 -0.58769,-9.28857 -1.50021,-17.58677 -2.0278,-18.44043 -0.64945,-1.05084 -6.78097,-1.55212 -18.98527,-1.55212 h -18.026 v -12.74066 -12.74067 h 16.66669 c 16.40792,0 16.70985,-0.0549 19.44628,-3.53367 2.4417,-3.10412 2.77959,-5.38646 2.77959,-18.77571 v -15.24205 h 11.39954 11.39954 v 15.99613 c 0,15.6835 0.0691,16.05046 3.53367,18.77572 3.12396,2.45731 5.37864,2.77958 19.44628,2.77958 h 15.91261 v 12.74067 12.74066 h -18.02601 c -12.2043,0 -18.33581,0.50128 -18.98527,1.55212 -0.52759,0.85366 -1.4401,9.15186 -2.0278,18.44043 -0.5877,9.28858 -1.09691,17.0392 -1.13157,17.22361 -0.0347,0.1844 -4.58932,0.33528 -10.12145,0.33528 -5.53213,0 -10.08679,-0.15088 -10.12145,-0.33528 z"
       id="path4501"
       transform="scale(0.26458333)" /><path
       style="fill:#d40000;stroke:#000000;stroke-width:7.55905522;stroke-linejoin:round;stroke-miterlimit:3.6;stroke-dasharray:none;paint-order:stroke fill markers"
       d="m 388.86255,354.39167 c -0.0347,-0.18441 -0.55327,-8.09276 -1.15244,-17.57411 -0.77803,-12.31157 -1.6225,-17.57641 -2.9545,-18.4199 -1.02579,-0.64959 -9.55978,-1.19031 -18.9644,-1.20161 l -17.09931,-0.0205 v -12.74066 -12.74067 h 16.15443 c 15.36346,0 16.31561,-0.16118 19.44628,-3.29184 3.11489,-3.11489 3.29185,-4.12422 3.29185,-18.77572 v -15.48387 h 11.39954 11.39954 v 15.48387 c 0,14.6515 0.17696,15.66083 3.29185,18.77572 3.13066,3.13066 4.08282,3.29184 19.44628,3.29184 h 16.15443 v 12.74067 12.74066 l -17.09932,0.0205 c -9.40462,0.0113 -17.9386,0.55201 -18.9644,1.2016 -1.332,0.84349 -2.17646,6.10834 -2.95449,18.4199 -0.59918,9.48136 -1.11778,17.38971 -1.15244,17.57412 -0.0347,0.1844 -4.58932,0.33528 -10.12145,0.33528 -5.53213,0 -10.08679,-0.15088 -10.12145,-0.33528 z"
       id="path4503"
       transform="scale(0.26458333)" /><path
       style="fill:#afdde9;stroke:#afdde9;stroke-width:7.55905522;stroke-linejoin:round;stroke-miterlimit:3.6;stroke-dasharray:none;paint-order:stroke fill markers"
       d="m 341.98628,591.4351 v -59.67996 h 23.46965 23.46965 v 59.67996 59.67996 h -23.46965 -23.46965 z"
       id="path4645"
       transform="scale(0.26458333)" /><path
       style="fill:#afdde9;stroke:#afdde9;stroke-width:7.55905522;stroke-linejoin:round;stroke-miterlimit:3.6;stroke-dasharray:none;paint-order:stroke fill markers"
       d="m 409.04242,591.4351 v -59.67996 h 23.46965 23.46964 v 59.67996 59.67996 h -23.46964 -23.46965 z"
       id="path4649"
       transform="scale(0.26458333)" /><path
       style="fill:#afdde9;stroke:#002255;stroke-width:0;stroke-linejoin:round;stroke-miterlimit:3.6;stroke-dasharray:none;paint-order:stroke fill markers"
       d="M 171.6637,365.45593 V 352.0447 h 28.83414 28.83414 v 13.41123 13.41123 H 200.49784 171.6637 Z"
       id="path4651"
       transform="scale(0.26458333)" /><path
       style="fill:#afdde9;stroke:#002255;stroke-width:0;stroke-linejoin:round;stroke-miterlimit:3.6;stroke-dasharray:none;paint-order:stroke fill markers"
       d="m 171.6637,474.75743 v -14.08179 h 28.83414 28.83414 v 14.08179 14.08179 H 200.49784 171.6637 Z"
       id="path4653"
       transform="scale(0.26458333)" /><path
       style="fill:#afdde9;stroke:#002255;stroke-width:0;stroke-linejoin:round;stroke-miterlimit:3.6;stroke-dasharray:none;paint-order:stroke fill markers"
       d="m 185.33588,599.15239 c 7.88851,-0.23669 21.16562,-0.23752 29.5047,-0.002 8.33908,0.23568 1.88485,0.42933 -14.34274,0.43035 -16.22758,10e-4 -23.05047,-0.19182 -15.16196,-0.42851 z"
       id="path4655"
       transform="scale(0.26458333)" /><path
       style="fill:#afdde9;stroke:#002255;stroke-width:0;stroke-linejoin:round;stroke-miterlimit:3.6;stroke-dasharray:none;paint-order:stroke fill markers"
       d="M 171.6637,584.72949 V 570.6477 h 28.83414 28.83414 v 14.08179 14.08179 H 200.49784 171.6637 Z"
       id="path4657"
       transform="scale(0.26458333)" /><path
       style="fill:#afdde9;stroke:#afdde9;stroke-width:0;stroke-linejoin:round;stroke-miterlimit:3.6;stroke-dasharray:none;paint-order:stroke fill markers"
       d="M 171.6637,365.45593 V 352.0447 h 28.83414 28.83414 v 13.41123 13.41123 H 200.49784 171.6637 Z"
       id="path4659"
       transform="scale(0.26458333)" /><path
       style="fill:#afdde9;stroke:#afdde9;stroke-width:3.77952761;stroke-linejoin:round;stroke-miterlimit:3.6;stroke-dasharray:none;paint-order:stroke fill markers"
       d="m 171.6637,474.75743 v -14.08179 h 28.83414 28.83414 v 14.08179 14.08179 H 200.49784 171.6637 Z"
       id="path4799"
       transform="scale(0.26458333)" /><path
       style="fill:#4d4d4d;stroke:#4d4d4d;stroke-width:0;stroke-linejoin:round;stroke-miterlimit:3.6;stroke-dasharray:none;paint-order:stroke fill markers"
       d="m 40.620822,105.01213 c -0.772887,-0.54135 -0.788633,-0.70294 -0.788633,-8.094375 0,-7.09956 0.04245,-7.58756 0.723501,-8.31859 0.715965,-0.768496 0.845129,-0.776587 12.399234,-0.776587 11.663122,0 11.67633,7.94e-4 12.228113,0.788633 0.457621,0.653346 0.552379,2.074373 0.552379,8.283713 0,6.810466 -0.05927,7.548716 -0.648909,8.082336 -0.575752,0.52105 -1.946969,0.58725 -12.162981,0.58725 -9.846841,0 -11.628268,-0.08 -12.302704,-0.55238 z m 20.85653,-8.318583 v -4.612902 h -8.69355 -8.693546 v 4.612902 4.612903 h 8.693546 8.69355 z"
       id="path5219" /><path
       style="fill:#4d4d4d;stroke:#4d4d4d;stroke-width:0;stroke-linejoin:round;stroke-miterlimit:3.6;stroke-dasharray:none;paint-order:stroke fill markers"
       d="m 154.46288,505.8521 c -2.79431,-2.97442 -2.91602,-4.22926 -2.91602,-30.06558 0,-14.82888 0.37489,-27.93855 0.83308,-29.13258 2.13062,-5.55229 6.51355,-6.09514 49.21156,-6.09514 39.2354,0 40.92466,0.10594 44.32365,2.77959 l 3.53367,2.77958 v 28.7368 c 0,26.94863 -0.16691,28.9037 -2.68225,31.41904 -2.57161,2.57161 -4.4704,2.68225 -46.03495,2.68225 h -43.35271 z m 78.89247,-31.09467 v -18.10516 h -32.85751 -32.8575 v 18.10516 18.10516 h 32.8575 32.85751 z"
       id="path5221"
       transform="scale(0.26458333)" /><path
       style="fill:#4d4d4d;stroke:#4d4d4d;stroke-width:0;stroke-linejoin:round;stroke-miterlimit:3.6;stroke-dasharray:none;paint-order:stroke fill markers"
       d="m 154.83871,615.63627 c -3.28577,-3.28577 -3.29185,-3.34376 -3.29185,-31.41904 v -28.1272 l 3.53367,-2.77958 c 3.40608,-2.67923 5.06827,-2.77959 46.03496,-2.77959 h 42.50129 l 2.91602,3.10396 c 2.80294,2.9836 2.91602,4.19673 2.91602,31.28261 0,27.72077 -0.0504,28.22603 -3.10396,31.09467 -3.05228,2.86746 -3.81254,2.91602 -45.65914,2.91602 h -42.55516 z m 78.51664,-30.90678 v -18.10516 h -32.85751 -32.8575 v 18.10516 18.10516 h 32.8575 32.85751 z"
       id="path5223"
       transform="scale(0.26458333)" /><path
       style="fill:#4d4d4d;stroke:#4d4d4d;stroke-width:0;stroke-linejoin:round;stroke-miterlimit:3.6;stroke-dasharray:none;paint-order:stroke fill markers"
       d="m 550.73872,616.47555 c -1.92446,-2.1265 -2.21954,-6.39553 -2.21954,-32.1109 0,-29.12775 0.0533,-29.69568 2.98065,-31.74606 2.54592,-1.78323 9.19655,-2.08773 45.59817,-2.08773 40.82936,0 42.73006,0.11254 45.29976,2.68225 2.51444,2.51443 2.68225,4.47041 2.68225,31.2635 0,26.9095 -0.15994,28.75293 -2.73449,31.51638 -2.70402,2.90242 -3.21723,2.93513 -46.06087,2.93513 -40.27069,0 -43.48293,-0.17298 -45.54593,-2.45257 z m 78.24782,-31.74606 v -18.10516 h -32.85751 -32.8575 v 18.10516 18.10516 h 32.8575 32.85751 z"
       id="path5225"
       transform="scale(0.26458333)" /><path
       style="fill:#4d4d4d;stroke:#4d4d4d;stroke-width:0;stroke-linejoin:round;stroke-miterlimit:3.6;stroke-dasharray:none;paint-order:stroke fill markers"
       d="m 550.76115,507.27861 c -2.06836,-1.51242 -2.2585,-4.70809 -1.93273,-32.48352 l 0.36132,-30.80607 3.35281,-1.69534 c 2.48336,-1.25571 14.06277,-1.70046 44.65329,-1.71511 l 41.30048,-0.0198 3.29184,3.29185 c 3.28427,3.28426 3.29185,3.35617 3.29185,31.21797 0,23.10477 -0.36044,28.44073 -2.08773,30.90678 -2.08514,2.97696 -2.14221,2.98066 -46.0124,2.98066 -33.03752,0 -44.49328,-0.41577 -46.21873,-1.67745 z m 78.22539,-32.54502 v -18.129 l -32.52223,0.35912 -32.52222,0.35912 -0.37421,17.76988 -0.37421,17.76988 h 32.89644 32.89643 z"
       id="path5227"
       transform="scale(0.26458333)" /><path
       style="fill:#4d4d4d;stroke:#4d4d4d;stroke-width:0;stroke-linejoin:round;stroke-miterlimit:3.6;stroke-dasharray:none;paint-order:stroke fill markers"
       d="m 550.12852,397.37465 c -1.15745,-1.15745 -1.60934,-10.18205 -1.60934,-32.13976 0,-28.81194 0.14601,-30.60855 2.59407,-31.91872 1.63557,-0.87533 18.70376,-1.38831 46.19269,-1.38831 43.53325,0 43.60174,0.004 45.68634,2.98066 1.72959,2.46934 2.08773,7.84015 2.08773,31.30852 0,25.74037 -0.22402,28.53061 -2.45257,30.54742 -2.17775,1.97083 -7.40731,2.21954 -46.67107,2.21954 -32.604,0 -44.64121,-0.42272 -45.82785,-1.60935 z m 78.85802,-31.91872 v -17.43459 h -32.85751 -32.8575 v 17.43459 17.4346 h 32.8575 32.85751 z"
       id="path5229"
       transform="scale(0.26458333)" /><path
       style="fill:#afdde9;stroke:#afdde9;stroke-width:18.89763804;stroke-linejoin:miter;stroke-miterlimit:3.6;stroke-dasharray:none;paint-order:stroke fill markers"
       d="M 567.29489,584.72949 V 570.6477 h 28.83414 28.83414 v 14.08179 14.08179 h -28.83414 -28.83414 z"
       id="path4880"
       transform="scale(0.26458333)" /><path
       style="fill:#afdde9;stroke:#afdde9;stroke-width:18.89763804;stroke-linejoin:miter;stroke-miterlimit:3.6;stroke-dasharray:none;paint-order:stroke fill markers"
       d="m 567.29489,474.75743 v -14.08179 h 28.83414 28.83414 v 14.08179 14.08179 h -28.83414 -28.83414 z"
       id="path4878"
       transform="scale(0.26458333)" /><path
       style="fill:#afdde9;stroke:#afdde9;stroke-width:18.89763804;stroke-linejoin:miter;stroke-miterlimit:3.6;stroke-dasharray:none;paint-order:stroke fill markers"
       d="M 567.29489,365.45593 V 352.0447 h 28.83414 28.83414 v 13.41123 13.41123 h -28.83414 -28.83414 z"
       id="path4876"
       transform="scale(0.26458333)" /><path
       style="fill:#afdde9;stroke:#afdde9;stroke-width:18.89763804;stroke-linejoin:miter;stroke-miterlimit:3.6;stroke-dasharray:none;paint-order:stroke markers fill;stroke-linecap:round"
       d="M 171.6637,365.45593 V 352.0447 h 28.83414 28.83414 v 13.41123 13.41123 H 200.49784 171.6637 Z"
       id="path4874"
       transform="scale(0.26458333)" /><path
       style="fill:#afdde9;stroke:#afdde9;stroke-width:18.89763804;stroke-linejoin:miter;stroke-miterlimit:3.6;stroke-dasharray:none;paint-order:stroke fill markers"
       d="m 170.32258,474.75743 v -15.42291 h 30.17526 30.17526 v 15.42291 15.42291 h -30.17526 -30.17526 z"
       id="path4872"
       transform="scale(0.26458333)" /><path
       style="fill:#afdde9;stroke:#afdde9;stroke-width:18.89763804;stroke-linejoin:miter;stroke-miterlimit:3.6;stroke-dasharray:none;paint-order:stroke fill markers"
       d="M 171.6637,584.72949 V 570.6477 h 28.83414 28.83414 v 14.08179 14.08179 H 200.49784 171.6637 Z"
       id="path4870"
       transform="scale(0.26458333)" /><path
       style="fill:#cccccc;stroke:#cccccc;stroke-width:3.77952761;stroke-linecap:round;stroke-linejoin:miter;stroke-miterlimit:3.6;stroke-dasharray:none;paint-order:normal"
       d="M 524,474 V 295.5 h 73 73 v 177.86916 177.86916 l -3.75,0.61983 c -2.0625,0.34091 -34.9125,0.62479 -73,0.63084 L 524,652.5 Z m 113.39222,144.69237 c 2.59868,-0.46227 4.59271,-1.6307 6,-3.51579 2.02511,-2.7127 2.10778,-3.91061 2.10778,-30.54401 0,-31.05634 -0.27907,-32.44865 -6.74243,-33.6391 -1.79166,-0.32999 -22.02945,-0.46352 -44.97287,-0.29673 -38.45905,0.27959 -41.85461,0.44251 -43.5,2.08716 -1.59997,1.59925 -1.8183,4.39391 -2.10931,27 -0.32256,25.0565 0.10931,33.94068 1.7814,36.64619 0.48026,0.77708 2.82395,1.72937 5.20821,2.11622 5.6619,0.91865 77.17001,1.04567 82.22722,0.14606 z m 5.29226,-111.44713 c 1.45104,-1.45199 1.90935,-4.68339 2.65615,-18.72751 0.49639,-9.335 0.57631,-22.62861 0.1776,-29.54134 -0.65545,-11.36385 -0.96318,-12.85173 -3.21048,-15.52249 l -2.48554,-2.9539 -41.6611,0.0564 c -29.52163,0.04 -42.68096,0.40423 -45.16111,1.25 l -3.5,1.19356 -0.77428,13 c -1.16636,19.58297 -0.52972,48.83202 1.1057,50.79943 1.84887,2.2242 5.90694,2.40554 51.38401,2.29612 36.45642,-0.0877 39.85933,-0.23954 41.46905,-1.85031 z m 0.29851,-110.47482 c 3.90567,-4.82564 3.62196,-59.09243 -0.32961,-63.04686 -1.55316,-1.55429 -5.23,-1.75542 -37.43784,-2.04793 -35.95413,-0.32654 -52.64569,0.23703 -55.28571,1.86665 -1.16833,0.72118 -1.48466,5.69031 -1.72963,27.17016 -0.16489,14.45816 0.0641,28.76256 0.50884,31.78756 l 0.80864,5.5 4.99116,0.62725 c 2.74514,0.34498 23.36881,0.56998 45.83039,0.5 L 641.17846,399 Z"
       id="path5753"
       transform="scale(0.26458333)" /><path
       style="fill:#cccccc;stroke:#cccccc;stroke-width:3.77952761;stroke-linecap:round;stroke-linejoin:miter;stroke-miterlimit:3.6;stroke-dasharray:none;paint-order:normal"
       d="m 292,420.5 v -232 h 107 107 v 232 232 h -15.84804 -15.84804 l -0.66296,-45.75 c -0.36463,-25.1625 -0.95113,-55.55812 -1.30332,-67.54582 -0.60946,-20.7445 -0.74158,-21.8539 -2.739,-23 -3.04175,-1.74533 -139.17204,-1.73553 -142.21641,0.0102 -2.90249,1.6644 -3.21839,6.81827 -3.87901,63.28558 -0.2992,25.575 -0.80593,52.4625 -1.12606,59.75 L 321.79511,652.5 H 306.89756 292 Z m 151.0892,40.13922 c 2.47553,-3.05851 2.4755,-8.57452 -6e-5,-11.05008 -3.0574,-3.0574 -12.58284,-3.48711 -51.87126,-2.34003 -25.67281,0.74955 -36.71134,1.41553 -37.74999,2.27754 -3.32765,2.7617 -0.85117,11.04215 3.88911,13.00378 1.17865,0.48775 20.52064,0.79294 42.9822,0.67819 L 441.17841,463 Z m -0.66859,-43.06353 c 3.0468,-2.86363 3.36214,-6.94201 0.86378,-11.1714 L 441.56878,403.5 h -41.97967 -41.97967 l -2.80472,2.68709 c -1.70584,1.6343 -2.80472,3.73634 -2.80472,5.36514 0,3.84101 3.4434,7.74531 7.27416,8.24781 1.77421,0.23273 20.62762,0.37293 41.89645,0.31155 L 439.84123,420 Z m -16.98514,-42.60942 c 6.90899,-3.45192 7.84771,-5.7058 8.90272,-21.37546 l 0.93536,-13.89269 12.11323,-0.36211 c 16.81094,-0.50254 22.36173,-3.52232 24.65575,-13.4134 1.30718,-5.63619 1.17567,-38.6704 -0.17531,-44.03565 -1.36499,-5.42085 -5.61026,-9.94188 -10.65855,-11.35089 -2.03977,-0.56931 -8.70514,-1.32514 -14.81194,-1.67962 l -11.10327,-0.6445 -0.65829,-13.00664 c -0.76698,-15.15436 -2.24329,-18.71483 -9.03971,-21.80143 -3.63527,-1.65096 -6.88186,-1.86242 -28.89321,-1.88192 l -24.79775,-0.022 -2.58484,2.75 c -4.25255,4.52426 -5.41737,8.72101 -6.03221,21.73347 l -0.57762,12.22478 -11.80716,0.63486 c -23.79374,1.27938 -26.04824,4.50223 -26.08329,37.28661 -0.017,15.85943 0.22541,18.67699 1.93544,22.5 3.84585,8.59795 8.82227,10.76309 24.88364,10.82639 l 11.13846,0.0439 0.72118,12.96578 c 0.78363,14.08866 1.9937,17.91948 6.76572,21.4187 3.95351,2.89903 9.69358,3.48765 31.73618,3.2544 17.12967,-0.18126 19.97838,-0.44536 23.43547,-2.17261 z"
       id="path5755"
       transform="scale(0.26458333)" /><path
       style="fill:#cccccc;stroke:#cccccc;stroke-width:1;stroke-linecap:round;stroke-linejoin:miter;stroke-miterlimit:3.6;stroke-dasharray:none;paint-order:normal"
       d="M 33.602083,125.67708 V 78.448957 h 19.446875 19.446874 v 47.228123 47.22813 H 53.048958 33.602083 Z m 30.268587,38.24484 c 0.567669,-0.13168 1.282044,-0.48934 1.5875,-0.79479 0.53803,-0.53803 0.555371,-0.78997 0.555371,-8.06925 0,-7.23014 -0.02106,-7.54208 -0.557866,-8.26088 l -0.557866,-0.747 h -11.65991 c -11.444964,0 -11.673678,0.0103 -12.406717,0.55753 l -0.746808,0.55753 -0.0785,6.58622 c -0.09056,7.59782 -0.0011,8.54279 0.911796,9.62767 l 0.668957,0.79501 10.625958,-0.006 c 5.844278,-0.003 11.090417,-0.11405 11.658089,-0.24572 z m 1.139108,-29.31827 c 0.967713,-0.55344 1.133022,-1.91887 1.134578,-9.37157 l 0.0016,-7.05959 -0.859896,-0.61333 c -0.859631,-0.61314 -0.863105,-0.61335 -11.292184,-0.68839 -11.233893,-0.0808 -12.991991,0.0598 -13.579469,1.08618 -0.242163,0.42289 -0.330021,2.56224 -0.330021,8.03335 v 7.45698 l 0.791576,0.82635 0.791575,0.82636 11.379258,-0.0812 c 8.549581,-0.0611 11.524416,-0.16427 11.962995,-0.4151 z m -0.118433,-29.0066 c 0.255918,-0.12043 0.553575,-0.53325 0.661458,-0.91738 0.107884,-0.38413 0.196155,-3.99921 0.196155,-8.033518 0,-7.279534 -0.0046,-7.339658 -0.602396,-7.9375 l -0.602393,-0.602403 -10.970032,-0.07718 c -11.600122,-0.08161 -12.811575,0.01574 -13.419116,1.078351 -0.248809,0.435171 -0.33523,2.510761 -0.33523,8.05121 0,8.42629 -0.05192,8.20838 2.040906,8.56552 1.540663,0.2629 22.447043,0.14753 23.030648,-0.1271 z"
       id="path5757" /><path
       style="fill:#aa0000;stroke:#aa0000;stroke-width:2.26771657;stroke-linecap:round;stroke-linejoin:miter;stroke-miterlimit:3.6;stroke-dasharray:none;paint-order:normal"
       d="m 275.78307,170.56982 c -16.85562,-0.70021 -17.08155,-0.84885 -17.62421,-11.59506 -0.45439,-8.99828 0.98214,-11.91399 6.58847,-13.37251 2.23695,-0.58196 44.34514,-1.23303 104.25267,-1.61194 102.20897,-0.64646 155.34484,0.18971 161.82141,2.54649 4.17642,1.51977 4.97374,3.64116 4.80981,12.79718 -0.16806,9.38635 -0.73692,9.81633 -13.94687,10.54189 -14.24522,0.78243 -229.1706,1.38896 -245.90128,0.69395 z"
       id="path6104"
       transform="scale(0.26458333)" /><path
       style="fill:#aa0000;stroke:#aa0000;stroke-width:2.26771657;stroke-linecap:round;stroke-linejoin:miter;stroke-miterlimit:3.6;stroke-dasharray:none;paint-order:normal"
       d="M 524,264.09818 V 249.5 h 80.56456 80.56456 l 2.68544,3.12461 c 5.09714,5.93071 6.42253,12.02823 4.07702,18.75655 -2.38209,6.83328 1.45568,6.52926 -87.64158,6.94277 L 524,278.69637 Z"
       id="path6106"
       transform="scale(0.26458333)" /><path
       style="fill:#aa0000;stroke:#aa0000;stroke-width:3.02362209;stroke-linecap:round;stroke-linejoin:round;stroke-miterlimit:3.6;stroke-dasharray:none;paint-order:normal"
       d="M 116.9753,277.52464 C 107.54263,276.30708 105,273.75398 105,265.5 c 0,-4.87212 1.24148,-8.15622 4.74152,-12.54278 l 2.75848,-3.45716 80.75,-3e-5 80.75,-3e-5 v 14.5 14.5 l -75.75,-0.13112 c -41.6625,-0.0721 -78.23612,-0.45202 -81.2747,-0.84424 z"
       id="path6108"
       transform="scale(0.26458333)" /></g></svg>
