<?xml version="1.0" encoding="UTF-8" standalone="no"?>
<!-- Created with Inkscape (http://www.inkscape.org/) -->

<svg
   width="210mm"
   height="297mm"
   viewBox="0 0 210 297"
   version="1.1"
   id="svg5"
   xml:space="preserve"
   inkscape:version="1.2.1 (9c6d41e410, 2022-07-14)"
   sodipodi:docname="obchodni_centrum.svg"
   inkscape:export-filename="obchodni_centrum.png"
   inkscape:export-xdpi="96"
   inkscape:export-ydpi="96"
   xmlns:inkscape="http://www.inkscape.org/namespaces/inkscape"
   xmlns:sodipodi="http://sodipodi.sourceforge.net/DTD/sodipodi-0.dtd"
   xmlns="http://www.w3.org/2000/svg"
   xmlns:svg="http://www.w3.org/2000/svg"><sodipodi:namedview
     id="namedview7"
     pagecolor="#ffffff"
     bordercolor="#000000"
     borderopacity="0.25"
     inkscape:showpageshadow="2"
     inkscape:pageopacity="0.0"
     inkscape:pagecheckerboard="0"
     inkscape:deskcolor="#d1d1d1"
     inkscape:document-units="mm"
     showgrid="false"
     inkscape:zoom="0.74564394"
     inkscape:cx="396.97231"
     inkscape:cy="347.35077"
     inkscape:window-width="1920"
     inkscape:window-height="1017"
     inkscape:window-x="-8"
     inkscape:window-y="-8"
     inkscape:window-maximized="1"
     inkscape:current-layer="layer1" /><defs
     id="defs2" /><g
     inkscape:label="Vrstva 1"
     inkscape:groupmode="layer"
     id="layer1"><path
       style="fill:#000000;stroke:none;stroke-width:0;stroke-linecap:round;stroke-linejoin:round;stroke-miterlimit:3.6;stroke-dasharray:none"
       d="m 29.939638,183.94016 c -0.68307,-0.13671 -1.90239,-0.68733 -2.7096,-1.22362 -1.72072,-1.14319 -2.46388,-3.12134 -2.16588,-5.76518 0.22192,-1.96884 1.09717,-3.23933 2.95723,-4.29259 l 1.38599,-0.78482 0.17742,-54.57002 c 0.16073,-49.437553 0.23201,-54.70524 0.75787,-56.00784 0.8112,-2.009439 2.93623,-5.219967 3.79621,-5.735386 0.69128,-0.414313 0.72462,-0.833228 0.84738,-10.645161 0.11385,-9.100261 0.20275,-10.399037 0.8154,-11.912121 0.96568,-2.385012 3.19165,-3.824152 8.08329,-5.226039 7.50079,-2.149641 9.67719,-2.514601 16.21598,-2.719253 6.87858,-0.215287 9.57263,0.104507 17.13666,2.034188 4.91158,1.253009 7.43522,2.323685 9.04846,3.838896 2.24661,2.110094 2.35076,2.689891 2.48999,13.862391 l 0.12577,10.091938 1.3536,1.537764 c 1.57152,1.785339 2.36604,3.333266 2.93042,5.709179 l 0.40358,1.698966 7.118662,1.140968 c 3.91527,0.627531 7.50044,1.139055 7.96705,1.136719 0.46662,-0.0024 5.68922,0.794139 11.60578,1.769946 5.91656,0.975804 11.20333,1.774309 11.74838,1.774452 0.54505,1.4e-4 5.78132,0.7971 11.63616,1.771018 5.85484,0.97392 11.1017,1.77219 11.65968,1.77394 2.13881,0.007 17.94489,2.85661 19.47079,3.51069 1.29468,0.55496 1.83487,1.08708 2.80128,2.75937 l 1.19729,2.07182 0.0977,45.064505 0.0977,45.06452 1.39258,0.79875 c 3.00202,1.72188 4.18967,4.7169 3.05186,7.69621 -0.46139,1.20815 -1.02222,1.84108 -2.43411,2.74712 l -1.83458,1.17727 -73.99203,0.05 c -40.695612,0.0275 -74.550902,-0.0619 -75.233962,-0.19857 z m 149.209672,-6.06108 v -1.24194 l -74.77528,-0.0895 -74.775302,-0.0895 -0.22265,0.88713 c -0.12246,0.48792 -0.13046,1.12737 -0.0178,1.42101 0.18164,0.47333 8.6866,0.52372 74.997952,0.44434 l 74.79307,-0.0895 z M 47.681568,166.17827 v -5.31371 l -1.15322,0.22409 c -1.03809,0.20171 -3.51361,1.33442 -7.54033,3.45017 -0.78064,0.41018 -2.09192,1.22429 -2.91395,1.80915 -1.45558,1.0356 -1.49495,1.11663 -1.50806,3.10369 l -0.0135,2.04032 h 6.56452 6.56451 z m 23.41936,-0.85283 v -6.16655 l -2.67579,-0.39797 c -1.47168,-0.21889 -4.41919,-0.39797 -6.55002,-0.39797 -2.13083,0 -5.07834,0.17908 -6.55002,0.39797 l -2.67578,0.39797 v 6.16655 6.16654 h 9.2258 9.22581 z m 17.74193,3.94312 v -2.22344 l -1.7026,-1.11461 c -2.72228,-1.78216 -8.64645,-4.67448 -10.09578,-4.929 l -1.33065,-0.23367 v 5.36207 5.36207 h 6.56452 6.56451 z m 23.419362,-15.85161 v -18.07503 l -1.54086,-0.23107 c -4.89238,-0.73366 -7.34823,-5.28106 -5.00835,-9.27378 0.56323,-0.96107 1.46347,-1.83969 2.39516,-2.33762 l 1.49276,-0.79779 h 23.06451 23.06452 l 1.58605,0.8881 c 2.24051,1.25457 3.2696,3.13913 3.11234,5.69962 -0.199,3.23994 -2.17824,5.20859 -5.85162,5.8203 l -1.50806,0.25113 v 18.06559 18.06558 h 10.46774 10.46774 v -44.8871 c 0,-42.474675 -0.0337,-44.920455 -0.62815,-45.508055 -0.64034,-0.63302 -5.19074,-1.40012 -36.45249,-6.14511 -6.44032,-0.97752 -16.26048,-2.48836 -21.82258,-3.35741 -5.5621,-0.869057 -11.55622,-1.738886 -13.32027,-1.932963 -1.76405,-0.194077 -4.061252,-0.514802 -5.104882,-0.712724 -1.04364,-0.197921 -2.11524,-0.359857 -2.38135,-0.359857 -0.40632,0 -0.48382,8.242474 -0.48382,51.451609 v 51.45161 h 9.225802 9.22581 z m 18.09677,-0.0217 v -18.09677 h -6.74193 -6.74194 v 18.09677 18.09677 h 6.74194 6.74193 z m 18.09678,0 v -18.09677 h -6.74194 -6.74193 v 18.09677 18.09677 h 6.74193 6.74194 z m -111.161232,7.05896 c 1.12658,-0.60629 2.22485,-1.2454 2.4406,-1.42025 0.21575,-0.17486 2.05204,-0.93183 4.08064,-1.68217 l 3.68837,-1.36426 0.0935,-11.76388 c 0.0514,-6.47014 0.0514,-11.76216 0,-11.76005 -1.48385,0.061 -8.52089,3.43249 -11.52358,5.52108 l -1.49459,1.0396 -0.0135,11.26613 c -0.008,7.11019 0.11448,11.26613 0.33337,11.26613 0.19077,0 1.26859,-0.49605 2.39516,-1.10233 z m 51.54393,-10.34122 -0.004,-11.44355 -1.14883,-0.74223 c -4.33942,-2.80361 -9.94218,-5.46745 -11.49949,-5.46745 -0.39761,0 -0.4652,2.04546 -0.388,11.74149 l 0.0935,11.74149 2.83871,0.96122 c 2.49112,0.84353 4.51666,1.79271 8.51613,3.99073 0.58548,0.32177 1.18427,0.60232 1.33064,0.62344 0.14637,0.0211 0.26415,-5.11119 0.26174,-11.40514 z m -17.73754,-7.56764 v -11.73699 l -2.75,-0.41858 c -3.46365,-0.5272 -9.53827,-0.53462 -13.02583,-0.0159 l -2.67578,0.39795 v 11.75526 11.75525 h 9.2258 9.22581 z m -32.14266,-11.42122 c 0.76429,-0.4822 2.99977,-1.47229 4.96775,-2.20019 l 3.57813,-1.32345 0.094,-10.52197 c 0.0517,-5.78709 0.0159,-10.52197 -0.0795,-10.52197 -0.85169,0 -6.40896,2.59817 -9.32903,4.36157 l -3.6371,2.1964 v 10.21209 10.2121 l 1.50807,-0.76892 c 0.82943,-0.4229 2.13338,-1.16345 2.89766,-1.64566 z m 49.88459,-8.05039 v -10.09571 l -2.57258,-1.67781 c -2.51478,-1.64011 -9.10295,-4.74367 -10.06977,-4.74367 -0.40128,0 -0.48668,1.82519 -0.48668,10.40153 v 10.40154 l 2.57258,0.95586 c 1.41492,0.52572 4.31478,1.83293 6.44414,2.90492 2.12935,1.07198 3.92573,1.94905 3.99194,1.94905 0.0662,0 0.12037,-4.54307 0.12037,-10.09571 z m 66.887102,5.83765 v -1.24194 h -23.06452 -23.06451 l -0.11677,0.82419 c -0.27626,1.94991 -1.60675,1.84975 23.25985,1.75098 l 22.98595,-0.0913 z m -84.629032,-13.4063 c 0,-9.5617 -0.0495,-10.4105 -0.62097,-10.64516 -0.80984,-0.33255 -16.39984,-0.33255 -17.20968,0 -0.57145,0.23466 -0.62096,1.08346 -0.62096,10.64516 v 10.39017 h 9.2258 9.22581 z m -34.33384,-8.92372 c 0.84725,-0.57179 3.29034,-1.77462 5.42908,-2.67295 2.13875,-0.89833 4.2479,-1.78432 4.68702,-1.96888 l 0.79838,-0.33557 V 91.104715 80.605455 l -0.79838,0.23442 c -1.79235,0.52626 -9.40021,4.47275 -10.55646,5.47603 -0.68306,0.5927 -1.36169,1.07802 -1.50806,1.07847 -0.14637,5.3e-4 -0.26613,4.55164 -0.26613,10.11374 0,6.149545 0.13209,10.112895 0.33705,10.112895 0.18538,0 1.03025,-0.46783 1.8775,-1.03964 z m 52.07577,-9.164785 v -10.20443 l -2.21774,-1.46902 c -2.40206,-1.59111 -8.35924,-4.54694 -9.93548,-4.92978 l -0.97581,-0.23701 v 10.51734 c 0,9.705675 0.0479,10.532395 0.62097,10.712335 2.19354,0.6888 8.74541,3.6018 10.36793,4.60963 1.06728,0.66295 1.98542,1.20536 2.04032,1.20536 0.0549,0 0.0998,-4.59199 0.0998,-10.204425 z m -26.96774,2.575399 c 2.82984,0 6.06331,0.131246 7.18549,0.291666 l 2.04032,0.29165 V 89.947755 79.320195 l -2.67579,-0.39798 c -3.42952,-0.51007 -9.67052,-0.51007 -13.10004,0 l -2.67578,0.39798 v 10.62756 10.627545 l 2.04032,-0.29165 c 1.12217,-0.16042 4.35564,-0.291666 7.18548,-0.291666 z M 35.785758,81.377055 c 0.34418,-0.55689 8.33731,-4.32456 10.09531,-4.75857 l 1.62308,-0.40069 0.094,-10.77366 0.094,-10.773658 -0.98107,0.234674 c -6.02286,1.440696 -9.38372,3.142967 -10.98768,5.565241 l -0.99339,1.500217 -0.10452,9.873586 c -0.0905,8.54416 -0.0335,9.8736 0.42261,9.8736 0.28992,0 0.62189,-0.15334 0.73771,-0.34074 z m 52.47618,-20.338097 c -0.6741,-1.505818 -3.56521,-3.643429 -6.17554,-4.566034 -2.2107,-0.781357 -5.46783,-1.722871 -5.96021,-1.722871 -0.30408,0 -0.41236,2.791372 -0.41236,10.630132 v 10.63014 l 2.39516,0.72787 c 1.31734,0.40033 4.23145,1.66188 6.47581,2.80346 l 4.08064,2.07559 0.0982,-9.61908 c 0.0858,-8.407055 0.0226,-9.787942 -0.50172,-10.959207 z m -26.38682,13.049807 c 2.82984,0 6.06331,0.13124 7.18549,0.29166 l 2.04032,0.29166 V 64.023132 53.37418 l -1.68549,-0.28787 c -0.92701,-0.158329 -4.32016,-0.287872 -7.54032,-0.287872 -3.22016,0 -6.61331,0.129543 -7.54032,0.287872 l -1.68548,0.28787 v 10.648952 10.648953 l 2.04032,-0.29166 c 1.12217,-0.16042 4.35564,-0.29166 7.18548,-0.29166 z M 43.437048,51.175664 c 6.48412,-2.366409 8.11497,-2.598949 18.26065,-2.603725 10.11784,-0.0048 12.14687,0.285086 18.67595,2.667905 1.54673,0.564486 2.96731,1.026337 3.15685,1.026337 0.21372,0 0.34462,-3.359777 0.34462,-8.845213 v -8.845214 l -0.92101,-0.724469 c -1.46067,-1.148964 -7.93014,-2.953766 -14.15963,-3.950142 -3.15816,-0.505134 -11.28234,-0.413832 -14.72581,0.165489 -6.63078,1.115549 -12.42428,2.726269 -13.75,3.822803 -0.33355,0.275886 -0.44355,2.600079 -0.44355,9.371806 0,4.952717 0.12912,9.00494 0.28692,9.00494 0.15781,0 1.63157,-0.490733 3.27501,-1.090517 z"
       id="path1083" /><path
       style="fill:#333333;stroke:#333333;stroke-width:7.18110245;stroke-linecap:round;stroke-linejoin:round;stroke-miterlimit:3.6;stroke-dasharray:none"
       d="m 115.00127,675.63581 c -2.35338,-0.35651 -3.68066,-1.37582 -3.66755,-2.81658 0.0569,-6.25199 -15.634592,-5.98 283.4651,-4.91354 l 281.12701,1.00238 v 3.84416 3.84416 l -278.61824,-0.20094 c -153.24003,-0.11052 -280.27787,-0.45236 -282.30632,-0.75964 z"
       id="path1225"
       transform="scale(0.26458333)" /><path
       style="fill:#d5e5ff;stroke:#d7e3f4;stroke-width:3.77952761;stroke-linecap:round;stroke-linejoin:round;stroke-miterlimit:3.6;stroke-dasharray:none"
       d="m 510.96774,579.365 v -67.7267 h 24.81077 24.81077 v 67.7267 67.72669 h -24.81077 -24.81077 z"
       id="path1587"
       transform="scale(0.26458333)" /><path
       style="fill:#d5e5ff;stroke:#d5e5ff;stroke-width:3.77952761;stroke-linecap:round;stroke-linejoin:round;stroke-miterlimit:3.6;stroke-dasharray:none"
       d="m 442.57049,579.365 v -67.7267 h 24.81076 24.81077 v 67.7267 67.72669 h -24.81077 -24.81076 z"
       id="path1589"
       transform="scale(0.26458333)" /><path
       style="fill:#f4d7ee;stroke:#f4d7ee;stroke-width:5.06881;stroke-linecap:round;stroke-linejoin:round;stroke-miterlimit:3.6;stroke-dasharray:none"
       d="m 131.43002,640.61986 c 0,-5.00108 0.68575,-7.09798 3.01753,-9.22709 6.57837,-6.0066 37.91181,-21.85251 43.21079,-21.85251 1.74433,0 2.0521,2.81594 2.0521,18.77572 v 18.77571 h -24.14021 -24.14021 z"
       id="path1660"
       transform="scale(0.26458333)" /><path
       style="fill:#ffaacc;stroke:#ffaacc;stroke-width:5.06881;stroke-linecap:round;stroke-linejoin:round;stroke-miterlimit:3.6;stroke-dasharray:none"
       d="m 199.82728,624.40703 v -22.68466 l 10.3937,-1.0755 c 13.29566,-1.37578 34.31419,-1.37578 47.60986,0 l 10.3937,1.0755 v 22.68466 22.68466 h -34.19863 -34.19863 z"
       id="path1662"
       transform="scale(0.26458333)" /><path
       style="fill:#c8b7be;stroke:#c8b7be;stroke-width:5.06881;stroke-linecap:round;stroke-linejoin:round;stroke-miterlimit:3.6;stroke-dasharray:none"
       d="m 287.00025,627.64542 c 0,-10.69546 0.22588,-19.44628 0.50195,-19.44628 3.48547,0 24.78718,9.99495 39.39645,18.48516 l 8.38202,4.87123 v 7.76808 7.76808 h -24.14021 -24.14021 z"
       id="path1664"
       transform="scale(0.26458333)" /><path
       style="fill:#eeaaff;stroke:#eeaaff;stroke-width:5.06881;stroke-linecap:round;stroke-linejoin:round;stroke-miterlimit:3.6;stroke-dasharray:none"
       d="m 321.41796,602.82211 c -6.51807,-3.50433 -16.92853,-8.09546 -23.13437,-10.2025 l -11.28334,-3.83099 0.0205,-42.26324 c 0.0113,-23.24479 0.48054,-42.98689 1.04277,-43.87135 1.21985,-1.91895 17.80721,4.59212 30.45308,11.9538 4.4257,2.57638 10.00431,5.82886 12.3969,7.22774 l 4.35017,2.5434 -0.1252,39.56312 c -0.0689,21.75971 -0.51768,40.84301 -0.99736,42.40733 -0.84015,2.7398 -1.30721,2.61031 -12.72319,-3.52731 z"
       id="path1666"
       transform="scale(0.26458333)" /><path
       style="fill:#aaaaff;stroke:#aaaaff;stroke-width:5.06881;stroke-linecap:round;stroke-linejoin:round;stroke-miterlimit:3.6;stroke-dasharray:none"
       d="m 199.82728,538.57518 v -44.14262 l 10.3937,-1.12027 c 12.31691,-1.32756 42.74694,-1.00564 51.29794,0.54267 l 6.03506,1.09276 0.3536,43.88504 0.35361,43.88505 h -34.21696 -34.21695 z"
       id="path1668"
       transform="scale(0.26458333)" /><path
       style="fill:#d5e5ff;stroke:#d5e5ff;stroke-width:5.06881;stroke-linecap:round;stroke-linejoin:round;stroke-miterlimit:3.6;stroke-dasharray:none"
       d="m 132.32464,608.64671 c -0.49204,-0.49204 -0.88934,-19.35181 -0.88289,-41.91062 l 0.0117,-41.016 7.69973,-4.89803 c 8.81359,-5.60659 24.10578,-13.38904 33.87638,-17.24025 l 6.68085,-2.63335 -0.006,29.14985 c -0.003,16.03242 -0.39467,35.89297 -0.86958,44.13456 l -0.86348,14.98471 -11.53581,4.32892 c -6.34469,2.38091 -16.41389,6.95376 -22.37601,10.16188 -5.96211,3.20812 -11.24278,5.43037 -11.73482,4.93833 z"
       id="path1670"
       transform="scale(0.26458333)" /><path
       style="fill:#aaffcc;stroke:#aaffcc;stroke-width:5.06881;stroke-linecap:round;stroke-linejoin:round;stroke-miterlimit:3.6;stroke-dasharray:none"
       d="m 131.46806,465.784 0.038,-37.96586 7.67342,-4.65967 c 11.47223,-6.96648 35.50613,-18.80425 38.18395,-18.8073 2.15426,-0.002 2.3464,2.1171 2.34003,25.81393 -0.004,14.19914 -0.39215,31.63319 -0.86297,38.74235 l -0.85602,12.92573 -12.88354,5.00301 c -7.08595,2.75166 -17.10808,7.43296 -22.2714,10.4029 -5.16333,2.96994 -9.84049,5.64984 -10.39371,5.95533 -0.55321,0.3055 -0.98872,-16.52919 -0.9678,-37.41042 z"
       id="path1672"
       transform="scale(0.26458333)" /><path
       style="fill:#aaffee;stroke:#aaffee;stroke-width:5.06881;stroke-linecap:round;stroke-linejoin:round;stroke-miterlimit:3.6;stroke-dasharray:none"
       d="m 199.82728,437.47422 c 0,-27.73144 0.43346,-38.38723 1.60935,-39.56312 1.15971,-1.15972 10.34892,-1.60935 32.8907,-1.60935 h 31.28135 l 1.30793,3.44012 c 0.7323,1.9261 1.30793,19.33798 1.30793,39.56312 v 36.123 h -34.19863 -34.19863 z"
       id="path1674"
       transform="scale(0.26458333)" /><path
       style="fill:#aaeeff;stroke:#aaeeff;stroke-width:5.06881;stroke-linecap:round;stroke-linejoin:round;stroke-miterlimit:3.6;stroke-dasharray:none"
       d="m 321.86944,495.9262 c -7.00736,-3.35682 -17.5687,-8.11122 -23.46964,-10.56532 l -10.72898,-4.46201 v -37.93991 -37.93991 l 3.51921,0.22936 c 3.82418,0.24924 24.03157,9.92232 36.37919,17.41436 l 7.71145,4.67901 v 37.45433 c 0,20.59989 -0.15088,37.40462 -0.33528,37.34387 -0.1844,-0.0608 -6.06858,-2.85696 -13.07595,-6.21378 z"
       id="path1676"
       transform="scale(0.26458333)" /><path
       style="fill:#eeffaa;stroke:#eeffaa;stroke-width:5.06881;stroke-linecap:round;stroke-linejoin:round;stroke-miterlimit:3.6;stroke-dasharray:none"
       d="m 326.56337,400.91756 c -4.4257,-2.52859 -14.68529,-7.40199 -22.79908,-10.82978 -8.11379,-3.42778 -15.19574,-6.90207 -15.73766,-7.72064 -0.54192,-0.81856 -0.99454,-18.51055 -1.00584,-39.31552 l -0.0205,-37.82723 5.08175,1.79294 c 7.19872,2.53986 23.51536,10.81191 34.14609,17.31104 l 9.05258,5.53433 v 37.91345 c 0,20.85241 -0.15088,37.87417 -0.33528,37.82615 -0.1844,-0.048 -3.95631,-2.15615 -8.38202,-4.68474 z"
       id="path1678"
       transform="scale(0.26458333)" /><path
       style="fill:#dde9af;stroke:#dde9af;stroke-width:5.06881;stroke-linecap:round;stroke-linejoin:round;stroke-miterlimit:3.6;stroke-dasharray:none"
       d="m 199.82754,339.08318 -2.6e-4,-39.11341 10.3937,-1.0755 c 13.29566,-1.37579 34.31419,-1.37579 47.60986,0 l 10.3937,1.0755 1.8e-4,39.11341 1.9e-4,39.11342 h -34.19855 -34.19855 z"
       id="path1680"
       transform="scale(0.26458333)" /><path
       style="fill:#ccffaa;stroke:#ccffaa;stroke-width:5.06881;stroke-linecap:round;stroke-linejoin:round;stroke-miterlimit:3.6;stroke-dasharray:none"
       d="m 132.31247,404.78389 c -0.48535,-0.48534 -0.88245,-17.03256 -0.88245,-36.7716 v -35.88915 l 4.85281,-4.00009 c 5.43423,-4.47935 38.29257,-21.67652 41.41696,-21.67652 1.74026,0 2.01006,5.1851 2.00628,38.55728 l -0.004,38.55728 -9.71877,3.91213 c -10.54007,4.24276 -32.95709,15.01822 -35.32345,16.97938 -0.80548,0.66756 -1.86162,0.81664 -2.34696,0.33129 z"
       id="path1682"
       transform="scale(0.26458333)" /><path
       style="fill:#f4d7d7;stroke:#f4d7d7;stroke-width:5.06881;stroke-linecap:round;stroke-linejoin:round;stroke-miterlimit:3.6;stroke-dasharray:none"
       d="m 132.09343,306.6629 c -0.36487,-0.36487 -0.66341,-16.64962 -0.66341,-36.18833 v -35.52492 l 3.65426,-4.82052 c 2.00984,-2.65129 4.87649,-5.91297 6.37033,-7.24819 4.2429,-3.79236 17.8528,-9.9187 28.53269,-12.84367 l 9.72314,-2.66293 -0.007,27.07229 c -0.004,14.88976 -0.39474,32.92835 -0.86873,40.08575 l -0.86179,13.01346 -7.20607,2.26658 c -3.96334,1.24663 -14.13697,5.69723 -22.60807,9.89024 -8.4711,4.19301 -15.70054,7.32511 -16.06541,6.96024 z"
       id="path1684"
       transform="scale(0.26458333)" /><path
       style="fill:#ffccaa;stroke:#ffccaa;stroke-width:5.06881;stroke-linecap:round;stroke-linejoin:round;stroke-miterlimit:3.6;stroke-dasharray:none"
       d="m 199.82754,241.24228 -2.6e-4,-39.05236 5.02921,-0.83128 c 6.61458,-1.09332 49.18394,-1.09924 57.14581,-0.008 l 6.22224,0.85286 1.8e-4,39.04554 1.9e-4,39.04555 h -34.19855 -34.19855 z"
       id="path1686"
       transform="scale(0.26458333)" /><path
       style="fill:#ffeeaa;stroke:#ffeeaa;stroke-width:5.06881;stroke-linecap:round;stroke-linejoin:round;stroke-miterlimit:3.6;stroke-dasharray:none"
       d="m 321.19888,300.7643 c -5.90094,-3.05148 -15.85877,-7.50448 -22.12852,-9.89555 l -11.39954,-4.3474 -0.35591,-38.352 c -0.30709,-33.09203 -0.0797,-38.45798 1.6577,-39.1247 2.40954,-0.92462 19.28874,4.02722 26.84555,7.87568 8.07055,4.11009 13.99545,9.01271 16.48049,13.63696 1.73842,3.23491 2.33838,8.95526 2.74623,26.18424 0.53666,22.67026 -0.68579,49.75682 -2.24023,49.63796 -0.48223,-0.0369 -5.70483,-2.56371 -11.60577,-5.61519 z"
       id="path1688"
       transform="scale(0.26458333)" /><path
       style="fill:#333333;stroke:#333333;stroke-width:7.55905522;stroke-linecap:round;stroke-linejoin:round;stroke-miterlimit:3.6;stroke-dasharray:none"
       d="m 417.42443,490.57499 c -2.14216,-0.4126 -3.01752,-1.52677 -3.01752,-3.84073 v -3.25953 h 86.50241 86.50241 v 4.02336 4.02337 l -83.48488,-0.18263 c -45.91669,-0.10045 -84.84278,-0.44418 -86.50242,-0.76384 z"
       id="path1759"
       transform="scale(0.26458333)" /><path
       style="fill:#d5fff6;stroke:#d5fff6;stroke-width:10.1376;stroke-linecap:round;stroke-linejoin:round;stroke-miterlimit:3.6;stroke-dasharray:none"
       d="m 355.39751,459.5217 c 0,-103.1635 0.36379,-190.22413 0.80842,-193.46807 l 0.80842,-5.89809 22.32595,3.0779 c 30.50559,4.20555 246.15758,37.27524 260.63473,39.96768 6.41247,1.19258 12.74927,2.96537 14.08178,3.93953 2.31038,1.68905 2.44118,9.61317 2.82043,170.86112 l 0.39768,169.08992 H 618.31996 579.365 v -67.55528 -67.55529 l 5.61729,-0.89824 c 7.55296,-1.20778 15.43512,-5.82475 18.42598,-10.79304 7.43714,-12.35419 3.19718,-27.87876 -9.36427,-34.28713 -5.00457,-2.55313 -8.24762,-2.64482 -93.55059,-2.64482 H 412.1271 l -5.52928,4.00539 c -15.62736,11.32039 -14.24097,32.35626 2.68847,40.79257 3.84361,1.91535 8.68041,3.48245 10.74843,3.48245 h 3.76005 v 67.7267 67.72669 h -34.19863 -34.19863 z"
       id="path2037"
       transform="scale(0.26458333)" /><path
       style="fill:#333333;stroke:#333333;stroke-width:7.55905522;stroke-linecap:round;stroke-linejoin:round;stroke-miterlimit:3.6;stroke-dasharray:none"
       d="m 151.54686,163.71276 c 0,-37.04402 -0.55422,-35.07125 11.07525,-39.42239 23.22061,-8.68795 63.58031,-13.71797 89.63049,-11.17064 18.18328,1.77806 45.68954,8.34199 56.20562,13.41257 l 7.37617,3.5566 v 32.41257 c 0,17.82691 -0.3297,32.74131 -0.73267,33.14313 -0.40296,0.40181 -7.94678,-1.61483 -16.76403,-4.48142 -21.08715,-6.85567 -31.26329,-8.09993 -66.24483,-8.09993 -33.4951,0 -44.9125,1.51361 -65.51736,8.68569 -7.46685,2.59904 -13.90292,4.72553 -14.30237,4.72553 -0.39945,0 -0.72627,-14.74277 -0.72627,-32.76171 z"
       id="path2936"
       transform="scale(0.26458333)" /><text
       xml:space="preserve"
       style="font-size:10.5833px;font-family:Calibri;-inkscape-font-specification:Calibri;fill:#333333;stroke:#333333;stroke-width:1;stroke-linecap:round;stroke-linejoin:round;stroke-miterlimit:3.6;stroke-dasharray:none"
       x="107.87097"
       y="104.67742"
       id="text3268"><tspan
         sodipodi:role="line"
         id="tspan3266"
         style="font-size:10.5833px;stroke-width:1;stroke-dasharray:none"
         x="107.87097"
         y="104.67742">OBCHODNÍ</tspan><tspan
         sodipodi:role="line"
         style="font-size:10.5833px;stroke-width:1;stroke-dasharray:none"
         x="107.87097"
         y="117.90655"
         id="tspan3270">CENTRUM</tspan></text></g></svg>
