<?xml version="1.0" encoding="UTF-8" standalone="no"?>
<!-- Created with Inkscape (http://www.inkscape.org/) -->

<svg
   width="210mm"
   height="297mm"
   viewBox="0 0 210 297"
   version="1.1"
   id="svg5"
   xml:space="preserve"
   inkscape:version="1.2.1 (9c6d41e410, 2022-07-14)"
   sodipodi:docname="posta.svg"
   inkscape:export-filename="posta.png"
   inkscape:export-xdpi="96"
   inkscape:export-ydpi="96"
   xmlns:inkscape="http://www.inkscape.org/namespaces/inkscape"
   xmlns:sodipodi="http://sodipodi.sourceforge.net/DTD/sodipodi-0.dtd"
   xmlns="http://www.w3.org/2000/svg"
   xmlns:svg="http://www.w3.org/2000/svg"><sodipodi:namedview
     id="namedview7"
     pagecolor="#ffffff"
     bordercolor="#000000"
     borderopacity="0.25"
     inkscape:showpageshadow="2"
     inkscape:pageopacity="0.0"
     inkscape:pagecheckerboard="0"
     inkscape:deskcolor="#d1d1d1"
     inkscape:document-units="mm"
     showgrid="false"
     inkscape:zoom="1.0544998"
     inkscape:cx="207.68141"
     inkscape:cy="295.87489"
     inkscape:window-width="1920"
     inkscape:window-height="1017"
     inkscape:window-x="-8"
     inkscape:window-y="-8"
     inkscape:window-maximized="1"
     inkscape:current-layer="layer1" /><defs
     id="defs2"><clipPath
       clipPathUnits="userSpaceOnUse"
       id="clipPath3024"><path
         id="path3026"
         style="fill:#ff0000;fill-opacity:1;fill-rule:nonzero;stroke:none"
         d="M 153.18164,125.71094 V 645.75001 H 656.98438 V 125.71094 Z m 228.29102,58.73242 c 0.0112,-5.8e-4 0.0217,-2.8e-4 0.0332,0 0.16782,0.004 0.36716,0.10089 0.55274,0.32813 1.53464,1.8789 3.0733,3.75508 4.58594,5.65234 1.01389,1.30192 0.53137,0.66915 1.45312,1.90039 0.56262,0.75153 -0.19781,1.31997 -0.75976,0.56836 -0.90856,-1.21399 -0.43209,-0.58831 -1.43555,-1.87695 -1.50924,-1.89311 -3.04494,-3.76528 -4.57617,-5.64063 -0.39544,-0.48432 -0.20154,-0.91362 0.14648,-0.93164 z m -0.96484,1.20703 c 0.0105,-5.4e-4 0.0208,-2.4e-4 0.0312,0 0.17983,0.004 0.39202,0.11903 0.57226,0.38672 1.07932,1.60317 2.34694,3.07181 3.58008,4.55664 1.12501,1.34591 2.25173,2.68976 3.375,4.03711 0.39265,0.47096 0.19914,0.85317 -0.13672,0.88867 0.76171,0.94372 1.52477,1.88598 2.29102,2.82618 0.16811,0.20817 0.33767,0.41682 0.50586,0.625 0.58968,0.72994 -0.14864,1.32619 -0.73828,0.5957 -0.009,-0.0115 -0.0179,-0.0236 -0.0274,-0.0352 -0.17563,0.19042 -0.53796,0.17762 -0.84961,-0.22461 -0.94866,-1.22442 -1.89637,-2.45057 -2.82617,-3.68945 -0.0243,-0.0323 -0.048,-0.0653 -0.0723,-0.0977 -0.092,-0.056 -0.18393,-0.0851 -0.27344,-0.20312 -0.73856,-0.97403 -1.47644,-1.9487 -2.20313,-2.93164 -1.26515,-1.707 -2.53396,-3.41095 -3.74609,-5.15625 -0.35138,-0.50602 -0.13251,-0.90669 0.21094,-0.9043 0.02,1.4e-4 0.0398,0.003 0.0605,0.006 -0.13024,-0.37082 -0.0218,-0.6659 0.2461,-0.67969 z m -12.76563,2.34766 c 0.003,-4.1e-4 0.005,2.1e-4 0.008,0 0.0433,-0.004 0.0978,0.0196 0.14649,0.084 0.0751,0.0993 0.14491,0.2025 0.21875,0.30274 0.002,-4.8e-4 0.005,-0.002 0.008,-0.002 0.0467,-0.006 0.10576,0.0197 0.15625,0.0918 0.24002,0.34273 0.49602,0.67541 0.75,1.00781 0.35588,0.45659 0.70695,0.91465 1.05274,1.37891 0.003,0.004 -0.004,0.002 -0.004,0.004 0.017,0.0196 0.0339,0.0389 0.0508,0.0586 0.0578,0.0674 0.10588,0.14231 0.16211,0.21094 0.0969,0.11855 0.19137,0.23828 0.28711,0.35742 0.45009,0.56452 0.89895,1.1289 1.35156,1.69141 0.21311,0.26236 0.42174,0.52799 0.63086,0.79296 0.14521,0.18448 -0.0403,0.33089 -0.18555,0.14649 -0.20859,-0.2649 -0.41826,-0.52928 -0.63085,-0.79102 -0.098,-0.12182 -0.19526,-0.24326 -0.29297,-0.36523 -0.0488,0.01 -0.0279,0.13312 -0.0801,0.0527 -0.10791,-0.16265 -0.21598,-0.32538 -0.32617,-0.48632 -0.0459,0.003 -0.0222,0.11964 -0.0703,0.0488 -0.20993,-0.30395 -0.42271,-0.60653 -0.63867,-0.90625 -0.19948,-0.27761 -0.40002,-0.55379 -0.60156,-0.83007 -0.02,-0.023 -0.0385,-0.0474 -0.0586,-0.0703 -0.0181,0.0689 -0.0272,0.15911 -0.0937,0.0684 -0.22249,-0.31094 -0.44578,-0.62279 -0.67383,-0.92969 -0.32293,-0.43391 -0.64372,-0.86857 -0.99219,-1.2832 -0.0594,-0.0707 -0.0675,-0.13706 -0.0469,-0.18164 -0.0521,-0.0704 -0.10154,-0.14288 -0.1543,-0.21289 -0.0898,-0.11927 -0.0503,-0.22565 0.0273,-0.23828 z m 7.6543,13.95312 c 0.1675,-0.005 0.30003,0.0601 0.375,0.16407 0.045,-0.009 0.0996,-0.0383 0.14062,-0.0391 0.50968,-0.01 0.63633,0.55487 0.0508,0.91016 -0.009,0.0135 -0.0192,0.0276 -0.0293,0.041 -0.005,0.003 0.001,0.007 -0.006,0.01 -0.001,6.7e-4 -0.003,2.8e-4 -0.004,0.002 -0.0653,0.0831 -0.15609,0.16439 -0.27734,0.23828 -0.43001,0.26205 -0.87694,0.49242 -1.35547,0.65429 -0.15108,0.0535 -0.30276,0.10645 -0.45508,0.15625 -0.0194,0.0107 -0.024,0.025 -0.0449,0.0352 -0.42803,0.20839 -0.86238,0.40442 -1.30273,0.58594 -0.027,0.0124 -0.0249,0.0337 -0.0547,0.0449 -0.29308,0.11019 -0.58727,0.21738 -0.88086,0.32617 -0.79363,0.31638 -1.5844,0.63839 -2.375,0.96289 -0.95324,0.39004 -1.90854,0.77587 -2.84766,1.19922 -0.1001,0.0451 -0.15664,0.0102 -0.24218,0.0234 -1.04673,0.4148 -2.09897,0.81478 -3.16407,1.17969 -0.24254,0.0981 -0.4795,0.20939 -0.72656,0.29687 -0.04,0.0142 -0.0796,0.0258 -0.11719,0.0352 -0.001,3.4e-4 -0.003,0.002 -0.004,0.002 -0.73985,0.29713 -1.47903,0.59592 -2.22071,0.88867 -0.0399,0.0157 -0.0777,0.0283 -0.11523,0.0391 -0.21287,0.0902 -0.42113,0.19081 -0.63477,0.2793 -1.55552,0.64258 -3.11882,1.27006 -4.70703,1.82813 -0.13594,0.0478 -0.25871,0.0671 -0.36523,0.0644 -0.58074,0.23739 -1.1607,0.47639 -1.75,0.69336 -0.0447,0.0164 -0.0872,0.0286 -0.12891,0.0391 -0.47525,0.18231 -0.94387,0.38167 -1.42187,0.55664 -0.12201,0.0447 -0.2332,0.0654 -0.33203,0.0684 -1.14038,0.4989 -2.28755,0.98266 -3.41016,1.52149 -0.84635,0.40591 -1.2623,-0.44522 -0.41602,-0.85157 0.13746,-0.066 0.28014,-0.12037 0.41797,-0.18554 -0.17693,-0.22314 -0.0704,-0.60164 0.44727,-0.78125 1.58105,-0.54861 3.14148,-1.15263 4.69922,-1.76368 2.19079,-0.88614 4.37389,-1.79408 6.57617,-2.65234 0.0708,-0.0276 0.12774,-0.0267 0.1914,-0.0391 0.0963,-0.11482 0.25539,-0.21432 0.48633,-0.26758 0.48818,-0.11259 0.97232,-0.24354 1.45313,-0.38477 0.63561,-0.29961 1.27377,-0.59387 1.90625,-0.90039 0.1584,-0.0768 0.3012,-0.11015 0.42383,-0.10937 0.14906,7.8e-4 0.23622,0.0791 0.31445,0.1582 0.30447,-0.10542 0.60703,-0.21317 0.91016,-0.32226 -0.002,-0.0366 -0.0162,-0.0736 0.0293,-0.10938 -0.44535,-0.12904 -0.4577,-0.70538 0.23047,-0.92578 1.3566,-0.43445 2.68551,-0.94365 4.01367,-1.45703 0.12314,-0.0476 0.23581,-0.072 0.33594,-0.0762 0.1237,-0.005 0.19137,0.0552 0.27344,0.0996 0.47962,-0.24075 0.95625,-0.48738 1.43164,-0.73633 0.15593,-0.0817 0.29733,-0.11806 0.41992,-0.1211 0.22963,-0.006 0.34667,0.13772 0.40039,0.29688 0.62896,-0.28336 1.25491,-0.57099 1.87109,-0.88086 0.37272,-0.19397 0.19154,-0.0971 0.54493,-0.28906 0.0946,-0.0514 0.17036,-0.0519 0.2539,-0.0723 0.0352,-0.02 0.0703,-0.0401 0.10547,-0.0606 0.0796,-0.0467 0.16064,-0.092 0.24024,-0.13867 0.17716,-0.10385 0.33714,-0.1473 0.47265,-0.14453 0.009,2.1e-4 0.0107,0.009 0.0195,0.01 0.1288,-0.0669 0.2482,-0.0982 0.35352,-0.10157 z m 46.7207,20.9629 c 0.35113,-0.005 0.42196,0.26136 0.3125,0.54492 0.43669,0.17944 0.37904,0.76596 -0.33398,0.90039 -0.0848,0.016 -0.16914,0.0327 -0.25391,0.0488 -0.0636,0.0435 -0.0851,0.096 -0.18164,0.13086 -0.24917,0.0899 -0.50574,0.15591 -0.75781,0.23632 -0.0774,0.16667 -0.27897,0.31206 -0.61524,0.34766 -0.18819,0.0199 -0.37626,0.04 -0.56445,0.0606 -0.004,7.8e-4 -0.008,-0.001 -0.0117,0.002 -0.0386,0.0417 -0.11171,0.0425 -0.18945,0.0371 h -0.002 c -0.12632,0.0234 -0.2529,0.0459 -0.37891,0.0703 -0.0488,0.009 -0.0977,0.018 -0.14648,0.0274 0.0633,0.12456 0.12356,0.25219 0.19726,0.36718 -0.0952,0.0623 -0.18046,0.14298 -0.28515,0.1875 -0.10776,0.0459 -0.7519,0.14164 -0.79688,0.14844 -0.0447,0.007 -0.09,0.0129 -0.13477,0.0195 0.20792,0.68909 -0.75304,0.73091 -1.33203,0.84375 -0.0137,0.002 -0.0273,0.004 -0.041,0.006 0.01,0.0561 0.0208,0.11186 0.0351,0.16602 -1.25706,0.37065 -2.58033,0.50918 -3.84961,0.83203 -1.8289,0.38103 -3.65859,0.75962 -5.49804,1.08984 h -0.004 c -0.92394,0.16588 -1.11734,-0.7617 -0.19336,-0.92773 1.5315,-0.27521 3.05655,-0.585 4.58008,-0.90039 0.01,-0.0774 0.0202,-0.15505 0.0312,-0.23243 -0.0274,-0.0923 -0.0541,-0.18407 -0.0781,-0.27734 -0.003,-0.0122 0.0277,0.001 0.0391,0 0.0255,-0.002 0.0508,-0.006 0.0762,-0.008 5.7e-4,-0.005 -10e-4,-0.0104 0.002,-0.0156 0.35036,-0.0535 0.70181,-0.10451 1.05274,-0.15429 -0.0586,-0.0537 -0.0262,-0.13725 -0.043,-0.20899 -0.45167,0.0263 -0.90402,0.0433 -1.35742,0.0469 -0.29757,0.002 -0.47153,-0.10135 -0.58594,-0.23047 -0.10675,-0.0306 -0.0759,-0.12234 -0.14063,-0.17969 -0.91756,-0.079 -1.83407,-0.17312 -2.74804,-0.29297 h -0.002 c -0.8725,-0.11443 -0.84121,-0.9516 -0.0644,-0.95508 0.0516,-2.3e-4 0.1059,0.004 0.16406,0.0117 0.26918,0.0353 0.5402,0.0537 0.81055,0.0781 -0.0637,-0.0455 -0.0254,-0.11449 -0.0586,-0.17188 -0.36122,-0.0889 -0.72148,-0.18166 -1.08008,-0.28125 -0.79132,-0.21982 -0.69294,-0.94708 -0.0508,-0.95703 0.0918,-0.001 0.19551,0.0136 0.30859,0.0449 0.19375,0.0538 0.39129,0.0923 0.58594,0.14258 0.071,-0.0337 0.15697,-0.0547 0.25586,-0.0606 0.092,-0.005 0.19434,0.005 0.30859,0.0312 0.89246,0.20833 1.7889,0.40218 2.68555,0.5918 0.3654,0.0219 0.73196,0.0306 1.0957,0.0703 0.22609,0.0293 0.45367,0.0588 0.67969,0.0879 0.0537,0.007 0.10363,0.0153 0.15039,0.0274 0.98369,-0.0173 1.96733,-0.0266 2.95117,-0.0332 0.30377,-0.002 0.38082,-0.002 0.45703,-0.002 0.504,-0.0662 1.00697,-0.13741 1.50977,-0.21289 0.60979,-0.15332 1.21735,-0.31276 1.82226,-0.48437 0.43858,-0.10685 0.84619,-0.29208 1.2461,-0.4961 0.15681,-0.08 0.29927,-0.11556 0.42187,-0.11718 z m 20.87305,2.83789 c 0.19512,0.004 0.42556,0.14168 0.59766,0.45507 0.052,0.0947 0.10501,0.18925 0.1582,0.28321 0.0517,-0.0362 0.0847,-0.10059 0.14648,-0.11133 0.002,-0.002 0.005,-0.004 0.008,-0.006 0.0687,-0.0583 0.15365,-0.0885 0.24609,-0.0859 0.20137,0.006 0.43208,0.16483 0.57227,0.51953 0.57686,1.46008 1.35237,2.83076 2.11523,4.19922 0.18981,0.33909 0.3827,0.67575 0.57813,1.01172 0.37864,0.54162 0.757,1.08354 1.13671,1.625 0.14434,0.20581 0.18047,0.38626 0.16602,0.53906 0.24487,0.39552 0.49138,0.79081 0.74023,1.1836 0.50242,0.79301 -0.2984,1.29891 -0.80078,0.50586 -0.0205,-0.0324 -0.0401,-0.0653 -0.0605,-0.0977 -0.17026,-0.0155 -0.36526,-0.13076 -0.53321,-0.38086 -0.70552,-1.05036 -0.3489,-0.51144 -1.0664,-1.61914 -0.84816,-1.36611 -1.68995,-2.74346 -2.36133,-4.20703 -0.65878,-0.97367 -1.34626,-1.92977 -1.90625,-2.96289 -0.26563,-0.49005 -0.0715,-0.82786 0.22461,-0.84961 0.0127,-9.3e-4 0.026,-0.002 0.0391,-0.002 z m 6.91992,29.84179 c 0.19336,-0.005 0.42926,0.11568 0.61914,0.41211 0.40615,0.63397 0.84551,1.24621 1.28321,1.85938 0.1622,0.19599 0.3201,0.395 0.47851,0.59375 0.0619,-0.0553 0.1418,-0.0888 0.23242,-0.0937 0.17817,-0.01 0.39669,0.0901 0.59375,0.3457 1.04251,1.3521 2.05138,2.73005 3.05469,4.11133 0.76055,1.04684 0.38618,0.53019 1.125,1.54492 0.0841,0.11558 0.0833,0.20884 0.10352,0.30859 0.0301,0.0408 0.0598,0.0822 0.0898,0.12305 0.46043,0.59035 0.92263,1.17933 1.38086,1.77149 0.0978,0.12633 0.11244,0.23461 0.14062,0.3457 0.32638,0.46256 0.65256,0.92643 0.97657,1.39062 0.0211,0.0296 0.0436,0.0582 0.0645,0.0879 0.002,0.003 -2.2e-4,0.005 0.002,0.008 0.13718,0.19668 0.27344,0.39286 0.41016,0.58984 0.3208,0.46215 0.17023,0.84228 -0.11719,0.90625 -0.17125,0.22673 -0.53725,0.24573 -0.84375,-0.20898 -0.56719,-0.84139 -1.13148,-1.68433 -1.73828,-2.49805 -0.04,-0.0529 -0.081,-0.10542 -0.12109,-0.1582 -0.0739,-0.0521 -0.14692,-0.0637 -0.21875,-0.15625 -0.0995,-0.12811 -0.0827,-0.10491 -0.1543,-0.19727 0.17527,0.60858 -0.48299,0.91279 -0.92969,0.22852 -0.49111,-0.75236 -0.98318,-1.5057 -1.49218,-2.2461 -0.10483,-0.1526 -0.20938,-0.30456 -0.31446,-0.45703 0.18395,0.39474 0.21377,0.4604 0.60547,1.29297 0.39965,0.84948 -0.45777,1.25378 -0.85742,0.4043 -0.52214,-1.11026 -0.25475,-0.53763 -0.80859,-1.72461 -0.60912,-1.31609 -1.22884,-2.62695 -1.85352,-3.93555 -0.12959,-0.16015 -0.19567,-0.31373 -0.21289,-0.44922 -0.12599,-0.26194 -0.24363,-0.52785 -0.37109,-0.78906 -0.13255,-0.2714 -0.12302,-0.48182 -0.0508,-0.63672 -0.0169,-0.0237 -0.032,-0.0485 -0.0488,-0.0723 -0.14573,-0.17377 -0.29396,-0.34682 -0.44336,-0.51758 -0.15169,-0.17339 -0.2241,-0.34328 -0.23828,-0.49024 -0.18561,-0.27581 -0.38057,-0.54535 -0.5586,-0.82617 -0.31415,-0.49554 -0.10939,-0.8582 0.21289,-0.86719 z" /></clipPath></defs><g
     inkscape:label="Vrstva 1"
     inkscape:groupmode="layer"
     id="layer1"><path
       style="fill:#28170b;stroke:#28170b;stroke-width:0;stroke-linecap:square;stroke-miterlimit:3.6;stroke-dasharray:none;paint-order:stroke fill markers"
       d="m 100.48294,143.40301 v -24.77387 l 2.2584,-2.33854 2.25839,-2.33855 h 9.13777 9.13777 l 2.22837,2.47083 2.22836,2.47083 v 24.64158 24.64158 h -13.62453 -13.62453 z m 11.84742,13.64563 v -7.89093 h -4.54151 -4.5415 v 7.62115 c 0,4.19164 0.11847,7.74256 0.26326,7.89093 0.14481,0.14837 2.18849,0.26978 4.54152,0.26978 h 4.27823 z m 12.24232,0 v -7.89093 h -4.5415 -4.54151 v 7.89093 7.89093 h 4.54151 4.5415 z m -12.24232,-18.81682 v -7.6886 h -4.54151 -4.5415 v 7.6886 7.68859 h 4.5415 4.54151 z m 12.24232,0 v -7.6886 h -4.5415 -4.54151 v 7.6886 7.68859 h 4.54151 4.5415 z m 0,-14.64976 c 0,-3.6403 -0.0283,-3.7538 -1.2622,-5.05828 l -1.26221,-1.33443 h -8.0051 -8.0051 l -1.39536,1.42981 c -1.38973,1.42403 -1.39536,1.44449 -1.39536,5.05828 v 3.62849 h 10.66267 10.66266 z"
       id="path1050" /><path
       style="fill:#28170b;stroke:#28170b;stroke-width:0;stroke-linecap:square;stroke-miterlimit:3.6;stroke-dasharray:none;paint-order:stroke fill markers"
       d="m 132.86589,143.38974 v -24.78711 l 2.16317,-2.32529 2.16317,-2.32529 h 9.22703 9.22703 l 2.23432,2.49936 2.23433,2.49937 v 24.61304 24.61305 h -13.62453 -13.62452 z m 11.8474,13.6589 v -7.89093 h -4.5415 -4.54151 v 7.89093 7.89093 h 4.54151 4.5415 z m 12.24234,0 v -7.89093 h -4.54151 -4.54151 v 7.89093 7.89093 h 4.54151 4.54151 z m -12.24234,-18.81682 v -7.6886 h -4.5415 -4.54151 v 7.6886 7.68859 h 4.54151 4.5415 z m 12.24234,0 v -7.6886 h -4.54151 -4.54151 v 7.6886 7.68859 h 4.54151 4.54151 z m 0,-14.64976 c 0,-3.6403 -0.0283,-3.7538 -1.26221,-5.05828 l -1.26222,-1.33443 h -8.03784 -8.03783 l -1.36262,1.35604 c -1.35784,1.35126 -1.36263,1.36905 -1.36263,5.05829 v 3.70225 h 10.66267 10.66268 z"
       id="path1052" /><path
       style="fill:#d5e5ff;stroke:#d5e5ff;stroke-width:0.466147;stroke-linecap:square;stroke-miterlimit:3.6;stroke-dasharray:none;paint-order:stroke fill markers"
       d="m 56.260116,149.41061 1.39e-4,-31.80872 18.257088,-1.2e-4 18.257087,-1e-4 -0.118008,31.58201 c -0.06495,17.3701 -0.157744,31.62087 -0.206295,31.66838 -0.04851,0.0475 -8.211205,0.14957 -18.139217,0.22683 l -18.050934,0.14044 z"
       id="path1125" /><path
       style="fill:#1a1a1a;stroke:#d7e3f4;stroke-width:0;stroke-linecap:square;stroke-miterlimit:3.6;stroke-dasharray:none;paint-order:stroke fill markers"
       d="M 193.12167,517.67336 V 389.59614 h -9.81819 -9.81819 l -3.51987,-17.09932 c -1.93593,-9.40462 -5.02307,-24.94488 -6.86031,-34.5339 -8.01806,-41.84828 -9.30979,-48.37311 -9.88996,-49.95682 -0.47413,-1.29425 4.00448,-1.67641 19.64619,-1.67641 h 20.26033 v -7.91632 -7.91633 l 7.71145,-5.00657 c 4.2413,-2.75361 10.72898,-6.94633 14.41707,-9.31715 3.68809,-2.37082 10.17712,-6.66423 14.42006,-9.54091 4.24295,-2.87668 8.77776,-5.83383 10.07737,-6.57145 1.2996,-0.73762 4.53789,-2.69901 7.1962,-4.35865 4.57248,-2.8547 6.21266,-3.01752 30.39643,-3.01752 h 25.56314 l 2.10685,-7.24731 c 1.15877,-3.98601 2.10685,-8.21521 2.10685,-9.3982 0,-1.183 1.86457,-9.53919 4.14348,-18.56931 4.32141,-17.12342 7.92755,-31.78731 13.92481,-56.62317 1.95544,-8.09788 3.72568,-14.89376 3.93388,-15.10195 0.20818,-0.20818 2.98055,0.53953 6.16081,1.66159 3.18025,1.12206 8.85682,2.56435 12.61458,3.20509 3.75776,0.64074 15.88488,3.70783 26.94914,6.81575 11.06426,3.10792 29.58297,8.31063 41.15266,11.56158 11.5697,3.25094 22.01902,5.91081 23.22069,5.91081 1.20167,0 10.32988,2.43657 20.2849,5.4146 9.95502,2.97804 21.09635,5.98285 24.75852,6.67736 3.66216,0.69452 10.86769,2.54127 16.01228,4.10389 7.57424,2.3006 9.35378,3.35926 9.35378,5.56463 0,1.49793 -1.83483,10.0391 -4.07742,18.98037 -6.14093,24.48424 -7.99268,32.57393 -7.99268,34.91743 0,1.88057 3.60202,2.12684 31.10901,2.12684 30.24603,0 31.24123,0.0861 35.87503,3.10247 10.43016,6.7896 24.04419,15.61217 33.60016,21.77458 22.43894,14.47032 20.11684,12.05741 20.11684,20.90351 v 7.86434 h 19.44628 c 22.79289,0 21.13542,-2.02717 16.23923,19.86141 -1.76388,7.88547 -3.58812,17.05299 -4.05387,20.37227 -0.46575,3.31928 -2.32503,13.57887 -4.13172,22.79909 -1.80671,9.22022 -4.30132,22.0447 -5.5436,28.49886 l -2.25869,11.73482 h -9.84882 -9.84881 V 517.67336 645.75057 H 405.68961 193.12167 Z m 30.84582,8.71729 V 417.75972 h 69.73838 69.73838 V 526.39065 635.02159 H 485.48641 607.52858 V 512.30886 389.59614 H 405.68961 203.85065 v 122.71272 122.71273 h 10.05842 10.05842 z m 129.76195,5.02921 0.3436,-102.93116 h -59.68828 -59.68829 v 103.28039 103.2804 l 59.34468,-0.34923 59.34468,-0.34923 z M 629.51385,377.75779 c 0.3771,-0.61014 1.6571,-6.49432 2.84443,-13.07594 1.18734,-6.58161 3.8989,-20.71741 6.02571,-31.41286 2.1268,-10.69546 4.24292,-21.8603 4.70247,-24.81077 0.45956,-2.95047 1.16153,-6.72238 1.55994,-8.38202 l 0.72439,-3.01753 H 405.835 c -227.23929,0 -239.53524,0.12044 -239.52515,2.34697 0.006,1.29083 1.5498,9.58903 3.43101,18.44044 1.8812,8.85141 3.99082,20.01625 4.68803,24.81077 1.34012,9.2156 6.53717,33.50133 7.53361,35.20447 0.80896,1.38269 446.69658,1.27956 447.55135,-0.10354 z M 450.61722,285.04537 c 0,-1.28733 -12.24709,-5.29716 -24.81077,-8.1233 -6.77113,-1.52314 -31.16951,-8.10617 -71.75006,-19.35915 -12.17069,-3.37493 -23.03378,-6.13916 -24.14021,-6.14274 -1.10643,-0.004 -8.04674,-1.79594 -15.42291,-3.98305 -12.65426,-3.75209 -14.76142,-3.97787 -37.33219,-3.99995 l -23.92097,-0.0234 -5.58373,3.78004 c -3.07106,2.07902 -10.11002,6.69096 -15.64216,10.24875 -29.37315,18.89031 -28.16357,17.85537 -28.16357,24.09741 v 4.78972 h 123.38328 c 77.72431,0 123.38329,-0.47528 123.38329,-1.28432 z m 156.89069,-3.74489 c -0.0223,-5.43555 -1.49856,-6.71297 -25.46067,-22.03214 -4.79451,-3.06517 -12.18062,-7.88638 -16.41358,-10.71381 l -7.69629,-5.14076 -31.86683,0.005 -31.86683,0.005 -2.5219,9.7183 c -2.66007,10.25074 -7.35436,30.47751 -7.46892,32.18213 -0.0372,0.55321 27.69364,1.00584 61.62404,1.00584 h 61.69165 l -0.0207,-5.02921 z m -144.82058,-8.08313 c 0,-1.31086 -1.81052,-4.36562 -4.02337,-6.78839 -2.21286,-2.42276 -4.02337,-4.74053 -4.02337,-5.15062 0,-0.41008 -3.20982,-5.04999 -7.13291,-10.31092 -3.9231,-5.26094 -10.04972,-13.69307 -13.6147,-18.73809 -3.56499,-5.04501 -7.24102,-9.46409 -8.16895,-9.82017 -0.92794,-0.35609 -3.40128,0.22075 -5.4963,1.28186 -3.45493,1.7499 -4.95475,1.60279 -16.12925,-1.58205 -8.66504,-2.4696 -13.52913,-4.66962 -16.39524,-7.41554 l -4.07511,-3.9042 -5.7333,2.42174 c -8.55326,3.6129 -33.98931,15.05799 -44.23009,19.90158 -4.94566,2.33915 -8.56669,4.62396 -8.04674,5.07734 0.51996,0.45339 10.90321,3.58683 23.0739,6.9632 12.17069,3.37637 32.08636,8.90016 44.25705,12.2751 12.17068,3.37492 23.03378,6.13743 24.1402,6.13891 1.10643,0.001 10.76251,2.65156 21.45797,5.8891 22.35104,6.76569 24.14021,7.04446 24.14021,3.76115 z m 15.36062,-5.99866 c 0.93923,-4.98389 6.02545,-26.72328 11.53118,-49.28625 4.55104,-18.65066 6.58042,-28.66646 5.9384,-29.30849 -0.61921,-0.6192 -58.23451,26.75776 -59.03377,28.05097 -0.33319,0.53912 2.10702,4.66534 5.42271,9.16937 3.31567,4.50403 6.02851,8.56041 6.02851,9.01418 0,0.45376 1.65964,2.81619 3.68808,5.24983 4.2951,5.15305 8.22672,10.40747 11.06427,14.7868 6.65328,10.26838 11.59957,16.61748 12.96938,16.64766 0.86341,0.019 1.93947,-1.92681 2.39124,-4.32407 z M 332.99418,222.06664 c 6.05208,-2.84471 17.54157,-8.25793 25.5322,-12.02937 7.99062,-3.77145 15.38356,-6.85718 16.42875,-6.85718 3.11777,0 2.15083,-4.4135 -1.91782,-8.75364 -2.09317,-2.23284 -4.05177,-4.67547 -4.35245,-5.42807 -0.30067,-0.75259 -6.88349,-9.65286 -14.62847,-19.77836 -7.74499,-10.12551 -14.67753,-19.60211 -15.40565,-21.05911 -2.42313,-4.84878 -4.40015,-2.74565 -6.64985,7.07404 -4.1827,18.25697 -8.95595,37.87399 -12.89816,53.0087 -4.99242,19.16657 -5.04056,20.98504 -0.52562,19.85186 1.87732,-0.47117 8.365,-3.18416 14.41707,-6.02887 z m 117.98917,-24.47421 c 19.01061,-8.9957 34.37363,-16.92916 34.14005,-17.62993 -0.45911,-1.3773 -25.18224,-9.22741 -37.18842,-11.8081 -4.0569,-0.87202 -16.49966,-4.21107 -27.65057,-7.42011 -11.15092,-3.20904 -21.26991,-5.83462 -22.48665,-5.83462 -1.21675,0 -11.52917,-2.75848 -22.91651,-6.12995 -11.38735,-3.37147 -22.21766,-5.93637 -24.06735,-5.69977 -3.20961,0.41055 -2.81725,1.16457 8.59818,16.52365 6.57869,8.85141 12.74211,17.01541 13.69648,18.14223 0.95437,1.12682 3.40343,4.59697 5.44235,7.71146 2.03891,3.11448 4.30205,5.66269 5.02921,5.66269 0.72714,0 1.32209,0.64935 1.32209,1.44299 0,0.79365 2.67561,4.92014 5.94577,9.16998 5.08409,6.60715 6.97913,8.02748 13.07595,9.80044 3.9216,1.14041 8.33718,2.15253 9.81242,2.24916 1.47523,0.0966 18.23638,-7.18442 37.247,-16.18012 z"
       id="path425"
       transform="matrix(0.29446513,0,0,0.30173435,-12.85734,-11.695738)"
       clip-path="url(#clipPath3024)" /><path
       style="fill:#d5e5ff;stroke:#d5e5ff;stroke-width:0.302179;stroke-linecap:square;stroke-miterlimit:3.6;stroke-dasharray:none;paint-order:stroke fill markers"
       d="m 115.48967,157.04864 v -7.78976 h 4.54151 4.5415 v 7.78976 7.78976 h -4.5415 -4.54151 z"
       id="path3097" /><path
       style="fill:#d5e5ff;stroke:#d5e5ff;stroke-width:0.302179;stroke-linecap:square;stroke-miterlimit:3.6;stroke-dasharray:none;paint-order:stroke fill markers"
       d="m 104.1947,164.69441 c -0.29347,-0.0458 -0.57662,-0.23706 -0.62922,-0.42493 -0.0526,-0.18787 -0.15749,-3.6421 -0.23307,-7.67608 l -0.13743,-7.33452 h 4.56769 4.56769 v 7.78976 7.78976 l -3.80105,-0.0303 c -2.09057,-0.0167 -4.04115,-0.0678 -4.33461,-0.11367 z"
       id="path3306" /><path
       style="fill:#d5e5ff;stroke:#d5e5ff;stroke-width:0.302179;stroke-linecap:square;stroke-miterlimit:3.6;stroke-dasharray:none;paint-order:stroke fill markers"
       d="m 103.24735,138.23182 v -7.58743 h 4.5415 4.54151 v 7.58743 7.58743 h -4.54151 -4.5415 z"
       id="path3308" /><path
       style="fill:#d5e5ff;stroke:#d5e5ff;stroke-width:0.302179;stroke-linecap:square;stroke-miterlimit:3.6;stroke-dasharray:none;paint-order:stroke fill markers"
       d="m 115.48967,138.23182 v -7.58743 h 4.54151 4.5415 v 7.58743 7.58743 h -4.5415 -4.54151 z"
       id="path3310" /><path
       style="fill:#d5e5ff;stroke:#d5e5ff;stroke-width:0.302179;stroke-linecap:square;stroke-miterlimit:3.6;stroke-dasharray:none;paint-order:stroke fill markers"
       d="m 103.33928,123.81571 c 0.0796,-1.86398 0.23488,-3.57115 0.34504,-3.79372 0.11016,-0.22256 0.69834,-0.92819 1.30704,-1.56806 l 1.10674,-1.16341 h 7.9112 7.91122 l 1.00727,1.06224 c 0.554,0.58423 1.09701,1.24434 1.20668,1.4669 0.10967,0.22257 0.2645,1.97527 0.34405,3.89489 l 0.14464,3.49021 h -10.7143 -10.71431 z"
       id="path3312" /><path
       style="fill:#d5e5ff;stroke:#d5e5ff;stroke-width:0.302179;stroke-linecap:square;stroke-miterlimit:3.6;stroke-dasharray:none;paint-order:stroke fill markers"
       d="m 135.63028,138.23182 v -7.58743 h 4.54151 4.5415 v 7.58743 7.58743 h -4.5415 -4.54151 z"
       id="path3314" /><path
       style="fill:#d5e5ff;stroke:#d5e5ff;stroke-width:0.302179;stroke-linecap:square;stroke-miterlimit:3.6;stroke-dasharray:none;paint-order:stroke fill markers"
       d="m 135.71621,123.71455 c 0.15786,-3.91725 0.15567,-3.91048 1.77571,-5.45941 l 1.00148,-0.95753 7.90502,-0.003 7.90503,-0.003 1.00728,1.06223 c 0.554,0.58424 1.09701,1.24434 1.20668,1.4669 0.10966,0.22257 0.26449,1.97527 0.34404,3.89489 l 0.14465,3.49021 h -10.71528 -10.71528 z"
       id="path3316" /><path
       style="fill:#d5e5ff;stroke:#d5e5ff;stroke-width:0.302179;stroke-linecap:square;stroke-miterlimit:3.6;stroke-dasharray:none;paint-order:stroke fill markers"
       d="m 147.87261,138.23182 v -7.58743 h 4.54151 4.54151 v 7.58743 7.58743 h -4.54151 -4.54151 z"
       id="path3318" /><path
       style="fill:#d5e5ff;stroke:#d5e5ff;stroke-width:0.302179;stroke-linecap:square;stroke-miterlimit:3.6;stroke-dasharray:none;paint-order:stroke fill markers"
       d="m 147.87261,157.04864 v -7.78976 h 4.54151 4.54151 v 7.78976 7.78976 h -4.54151 -4.54151 z"
       id="path3320" /><path
       style="fill:#e6e6e6;stroke:#e6e6e6;stroke-width:0.302179;stroke-linecap:square;stroke-miterlimit:3.6;stroke-dasharray:none;paint-order:stroke fill markers"
       d="m 135.63028,157.04864 v -7.78976 h 4.54151 4.5415 v 7.78976 7.78976 h -4.5415 -4.54151 z"
       id="path3322" /><path
       style="fill:#ffd42a;stroke:#ffcc00;stroke-width:0.302179;stroke-linecap:square;stroke-miterlimit:3.6;stroke-dasharray:none;paint-order:stroke fill markers"
       d="m 119.43881,70.446204 c -3.87936,-1.183912 -8.47958,-2.481089 -11.12851,-3.138028 -2.77029,-0.687037 -14.755562,-4.052645 -20.267144,-5.691253 -1.900525,-0.565031 -3.744277,-1.111825 -4.097232,-1.2151 -0.352955,-0.103273 -0.641737,-0.268429 -0.641737,-0.367008 0,-0.09858 0.999627,-0.678175 2.221393,-1.287989 2.303405,-1.14969 11.442616,-5.373744 13.418696,-6.201993 l 1.127014,-0.472369 0.8773,0.828627 c 1.09401,1.033325 1.87801,1.443379 4.37205,2.286733 1.63951,0.554394 2.27612,0.668133 3.75169,0.670285 0.9774,0.0016 2.16336,-0.07387 2.63546,-0.167309 1.04663,-0.207164 0.44991,-0.893945 6.20071,7.136449 5.42112,7.570035 5.2568,7.324481 5.27061,7.876473 0.0101,0.394934 -0.0867,0.453936 -0.72909,0.44536 -0.40725,-0.0054 -1.7623,-0.32173 -3.01121,-0.702878 z"
       id="path3462" /><path
       style="fill:#ffcc00;stroke:#ffd42a;stroke-width:0.302179;stroke-linecap:square;stroke-miterlimit:3.6;stroke-dasharray:none;paint-order:stroke fill markers"
       d="m 80.25847,57.044721 c -0.295411,-0.302702 0.0087,-1.934998 1.541669,-8.275991 0.910395,-3.765656 2.116798,-8.825554 2.680898,-11.244212 0.578354,-2.479776 1.175759,-4.587536 1.369871,-4.833171 0.342397,-0.433282 0.350425,-0.426538 1.501647,1.261424 1.378607,2.021364 8.125215,11.308926 8.948992,12.319434 0.997469,1.223574 1.614449,2.265811 1.614449,2.727232 0,0.511443 0.0385,0.49071 -3.949133,2.127842 -1.574716,0.646508 -4.195959,1.829442 -5.824979,2.628737 -4.956234,2.431837 -7.630787,3.547572 -7.883414,3.288705 z"
       id="path3464" /><path
       style="fill:#ffd42a;stroke:#ffd42a;stroke-width:0.302179;stroke-linecap:square;stroke-miterlimit:3.6;stroke-dasharray:none;paint-order:stroke fill markers"
       d="m 107.98631,52.518821 c -2.54098,-0.704067 -3.42303,-1.057968 -4.05588,-1.627341 -0.69074,-0.621453 -3.90876,-4.774934 -5.224894,-6.743754 -0.37196,-0.55641 -2.241828,-3.151311 -4.155279,-5.766446 -3.120499,-4.264809 -4.532533,-6.305384 -4.532533,-6.5501 0,-0.506068 2.449881,0.01238 8.866282,1.876236 2.324324,0.675182 4.744514,1.323941 5.378204,1.441686 0.63368,0.117746 3.39688,0.853082 6.14043,1.634079 2.74357,0.781 6.54328,1.820267 8.4438,2.309484 5.23414,1.347334 10.86013,3.183874 10.86013,3.545165 0,0.515567 -20.00643,10.189137 -20.86917,10.090732 -0.088,-0.01005 -0.47098,-0.104418 -0.85109,-0.209741 z"
       id="path3466" /><path
       style="fill:#ffd42a;stroke:#ffd42a;stroke-width:0.302179;stroke-linecap:square;stroke-miterlimit:3.6;stroke-dasharray:none;paint-order:stroke fill markers"
       d="m 126.43851,69.304055 c -0.42975,-0.482108 -1.59812,-2.105726 -2.59638,-3.608037 -0.99826,-1.502308 -2.28423,-3.323292 -2.85772,-4.046625 -1.28765,-1.624083 -5.09983,-7.437351 -5.09983,-7.77683 0,-0.30607 8.11101,-4.407243 15.04854,-7.608991 l 2.1151,-0.976147 -0.11346,0.64414 c -0.32495,1.844782 -1.20002,5.819993 -2.70283,12.278192 -0.91927,3.95052 -1.87351,8.120597 -2.12053,9.266835 -0.61003,2.830797 -0.69539,2.924041 -1.67289,1.827463 z"
       id="path3468" /><path
       style="fill:#002255;stroke:#002255;stroke-width:1.09054;stroke-linecap:square;stroke-miterlimit:3.6;stroke-dasharray:none;paint-order:stroke fill markers"
       d="m 48.465541,102.32158 -7.688324,-0.10475 -0.351011,-1.41631 C 40.233149,100.02153 39.721345,97.517694 39.288864,95.236402 36.68912,81.523107 36.279822,79.255667 36.343197,78.917909 c 0.04922,-0.262295 0.334513,-0.426514 0.956116,-0.550348 0.488698,-0.09735 32.014217,-0.215542 70.306547,-0.263565 l 69.42059,-0.08706 -0.35026,1.882216 c -2.91076,15.641516 -4.17618,22.126118 -4.3377,22.228408 -0.55607,0.35215 -100.746488,0.50907 -123.872949,0.19402 z"
       id="path5200" /><path
       style="fill:#1a1a1a;stroke:#1a1a1a;stroke-width:0;stroke-linecap:square;stroke-miterlimit:3.6;stroke-dasharray:none;paint-order:stroke fill markers"
       d="m 100.48294,143.4387 v -24.63702 l 2.32309,-2.37423 2.32308,-2.37423 9.08005,0.0183 9.08006,0.0183 2.22139,2.48618 2.22139,2.48619 v 24.50675 24.50676 h -13.62453 -13.62453 z m 12.04488,13.60994 v -7.99209 h -4.83276 -4.83276 l 0.0844,0.55641 c 0.0464,0.30602 0.13515,3.71851 0.19717,7.58329 0.062,3.86478 0.16266,7.16013 0.22364,7.323 0.16709,0.44612 0.43152,0.47266 4.96433,0.49801 l 4.19597,0.0234 z m 12.24232,0 v -7.99209 h -4.73896 -4.73897 v 7.99209 7.99209 h 4.73897 4.73896 z m -12.24232,-18.81682 v -7.78976 h -4.73897 -4.73896 v 7.78976 7.78976 h 4.73896 4.73897 z m 12.24232,0 v -7.78976 h -4.73896 -4.73897 v 7.78976 7.78976 h 4.73897 4.73896 z m -0.0388,-14.11251 c -0.0757,-1.8084 -0.19062,-3.58298 -0.25539,-3.94352 -0.0732,-0.40773 -0.53312,-1.11522 -1.2165,-1.87157 l -1.09871,-1.21603 h -8.15056 -8.15055 l -1.20472,1.31964 c -0.66259,0.7258 -1.2516,1.52248 -1.30889,1.7704 -0.0573,0.24792 -0.16956,1.97586 -0.24949,3.83988 l -0.1453,3.38911 10.95886,3e-5 10.95886,4e-5 z"
       id="path5271" /><path
       style="fill:#1a1a1a;stroke:#1a1a1a;stroke-width:0;stroke-linecap:square;stroke-miterlimit:3.6;stroke-dasharray:none;paint-order:stroke fill markers"
       d="m 132.86721,143.44186 0.001,-24.63386 2.18707,-2.37739 2.18708,-2.37739 h 9.14794 9.14792 l 2.2882,2.52278 2.2882,2.52277 v 24.48846 24.48847 h -13.62468 -13.62453 l 0.001,-24.63384 z m 12.04354,13.60678 v -7.99209 h -4.73896 -4.73897 v 7.99209 7.99209 h 4.73897 4.73896 z m 12.24233,0 v -7.99209 h -4.73896 -4.73897 v 7.99209 7.99209 h 4.73897 4.73896 z m -12.24233,-18.81682 v -7.78976 h -4.73896 -4.73897 v 7.78976 7.78976 h 4.73897 4.73896 z m 12.24233,0 v -7.78976 h -4.73896 -4.73897 v 7.78976 7.78976 h 4.73897 4.73896 z m -0.0389,-14.11251 c -0.0757,-1.8084 -0.19061,-3.58298 -0.25539,-3.94352 -0.0732,-0.40773 -0.53312,-1.11522 -1.2165,-1.87157 l -1.09871,-1.21603 h -8.12952 -8.12954 l -1.25143,1.29383 -1.25145,1.29382 -0.16483,1.79173 c -0.0907,0.98545 -0.19136,2.72507 -0.22378,3.86582 l -0.059,2.07409 10.95885,-9e-5 10.95887,-1e-4 z"
       id="path5273" /><path
       style="fill:#d5e5ff;stroke:#d5e5ff;stroke-width:0;stroke-linecap:square;stroke-miterlimit:3.6;stroke-dasharray:none;paint-order:stroke fill markers"
       d="m 135.63028,157.04864 v -7.78976 h 4.54151 4.5415 v 7.78976 7.78976 h -4.5415 -4.54151 z"
       id="path5344" /><path
       style="fill:#002255;stroke:#002255;stroke-width:1.01393;stroke-linecap:square;stroke-miterlimit:3.6;stroke-dasharray:none;paint-order:stroke fill markers"
       d="m 47.170671,73.859622 c 0.0031,-2.188844 0.15862,-2.345315 6.514977,-6.554617 2.226326,-1.474316 4.955674,-3.304435 6.065218,-4.06693 l 2.017352,-1.386351 5.880925,0.0016 c 7.088804,0.0021 8.352707,0.135388 12.409432,1.309659 1.730786,0.501001 3.675149,1.009954 4.320808,1.131013 0.645656,0.121058 6.332416,1.663205 12.637243,3.426993 6.304824,1.763788 13.107154,3.629088 15.116284,4.145108 4.81482,1.236635 8.09654,2.111565 7.80764,2.407629 -0.15726,0.161151 -10.95591,0.243307 -36.843669,0.293995 l -35.927311,0.07036 0.0012,-0.778507 z"
       id="path5346"
       sodipodi:nodetypes="cssccssssssccc" /><path
       style="fill:#002255;stroke:#002255;stroke-width:0.675955;stroke-linecap:square;stroke-miterlimit:3.6;stroke-dasharray:none;paint-order:stroke fill markers"
       d="m 132.22415,74.447506 c -1.65837,-0.0458 -2.31998,-0.134387 -2.31962,-0.310571 6e-4,-0.328056 1.81182,-8.273198 2.39691,-10.514812 l 0.4621,-1.770399 9.28229,0.0012 9.28227,0.0012 6.34357,4.248664 c 3.48896,2.336764 6.72909,4.599231 7.20029,5.027703 0.81286,0.739162 0.86235,0.847879 0.96682,2.123597 l 0.11011,1.344553 -15.70231,-0.04351 c -8.63628,-0.02392 -16.74637,-0.07234 -18.02243,-0.107586 z"
       id="path5348" /><path
       style="fill:#ffeeaa;stroke:#ffeeaa;stroke-width:0.96153;stroke-linecap:square;stroke-miterlimit:3.6;stroke-dasharray:none;paint-order:stroke fill markers"
       d="m 47.18061,142.96283 v -36.91205 h 59.33984 59.33982 v 36.91205 36.91203 H 130.11676 94.37323 v -32.76302 -32.763 H 73.709005 53.044782 v 32.763 32.76302 H 50.112696 47.18061 Z m 80.69963,0.6438 -0.003,-24.82262 -2.25458,-2.50373 -2.25456,-2.50371 h -9.25598 -9.25596 l -2.30961,2.35433 -2.30964,2.35433 v 24.97202 24.97202 h 13.82269 13.82269 l -0.003,-24.82264 z m 32.39511,0.0376 v -24.78501 l -2.26418,-2.54134 -2.26419,-2.54134 h -9.24889 -9.24889 l -2.30962,2.35433 -2.30961,2.35433 v 24.97202 24.97202 h 13.82269 13.82269 z"
       id="path5515" /><text
       xml:space="preserve"
       style="font-size:15.6617px;font-family:Calibri;-inkscape-font-specification:Calibri;fill:#ffcc00;stroke:#ffcc00;stroke-width:1.33187;stroke-linecap:square;stroke-miterlimit:3.6;stroke-dasharray:none;paint-order:stroke fill markers"
       x="84.966187"
       y="96.964714"
       id="text6676"
       transform="scale(1.0132105,0.98696174)"><tspan
         sodipodi:role="line"
         id="tspan6674"
         style="fill:#ffcc00;stroke:#ffcc00;stroke-width:1.33187"
         x="84.966187"
         y="96.964714">POŠTA</tspan></text></g></svg>
