<?xml version="1.0" encoding="UTF-8" standalone="no"?>
<!-- Created with Inkscape (http://www.inkscape.org/) -->

<svg
   width="210mm"
   height="297mm"
   viewBox="0 0 210 297"
   version="1.1"
   id="svg5"
   xml:space="preserve"
   inkscape:version="1.2.1 (9c6d41e410, 2022-07-14)"
   sodipodi:docname="restaurace.svg"
   inkscape:export-filename="restaurace.png"
   inkscape:export-xdpi="96"
   inkscape:export-ydpi="96"
   xmlns:inkscape="http://www.inkscape.org/namespaces/inkscape"
   xmlns:sodipodi="http://sodipodi.sourceforge.net/DTD/sodipodi-0.dtd"
   xmlns="http://www.w3.org/2000/svg"
   xmlns:svg="http://www.w3.org/2000/svg"><sodipodi:namedview
     id="namedview7"
     pagecolor="#ffffff"
     bordercolor="#000000"
     borderopacity="0.25"
     inkscape:showpageshadow="2"
     inkscape:pageopacity="0.0"
     inkscape:pagecheckerboard="0"
     inkscape:deskcolor="#d1d1d1"
     inkscape:document-units="mm"
     showgrid="false"
     inkscape:zoom="0.74564394"
     inkscape:cx="398.31344"
     inkscape:cy="347.35077"
     inkscape:window-width="1920"
     inkscape:window-height="1017"
     inkscape:window-x="-8"
     inkscape:window-y="-8"
     inkscape:window-maximized="1"
     inkscape:current-layer="layer1" /><defs
     id="defs2" /><g
     inkscape:label="Vrstva 1"
     inkscape:groupmode="layer"
     id="layer1"><path
       id="path979"
       style="fill:#000000;stroke:#000000;stroke-width:0;stroke-linecap:square;stroke-miterlimit:3.6;stroke-dasharray:none;paint-order:stroke fill markers"
       d="m 106.37469,22.392807 c -3.61266,-0.100349 -7.086127,0.387222 -11.277867,1.438672 -8.222136,2.062425 -17.118811,8.112623 -22.358842,15.20579 l -1.359606,1.840714 -4.023011,0.106453 -4.471561,10e-4 c -7.764235,0.0012 -8.505555,0.05569 -9.569442,0.70435 -0.634273,0.386726 -1.152904,0.907093 -1.152904,1.156518 0,0.249425 -0.559236,1.283242 -1.2423,2.297536 -0.683067,1.01429 -1.241785,1.972394 -1.241785,2.129067 0,0.156676 -0.558721,1.114777 -1.241785,2.129071 -0.683062,1.01429 -1.241785,1.959147 -1.241785,2.099611 0,0.140462 -0.6155,1.224585 -1.367356,2.409156 -1.202931,1.895253 -2.568157,4.198958 -7.826915,13.205912 -0.70046,1.199719 -1.591556,2.717057 -1.979723,3.371371 -0.38817,0.654312 -1.268069,2.147694 -1.955435,3.318661 -0.687369,1.170969 -1.567267,2.658269 -1.955438,3.305225 -6.118155,10.197063 -6.244301,10.549374 -4.567679,12.747543 1.525125,1.999541 2.80008,2.573195 5.724716,2.574517 l 1.450041,10e-4 1.122928,0.139009 V 136.6302 c 0,47.31215 -0.04968,45.94477 1.680517,46.39976 0.344183,0.0905 31.41281,0.14265 69.041272,0.11575 l 68.41546,-0.0491 0.68161,-0.88677 c 0.66366,-0.86386 0.68167,-2.05018 0.68937,-45.29439 l 0.004,-24.10757 0.11627,-20.291268 0.13436,-0.0186 2.80913,-0.115237 3.05615,-0.125574 1.55649,-1.719275 c 2.23474,-2.468346 2.15219,-3.207118 -0.92707,-8.289417 -1.36613,-2.254779 -2.48357,-4.216728 -2.48357,-4.359942 0,-0.143208 -0.29799,-0.641477 -0.66198,-1.106908 -0.364,-0.465431 -1.13587,-1.724374 -1.71514,-2.797762 -0.57926,-1.073383 -1.41161,-2.510539 -1.85001,-3.193603 -0.43841,-0.683064 -1.39743,-2.279555 -2.13114,-3.548105 -3.64155,-6.296014 -6.65514,-11.389241 -7.88789,-13.331486 -0.75186,-1.184571 -1.36684,-2.248466 -1.36684,-2.364195 0,-0.115731 -0.55873,-1.058815 -1.24179,-2.095997 -0.68306,-1.037178 -1.2423,-2.006325 -1.2423,-2.153357 0,-0.147032 -0.55872,-1.140849 -1.24178,-2.208652 -0.68307,-1.067797 -1.24179,-2.111316 -1.24179,-2.318721 0,-0.207404 -0.51914,-0.693311 -1.15342,-1.080037 -1.06745,-0.650838 -1.81302,-0.70395 -10.02419,-0.711067 l -5.00435,-0.0041 -3.94032,-0.0925 -1.43454,-1.715143 c -0.82944,-0.992333 -1.50792,-1.939195 -1.50792,-2.104263 0,-0.373369 -7.43157,-7.07558 -8.16126,-7.360274 -0.29274,-0.114213 -1.33052,-0.713574 -2.30632,-1.33222 -2.91295,-1.846757 -5.96756,-3.329649 -8.01191,-3.889168 -4.74918,-1.299803 -8.50082,-1.987895 -12.11348,-2.088244 z M 91.248996,41.835032 c 0.248446,0.01953 0.500956,0.14148 0.855244,0.37362 0.168762,0.110575 0.300183,0.233784 0.433565,0.353984 0.07997,0.08173 0.154289,0.152688 0.241329,0.247528 0.09181,0.113329 0.188619,0.23077 0.188619,0.299207 0,0.184147 0.67848,1.110911 1.50792,2.059823 0.82943,0.94891 1.98748,2.411463 2.57297,3.24993 0.58548,0.83847 1.62325,2.182913 2.30632,2.987932 1.987147,2.341941 3.141577,4.579638 3.471097,6.562391 0.0312,0.202441 0.0718,0.405657 0.0884,0.605132 0.0254,0.3166 0.0283,0.625821 0.007,0.926557 -0.003,0.07042 -0.009,0.138734 -0.0134,0.208256 -0.0809,0.753931 -0.30525,1.455762 -0.69091,2.088245 l -0.68317,1.120344 2.27843,2.782777 c 1.25292,1.530585 3.35711,4.105581 4.6762,5.72213 1.31909,1.616551 3.03721,3.701539 3.81785,4.633309 0.78065,0.931773 2.61666,3.178551 4.08037,4.99246 1.35942,1.684668 2.79836,3.46283 3.50315,4.331002 0.1294,0.173151 0.35897,0.465854 0.45165,0.594796 1.76592,2.367375 1.63132,5.003218 -0.39429,6.372222 -1.34299,0.907651 -2.28341,0.98288 -3.56051,0.285253 -0.76648,-0.418703 -2.48357,-2.358099 -2.48357,-2.804996 0,-0.08428 -1.7485,-2.525681 -3.88503,-5.425509 -2.13653,-2.899828 -4.45839,-6.070793 -5.15989,-7.046597 -0.70151,-0.975807 -2.36543,-3.230483 -3.69746,-5.010547 -1.332017,-1.780069 -2.721957,-3.744786 -3.088697,-4.365625 -0.51605,-0.873564 -0.82749,-1.075261 -1.3777,-0.892453 -2.60234,0.864661 -5.319769,0.222515 -7.265184,-1.716691 -1.07497,-1.071538 -6.397027,-8.303357 -6.397027,-8.692493 0,-0.171381 -0.41443,-0.698371 -0.920874,-1.171504 -1.024665,-0.957265 -1.662218,-2.164882 -1.852083,-3.250964 -0.0023,-0.182187 -0.0085,-0.356024 0.0062,-0.575675 0.0478,-0.715952 0.210624,-1.193938 0.436149,-1.551845 0.01907,-0.02107 0.02891,-0.04906 0.04909,-0.06925 0.292796,-0.292796 0.568476,-0.465685 0.859896,-0.531233 0.2437,-0.01077 0.526896,0.04544 0.840777,0.152445 0.08652,0.0443 0.174889,0.09339 0.2682,0.15658 0.07376,0.04602 0.152432,0.09957 0.247012,0.175184 0.189572,0.151799 0.389589,0.328805 0.612884,0.555521 0.01802,0.01757 0.03593,0.03569 0.05426,0.05374 0.819226,0.843692 1.886831,2.195777 3.387389,4.202329 2.395804,3.203673 3.166906,3.940937 3.678846,3.516064 0.558675,-0.463661 0.2672,-1.265232 -1.034045,-2.842205 -1.721284,-2.086012 -4.732094,-6.141193 -5.159375,-6.948929 -0.395084,-0.74686 -0.201874,-1.751205 0.339513,-2.340425 0.0017,-0.0019 0.0045,-0.0023 0.0062,-0.0041 0.179679,-0.193881 0.396523,-0.34385 0.643372,-0.422196 0.494903,-0.157078 1.028946,-0.122671 1.467093,0.03462 0.242393,0.139353 0.538263,0.406921 0.888317,0.786513 0.19231,0.379865 1.280322,1.874814 2.566252,3.511415 1.345094,1.711894 2.634642,3.47176 2.865459,3.910873 0.501329,0.953775 1.655759,1.047247 2.124419,0.171566 0.26772,-0.500248 -0.16114,-1.254482 -2.116667,-3.722772 -1.348753,-1.702411 -2.452047,-3.228628 -2.452047,-3.391524 0,-0.162899 -0.399383,-0.671285 -0.887285,-1.129647 -0.09073,-0.08524 -0.14754,-0.198699 -0.225309,-0.296106 -0.305628,-0.548936 -0.515707,-1.024001 -0.6165,-1.42317 -0.06336,-0.493119 -0.01166,-0.975783 0.226343,-1.332216 0.143383,-0.214736 0.630938,-0.585476 1.083138,-0.823722 0.337412,-0.177771 0.581477,-0.260858 0.829924,-0.241329 z m 32.283304,1.281575 c 0.23648,-0.0096 0.45769,0.03251 0.6873,0.04599 0.39308,0.02875 0.77189,0.07851 1.13481,0.155546 1.297,0.310742 2.48876,0.998598 3.57963,2.121833 3.5587,3.664271 2.82497,10.815154 -1.72341,16.795875 -2.12563,2.795021 -4.5134,4.477874 -7.19387,5.073075 -0.0385,0.0084 -0.0771,0.01681 -0.11576,0.02481 -0.88297,0.185156 -1.7964,0.256215 -2.74402,0.206706 l -2.31924,-0.120925 -1.40249,2.040186 c -1.10285,1.603796 -1.66869,2.241132 -2.49081,1.816428 -0.27512,-0.177197 -0.62489,-0.494099 -0.98754,-0.833025 -0.46038,-0.50324 -0.99708,-1.175641 -1.70738,-2.097029 -0.58388,-0.757386 -0.88461,-1.297768 -0.93225,-1.658297 0.0104,-0.113475 0.015,-0.224806 0.0636,-0.359151 2.63444,-3.655682 2.61678,-3.614396 2.26498,-5.469435 -0.75844,-3.999285 1.66844,-9.955453 5.2157,-13.46791 0.071,-0.07141 0.14415,-0.13923 0.21601,-0.209291 0.48343,-0.459079 0.98247,-0.883018 1.50017,-1.2392 2.61913,-1.802006 4.91629,-2.743261 6.95461,-2.826184 z m -68.100757,2.834968 h 6.298324 6.13296 l -0.202057,1.011309 c -0.111252,0.556252 -0.617437,1.919121 -1.124995,3.028754 -0.976924,2.135775 -2.376591,7.375242 -2.996716,11.217921 -1.08758,6.739302 0.134318,17.063521 2.761589,23.330876 l 1.000971,2.387452 c -0.177675,0.101861 -7.976499,0.185001 -17.624247,0.185001 h -0.02015 c -6.132271,-7.6e-5 -10.237692,-0.02881 -13.073104,-0.0863 -1.386234,-0.02158 -1.725065,-0.05137 -2.452563,-0.07855 -1.246368,-0.05632 -2.044362,-0.124981 -2.113566,-0.217041 0.07111,-0.243199 1.10622,-2.093883 2.458249,-4.376478 1.397519,-2.359395 3.14244,-5.327949 3.877281,-6.596496 0.734843,-1.26855 1.760445,-2.986029 2.278933,-3.816821 0.518485,-0.830792 1.342972,-2.267945 1.832446,-3.193603 0.489471,-0.92566 1.10677,-1.925849 1.371491,-2.222603 0.264724,-0.296754 0.609198,-0.855477 0.765845,-1.241785 0.288202,-0.710747 6.513107,-11.285683 9.010819,-15.307593 0.746503,-1.202049 1.461119,-2.59911 1.588018,-3.104721 z m 94.685697,0 h 6.64456 l 0.23048,0.919324 c 0.1269,0.505611 0.84151,1.902672 1.58801,3.104721 2.49771,4.02191 8.72262,14.596846 9.01082,15.307593 0.15665,0.386308 0.50164,0.945031 0.76636,1.241785 0.26473,0.296754 0.88151,1.296943 1.37098,2.222603 0.48947,0.925658 1.31448,2.362811 1.83296,3.193603 0.51849,0.830792 1.54409,2.548271 2.27893,3.816821 0.73485,1.268547 2.47925,4.237101 3.87677,6.596496 1.35203,2.282595 2.38714,4.133279 2.45825,4.376478 -0.0691,0.09193 -0.87864,0.160219 -2.14199,0.216525 -0.74333,0.02742 -1.09708,0.05731 -2.5244,0.07906 -2.89615,0.05748 -7.07925,0.0863 -13.3475,0.0863 -9.9358,0 -18.05005,-0.0925 -18.07848,-0.205673 0.0165,-0.129017 0.63659,-2.011627 1.41438,-4.290177 3.18854,-9.340813 3.20925,-20.616957 0.0553,-29.928923 -0.76115,-2.247278 -1.6402,-4.582228 -1.95388,-5.188831 -0.30611,-0.591944 -0.45406,-1.160785 -0.34778,-1.302244 0.11312,-0.0434 0.6394,-0.07982 1.22421,-0.114724 0.28668,-0.01794 0.32378,-0.03998 0.73587,-0.05478 0.94867,-0.03484 2.26566,-0.04824 3.5972,-0.05788 0.47508,-0.0036 0.80627,-0.01809 1.30896,-0.01809 z m -49.3448,29.274182 c 0.15489,0 0.55618,0.376391 1.0387,0.898655 0.50993,0.628846 1.36282,1.776516 2.01591,2.733683 l 1.20457,1.76475 c -2.2e-4,0.05937 -0.31235,0.525026 -0.48369,0.80822 l -0.20309,0.265615 c -2.42038,3.166859 -5.355127,7.213838 -6.168617,8.505941 -0.25719,0.408501 -0.56123,0.814644 -0.84388,1.142566 -0.008,0.0087 -0.0149,0.01471 -0.0227,0.02325 -0.25194,0.28923 -0.47395,0.491514 -0.64027,0.593247 -0.0349,0.02688 -0.0708,0.04895 -0.10593,0.0739 -1.83976,0.917604 -4.249139,0.574074 -5.176432,-0.749827 -0.264197,-0.377195 -0.438682,-0.776285 -0.524516,-1.203544 -0.04053,-0.246936 -0.05821,-0.506175 -0.04909,-0.778764 0.0051,-0.124841 0.01938,-0.252783 0.03772,-0.382405 0.01016,-0.0887 0.03435,-0.183066 0.04961,-0.273886 0.195734,-0.946391 0.712285,-2.015218 1.588019,-3.263366 0.907431,-1.293331 1.943509,-2.67099 2.302699,-3.061311 0.35919,-0.390324 1.63371,-1.986817 2.83239,-3.548105 0.7086,-0.922964 1.19341,-1.555123 1.62005,-2.094963 0.790587,-0.881488 1.370067,-1.453658 1.528587,-1.453658 z M 68.865865,92.435559 h 1.24075 l 1.314649,1.761133 c 0.726294,0.972844 1.32085,1.881055 1.32085,2.018482 0,0.389979 5.335804,5.818316 6.918957,7.038846 11.51694,8.87896 23.997489,11.6897 36.201929,8.15299 6.22237,-1.80317 11.24762,-4.55502 17.01292,-9.31571 1.67409,-1.38238 5.48772,-5.758654 6.79442,-7.79694 l 1.19165,-1.858801 h 1.2914 l 14.06219,0.08475 15.34893,0.0925 0.0899,42.669231 0.0873,41.20678 v 1.46297 h -3.54655 -3.55017 v -28.38742 -28.3869 H 128.09688 91.548202 v 28.3869 28.38742 h -5.322157 -5.32267 v -28.38742 -28.3869 h -16.85272 -0.0021 -16.85065 -0.0041 v 1.28623 l -0.08682,27.0123 -0.09095,28.29802 -3.283522,0.10232 -3.282487,0.1018 v -0.49816 l 0.08888,-42.18451 0.08992,-42.682661 14.736053,-0.0925 z M 50.03239,124.72558 h 13.83843 13.838949 v 26.61336 26.61285 H 63.87082 50.03239 v -26.61285 z m 45.064433,0 h 8.161257 8.16127 v 2.6541 0.16071 c 0,1.57834 -0.0449,2.24595 -0.22583,2.60966 l -1.10484,0.57051 c -2.06347,1.06507 -3.91448,3.21284 -4.70307,5.45651 -1.1809,3.35986 -1.85774,3.09697 7.98556,3.09697 h 2.37453 6.31899 0.032 l -0.032,-0.1912 v -0.80874 c 0,-0.55006 -0.23979,-1.80755 -0.53278,-2.79414 -0.61299,-2.06416 -2.80709,-4.34398 -4.9134,-5.10563 l -1.29604,-0.46871 v -2.53525 -0.0548 -2.59002 h 12.77441 12.7739 v 2.64479 0.10594 2.53887 l -1.31517,0.62425 c -2.66213,1.26326 -4.75176,4.10321 -5.2436,7.12669 l -0.24547,1.50792 h 0.154 8.76432 0.0233 8.78757 0.10749 l -0.23668,-1.33067 c -0.6362,-3.57718 -3.36353,-7.17651 -5.85184,-7.72304 -0.28955,-0.0636 -0.4853,-0.12469 -0.63613,-0.21601 -0.20095,-0.31872 -0.27169,-0.96171 -0.33073,-2.52853 l -0.0734,-1.95285 v -0.79736 h 8.32352 0.015 8.3385 v 26.61336 26.61285 h -8.16125 -8.16126 v -6.56446 -6.56498 h 3.72587 3.72587 v -2.48357 -2.48408 h -9.75806 -9.75806 v 2.48408 2.48357 h 3.72587 3.72587 v 6.56498 6.56446 h -12.4194 -12.4194 v -6.56446 -6.56498 h 3.90313 3.90312 v -2.48357 -2.48408 h -9.93531 -9.93531 v 2.48408 2.48357 h 3.72535 3.72587 v 6.56498 6.56446 h -7.9835 -7.984007 v -26.61285 z" /><path
       style="fill:#000000;stroke:#000000;stroke-width:0;stroke-linecap:square;stroke-miterlimit:3.6;stroke-dasharray:none;paint-order:stroke fill markers"
       d="m 69.801832,155.73194 c -0.139396,-0.1394 -0.253447,-2.31182 -0.253447,-4.82761 v -4.57417 l 1.508067,0.10911 1.508064,0.10911 v 4.61291 4.6129 l -1.25462,0.1056 c -0.690038,0.0581 -1.368668,-0.008 -1.508064,-0.14785 z"
       id="path1053" /><path
       style="fill:#ffffff;stroke:#ffffff;stroke-width:2;stroke-linecap:square;stroke-miterlimit:3.6;stroke-dasharray:none;paint-order:stroke fill markers"
       d="M 120.29733,97.786487 C 119.55309,97.01421 115.60914,91.9107 111.53305,86.445351 107.45694,80.980005 102.63772,74.520602 100.8237,72.091119 l -3.298238,-4.417235 -2.544847,0.258466 c -4.818929,0.489427 -7.482958,-1.565208 -14.088734,-10.865937 -1.350161,-1.90099 -2.951049,-4.130623 -3.557526,-4.954741 -1.279606,-1.738804 -1.309316,-4.175987 -0.06017,-4.936285 1.159932,-0.706002 1.870988,-0.117147 6.20933,5.142213 4.12133,4.996272 5.025141,5.778198 5.804056,5.021326 0.709498,-0.689428 0.02696,-1.866855 -4.306162,-7.428335 -2.099224,-2.694316 -3.816771,-5.211422 -3.816771,-5.593571 0,-1.228008 1.095526,-2.247211 2.245558,-2.089119 0.785701,0.108012 2.223327,1.606097 5.221965,5.441572 3.309985,4.233716 4.355649,5.292531 5.22679,5.292531 1.054677,0 1.29189,-0.370905 1.105248,-1.728174 -0.04901,-0.356436 -1.137285,-2.009 -2.418375,-3.672369 -5.675099,-7.368517 -5.966417,-8.010701 -4.299081,-9.47693 1.122463,-0.987071 2.397721,-0.576134 3.679433,1.185651 0.551615,0.758224 2.758567,3.560393 4.904344,6.22704 5.10821,6.348186 6.41186,8.399656 6.98342,10.98934 0.41194,1.866397 0.35095,2.419248 -0.47181,4.277683 -0.63093,1.425142 -0.80386,2.313789 -0.52046,2.674566 0.23342,0.297161 4.91912,5.886828 10.41263,12.421481 13.56087,16.130903 13.65395,16.250408 13.98311,17.95539 0.83738,4.337293 -3.93041,7.073088 -6.92008,3.970805 z"
       id="path1316" /><path
       style="fill:#ffffff;stroke:#ffffff;stroke-width:1.06022;stroke-linecap:square;stroke-miterlimit:3.6;stroke-dasharray:none;paint-order:stroke fill markers"
       d="m 109.77587,69.549087 c -2.47345,-2.714281 -2.51615,-2.95139 -0.94423,-5.243608 1.32304,-1.929301 1.36574,-2.092803 1.12805,-4.31917 -1.02068,-9.560403 9.47389,-20.472979 17.22199,-17.907974 1.71067,0.566313 4.22196,3.304675 4.73703,5.165329 1.06842,3.859689 -0.0252,8.637431 -2.9973,13.094871 -3.17801,4.766185 -6.20156,6.608899 -10.87039,6.624992 l -2.81722,0.0097 -1.59446,2.070905 c -0.87695,1.139 -1.7839,2.070908 -2.01544,2.070908 -0.23155,0 -1.06316,-0.704683 -1.84803,-1.565963 z"
       id="path1318" /><path
       style="fill:#ffffff;stroke:#ffffff;stroke-width:0;stroke-linecap:square;stroke-miterlimit:3.6;stroke-dasharray:none;paint-order:stroke fill markers"
       d="m 87.499968,96.274336 c -3.773928,-1.532964 -3.635419,-5.128084 0.362464,-9.40817 3.307322,-3.540774 13.835348,-13.136485 14.997628,-13.669487 1.30328,-0.597677 2.44627,0.228606 6.13527,4.435277 l 2.14339,2.444186 -6.15923,6.302526 c -3.38759,3.466387 -6.734586,6.970816 -7.437785,7.787626 -1.28826,1.496387 -4.726684,2.905774 -6.996116,2.867651 -0.674463,-0.01131 -2.044995,-0.353155 -3.045621,-0.759609 z"
       id="path1320" /><path
       style="fill:#d40000;stroke:#d40000;stroke-width:0.512333;stroke-linecap:square;stroke-miterlimit:3.6;stroke-dasharray:none;paint-order:stroke fill markers"
       d="M 102.28503,112.78201 C 79.97736,110.41357 63.170309,90.921922 63.170309,67.41949 c 0,-29.631502 26.688339,-51.578287 53.416711,-43.926475 18.66086,5.342247 31.72655,23.432119 31.72655,43.926475 0,21.539888 -14.33097,40.19309 -34.20227,44.5177 -3.16458,0.68871 -9.22141,1.12139 -11.82627,0.84482 z m 18.9584,-20.25866 c 1.46632,-1.463946 1.63582,-3.111835 0.53773,-5.227792 -0.38475,-0.741341 -4.96771,-6.550455 -10.18439,-12.909143 l -9.48487,-11.561251 0.60985,-1.154162 c 1.29817,-2.4568 0.37153,-6.512427 -2.25586,-9.873305 -0.46862,-0.599442 -2.179021,-2.777386 -3.800897,-4.839879 -1.621875,-2.062494 -3.210618,-4.148835 -3.530541,-4.636312 -1.291848,-1.968424 -4.131229,-1.239 -4.131229,1.061295 0,0.932397 0.723608,2.184369 3.285638,5.684739 2.104184,2.874835 3.15975,4.614687 2.93554,4.838534 -0.659516,0.658451 -1.439092,-0.07169 -4.748925,-4.447712 -2.767001,-3.658342 -3.47271,-4.381669 -4.274918,-4.381669 -1.208331,0 -2.291726,0.953172 -2.291726,2.016262 0,0.78459 2.156162,4.030177 5.391178,8.115131 1.477917,1.866212 1.748936,2.611462 0.967712,2.661025 -0.195134,0.01237 -1.910495,-1.92082 -3.811912,-4.295998 -2.746837,-3.431235 -3.667199,-4.342553 -4.479599,-4.435575 -1.469979,-0.168315 -2.070115,0.502384 -2.070115,2.313517 0,1.207501 0.272642,1.919671 1.199937,3.13437 0.659966,0.864515 1.879942,2.572682 2.711056,3.795935 5.215432,7.676171 7.366515,9.395419 11.464395,9.162895 l 2.198807,-0.124765 2.246593,3.088031 c 1.235636,1.698414 4.970656,6.848157 8.300046,11.443871 7.67451,10.593447 8.76438,11.807167 10.60254,11.807167 1.08055,0 1.64295,-0.265757 2.61396,-1.235209 z m -25.064993,0.489845 c 0.639329,-0.22251 1.598543,-1.094882 2.296895,-2.088959 0.659518,-0.938788 2.482438,-3.441439 4.050918,-5.561447 1.56849,-2.120009 2.85181,-4.089975 2.85181,-4.377708 0,-0.577695 -2.79956,-4.553236 -3.76795,-5.350711 -0.52947,-0.436021 -0.71527,-0.411441 -1.37303,0.181651 -0.811081,0.731331 -7.43352,9.123064 -8.462067,10.72284 -2.673225,4.157859 -0.04476,8.02248 4.403424,6.474334 z m 18.067623,-23.504744 1.42304,-1.907312 h 2.43125 c 3.80065,0 5.60792,-0.797074 8.5784,-3.783421 8.50601,-8.551437 7.1446,-21.296424 -2.27321,-21.280559 -3.87435,0.0066 -8.42644,2.787245 -11.15377,6.81344 -2.36163,3.486333 -3.65567,7.562416 -3.37197,10.621292 0.20917,2.255122 0.15944,2.457832 -1.10429,4.502614 -1.32177,2.138709 -1.32258,2.142534 -0.69142,3.312624 1.00835,1.8694 3.13177,3.860113 3.98614,3.737058 0.41403,-0.05964 1.39316,-0.966713 2.17583,-2.015736 z"
       id="path1391" /><path
       style="fill:#550000;stroke:#550000;stroke-width:1;stroke-linecap:square;stroke-miterlimit:3.6;stroke-dasharray:none;paint-order:stroke fill markers"
       d="m 39.107614,86.794939 -6.843995,-0.214294 5.739809,-9.758066 c 3.156898,-5.366935 7.372766,-12.552418 9.368595,-15.967742 1.995828,-3.415321 4.503203,-7.650427 5.571945,-9.411343 1.068739,-1.760915 2.101471,-3.677046 2.294958,-4.258063 l 0.351796,-1.0564 6.056204,-0.09693 6.056206,-0.09694 -1.190932,2.758228 c -2.687624,6.224606 -3.919188,13.318159 -3.612282,20.805968 0.218461,5.329928 0.869908,8.866325 2.54195,13.799031 l 1.172729,3.459679 h -5.573776 c -3.065577,0 -7.714747,0.05651 -10.331492,0.125584 -2.616743,0.06907 -7.837514,0.02917 -11.601715,-0.08871 z"
       id="path1531" /><path
       style="fill:#550000;stroke:#550000;stroke-width:1.03261;stroke-linecap:square;stroke-miterlimit:3.6;stroke-dasharray:none;paint-order:stroke fill markers"
       d="m 152.69193,87.181366 c -7.36714,-0.09381 -7.92578,-0.146603 -7.67213,-0.725174 2.3288,-5.31192 3.54289,-10.762828 3.79478,-17.037442 0.29872,-7.440449 -0.77599,-13.701691 -3.45861,-20.149933 -0.70087,-1.684694 -1.22595,-3.109946 -1.16685,-3.167227 0.0591,-0.05729 3.0143,-0.150683 6.56712,-0.207561 l 6.45968,-0.103415 0.37308,1.082205 c 0.20521,0.595212 1.5833,3.030173 3.06245,5.411022 1.47916,2.380851 4.11053,6.682615 5.84749,9.559475 1.73697,2.876859 5.85868,9.682548 9.15935,15.123754 3.3007,5.441199 5.96075,9.923342 5.91124,9.960307 -0.21203,0.158348 -21.60859,0.346539 -28.8776,0.253989 z"
       id="path1533" /><path
       style="fill:#784421;stroke:#784421;stroke-width:1.34112;stroke-linecap:square;stroke-miterlimit:3.6;stroke-dasharray:none;paint-order:stroke fill markers"
       d="m 50.032257,151.33871 v -26.6129 h 13.838711 13.838708 v 26.6129 26.6129 H 63.870968 50.032257 Z m 22.709677,-0.17742 v -4.79032 h -1.035495 c -0.569521,0 -1.288071,-0.0969 -1.596773,-0.21539 -0.495467,-0.19012 -0.561279,0.37156 -0.561279,4.79033 v 5.0057 h 1.596773 1.596774 z"
       id="path1604" /><path
       style="fill:#ffdd55;stroke:#ffdd55;stroke-width:1.34112;stroke-linecap:square;stroke-miterlimit:3.6;stroke-dasharray:none;paint-order:stroke fill markers"
       d="m 40.728801,135.49643 c 0.05487,-23.37042 0.13471,-42.526013 0.177419,-42.567989 0.04271,-0.04198 6.557695,-0.130146 14.477751,-0.195932 l 14.400098,-0.119608 1.532851,2.239532 c 7.911208,11.558447 22.785265,19.204547 35.66695,18.334807 7.45591,-0.5034 12.26898,-1.81089 18.1158,-4.92122 5.73356,-3.05008 11.46266,-8.14709 15.05194,-13.391246 l 1.5481,-2.261873 14.75347,0.116761 c 8.1144,0.06422 14.78968,0.152982 14.83395,0.197252 0.0443,0.04427 0.12479,19.192956 0.17894,42.552646 l 0.0984,42.47215 -3.45967,-5e-5 -3.45968,-5e-5 v -28.3871 -28.38709 H 128.09677 91.548387 v 28.38709 28.3871 h -5.322583 -5.32258 v -28.3871 -28.38709 H 64.094813 47.286403 l -0.219942,1.33064 c -0.120968,0.73186 -0.221697,13.42621 -0.223846,28.20968 l -0.0039,26.87903 -2.395161,0.005 c -1.31734,0.003 -2.714517,0.0907 -3.104838,0.19567 -0.707194,0.19014 -0.70933,0.0421 -0.60991,-42.30085 z"
       id="path1744" /><path
       style="fill:#d7e3f4;stroke:#d7e3f4;stroke-width:0;stroke-linecap:square;stroke-miterlimit:3.6;stroke-dasharray:none;paint-order:stroke fill markers"
       d="m 95.096773,151.33871 v -26.6129 h 8.161287 8.16129 l -0.0263,1.15322 c -0.0739,3.23883 -0.43223,4.10343 -2.15167,5.19119 -1.86844,1.18202 -3.56943,3.44503 -4.21894,5.6129 -0.80135,2.67469 -1.07996,2.59107 8.63283,2.59107 h 8.64529 l -0.26577,-1.95852 c -0.4584,-3.37796 -2.31069,-5.79257 -5.4497,-7.10413 l -1.26252,-0.52752 v -2.47911 -2.4791 h 12.77419 12.7742 v 2.47475 c 0,2.40158 -0.0321,2.49136 -1.08572,3.03621 -2.87514,1.48679 -5.04633,4.36394 -5.62315,7.45149 l -0.29628,1.58593 h 9.14228 9.14227 l -0.32653,-1.45326 c -0.77575,-3.45261 -2.69249,-6.2532 -5.06615,-7.40227 l -1.62866,-0.78842 v -1.89094 c 0,-1.04001 -0.0969,-2.14351 -0.21538,-2.45221 -0.19265,-0.50205 0.66864,-0.56128 8.16129,-0.56128 h 8.37667 v 26.6129 26.6129 h -8.16129 -8.16129 v -6.56451 -6.56452 h 3.72581 3.72581 v -2.48387 -2.48387 h -9.75807 -9.75806 v 2.48387 2.48387 h 3.7258 3.72581 v 6.56452 6.56451 h -12.41936 -12.41935 v -6.56451 -6.56452 h 3.90323 3.90322 v -2.48387 -2.48387 h -9.93548 -9.93549 v 2.48387 2.48387 h 3.72581 3.7258 v 6.56452 6.56451 h -7.98387 -7.983867 z"
       id="path1884" /></g></svg>
