<?xml version="1.0" encoding="UTF-8" standalone="no"?>
<!-- Created with Inkscape (http://www.inkscape.org/) -->

<svg
   width="210mm"
   height="297mm"
   viewBox="0 0 210 297"
   version="1.1"
   id="svg5"
   xml:space="preserve"
   inkscape:version="1.2.1 (9c6d41e410, 2022-07-14)"
   sodipodi:docname="mobile.svg"
   inkscape:export-filename="mobile.png"
   inkscape:export-xdpi="96"
   inkscape:export-ydpi="96"
   xmlns:inkscape="http://www.inkscape.org/namespaces/inkscape"
   xmlns:sodipodi="http://sodipodi.sourceforge.net/DTD/sodipodi-0.dtd"
   xmlns="http://www.w3.org/2000/svg"
   xmlns:svg="http://www.w3.org/2000/svg"><sodipodi:namedview
     id="namedview7"
     pagecolor="#ffffff"
     bordercolor="#000000"
     borderopacity="0.25"
     inkscape:showpageshadow="2"
     inkscape:pageopacity="0.0"
     inkscape:pagecheckerboard="0"
     inkscape:deskcolor="#d1d1d1"
     inkscape:document-units="mm"
     showgrid="false"
     inkscape:zoom="0.52724989"
     inkscape:cx="-75.865355"
     inkscape:cy="419.15609"
     inkscape:window-width="1920"
     inkscape:window-height="1017"
     inkscape:window-x="-8"
     inkscape:window-y="-8"
     inkscape:window-maximized="1"
     inkscape:current-layer="layer1" /><defs
     id="defs2" /><g
     inkscape:label="Vrstva 1"
     inkscape:groupmode="layer"
     id="layer1"><path
       style="fill:#000000;stroke:#000000;stroke-width:1.43368;stroke-linecap:square;stroke-miterlimit:3.6;paint-order:stroke fill markers"
       d=""
       id="path543"
       transform="scale(0.26458333)" /><path
       style="fill:#000000;stroke:#000000;stroke-width:0.506881;stroke-linecap:square;stroke-miterlimit:3.6;paint-order:stroke fill markers"
       d=""
       id="path551"
       transform="scale(0.26458333)" /><path
       style="fill:#000000;stroke:#000000;stroke-width:2.02752;stroke-linecap:square;stroke-miterlimit:3.6;paint-order:stroke fill markers"
       d="m 175.00628,476.09855 c -1e-5,-189.56769 0.15545,-267.31755 0.34546,-172.77746 0.19001,94.54008 0.19002,249.64092 2e-5,344.66853 -0.19,95.0276 -0.34547,17.67662 -0.34548,-171.89107 z"
       id="path611"
       transform="scale(0.26458333)" /><path
       style="fill:#000000;stroke:#000000;stroke-width:0.536448;stroke-linecap:square;stroke-miterlimit:3.6;paint-order:stroke fill markers"
       d="m 100.85315,37.592782 c -1.003633,-0.702969 -1.043302,-2.386502 -0.079,-3.350848 1.59694,-1.59695 4.61289,-0.450125 4.61289,1.754074 0,1.25921 -1.10201,2.149152 -2.66128,2.149152 -0.59622,0 -1.43891,-0.24857 -1.87266,-0.552378 z m 3.04507,-1.620033 c 0.0716,-0.617496 -0.0944,-1.008108 -0.49353,-1.161273 -0.977,-0.374909 -1.92082,0.112528 -1.92082,0.992005 0,1.059657 0.3175,1.331693 1.40607,1.204746 0.67379,-0.07858 0.92754,-0.339167 1.00828,-1.035478 z"
       id="path617" /><path
       style="fill:#000000;stroke:#000000;stroke-width:2.02752;stroke-linecap:square;stroke-miterlimit:3.6;paint-order:stroke fill markers"
       d="m 215.92075,866.4991 c -15.72882,-6.43138 -27.45857,-16.70846 -35.05409,-30.71281 l -4.50903,-8.3136 -0.8398,-79.12623 c -1.08413,-102.14583 -1.08413,-442.34998 0,-544.49581 l 0.8398,-79.12624 4.48721,-8.27265 c 5.72549,-10.55555 16.06146,-20.840574 25.37576,-25.250689 15.9493,-7.551635 10.83711,-7.339587 177.46582,-7.36108 150.33721,-0.01939 153.85403,0.03872 161.49811,2.668671 4.29784,1.478671 10.34703,4.172806 13.44266,5.986966 7.71359,4.520463 18.42551,16.571002 22.98629,25.858772 l 3.78657,7.71113 v 350.03302 350.03302 l -3.78657,7.71114 c -4.56078,9.28775 -15.2727,21.3383 -22.98629,25.85877 -3.09563,1.81415 -9.20123,4.65917 -13.56799,6.32224 l -7.93957,3.02378 -156.91135,0.23382 -156.91135,0.23384 z m 330.29479,-5.94619 c 14.64476,-5.91112 28.25484,-19.50781 32.75592,-32.7237 2.28386,-6.70579 2.42458,-24.1824 2.78869,-346.36617 0.27472,-243.08412 -0.0366,-341.77609 -1.0979,-348.02133 -2.02732,-11.93015 -5.04463,-18.15446 -13.03013,-26.87937 -7.6257,-8.331805 -15.92644,-13.34014 -27.83024,-16.791683 -7.43873,-2.156878 -19.44703,-2.328892 -158.92304,-2.276506 -107.122,0.04023 -152.74952,0.495471 -157.33565,1.569778 -15.1762,3.555045 -31.18027,15.300931 -37.38631,27.438971 -6.72804,13.15901 -6.41461,-4.41176 -6.41461,359.59565 0,363.87809 -0.31006,346.44335 6.39444,359.55612 6.05352,11.83955 22.0531,23.89954 36.15994,27.25625 2.81783,0.6705 73.33243,1.10245 160.59388,0.98373 l 155.57023,-0.21164 z"
       id="path621"
       transform="scale(0.26458333)" /><path
       style="fill:#000000;stroke:#000000;stroke-width:2.02752;stroke-linecap:square;stroke-miterlimit:3.6;paint-order:stroke fill markers"
       d=""
       id="path627"
       transform="scale(0.26458333)" /><path
       style="fill:#000000;stroke:#000000;stroke-width:0.514261;stroke-linecap:square;stroke-miterlimit:3.6;paint-order:stroke fill markers"
       d="m 59.927018,226.30236 c -3.931412,-1.65536 -6.863255,-4.30052 -8.761752,-7.90502 l -1.12703,-2.1398 -0.209906,-20.36594 c -0.270978,-26.29086 -0.270978,-113.854451 0,-140.145304 l 0.209906,-20.365937 1.121577,-2.129266 c 1.431083,-2.716841 4.014553,-5.364049 6.342656,-6.499157 3.986518,-1.943674 2.708731,-1.8891 44.357481,-1.894636 37.57672,-0.0049 38.45574,0.01 40.36637,0.686881 1.07424,0.380588 2.58624,1.074016 3.35998,1.540957 1.92801,1.163503 4.60544,4.265134 5.74542,6.655671 l 0.94644,1.984738 v 90.093393 90.0934 l -0.94644,1.98475 c -1.13998,2.39052 -3.81741,5.49216 -5.74542,6.65566 -0.77374,0.46692 -2.29984,1.1992 -3.3913,1.62726 l -1.9845,0.77827 -39.2199,0.0602 -39.21991,0.0602 z m 82.557002,-1.53047 c 3.66045,-1.52143 7.06227,-5.02102 8.18733,-8.4226 0.57084,-1.72598 0.60602,-6.22419 0.69703,-89.14961 0.0687,-62.566306 -0.0101,-87.96818 -0.27442,-89.575618 -0.50673,-3.070647 -1.2609,-4.672696 -3.25689,-6.918355 -1.90603,-2.144488 -3.9808,-3.433559 -6.95615,-4.321934 -1.8593,-0.555145 -4.86077,-0.599428 -39.72273,-0.585944 -26.775076,0.01031 -38.179648,0.127533 -39.325948,0.404041 -3.793283,0.91502 -7.793491,3.938234 -9.344687,7.062396 -1.681671,3.386934 -1.603329,-1.135525 -1.603329,92.554674 0,93.65692 -0.07749,89.16946 1.598288,92.54451 1.513072,3.04732 5.512159,6.1514 9.038155,7.01536 0.704317,0.17258 18.329399,0.28377 40.140351,0.2532 l 38.88469,-0.0545 z"
       id="path621-9" /><path
       style="fill:#00ff00;stroke:#00ff00;stroke-width:0.494205;stroke-linecap:square;stroke-miterlimit:3.6;paint-order:stroke fill markers"
       d="m 73.086772,178.24057 c -1.95437,-0.83835 -3.85601,-2.59496 -4.973912,-4.59458 -1.300979,-2.32712 -1.300979,-6.59237 0,-8.91948 4.000383,-7.15562 13.948015,-7.09469 17.611741,0.10787 0.764372,1.50269 0.917514,2.22843 0.918317,4.35187 7.48e-4,2.17419 -0.141684,2.81992 -0.970398,4.39736 -1.094689,2.08371 -2.935957,3.81952 -4.991963,4.70608 -1.93795,0.83564 -5.586198,0.81204 -7.593785,-0.0491 z m 8.173504,-4.13988 c 1.18232,-0.88314 1.147008,-1.98544 -0.09041,-2.82216 -1.167475,-0.78942 -1.654691,-0.819 -2.644629,-0.16057 -1.006293,0.66932 -1.831641,0.35948 -2.884118,-1.08271 -1.052579,-1.44232 -1.094024,-1.99729 -0.206134,-2.76031 0.849869,-0.73036 0.84437,-1.25106 -0.02736,-2.59047 -0.86727,-1.33255 -1.67199,-1.35927 -2.79422,-0.0928 -1.648119,1.85996 -0.976588,4.81632 1.745868,7.686 0.683893,0.72088 1.696311,1.57397 2.249817,1.89576 1.368897,0.79585 3.533663,0.76198 4.651186,-0.0728 z"
       id="path803" /><path
       style="fill:#ff0000;stroke:#ff0000;stroke-width:0.536448;stroke-linecap:square;stroke-miterlimit:3.6;paint-order:stroke fill markers"
       d="m 119.12392,161.01832 c 0.51854,-0.36751 1.74174,-0.93323 2.71822,-1.25715 5.70658,-1.89302 11.68479,1.87882 12.45831,7.86034 0.374,2.892 -0.17255,4.93196 -1.94918,7.27512 -5.36505,7.07588 -16.57698,3.55737 -17.13122,-5.37609 -0.22393,-3.60897 1.11546,-6.52597 3.90387,-8.50222 z m -0.7846,7.61946 c -0.35803,1.44327 0.0889,2.2319 1.25483,2.21423 1.74087,-0.0264 2.31982,-0.43413 2.64968,-1.86611 l 0.30447,-1.32171 1.69104,-0.13662 c 2.10323,-0.16992 2.88829,0.20035 2.90604,1.37061 0.0173,1.1381 0.83132,1.85391 2.21028,1.94367 2.09306,0.13609 2.31129,-2.74725 0.33897,-4.47852 -0.9814,-0.86145 -3.40329,-1.42597 -5.67722,-1.32328 -3.19337,0.1442 -5.12509,1.36818 -5.67818,3.59782 z"
       id="path886" /><path
       style="fill:#2a7fff;stroke:#2a7fff;stroke-width:2.02752;stroke-linecap:square;stroke-miterlimit:3.6;paint-order:stroke fill markers"
       d="m 370.24198,534.31887 c -30.40905,-5.965 -55.03442,-25.23679 -68.11608,-53.30754 -11.89646,-25.52755 -11.18783,-55.6608 1.92899,-82.02733 7.42797,-14.93119 25.23653,-32.47153 40.61364,-40.00194 15.82552,-7.75 25.96885,-10.14153 42.91593,-10.11841 16.26609,0.0222 26.69648,2.4188 41.10668,9.44517 34.89631,17.01533 56.75755,57.30277 51.52163,94.94768 -3.12978,22.50223 -11.2237,38.63767 -27.68426,55.18931 -17.88527,17.9842 -40.74889,27.44906 -65.61462,27.16247 -5.90094,-0.068 -13.4033,-0.64824 -16.67191,-1.28941 z m 82.52605,-39.32355 c 1.13601,-2.96039 -2.65995,-9.03421 -9.8484,-15.75815 -8.66378,-8.10396 -16.12456,-12.72285 -29.18328,-18.06706 -7.37983,-3.02015 -10.8521,-5.16653 -11.12338,-6.87589 -0.21692,-1.36682 1.76865,-6.07257 4.41238,-10.45723 2.64374,-4.38467 5.18353,-9.46444 5.64398,-11.2884 0.46046,-1.82395 2.06374,-4.30947 3.56285,-5.52338 3.00146,-2.43043 3.06667,-3.78942 1.21813,-25.38381 -1.22069,-14.25988 -3.47246,-19.45644 -11.10299,-25.62315 -11.2006,-9.05189 -32.98536,-7.27026 -41.79284,3.41797 -3.26836,3.9663 -5.56154,14.62235 -4.81614,22.37989 0.3507,3.64981 0.12099,6.95533 -0.51047,7.34559 -2.0721,1.28063 -1.29473,12.17128 1.00502,14.0799 1.18423,0.98282 3.61805,5.09938 5.4085,9.1479 1.79045,4.04853 4.76058,9.3344 6.60029,11.74638 2.39899,3.14523 3.10786,5.32993 2.50665,7.72533 -1.04243,4.15337 -2.52336,5.34272 -9.2924,7.4628 -15.61692,4.89127 -35.81198,18.67047 -40.14825,27.39336 -1.79955,3.61999 -1.72489,4.14583 0.99631,7.01772 l 2.94163,3.10453 61.39845,0.0232 c 51.60748,0.0195 61.51415,-0.27832 62.12396,-1.86746 z"
       id="path1109"
       transform="scale(0.26458333)" /><path
       style="fill:#2a7fff;stroke:#2a7fff;stroke-width:0;stroke-linecap:square;stroke-miterlimit:3.6;paint-order:stroke fill markers;stroke-dasharray:none"
       id="path1160"
       d="m 110.03166,114.26234 c 0.16154,-0.6613 0.43681,-1.28799 0.69166,-1.91719 0.0133,-0.0331 0.13254,-0.32425 0.15812,-0.40249 0.004,-0.012 0.0173,-0.0409 0.005,-0.0377 -0.0313,0.008 -0.0595,0.0306 -0.0785,0.0567 -0.0413,0.0568 -0.0664,0.1237 -0.0983,0.18623 -0.0465,0.0913 -0.0913,0.18352 -0.13696,0.27529 -0.14923,0.303 -0.29157,0.60931 -0.43512,0.91502 -0.0366,0.0778 -0.10162,0.24756 -0.15867,0.32991 0.0206,-0.0208 0.048,-0.0367 0.0619,-0.0625 0.0298,-0.0553 0.0442,-0.11764 0.0669,-0.17623 0.0334,-0.0862 0.0675,-0.17201 0.10133,-0.25798 0.0983,-0.24988 0.19767,-0.49932 0.29848,-0.74822 0.0149,-0.035 0.0476,-0.0672 0.0446,-0.10514 -0.002,-0.0188 -0.041,0.008 -0.0511,0.0244 -0.0317,0.05 -0.0456,0.10938 -0.0684,0.16408 -0.11127,0.26739 -0.22281,0.53466 -0.3345,0.80188 -0.0289,0.0675 -0.0571,0.13531 -0.0867,0.20251 -0.0176,0.0399 -0.0354,0.0798 -0.0548,0.11884 -0.002,0.004 -0.012,0.0131 -0.009,0.01 0.0202,-0.0247 0.0477,-0.0446 0.0613,-0.0735 0.0312,-0.066 0.0462,-0.13862 0.0715,-0.20715 0.0386,-0.10451 0.08,-0.20793 0.11998,-0.31189 0.14072,-0.35252 0.28958,-0.70169 0.43964,-1.0503 0.0248,-0.0575 0.0506,-0.11457 0.0745,-0.17245 0.002,-0.004 0.005,-0.0152 0.002,-0.0122 -0.0374,0.0383 -0.0713,0.0799 -0.10699,0.11986 -0.27508,0.56512 -0.55476,1.12817 -0.85008,1.68303 -0.008,0.0145 -0.0411,0.0402 -0.0247,0.0435 0.0678,0.0138 0.10651,-0.13339 0.1436,-0.21064 0.17244,-0.35912 0.35832,-0.71118 0.5437,-1.06372 0.11531,-0.21554 0.24243,-0.45482 0.36103,-0.67088 0.0326,-0.0595 0.0661,-0.11856 0.0995,-0.17766 0.005,-0.009 0.0231,-0.032 0.0153,-0.0257 -0.0381,0.031 -0.0795,0.0605 -0.1076,0.10084 -0.0578,0.0832 -0.0982,0.17729 -0.14728,0.26593 -0.35964,0.62619 -0.7097,1.25885 -1.09397,1.8705 -0.0479,0.0439 0.0554,-0.0333 0.0735,-0.059 0.0428,-0.0607 0.0687,-0.13172 0.1036,-0.19725 0.0505,-0.0947 0.10171,-0.18904 0.15281,-0.28343 0.16623,-0.30709 0.2161,-0.39753 0.38571,-0.7078 0.0221,-0.0404 0.27336,-0.49882 0.31438,-0.57454 0.0275,-0.0507 0.0551,-0.1013 0.0814,-0.15255 0.008,-0.0155 0.0391,-0.048 0.0216,-0.0477 -0.10142,0.001 -0.16989,0.1873 -0.1941,0.22839 -0.33342,0.57817 -0.68103,1.14797 -1.03301,1.71497 -0.0153,0.0247 -0.0729,0.085 -0.046,0.0741 0.13262,-0.0538 0.21819,-0.25106 0.27795,-0.34927 0.066,-0.1084 0.13195,-0.2168 0.19734,-0.32555 0.2131,-0.35439 0.25851,-0.43358 0.47137,-0.79531 0.084,-0.14537 0.29437,-0.50835 0.38621,-0.67154 0.0345,-0.0613 0.0693,-0.12256 0.10148,-0.18513 0.009,-0.018 0.043,-0.059 0.0229,-0.0563 -0.12541,0.0164 -0.21686,0.22561 -0.2588,0.28951 -0.34277,0.56465 -0.70418,1.12102 -1.00613,1.70928 0.0459,-0.0346 0.10158,-0.059 0.13777,-0.10371 0.0642,-0.0791 0.10631,-0.17381 0.15825,-0.26145 0.0708,-0.11947 0.14091,-0.23935 0.20995,-0.35984 0.21743,-0.3795 0.42497,-0.76383 0.62837,-1.15096 -0.15995,-0.10668 0.21095,-0.22292 0.16142,-0.33729 -0.0112,-0.0258 -0.0631,-0.002 -0.0822,0.0188 -0.0521,0.0562 -0.0793,0.13104 -0.11792,0.19717 -0.15306,0.26205 -0.24289,0.42494 -0.39592,0.69726 -0.21531,0.39096 -0.42502,0.78501 -0.631,1.18096 -0.0354,0.0681 -0.0707,0.13626 -0.1051,0.20486 -0.009,0.0186 -0.0462,0.0624 -0.0261,0.0568 0.0422,-0.0119 0.07,-0.0527 0.10498,-0.079 0.36084,-0.70555 0.69842,-1.42347 0.99982,-2.15647 0.0145,-0.0433 0.0842,-0.15107 0.0436,-0.13005 -0.16221,0.084 -0.3153,0.47796 -0.36635,0.58503 -0.22506,0.47209 -0.437,0.9503 -0.64913,1.42828 -0.0298,0.0683 -0.18174,0.41397 -0.22814,0.52787 -0.008,0.0185 -0.0394,0.0546 -0.0196,0.0567 0.0347,0.004 0.071,-0.0216 0.0926,-0.049 0.0461,-0.0583 0.0688,-0.13178 0.10274,-0.19791 0.0509,-0.0991 0.10114,-0.19855 0.15171,-0.29782 0.22857,-0.44091 0.45258,-0.88417 0.68066,-1.32534 0.0241,-0.0465 0.11979,-0.11671 0.0726,-0.13944 -0.0506,-0.0243 -0.082,0.0768 -0.12299,0.11519 -0.34022,0.64711 -0.68586,1.2929 -1.07631,1.91143 -0.0109,0.0142 -0.0481,0.0516 -0.0327,0.0425 0.15528,-0.0922 0.15479,-0.16995 0.25638,-0.34713 0.0704,-0.12277 0.14156,-0.24509 0.21282,-0.36736 0.33915,-0.57911 0.171,-0.29105 0.50446,-0.86417 0.0302,-0.0519 0.28237,-0.48552 0.34198,-0.586 0.0175,-0.0296 0.0854,-0.0741 0.0539,-0.0879 -0.0369,-0.0161 -0.0756,0.0357 -0.0997,0.0679 -0.0634,0.0847 -0.10447,0.18401 -0.15758,0.27551 -0.0764,0.13166 -0.15402,0.26264 -0.23104,0.39396 -0.23195,0.38906 -0.46586,0.77697 -0.70641,1.16079 -0.0406,0.0648 -0.0812,0.12965 -0.12304,0.1937 -0.009,0.0132 -0.0416,0.0467 -0.0283,0.0381 0.0422,-0.0271 0.0778,-0.0632 0.11669,-0.0949 0.44949,-0.78997 0.8942,-1.58262 1.31194,-2.38992 0.0275,-0.0563 0.055,-0.11268 0.0825,-0.16902 0.002,-0.008 0.0138,-0.0314 0.007,-0.0253 -0.19908,0.19139 -0.16239,0.1931 -0.30461,0.4976 -0.14142,0.3028 -0.25345,0.55234 -0.39134,0.85662 -0.15194,0.34067 -0.1347,0.29895 -0.26148,0.59232 -0.0119,0.0275 -0.0651,0.0803 -0.0352,0.0828 0.0416,0.004 0.0766,-0.0418 0.0983,-0.0774 0.0495,-0.0812 0.0735,-0.17546 0.10965,-0.26343 0.0536,-0.13025 0.10632,-0.26082 0.15949,-0.39123 0.17572,-0.44256 0.35234,-0.88489 0.51727,-1.33163 0.0336,-0.091 0.15213,-0.37012 0.15937,-0.4962 -0.0356,0.0282 -0.0823,0.0465 -0.10697,0.0847 -0.0447,0.069 -0.0647,0.15109 -0.0951,0.22747 -0.045,0.11326 -0.0885,0.2271 -0.13092,0.34137 -0.13608,0.36697 -0.25943,0.73757 -0.37785,1.11052 0.24222,-0.20241 -0.20129,0.37518 -0.0902,0.33886 0.13333,-0.0436 0.20487,-0.3761 0.22461,-0.44053 0.11423,-0.37303 0.12553,-0.44797 0.21913,-0.83808 0.0656,-0.33732 0.14183,-0.67643 0.1595,-1.02095 0.002,-0.0408 0.0364,-0.11612 -0.004,-0.12243 -0.10874,-0.017 -0.13722,0.2104 -0.17441,0.35322 -0.0785,0.36985 -0.13486,0.74431 -0.17404,1.1203 -0.01,0.0963 -0.0191,0.19284 -0.0239,0.28957 -0.003,0.0512 -0.0491,0.16065 0.002,0.15392 0.0681,-0.009 0.078,-0.11308 0.11701,-0.16962 0.10834,-0.59265 0.20199,-1.19892 0.17603,-1.8034 -0.005,-0.016 7.9e-4,-0.0484 -0.0162,-0.0481 -0.10719,0.002 -0.091,0.15363 -0.0957,0.20501 -0.0305,0.32878 -0.0309,0.66009 -0.0363,0.98987 -0.002,0.30979 0.002,0.61959 0.008,0.92932 5.3e-4,0.0322 -0.0243,0.0789 0.003,0.0965 0.0832,0.0544 0.062,-0.15373 0.0634,-0.25942 0.005,-0.69381 0.01,-1.38781 -0.005,-2.08154 -0.002,-0.024 0.0143,-0.0588 -0.006,-0.072 -0.0802,-0.0531 -0.0675,0.0911 -0.0682,0.15901 -0.003,0.31131 0.0199,0.62169 0.0401,0.93209 0.0281,0.32743 0.054,0.6557 0.10404,0.98075 0.008,0.0522 0.0164,0.10447 0.029,0.15574 0.005,0.0186 0.003,0.0537 0.0225,0.053 0.0302,-0.001 0.0472,-0.0377 0.0708,-0.0566 0.004,-0.0583 0.0106,-0.11641 0.0112,-0.17479 0.007,-0.68021 -0.0736,-1.39197 -0.14556,-2.06886 -0.10669,0.33143 0.0177,-0.43827 -0.0521,-0.34517 -0.0956,0.12745 -0.034,0.4984 -0.0282,0.58724 0.0229,0.35497 0.0467,0.70987 0.0697,1.06483 0.0502,0.74141 0.023,0.38369 0.0805,1.07325 -1.1e-4,0.003 0.0449,0.005 0.045,0.002 v 0 c -0.031,-0.68846 -0.0152,-0.33125 -0.0473,-1.07165 -0.0292,-0.56549 -0.0227,-0.52975 -0.0673,-1.06571 -0.014,-0.16874 -0.005,-0.42763 -0.11581,-0.58724 -0.0654,-0.094 0.19629,0.68965 0.0326,0.34211 0.0653,0.74151 0.14301,1.48429 0.15906,2.22857 0.0154,0.0198 0.0237,0.0483 0.0462,0.0594 0.0136,0.007 -0.0109,-0.0284 -0.0136,-0.0434 -0.009,-0.0508 -0.015,-0.1021 -0.0212,-0.15332 -0.0393,-0.32495 -0.0656,-0.65134 -0.0957,-0.97721 -0.0238,-0.30911 -0.0487,-0.61795 -0.0585,-0.9279 -0.003,-0.0809 0.0169,-0.20733 -0.0582,-0.16987 -0.0208,0.0104 -0.002,0.0466 -0.002,0.0699 -0.0199,0.69387 -0.0123,1.38837 0.002,2.08228 0.003,0.0689 -0.0103,0.14024 0.008,0.20682 0.008,0.0297 0.0377,0.0772 0.0659,0.0648 0.0296,-0.013 0.005,-0.0644 0.006,-0.0966 0.0101,-0.30911 -7.9e-4,-0.6184 0.004,-0.92756 0.002,-0.25943 0.002,-0.47589 0.008,-0.73333 0.002,-0.0843 0.005,-0.1686 0.01,-0.25282 0.003,-0.0493 0.0189,-0.0987 0.0116,-0.14754 -0.004,-0.0242 -0.0232,-0.0451 -0.0427,-0.0598 -0.009,-0.007 0.005,0.0225 0.008,0.0337 -0.003,0.59894 -0.0883,1.19544 -0.177,1.78653 0.007,0.0661 -0.0115,0.14004 0.0204,0.19831 0.0237,0.0433 0.003,-0.0988 0.007,-0.148 0.0298,-0.35253 0.0781,-0.70495 0.13298,-1.05432 0.0182,-0.11613 0.0396,-0.23173 0.0595,-0.34759 0.0195,-0.0893 0.0931,-0.3246 0.0365,-0.37978 -0.0274,-0.0267 -8e-4,0.0767 -0.005,0.11475 -0.0341,0.33959 -0.107,0.67428 -0.17379,1.00837 -0.0949,0.40879 -0.0981,0.44454 -0.20774,0.83602 -0.0259,0.0925 -0.14118,0.35808 -0.0831,0.48872 0.0469,0.10543 0.0386,-0.6776 0.10443,-0.33007 0.12363,-0.37012 0.2492,-0.73945 0.37876,-1.10754 0.0403,-0.11457 0.0806,-0.22918 0.12197,-0.34336 0.0278,-0.0766 0.0694,-0.14903 0.0855,-0.22884 0.009,-0.0419 -0.009,-0.0851 -0.0133,-0.12764 -0.21496,0.60867 -0.48368,1.1979 -0.70018,1.80608 -0.0502,0.13178 -0.10127,0.26326 -0.15071,0.39533 -0.0455,0.12146 -0.15909,0.3387 -0.0753,0.40407 0.0242,0.0189 0.0331,-0.0518 0.047,-0.0792 0.0612,-0.12047 0.23546,-0.50111 0.27471,-0.58595 0.19157,-0.42199 0.199,-0.43435 0.38486,-0.85986 0.12371,-0.28323 0.16759,-0.29989 0.1769,-0.56604 2.7e-4,-0.01 -0.0128,0.014 -0.0192,0.021 -0.0308,0.0543 -0.0615,0.10866 -0.0923,0.16299 -0.4406,0.79589 -0.88379,1.59087 -1.30099,2.39931 -0.003,0.056 -0.0243,0.11371 -0.01,0.16787 0.005,0.0189 0.0325,-0.0228 0.0444,-0.0382 0.0473,-0.0608 0.0896,-0.12529 0.13239,-0.18932 0.25231,-0.37756 0.48582,-0.76734 0.71359,-1.16004 0.007,-0.0125 0.3422,-0.60341 0.36927,-0.68814 0.0136,-0.0424 0.0258,-0.10943 -0.012,-0.13296 -0.023,-0.0144 -0.42263,0.6632 -0.42307,0.66291 -0.21092,0.36132 -0.2946,0.50105 -0.50018,0.86793 -0.0694,0.12388 -0.13835,0.24805 -0.20532,0.37326 -0.0461,0.0862 -0.19467,0.28847 -0.14352,0.42671 0.008,0.0204 0.033,-0.0285 0.0495,-0.0427 0.41649,-0.60625 0.75885,-1.26157 1.07681,-1.92373 5.3e-4,-0.0593 0.0544,-0.15025 0.002,-0.17794 -0.0467,-0.0247 -0.0552,0.0901 -0.0812,0.1361 -0.24413,0.43328 -0.46206,0.88089 -0.68512,1.32514 -0.0482,0.10061 -0.097,0.20093 -0.14453,0.30184 -0.0317,0.0673 -0.0754,0.13051 -0.0932,0.2027 -0.008,0.0342 -0.006,0.078 0.0172,0.10431 0.0132,0.0148 0.0206,-0.0339 0.0296,-0.0516 0.083,-0.16397 0.17117,-0.35792 0.24652,-0.51938 0.21656,-0.47547 0.43005,-0.95225 0.6444,-1.42871 0.0824,-0.18304 0.23018,-0.42794 0.22718,-0.65029 -5.3e-4,-0.0446 -0.0348,0.0822 -0.0522,0.12324 -0.32498,0.72207 -0.65897,1.44001 -0.98774,2.16035 0.001,0.0461 -0.0161,0.0967 0.004,0.13828 0.009,0.0194 0.0265,-0.0339 0.0375,-0.0523 0.0393,-0.0659 0.0762,-0.13326 0.11342,-0.20035 0.21648,-0.38982 0.42496,-0.78401 0.63564,-1.17698 0.0922,-0.16995 0.28343,-0.52174 0.3813,-0.70521 0.0358,-0.067 0.0842,-0.12898 0.106,-0.20176 0.008,-0.026 0.004,-0.0854 -0.0222,-0.0785 -0.11965,0.0317 0.0224,0.39605 -0.17777,0.32602 -0.20849,0.38345 -0.41761,0.76654 -0.62898,1.14843 -0.0672,0.12137 -0.13472,0.24252 -0.20222,0.36371 -0.0493,0.0886 -0.10977,0.17191 -0.14833,0.26574 -0.0217,0.0529 -0.0202,0.11253 -0.0302,0.16879 0.34312,-0.56389 0.67558,-1.13422 1.01257,-1.70179 0.0513,-0.086 0.17589,-0.22589 0.15125,-0.35428 -0.004,-0.019 -0.0212,0.0323 -0.0313,0.0487 -0.17214,0.27962 -0.33864,0.5627 -0.50412,0.84628 -0.0473,0.0811 -0.41225,0.70711 -0.46539,0.79854 -0.0638,0.10979 -0.12773,0.21951 -0.19099,0.32962 -0.0456,0.0793 -0.1994,0.28806 -0.1707,0.41874 0.006,0.0288 0.0355,-0.0472 0.0533,-0.0708 0.37346,-0.55491 0.71466,-1.13095 1.03461,-1.71823 0.0246,-0.0464 0.14463,-0.19747 0.0937,-0.28688 -0.009,-0.0151 -0.0203,0.0283 -0.0294,0.0431 -0.0302,0.0491 -0.0593,0.0988 -0.0884,0.14865 -0.15101,0.25895 -0.16487,0.28739 -0.32283,0.57066 -0.15585,0.28802 -0.23101,0.42383 -0.38047,0.71187 -0.0496,0.0956 -0.0986,0.19152 -0.14644,0.28798 -0.0334,0.0673 -0.0757,0.13138 -0.0974,0.20334 -0.052,0.1726 -0.0299,0.14834 0.0254,0.11562 0.42285,-0.58831 0.75382,-1.2387 1.10588,-1.86994 0.0459,-0.091 0.10295,-0.17719 0.13777,-0.27298 0.0183,-0.0503 0.024,-0.10605 0.0194,-0.15936 -0.001,-0.0134 -0.0232,0.0148 -0.0309,0.0259 -0.0391,0.0561 -0.0738,0.11517 -0.10855,0.17405 -0.14468,0.24507 -0.23081,0.41046 -0.37024,0.66769 -0.17991,0.34714 -0.23148,0.43852 -0.39478,0.78391 -0.0459,0.097 -0.0903,0.19466 -0.133,0.2931 -0.0262,0.0604 -0.062,0.11858 -0.0736,0.18342 -0.032,0.17889 0.0495,0.0514 0.0598,0.0383 0.32241,-0.5417 0.59395,-1.11311 0.85061,-1.68825 0.007,-0.0568 0.0188,-0.11322 0.0199,-0.17039 1.4e-4,-0.007 -0.0135,0.007 -0.017,0.0133 -0.0303,0.0551 -0.0567,0.11227 -0.0833,0.16926 -0.16097,0.34521 -0.30669,0.69741 -0.44173,1.05351 -0.0121,0.0341 -0.1631,0.44329 -0.17589,0.53069 -0.0415,0.28363 0.0896,0.009 0.10188,-0.0167 0.0316,-0.0665 0.0606,-0.1343 0.0909,-0.20145 0.11318,-0.26723 0.22624,-0.53445 0.3272,-0.80661 0.0212,-0.0573 0.0531,-0.11237 0.0605,-0.17303 0.003,-0.0218 -0.0135,-0.0676 -0.0327,-0.0571 -0.0338,0.0186 -0.0346,0.069 -0.0519,0.10347 -0.10699,0.24711 -0.20845,0.49586 -0.30338,0.7479 -0.0327,0.0868 -0.0648,0.17382 -0.0957,0.26126 -0.0212,0.0599 -0.05,0.11814 -0.0607,0.18079 -0.006,0.0346 0.008,0.0698 0.0115,0.10473 0.0736,-0.0649 0.14705,-0.25891 0.18187,-0.33007 0.1484,-0.30332 0.29116,-0.60933 0.43495,-0.91485 0.0434,-0.0927 0.0868,-0.18543 0.13021,-0.27813 0.0295,-0.063 0.0666,-0.12303 0.0887,-0.18907 0.009,-0.0283 0.008,-0.0598 0.004,-0.0894 -10e-4,-0.0104 -0.007,0.0198 -0.0113,0.0295 -0.0206,0.048 -0.0421,0.0955 -0.0628,0.1434 -0.0365,0.0842 -0.0725,0.16861 -0.10881,0.25292 -0.26143,0.62932 -0.54128,1.26297 -0.66608,1.93639 -5.3e-4,0.002 0.0312,0.009 0.0316,0.006 z" /><path
       style="fill:#2a7fff;stroke:#2a7fff;stroke-width:0;stroke-linecap:square;stroke-miterlimit:3.6;stroke-dasharray:none;paint-order:stroke fill markers"
       id="path1724"
       d="m 110.26522,105.99452 c 0.0676,0.42827 0.15748,0.85641 0.30451,1.26507 0.0448,0.0859 0.0575,0.15192 0.20752,-0.0443 0.0249,-0.0326 -0.009,-0.0815 -0.0141,-0.12218 -0.0204,-0.17122 -0.0384,-0.34262 -0.0572,-0.51402 -0.0194,-0.16454 -0.0366,-0.32971 -0.0662,-0.49286 -0.0106,-0.0584 -0.0306,-0.14654 -0.0386,-0.14716 -0.0578,-0.004 -0.1131,0.0252 -0.16964,0.0378 -0.0808,0.4682 -0.0387,0.94714 0.0116,1.41623 0.017,0.11303 0.03,0.23075 0.0607,0.34178 0.006,0.0209 0.003,0.062 0.0243,0.0603 0.0726,-0.006 0.15203,-0.0273 0.20387,-0.0785 0.0286,-0.0282 -8e-4,-0.0802 -0.002,-0.12029 -0.002,-0.0611 -0.006,-0.12211 -0.009,-0.18317 -0.036,-0.39642 -0.0371,-0.80332 -0.1468,-1.1888 -0.0478,-0.0784 -0.0617,-0.12794 -0.221,0.0283 -0.0359,0.0352 -0.0153,0.0994 -0.0203,0.14941 -0.0283,0.28586 -0.0274,0.5705 -0.0243,0.85736 0.013,0.2746 0.0326,0.55088 0.0872,0.82093 0.008,0.0405 0.0186,0.0807 0.0316,0.11988 0.006,0.0169 0.006,0.0507 0.024,0.0478 0.0834,-0.0136 0.15784,-0.0603 0.23676,-0.0905 0.0226,-0.39887 -0.0221,-0.79798 -0.0817,-1.19185 -0.038,-0.17659 0.0101,-0.32726 -0.26154,-0.20785 -0.0242,0.0107 -0.0144,0.051 -0.0203,0.0768 -0.009,0.0399 -0.0167,0.0801 -0.0251,0.12017 -0.0673,0.35297 -0.064,0.71265 -0.0511,1.07002 0.0197,0.15888 -0.003,0.28671 0.25842,0.1032 0.0253,-0.0178 -0.005,-0.0617 -0.007,-0.0926 -0.002,-0.039 -0.005,-0.078 -0.007,-0.11697 -0.003,-0.13607 -0.007,-0.27213 -0.0118,-0.40815 -0.002,-0.0534 0.003,-0.12388 -0.0139,-0.17698 -0.078,0.0187 -0.17076,0.007 -0.234,0.0559 -0.0367,0.0286 -0.0115,0.0924 -0.0157,0.13882 -0.0215,0.23721 -0.023,0.47496 -0.0165,0.71284 0.0168,0.18299 -0.019,0.35747 0.28448,0.16235 0.031,-0.0199 0.0105,-0.0731 0.0152,-0.10968 0.006,-0.045 0.0108,-0.0901 0.0162,-0.13523 0.006,-0.21341 0.0558,-0.44228 8e-4,-0.6532 -0.007,-0.0109 -0.0135,-0.0217 -0.0203,-0.0326 -0.003,-0.0131 -0.18797,0.0304 -0.18489,0.0435 v 0 c -0.005,-0.005 -0.009,-0.0102 -0.0137,-0.0154 -0.0416,0.20167 -0.0214,0.41452 -0.0479,0.61808 -0.002,0.0443 -0.005,0.0886 -0.007,0.13284 -0.002,0.0338 -0.033,0.0799 -0.007,0.10148 0.27802,0.22959 0.23294,0.0666 0.24673,-0.0886 0.009,-0.23552 0.0127,-0.4711 0.004,-0.70671 -0.002,-0.0463 0.0243,-0.10475 -0.007,-0.13884 -0.0574,-0.0623 -0.1511,-0.0766 -0.22665,-0.11493 -0.061,0.15538 -0.014,0.44495 -0.0162,0.61029 0.004,0.0414 0.006,0.0829 0.0108,0.12417 0.004,0.0335 -0.0141,0.0816 0.014,0.10022 0.294,0.19414 0.25315,0.0745 0.26206,-0.0949 10e-4,-0.34728 0.0209,-0.69433 0.0229,-1.04165 0.001,-0.0402 0.003,-0.0803 0.004,-0.12051 5.3e-4,-0.0264 0.0226,-0.0636 10e-4,-0.0792 -0.27244,-0.19989 -0.19641,0.0148 -0.19972,0.16474 0.0222,0.38859 0.0652,0.77548 0.0932,1.16358 0.0769,0.0301 0.15092,0.0694 0.23084,0.0904 0.009,0.002 0.005,-0.0186 0.006,-0.0282 10e-4,-0.0378 7.9e-4,-0.0757 -2.7e-4,-0.1135 -0.008,-0.26808 -0.0297,-0.53566 -0.0485,-0.8031 -0.0206,-0.28338 -0.0313,-0.56791 -0.0586,-0.85074 -0.005,-0.0471 0.0174,-0.10841 -0.0169,-0.14101 -0.10358,-0.0984 -0.13348,-0.0818 -0.1957,-0.0512 0.008,0.39505 0.0513,0.78952 0.10468,1.18062 0.0102,0.0602 0.0203,0.12042 0.0306,0.18061 0.007,0.0395 -0.0109,0.0936 0.0207,0.11833 0.0594,0.0465 0.14101,0.0611 0.21625,0.0672 0.0165,0.001 0.003,-0.033 0.003,-0.0496 -5.3e-4,-0.0927 -0.0109,-0.2518 -0.0153,-0.33341 -0.032,-0.46244 -0.0753,-0.92378 -0.12407,-1.38471 -0.0519,-0.0199 -0.10038,-0.0537 -0.15562,-0.0597 -0.0143,-0.002 8e-4,0.0288 0.002,0.0431 0.01,0.19415 0.03,0.38756 0.0462,0.58122 0.0141,0.17684 0.0273,0.35359 0.0607,0.52813 0.008,0.0422 -0.005,0.0995 0.029,0.12548 0.0581,0.0442 0.13827,0.0568 0.21125,0.0576 0.0184,1.9e-4 2.7e-4,-0.0369 5.3e-4,-0.0554 -0.0628,-0.43224 -0.18161,-0.85833 -0.33944,-1.26509 -0.002,-0.0132 -0.18851,0.0135 -0.18663,0.0267 z" /><path
       style="fill:#2a7fff;stroke:#2a7fff;stroke-width:0;stroke-linecap:square;stroke-miterlimit:3.6;stroke-dasharray:none;paint-order:stroke fill markers"
       id="path1726"
       d="m 110.17004,105.94227 c -0.0217,0.65304 0.0644,1.30668 0.155,1.95236 0.0112,0.0298 0.0635,0.54794 0.17471,0.5003 0.0127,-0.005 0.0183,-0.0208 0.0275,-0.0313 -5.3e-4,-0.003 -0.0402,0.004 -0.0397,0.006 v 0 c 0.0174,0.0169 0.0289,0.0438 0.0521,0.0507 0.15267,0.0457 0.11395,-0.50346 0.11091,-0.52908 -0.032,-0.37044 -0.0739,-0.7386 -0.12852,-1.1065 -0.0262,-0.17643 -0.0729,-0.4723 -0.11655,-0.65351 -0.0158,-0.0656 -0.039,-0.12915 -0.0585,-0.19372 -2.6e-4,-0.0125 -0.17722,-0.008 -0.17692,0.004 z" /><path
       style="fill:#2a7fff;stroke:#2a7fff;stroke-width:0;stroke-linecap:square;stroke-miterlimit:3.6;stroke-dasharray:none;paint-order:stroke fill markers"
       id="path1728"
       d="m 110.32195,105.32747 c -0.0144,0.0862 -0.0337,0.17181 -0.0431,0.25874 -0.0716,0.65877 -0.0613,1.39318 0.003,2.05179 0.014,0.14211 0.0399,0.28279 0.0598,0.42418 0.0244,0.0952 0.0489,0.19038 0.0734,0.28557 -5.2e-4,0.009 0.13076,0.0165 0.13127,0.007 v 0 c 0.0174,-0.0927 0.0348,-0.18545 0.0521,-0.27817 0.01,-0.13945 0.0257,-0.2786 0.03,-0.41834 0.0169,-0.5446 -0.0165,-1.09178 -0.0571,-1.63452 -0.0104,-0.13899 -0.0182,-0.27832 -0.035,-0.41668 -0.0109,-0.0898 -0.0321,-0.17813 -0.0482,-0.2672 7.9e-4,-0.0118 -0.16562,-0.0244 -0.16651,-0.0126 z" /><path
       style="fill:#2a7fff;stroke:#2a7fff;stroke-width:0;stroke-linecap:square;stroke-miterlimit:3.6;stroke-dasharray:none;paint-order:stroke fill markers"
       id="path1730"
       d="m 110.3494,106.70413 c -0.0499,0.35344 -0.0444,0.71288 -0.029,1.06879 -2e-4,0.0987 0.019,0.19589 0.0199,0.29442 -0.002,0.0791 -0.005,0.15815 -0.006,0.23734 0.001,0.0763 0.002,0.15258 0.004,0.22885 10e-4,0.0508 -2.6e-4,0.10155 -2.6e-4,0.15238 -0.01,0.087 0.03,0.16134 0.0727,0.23362 0.0641,0.0991 0.12563,0.19443 0.22623,0.25868 0.0758,0.0362 0.0378,0.0219 0.11363,0.0441 0.002,0.003 0.0412,-0.0246 0.0392,-0.0274 v 0 c -0.009,-0.0598 -0.003,-0.0285 -0.0189,-0.0936 -0.0334,-0.10291 -0.10494,-0.18216 -0.16759,-0.26872 -0.0337,-0.0432 -0.0723,-0.0772 -0.0682,-0.13151 1.3e-4,-0.0509 -0.001,-0.10176 -5.3e-4,-0.15267 0.002,-0.0759 0.003,-0.15179 0.004,-0.22768 -8e-5,-0.0797 -0.002,-0.15932 -0.005,-0.239 -7.9e-4,-0.0967 0.0152,-0.1922 0.0164,-0.28893 0.0164,-0.35645 0.0252,-0.71597 -0.0183,-1.07077 0.001,-0.0129 -0.18132,-0.0308 -0.18259,-0.0179 z" /><path
       style="fill:#2a7fff;stroke:#2a7fff;stroke-width:0;stroke-linecap:square;stroke-miterlimit:3.6;stroke-dasharray:none;paint-order:stroke fill markers"
       id="path1732"
       d="m 110.23087,107.48332 c -0.0459,0.28534 -0.0476,0.57598 -0.0408,0.86428 0.002,0.11575 0.0266,0.22459 0.0906,0.32101 0.006,0.008 0.0121,0.0169 0.015,0.0267 -0.004,0.0257 -0.008,0.0512 -0.008,0.0772 -0.009,-0.13674 0.1587,0.0848 0.0993,-0.0567 -2.7e-4,-0.003 -0.0421,0.002 -0.0418,0.004 v 0 c 0.007,0.11208 0.14247,0.22617 0.16261,0.071 0.001,-0.0201 2.7e-4,-0.0425 0.002,-0.0634 0.002,-0.0551 -0.006,-0.10538 -0.0387,-0.15166 -0.0493,-0.0597 -0.0446,-0.1375 -0.0454,-0.21165 0.01,-0.28601 0.0246,-0.57308 0.002,-0.8588 0.002,-0.0139 -0.19504,-0.0362 -0.19662,-0.0224 z" /><path
       style="fill:#2a7fff;stroke:#2a7fff;stroke-width:0;stroke-linecap:square;stroke-miterlimit:3.6;stroke-dasharray:none;paint-order:stroke fill markers"
       id="path1734"
       d="m 110.22721,107.86105 c -0.0352,0.26017 -0.0504,0.5386 0.0597,0.7828 0.0157,0.0204 0.0274,0.0448 0.0472,0.0613 0.12392,0.10343 0.17093,0.0209 0.24446,0.0824 -0.005,-2.7e-4 -0.0171,-0.006 -0.015,-10e-4 0.0211,0.0459 0.0867,0.0661 0.12372,0.0893 0.0155,0.01 0.0278,0.0237 0.0417,0.0355 0.001,0.003 0.0488,-0.015 0.0475,-0.0184 v 0 c -0.003,-0.0165 -0.008,-0.0327 -0.009,-0.0494 -7.9e-4,-0.0212 0.008,-0.0426 0.004,-0.0634 -0.015,-0.0801 -0.0963,-0.13012 -0.15777,-0.16744 -0.0646,-0.0198 -0.0457,-0.019 -0.10889,-0.0208 -0.0126,-2.6e-4 -0.044,-0.0116 -0.038,-5.3e-4 0.006,0.0101 0.0192,0.0145 0.0236,0.0251 0.004,0.009 -0.0141,-0.0128 -0.0211,-0.0192 -0.0808,-0.22644 -0.0392,-0.47547 -0.0624,-0.71052 0.002,-0.0127 -0.17825,-0.0385 -0.18007,-0.0257 z" /><path
       style="fill:#2a7fff;stroke:#2a7fff;stroke-width:0;stroke-linecap:square;stroke-miterlimit:3.6;stroke-dasharray:none;paint-order:stroke fill markers"
       id="path1736"
       d="m 109.03759,115.11641 c 0.0799,-0.2935 0.12502,-0.59481 0.20532,-0.88833 0.0151,-0.0785 0.0572,-0.14749 0.0804,-0.22298 0.0109,-0.0749 0.0402,-0.14484 0.0615,-0.21723 0.009,-0.063 0.0284,-0.11744 0.0592,-0.17253 0.0395,-0.0976 0.0759,-0.19599 0.13279,-0.28507 0.0395,-0.0445 0.0821,-0.0857 0.12038,-0.1314 0.0543,-0.0653 0.10293,-0.13516 0.15872,-0.19916 0.0728,-0.0882 0.15527,-0.16749 0.21997,-0.26189 0.0403,-0.0586 0.0305,-0.12599 0.0462,-0.19217 0.002,-0.003 -0.0405,-0.0305 -0.0425,-0.0275 v 0 c -0.0562,0.0365 -0.11889,0.0414 -0.17043,0.0864 -0.0887,0.0782 -0.16096,0.17048 -0.23517,0.26214 -0.0507,0.0675 -0.10657,0.13128 -0.15109,0.2033 -0.0413,0.052 -0.0949,0.091 -0.13662,0.14273 -0.064,0.0935 -0.11332,0.19847 -0.13663,0.30992 -0.0283,0.0644 -0.058,0.12755 -0.0713,0.19725 -0.0241,0.0719 -0.0443,0.14491 -0.0495,0.22077 -0.0204,0.0751 -0.0888,0.13184 -0.10488,0.2098 -0.11012,0.29669 -0.17108,0.61073 -0.1795,0.92738 -0.003,0.0136 0.19034,0.0522 0.19307,0.0386 z" /><path
       style="fill:#2a7fff;stroke:#2a7fff;stroke-width:0;stroke-linecap:square;stroke-miterlimit:3.6;stroke-dasharray:none;paint-order:stroke fill markers"
       id="path1742"
       d="m 109.58395,113.59249 c 0.14294,-0.26899 0.26019,-0.55154 0.37297,-0.83437 0.0292,-0.0906 0.083,-0.16795 0.1315,-0.24856 0.099,-0.16634 0.18859,-0.337 0.26608,-0.51445 0.0181,-0.0697 0.0733,-0.15638 0.0618,-0.23304 -0.002,-0.0165 -0.0153,-0.0298 -0.0229,-0.0446 0.003,-0.006 -0.0822,-0.0436 -0.0848,-0.0376 v 0 c -0.0154,0.004 -0.033,0.003 -0.0461,0.0116 -0.0622,0.0421 -0.0864,0.13974 -0.12636,0.19713 -0.0832,0.16981 -0.16248,0.34138 -0.24054,0.5136 -0.0433,0.089 -0.0998,0.1687 -0.14992,0.2539 -0.14589,0.2729 -0.26316,0.561 -0.35098,0.85777 -0.006,0.0134 0.18379,0.092 0.18935,0.0786 z" /><path
       style="fill:#2a7fff;stroke:#2a7fff;stroke-width:0;stroke-linecap:square;stroke-miterlimit:3.6;stroke-dasharray:none;paint-order:stroke fill markers"
       id="path1744"
       d="m 109.48831,113.34401 c 0.14692,-0.25532 0.26073,-0.52821 0.40986,-0.78221 0.0601,-0.0999 0.13355,-0.19051 0.19564,-0.28906 0.0834,-0.13971 0.16321,-0.28154 0.24009,-0.42494 0.0759,-0.13606 0.14058,-0.27805 0.22068,-0.41175 0.096,-0.14882 0.17512,-0.30261 0.20525,-0.47791 -0.0108,-0.12588 -0.009,-0.0656 -0.007,-0.18071 10e-4,-0.004 -0.0509,-0.019 -0.052,-0.0154 v 0 c -0.0476,0.0934 -0.0175,0.0485 -0.0929,0.13274 -0.0884,0.13934 -0.15204,0.29194 -0.23652,0.43368 -0.075,0.13795 -0.15446,0.27352 -0.22801,0.41232 -0.0767,0.14044 -0.14611,0.28438 -0.21589,0.42834 -0.06,0.10066 -0.14989,0.17798 -0.21231,0.27735 -0.16735,0.25482 -0.31513,0.52483 -0.40459,0.81766 -0.006,0.0126 0.17232,0.0925 0.17797,0.0799 z" /><path
       style="fill:#2a7fff;stroke:#000000;stroke-width:0;stroke-linecap:square;stroke-miterlimit:3.6;stroke-dasharray:none;paint-order:stroke fill markers"
       id="path1746"
       d="m 109.42337,113.23932 c -0.20306,0.43251 -0.39426,0.88429 -0.48109,1.35689 -0.0159,0.0863 -0.0216,0.17414 -0.0324,0.26121 -0.005,0.058 -0.0102,0.11599 -0.0154,0.17399 -0.002,0.007 0.0912,0.0327 0.093,0.0262 v 0 c 0.0207,-0.0518 0.0414,-0.10362 0.0621,-0.15544 0.23377,-0.51347 0.41958,-1.04967 0.53501,-1.60262 0.004,-0.0114 -0.15699,-0.0716 -0.16125,-0.0602 z" /><path
       style="fill:#333333;stroke:#333333;stroke-width:3.77952761;stroke-linecap:square;stroke-miterlimit:3.6;stroke-dasharray:none;paint-order:stroke fill markers"
       d="m 229.18396,848.9712 c -11.6436,-4.2856 -24.39252,-15.12076 -29.44548,-25.02538 -1.94199,-3.8066 -3.25714,-9.84087 -4.03117,-18.49608 -1.5128,-16.9161 -1.49369,-643.33813 0.0201,-660.27855 0.90417,-10.11805 1.93105,-14.38167 4.53317,-18.82186 4.74404,-8.0951 15.74535,-17.94777 24.75554,-22.17084 l 7.66863,-3.59429 44.92761,-0.848576 c 59.40166,-1.121957 184.60092,-1.141032 223.32648,-0.03402 l 30.87538,0.882596 8.90055,4.38239 c 12.78768,6.29632 22.96222,17.60225 26.59038,29.5472 2.73002,8.98796 2.73724,10.03538 2.36988,344.28153 l -0.36849,335.26615 -2.95903,6.40855 c -4.32232,9.36115 -16.35654,21.3328 -26.42876,26.29133 l -8.4928,4.18099 -148.70003,-0.0945 c -120.16034,-0.0764 -149.62936,-0.43655 -153.542,-1.87665 z m 78.81988,-174.8554 c 6.52271,-3.36584 14.10442,-11.30722 17.74678,-18.58866 3.75551,-7.50766 3.90486,-24.03215 0.28917,-31.99278 -3.63643,-8.00623 -10.07885,-14.69808 -17.90464,-18.59784 -8.77235,-4.37144 -24.05957,-4.79682 -32.62212,-0.90773 -17.61304,7.99983 -26.64243,26.56358 -22.11005,45.45666 2.90465,12.10792 14.6122,24.07944 26.46586,27.06257 7.61029,1.91522 22.14503,0.65872 28.135,-2.43222 z m 181.00732,-1.2747 c 7.52559,-3.8579 15.97182,-13.80196 18.70026,-22.0165 4.37502,-13.172 0.0477,-31.08518 -9.69456,-40.13095 -13.6625,-12.68576 -35.23849,-13.57963 -50.32806,-2.08504 -14.56487,11.09488 -18.22564,34.01546 -8.07415,50.55319 3.86213,6.29174 13.6592,13.82438 20.87955,16.05356 6.86945,2.12085 22.24566,0.84065 28.51696,-2.37426 z M 409.83373,534.44706 c 15.92429,-4.01189 28.76988,-11.08065 40.93835,-22.52789 17.18653,-16.16785 26.30461,-32.37 30.05252,-53.40114 2.41548,-13.55424 2.43292,-20.71831 0.0803,-33.01399 -5.71546,-29.87202 -25.53284,-55.90919 -52.29773,-68.71161 -6.70375,-3.20662 -15.50791,-6.61159 -19.56481,-7.56662 -10.58044,-2.49076 -34.95502,-2.09718 -45.59817,0.73626 -25.70461,6.84316 -49.5889,26.26489 -61.54961,50.04963 -10.41025,20.70156 -12.42987,50.07788 -4.95435,72.06348 8.78536,25.83787 30.20607,48.73792 54.681,58.4573 17.59586,6.98761 40.02729,8.49604 58.21245,3.91458 z M 396.97231,142.82957 c 3.99341,-3.99341 3.57635,-11.17214 -0.85142,-14.65502 -7.80707,-6.14103 -19.26542,-1.67281 -19.26542,7.51262 0,6.43845 3.92901,9.82464 11.39955,9.82464 4.24689,0 6.82978,-0.79474 8.71729,-2.68224 z"
       id="path3298"
       transform="scale(0.26458333)" /><text
       xml:space="preserve"
       style="font-size:10.5833px;font-family:Calibri;-inkscape-font-specification:Calibri;fill:#2a7fff;stroke:#000000;stroke-width:0.3;stroke-linecap:square;stroke-linejoin:bevel;stroke-miterlimit:1;paint-order:markers stroke fill"
       x="71.759941"
       y="74.018112"
       id="text363"><tspan
         sodipodi:role="line"
         id="tspan361"
         style="fill:#ffffff;stroke:#ffffff;stroke-width:0.3"
         x="71.759941"
         y="74.018112">Příchozí hovor</tspan></text></g></svg>
