<?xml version="1.0" encoding="UTF-8" standalone="no"?>
<!-- Created with Inkscape (http://www.inkscape.org/) -->

<svg
   width="210mm"
   height="297mm"
   viewBox="0 0 210 297"
   version="1.1"
   id="svg5"
   xml:space="preserve"
   inkscape:version="1.2.1 (9c6d41e410, 2022-07-14)"
   sodipodi:docname="kostel.svg"
   inkscape:export-filename="kostel.png"
   inkscape:export-xdpi="96"
   inkscape:export-ydpi="96"
   xmlns:inkscape="http://www.inkscape.org/namespaces/inkscape"
   xmlns:sodipodi="http://sodipodi.sourceforge.net/DTD/sodipodi-0.dtd"
   xmlns="http://www.w3.org/2000/svg"
   xmlns:svg="http://www.w3.org/2000/svg"><sodipodi:namedview
     id="namedview7"
     pagecolor="#ffffff"
     bordercolor="#000000"
     borderopacity="0.25"
     inkscape:showpageshadow="2"
     inkscape:pageopacity="0.0"
     inkscape:pagecheckerboard="0"
     inkscape:deskcolor="#d1d1d1"
     inkscape:document-units="mm"
     showgrid="false"
     inkscape:zoom="0.74564394"
     inkscape:cx="396.97231"
     inkscape:cy="454.64059"
     inkscape:window-width="1920"
     inkscape:window-height="1017"
     inkscape:window-x="-8"
     inkscape:window-y="-8"
     inkscape:window-maximized="1"
     inkscape:current-layer="layer1" /><defs
     id="defs2" /><g
     inkscape:label="Vrstva 1"
     inkscape:groupmode="layer"
     id="layer1"><path
       style="fill:#1a1a1a;stroke:#1a1a1a;stroke-width:8.46992137;stroke-linecap:square;stroke-miterlimit:3.6;stroke-dasharray:none;paint-order:stroke fill markers"
       d=""
       id="path1058"
       transform="scale(0.26458333)" /><path
       style="fill:#1a1a1a;stroke:#1a1a1a;stroke-width:0;stroke-linecap:square;stroke-miterlimit:3.6;stroke-dasharray:none;paint-order:stroke fill markers"
       d="m 31.289993,185.85688 c -1.862567,-0.6911 -2.378445,-2.45523 -1.066402,-3.64674 0.684249,-0.62139 1.491148,-0.7159 6.991709,-0.81893 l 6.218186,-0.11647 v -9.56322 c 0,-10.31395 -0.05031,-10.55025 -1.839923,-8.64134 -1.647268,1.75708 -2.226079,1.3222 -6.870985,-5.1625 -1.597994,-2.23094 -3.438031,-4.78639 -4.088975,-5.67877 -2.084409,-2.85752 -2.417957,-2.43062 9.30403,-11.90814 1.821525,-1.47275 3.367059,-2.80592 3.434522,-2.9626 0.06747,-0.15668 0.291504,-0.28487 0.49787,-0.28487 0.206365,0 1.495278,-0.95414 2.864253,-2.12031 1.368975,-1.16617 2.804646,-2.36922 3.19038,-2.67344 3.976746,-3.13638 6.225256,-4.99862 6.326963,-5.24006 0.06746,-0.16015 0.283462,-0.29119 0.479996,-0.29119 0.196534,0 1.482813,-0.95414 2.858401,-2.12031 1.375585,-1.16617 2.819298,-2.36922 3.208247,-2.67344 2.408181,-1.88356 6.284922,-5.02517 6.698833,-5.42857 0.268769,-0.26194 0.806949,-0.64695 1.19595,-0.85557 0.577818,-0.30988 0.707276,-0.78681 0.707276,-2.60568 v -2.22637 l -1.371788,1.13309 c -1.358332,1.12198 -2.435114,1.39225 -3.315198,0.83212 -0.250335,-0.15934 -2.09923,-2.52141 -4.108652,-5.24904 -2.009418,-2.72765 -3.879221,-5.20826 -4.155116,-5.51248 -0.839406,-0.92558 -1.480714,-2.445022 -1.341375,-3.178092 0.127065,-0.66852 3.50837,-3.649725 21.280611,-18.762534 4.531535,-3.85344 8.499136,-7.255157 8.816894,-7.559376 0.317755,-0.30422 1.031358,-0.908876 1.585781,-1.343684 1.019477,-0.79952 5.718873,-4.934898 6.958687,-6.123503 0.370216,-0.354922 0.838706,-0.645314 1.041096,-0.645314 0.232,0 0.36799,-2.508915 0.36799,-6.789249 v -6.789249 l -4.081058,-0.124813 c -5.567986,-0.170289 -5.486545,-0.06205 -5.486545,-7.292012 0,-5.354646 0.01251,-5.437895 0.948674,-6.320086 0.856042,-0.806675 1.323153,-0.906245 4.783803,-1.019719 l 3.835126,-0.125754 v -3.981831 c 0,-5.690727 -0.004,-5.687323 6.185526,-5.843672 3.83977,-0.097 5.00474,-0.0045 5.9211,0.470409 l 1.14082,0.591164 v 4.382907 4.382904 l 4.01026,0.124813 c 5.71243,0.17779 5.55886,-0.02359 5.5517,7.280403 -0.003,3.162863 -0.13066,5.947702 -0.28347,6.188528 -0.53157,0.837723 -2.35594,1.221507 -5.80659,1.221507 h -3.4719 v 6.6375 c 0,3.650627 0.12872,6.637501 0.28606,6.637501 0.28784,0 2.2828,1.607386 4.11897,3.318749 0.54401,0.507033 1.87459,1.668594 2.95685,2.58125 1.08225,0.912657 2.22368,1.949767 2.53649,2.304689 0.31282,0.354921 0.69002,0.645311 0.83824,0.645311 0.14821,0 0.6689,0.37336 1.15708,0.829688 2.39653,2.240137 4.09868,3.713493 13.31326,11.52377 16.77368,14.217373 16.08988,13.481473 14.62545,15.739745 -0.98101,1.51279 -8.01437,10.76992 -8.71995,11.47696 -0.92221,0.92412 -2.07487,0.76161 -3.61375,-0.50951 l -1.37179,-1.13309 v 2.15739 c 0,1.70516 0.15516,2.29052 0.74018,2.79248 0.40709,0.34929 0.89007,0.63507 1.07329,0.63507 0.18321,0 0.3883,0.13104 0.45577,0.29119 0.10129,0.24046 2.87448,2.53513 6.33282,5.24006 0.38895,0.30422 1.83266,1.50727 3.20825,2.67344 1.37558,1.16617 2.66186,2.12031 2.8584,2.12031 0.19653,0 0.41253,0.13104 0.47999,0.29119 0.10185,0.24177 2.26095,2.0302 6.32615,5.24006 1.32799,1.04858 4.10201,3.36252 4.88792,4.07726 0.43331,0.39407 0.90052,0.71649 1.03825,0.71649 0.13772,0 0.45743,0.20742 0.71048,0.46094 0.25303,0.25352 1.91659,1.6225 3.69679,3.04219 8.42075,6.71546 10.14196,8.27806 10.14196,9.20738 0,0.45243 -0.53259,1.55272 -1.18353,2.4451 -0.65094,0.89238 -2.49098,3.44783 -4.08898,5.67877 -4.6449,6.4847 -5.22371,6.91958 -6.87098,5.1625 -1.78961,-1.90891 -1.83992,-1.67261 -1.83992,8.64134 v 9.56322 l 6.21818,0.11647 c 5.50056,0.10303 6.30746,0.19754 6.99171,0.81893 0.9878,0.89706 0.98737,2.12367 -0.001,3.02007 -0.75568,0.68533 -2.54504,0.70404 -73.32095,0.76697 -39.900449,0.0355 -72.794706,-0.0277 -73.098291,-0.1403 z m 40.110331,-25.36795 c 0,-11.45891 -0.124195,-20.83173 -0.275988,-20.82849 -0.151796,0.003 -0.803544,0.45957 -1.448331,1.01406 -0.644781,0.5545 -1.711051,1.42302 -2.369481,1.93005 -0.658432,0.50703 -1.803698,1.41969 -2.545033,2.02813 -0.741337,0.60843 -1.910577,1.55473 -2.598307,2.10287 -0.687734,0.54814 -2.243983,1.78907 -3.458331,2.75761 -1.214351,0.96854 -2.373504,1.89025 -2.575893,2.04825 -0.637437,0.49762 -5.133066,4.09974 -6.739736,5.40021 l -1.53992,1.24644 v 11.56762 11.56762 h 11.775509 11.775511 z m 14.000012,8.38906 c 0.01185,-8.89039 0.143252,-12.72397 0.459983,-13.42084 0.243863,-0.53654 2.264907,-2.35105 4.491217,-4.03224 2.226307,-1.68118 4.266649,-3.27493 4.534098,-3.54165 0.267443,-0.26673 0.600322,-0.48496 0.73973,-0.48496 0.139401,0 0.66575,-0.37406 1.16966,-0.83124 0.50392,-0.45718 1.26765,-1.07945 1.6972,-1.38281 0.42955,-0.30337 1.705816,-1.25681 2.836166,-2.11876 1.13034,-0.86195 2.35641,-1.56719 2.7246,-1.56719 0.36819,0 1.82419,0.90278 3.23558,2.00618 1.41138,1.1034 3.19163,2.47238 3.9561,3.04219 0.76447,0.5698 1.59244,1.21275 1.83992,1.42877 0.24749,0.21602 2.2715,1.76829 4.49781,3.44947 2.22631,1.68119 4.24735,3.4957 4.49121,4.03224 0.31674,0.69687 0.44813,4.53045 0.45999,13.42084 l 0.0166,12.44531 h 4.7838 4.7838 v -37.16277 -37.16279 l -2.66789,-2.25534 c -1.46734,-1.24044 -3.01994,-2.56289 -3.45023,-2.93879 -0.43028,-0.37588 -1.6649,-1.43015 -2.7436,-2.342812 -1.0787,-0.91266 -2.29978,-1.993329 -2.71352,-2.401491 -0.41374,-0.408167 -1.58022,-1.398163 -2.59217,-2.199999 -1.01196,-0.801833 -1.92272,-1.56135 -2.02392,-1.687821 -0.21605,-0.270013 -3.09326,-2.788001 -5.8755,-5.14194 -1.07871,-0.912654 -2.14382,-1.82531 -2.36692,-2.028124 -1.99353,-1.812277 -3.27504,-2.765625 -3.7176,-2.765625 -0.28979,0 -1.33031,0.705236 -2.31228,1.567188 -0.98197,0.861952 -2.671686,2.313907 -3.754946,3.226561 -1.08325,0.912657 -2.415655,2.07422 -2.960897,2.581251 -0.974464,0.906178 -3.345833,2.93805 -5.864969,5.025319 -0.702998,0.582481 -1.541427,1.307961 -1.863166,1.612181 -0.321742,0.30422 -1.464421,1.29984 -2.539293,2.2125 -1.07487,0.912662 -2.306356,1.966932 -2.736639,2.342812 -0.430286,0.3759 -1.982886,1.69835 -3.450226,2.93879 l -2.667889,2.25534 v 37.16279 37.16277 h 4.7838 4.783802 z m 9.261276,4.05625 c 0.162439,-9.19792 0.391438,-10.33654 2.649702,-13.17471 3.275886,-4.11711 10.066676,-4.1387 13.328436,-0.0424 2.21723,2.78455 2.47081,4.05772 2.63257,13.21708 l 0.14816,8.38906 h 2.35695 2.35695 v -12.16025 -12.16025 l -1.0118,-0.65381 c -0.55648,-0.3596 -1.34305,-0.93648 -1.74793,-1.28196 -2.03149,-1.7335 -11.08673,-8.40623 -11.40768,-8.40623 -0.32096,0 -9.376199,6.67273 -11.407692,8.40623 -0.404875,0.34548 -1.191443,0.92236 -1.747927,1.28196 l -1.011794,0.65381 v 12.16025 12.16025 h 2.35695 2.35695 z m 14.270718,0 c -0.002,-7.59686 -0.0679,-8.48861 -0.69597,-9.44321 -2.20671,-3.35407 -6.98439,-3.22295 -8.622666,0.23666 -0.51643,1.09056 -0.61452,2.59841 -0.61452,9.44665 v 8.14896 h 4.967796 4.96779 l -0.002,-8.38906 z m 51.1523,-3.17856 v -11.56762 l -1.53992,-1.24644 c -1.44651,-1.17083 -5.92967,-4.7647 -6.73974,-5.40282 -0.20239,-0.15943 -1.60615,-1.28072 -3.11946,-2.49175 -1.51332,-1.21103 -3.00366,-2.39908 -3.31187,-2.64013 -0.30821,-0.24103 -1.23283,-0.98775 -2.05473,-1.65937 -0.82189,-0.67161 -2.03307,-1.63597 -2.6915,-2.143 -0.65843,-0.50703 -1.7247,-1.37555 -2.36948,-1.93005 -0.64479,-0.55449 -1.29654,-1.01082 -1.44833,-1.01406 -0.1518,-0.003 -0.27599,9.36958 -0.27599,20.82849 v 20.83437 h 11.77551 11.77551 z M 42.373468,157.07799 c 0.927509,-0.76055 2.974011,-2.37844 4.547782,-3.59531 1.573771,-1.21688 3.047372,-2.37844 3.274671,-2.58125 0.398553,-0.35562 5.328531,-4.33745 6.475905,-5.23044 0.308599,-0.24018 1.656704,-1.31877 2.995793,-2.39688 1.339087,-1.0781 3.067894,-2.45799 3.841791,-3.06643 2.134719,-1.67832 4.310668,-3.45721 5.131029,-4.19474 0.404782,-0.36392 1.191349,-0.95704 1.747926,-1.31806 l 1.011959,-0.6564 v -6.59509 c 0,-3.6273 -0.135769,-6.59509 -0.301709,-6.59509 -0.165937,0 -0.818124,0.45633 -1.449302,1.01406 -0.63118,0.55774 -2.426773,2.00969 -3.990205,3.22657 -1.563435,1.21687 -3.022563,2.37843 -3.242502,2.58125 -0.397242,0.3663 -5.388803,4.40097 -6.462529,5.22364 -0.308599,0.23645 -1.74923,1.39801 -3.201402,2.58125 -1.452171,1.18325 -3.181149,2.5662 -3.842171,3.07323 -0.661022,0.50703 -2.318388,1.83453 -3.683039,2.95 -1.364651,1.11547 -3.927714,3.18969 -5.695698,4.60938 -1.767987,1.41968 -3.63804,2.93693 -4.155676,3.37165 l -0.941159,0.7904 1.550544,2.1596 c 0.852802,1.18778 2.14116,3.03077 2.863019,4.09553 0.721859,1.06477 1.430849,1.93594 1.575533,1.93594 0.144686,0 1.021935,-0.62226 1.94944,-1.38281 z m 126.711972,-0.55313 c 0.72186,-1.06476 2.01022,-2.90775 2.86302,-4.09553 l 1.55054,-2.1596 -0.94116,-0.7904 c -0.51763,-0.43472 -2.38769,-1.95197 -4.15567,-3.37165 -1.76799,-1.41969 -4.33105,-3.49391 -5.6957,-4.60938 -1.36465,-1.11547 -3.02391,-2.44297 -3.68725,-2.95 -0.66334,-0.50703 -1.39875,-1.09242 -1.63426,-1.30086 -0.39577,-0.35027 -3.11848,-2.54766 -6.0789,-4.90602 -0.67918,-0.54106 -1.85054,-1.48156 -2.60303,-2.08999 -0.75249,-0.60844 -2.09031,-1.68704 -2.97294,-2.39688 -0.88262,-0.70984 -2.69193,-2.16516 -4.02068,-3.23403 -1.32876,-1.06887 -2.90695,-2.35488 -3.5071,-2.85781 -0.60015,-0.50292 -1.22113,-0.91441 -1.37994,-0.91441 -0.15882,0 -0.28876,2.96779 -0.28876,6.59509 v 6.59509 l 1.01196,0.6564 c 0.55657,0.36102 1.34314,0.95414 1.74792,1.31806 0.97248,0.87429 3.42262,2.86063 4.94676,4.01036 0.67215,0.50703 1.82122,1.43728 2.55348,2.06722 0.73227,0.62993 2.17833,1.7915 3.21347,2.58125 1.62296,1.23822 6.4659,5.10532 15.04367,12.01241 1.21349,0.97714 2.3224,1.77662 2.46423,1.77662 0.14183,0 0.84848,-0.87117 1.57034,-1.93594 z M 87.380821,91.556004 C 97.460664,82.95261 103.46243,78.073298 103.96514,78.073298 c 0.64619,0 21.85382,17.672519 33.64339,28.035352 1.11388,0.97908 2.15776,1.69806 2.31975,1.59774 0.16199,-0.10032 1.53437,-1.84395 3.04973,-3.87473 2.51004,-3.36376 3.22788,-4.736592 2.47923,-4.741372 -0.1518,-0.001 -0.86497,-0.54027 -1.58484,-1.19844 -0.71986,-0.658169 -2.78977,-2.441205 -4.5998,-3.962299 -1.81003,-1.521093 -3.45656,-2.949345 -3.65895,-3.173882 -0.20239,-0.224543 -4.42502,-3.868997 -9.38361,-8.098789 -4.9586,-4.229786 -11.19852,-9.559097 -13.86651,-11.842914 -6.88574,-5.894244 -7.90824,-6.395627 -10.40473,-5.101952 -0.57842,0.299732 -6.424936,5.153402 -12.992272,10.785938 -6.56733,5.632535 -12.81479,10.987693 -13.883237,11.900349 -1.068443,0.912657 -2.398719,2.074218 -2.956164,2.581251 -0.557441,0.50703 -3.018932,2.645843 -5.469975,4.75292 -2.451047,2.107075 -4.456446,3.968988 -4.456446,4.137578 0,0.323912 4.012705,5.839202 5.261288,7.231412 l 0.734313,0.81878 1.694005,-1.44076 c 0.9317,-0.79242 8.802431,-7.507992 17.490509,-14.923476 z M 106.36657,54.473298 c 0.0114,-8.481179 -0.13998,-8.249006 5.49036,-8.421689 l 4.06954,-0.124814 v -2.515998 -2.516 l -4.08106,-0.124811 c -5.39283,-0.164933 -5.48655,-0.265391 -5.48655,-5.881291 v -4.015398 h -2.57589 -2.57589 l -0.006,4.148438 c -0.003,2.281639 -0.1273,4.331017 -0.27599,4.554171 -0.61126,0.917334 -2.059326,1.253641 -5.397952,1.253641 h -3.520046 v 2.58125 2.581251 h 3.63022 c 3.115392,0 3.767722,0.108385 4.599808,0.764263 l 0.96959,0.764265 v 6.704774 6.704774 l 2.57541,-0.0019 2.57543,-0.0019 0.009,-6.453126 z"
       id="path1060" /><path
       style="fill:#1a1a1a;stroke:#1a1a1a;stroke-width:0;stroke-linecap:square;stroke-miterlimit:3.6;stroke-dasharray:none;paint-order:stroke fill markers"
       d="m 93.98546,130.81014 c -0.430042,-0.17403 -0.968219,-0.85202 -1.195951,-1.50665 -0.516906,-1.48588 -0.549786,-13.97524 -0.04556,-17.30519 1.06036,-7.0027 6.532365,-11.23228 13.243521,-10.23655 4.61336,0.68449 8.3927,4.88849 9.20252,10.23655 0.50359,3.32577 0.47135,15.81928 -0.0447,17.30256 -0.23947,0.68837 -0.79096,1.33155 -1.3119,1.53002 -1.12425,0.42833 -18.783885,0.40987 -19.847979,-0.0207 z m 17.15721,-11.76056 c 0,-8.98847 -0.30949,-10.03059 -3.65388,-12.30354 -1.31796,-0.89572 -5.72569,-0.89572 -7.04365,0 -3.344386,2.27295 -3.653876,3.31507 -3.653876,12.30354 v 7.32997 h 7.175706 7.1757 z"
       id="path1062" /><path
       style="fill:#ffcc00;stroke:#ffcc00;stroke-width:3.11438;stroke-linecap:square;stroke-miterlimit:3.6;stroke-dasharray:none;paint-order:stroke fill markers"
       d="m 101.20708,53.941081 c 0,-8.323955 0.25552,-7.949033 -5.417653,-7.949033 h -3.78196 v -2.581251 -2.58125 h 3.78196 c 5.431303,0 5.417653,0.014 5.417653,-5.552161 v -4.404089 h 2.57589 2.57589 v 4.170146 c 0,5.553656 -0.0684,5.474023 5.01091,5.828626 2.2026,0.153769 4.12892,0.290076 4.28071,0.302903 0.15179,0.01284 0.27599,1.018949 0.27599,2.235825 0,1.216874 -0.1242,2.222997 -0.27599,2.235823 -0.15179,0.01284 -2.05841,0.147874 -4.23692,0.300104 -2.29154,0.160126 -4.15265,0.468512 -4.41581,0.731705 -0.31937,0.319395 -0.48908,2.482055 -0.56964,7.259273 l -0.11476,6.804347 h -2.55313 -2.55314 z"
       id="path1133" /><path
       style="fill:#d5e5ff;stroke:#d5e5ff;stroke-width:0.41525;stroke-linecap:square;stroke-miterlimit:3.6;stroke-dasharray:none;paint-order:stroke fill markers"
       d="m 99.173474,172.93424 c 0.1957,-6.05029 0.41614,-8.67003 0.79072,-9.39688 0.674916,-1.30964 2.292876,-2.12656 4.211786,-2.12656 1.29069,0 1.7597,0.22668 2.96215,1.43162 l 1.42864,1.43162 v 5.14923 c 0,2.83208 0.1076,6.66817 0.2391,8.52463 l 0.23909,3.3754 h -5.07142 -5.071416 z"
       id="path1342" /><path
       style="fill:#d5e5ff;stroke:#d5e5ff;stroke-width:0.726688;stroke-linecap:square;stroke-miterlimit:3.6;stroke-dasharray:none;paint-order:stroke fill markers"
       d="m 96.961464,118.91236 c 0.30709,-8.68549 0.63879,-9.90744 3.139506,-11.56578 1.27014,-0.84228 1.93686,-1.01781 3.866,-1.01781 1.91299,0 2.59881,0.17749 3.8232,0.98944 2.28487,1.5152 2.69858,2.65967 3.02481,8.36759 0.15648,2.73797 0.29423,6.26414 0.3061,7.83594 l 0.0216,2.85781 h -7.22261 -7.222606 z"
       id="path1344" /><path
       style="fill:#c83737;stroke:#c83737;stroke-width:1.24575;stroke-linecap:square;stroke-miterlimit:3.6;stroke-dasharray:none;paint-order:stroke fill markers"
       d="m 66.347934,105.28513 c -1.006576,-1.27666 -2.30533,-3.0486 -2.886119,-3.93765 l -1.055984,-1.616442 1.128839,-0.96481 c 0.62086,-0.53064 5.806141,-5.021133 11.522843,-9.978871 15.95313,-13.83514 26.210847,-22.432545 27.529457,-23.073528 2.25673,-1.097012 2.54171,-0.887798 24.3487,17.875362 5.54908,4.774541 11.954,10.257387 14.23316,12.184107 2.27917,1.92672 4.15574,3.69364 4.17017,3.9265 0.0405,0.653182 -5.12138,7.504752 -5.65395,7.504752 -0.25898,0 -3.10878,-2.28164 -6.33289,-5.07031 -15.25361,-13.19351 -28.55449,-24.060942 -29.4487,-24.060942 -0.86497,0 -11.391121,8.69632 -35.126224,29.019992 -0.531221,0.45487 -0.806712,0.24982 -2.429302,-1.80816 z"
       id="path2141" /><path
       style="fill:#c83737;stroke:#c83737;stroke-width:1.24575;stroke-linecap:square;stroke-miterlimit:3.6;stroke-dasharray:none;paint-order:stroke fill markers"
       d="m 157.49187,150.31969 c -5.3541,-4.2748 -12.26002,-9.78734 -15.34649,-12.25009 l -5.61177,-4.47774 0.0432,-2.59209 c 0.0238,-1.42565 0.14797,-4.21923 0.27599,-6.20795 l 0.23277,-3.61585 17.84726,14.39694 c 9.81598,7.91832 17.82845,14.62278 17.80547,14.89881 -0.0482,0.57882 -4.92451,7.62033 -5.27717,7.62033 -0.129,0 -4.61518,-3.49756 -9.96928,-7.77236 z"
       id="path2143" /><path
       style="fill:#c83737;stroke:#c83737;stroke-width:1.24575;stroke-linecap:square;stroke-miterlimit:3.6;stroke-dasharray:none;paint-order:stroke fill markers"
       d="m 37.775584,154.58659 c -1.354458,-1.92801 -2.545466,-3.72173 -2.64669,-3.98606 -0.187106,-0.48861 0.657691,-1.19209 23.759951,-19.78539 l 11.9595,-9.62531 0.232767,3.60892 c 0.12802,1.98491 0.252215,4.77973 0.275988,6.21071 l 0.04322,2.60177 -14.075414,11.24763 C 42.66819,156.571 40.725247,158.09205 40.421178,158.09205 c -0.100622,0 -1.29114,-1.57746 -2.645598,-3.50546 z"
       id="path2145" /><path
       style="fill:#c83737;stroke:#c83737;stroke-width:1.6707;stroke-linecap:square;stroke-miterlimit:3.6;stroke-dasharray:none;paint-order:stroke fill markers"
       d="m 89.799557,169.194 c 0,-9.36291 0.104912,-12.16979 0.459983,-12.30684 0.252989,-0.0976 3.356032,-2.35556 6.895654,-5.01757 3.539616,-2.66202 6.604916,-4.84004 6.811776,-4.84004 0.20685,0 3.27215,2.17802 6.81177,4.84004 3.53962,2.66201 6.64266,4.91992 6.89566,5.01757 0.35506,0.13705 0.45998,2.94393 0.45998,12.30684 v 12.1293 h -2.20791 c -1.5108,0 -2.21395,-0.14553 -2.22705,-0.46093 -0.0105,-0.25352 -0.15441,-4.19454 -0.31975,-8.75782 -0.22408,-6.18481 -0.4486,-8.64885 -0.88198,-9.67954 -1.58394,-3.76701 -4.58235,-5.8043 -8.53072,-5.79626 -3.81701,0.008 -6.751866,1.93652 -8.369978,5.50063 -0.70415,1.55098 -1.008136,5.68547 -1.363776,18.54861 -0.01495,0.54089 -0.375101,0.64531 -2.225749,0.64531 h -2.20791 z"
       id="path2147" /><path
       style="fill:#e9c6af;stroke:#e9c6af;stroke-width:1.6707;stroke-linecap:square;stroke-miterlimit:3.6;stroke-dasharray:none;paint-order:stroke fill markers"
       d="M 75.81614,144.33842 V 107.35354 L 89.464371,95.620302 c 7.506523,-6.45328 13.940459,-11.809815 14.297619,-11.90341 0.69347,-0.181724 2.22451,1.012301 9.78216,7.62891 2.43397,2.130905 7.60875,6.598706 11.49952,9.928438 l 7.07412,6.05407 v 36.9975 36.99749 h -4.7838 -4.7838 l -0.013,-12.62969 c -0.01,-9.22137 -0.13365,-12.83588 -0.45998,-13.39377 -0.63066,-1.07814 -2.49927,-2.65599 -9.64657,-8.14551 -6.74688,-5.18197 -7.46909,-5.65603 -8.61665,-5.65603 -1.21669,0 -17.016883,12.12381 -17.957202,13.77894 -0.325874,0.57359 -0.450476,4.20783 -0.459983,13.41637 l -0.01303,12.62969 h -4.783803 -4.783799 z m 38.85734,-13.94194 c 0.65098,-0.72138 0.70101,-1.45172 0.70101,-10.23282 v -9.45598 l -1.05962,-2.29891 c -1.18541,-2.57181 -3.74795,-5.22902 -5.98605,-6.20722 -0.89071,-0.3893 -2.4453,-0.628 -4.18072,-0.64193 -5.615416,-0.0451 -9.796185,3.25603 -11.225695,8.86371 -0.470911,1.84728 -0.563744,3.9512 -0.474245,10.74803 0.101424,7.70248 0.173381,8.51983 0.812288,9.22654 0.67967,0.7518 1.005552,0.7754 10.706522,0.7754 9.70717,0 10.02641,-0.0232 10.70651,-0.77682 z"
       id="path2287" /><path
       style="fill:#e9c6af;stroke:#e9c6af;stroke-width:1.6707;stroke-linecap:square;stroke-miterlimit:3.6;stroke-dasharray:none;paint-order:stroke fill markers"
       d="m 136.58237,172.01236 c 0.0268,-5.12101 0.15101,-14.41435 0.27599,-20.65186 l 0.22723,-11.34092 11.49952,9.22416 11.49952,9.22417 v 11.42769 11.4277 h -11.77551 -11.77551 z"
       id="path2289" /><path
       style="fill:#e9c6af;stroke:#e9c6af;stroke-width:1.6707;stroke-linecap:square;stroke-miterlimit:3.6;stroke-dasharray:none;paint-order:stroke fill markers"
       d="m 47.849304,169.89327 v -11.43003 l 11.499521,-9.2018 11.49952,-9.2018 0.227233,11.32089 c 0.124977,6.2265 0.249172,15.51082 0.275988,20.63183 l 0.04876,9.31094 H 59.624813 47.849304 Z"
       id="path2291" /></g></svg>
