<?xml version="1.0" encoding="UTF-8" standalone="no"?>
<!-- Created with Inkscape (http://www.inkscape.org/) -->

<svg
   width="210mm"
   height="297mm"
   viewBox="0 0 210 297"
   version="1.1"
   id="svg5"
   inkscape:version="1.2.1 (9c6d41e410, 2022-07-14)"
   sodipodi:docname="strom.svg"
   inkscape:export-filename="cesta.png"
   inkscape:export-xdpi="68.26387"
   inkscape:export-ydpi="68.26387"
   xmlns:inkscape="http://www.inkscape.org/namespaces/inkscape"
   xmlns:sodipodi="http://sodipodi.sourceforge.net/DTD/sodipodi-0.dtd"
   xmlns="http://www.w3.org/2000/svg"
   xmlns:svg="http://www.w3.org/2000/svg">
  <sodipodi:namedview
     id="namedview7"
     pagecolor="#ffffff"
     bordercolor="#000000"
     borderopacity="0.25"
     inkscape:showpageshadow="2"
     inkscape:pageopacity="0.0"
     inkscape:pagecheckerboard="0"
     inkscape:deskcolor="#d1d1d1"
     inkscape:document-units="mm"
     showgrid="false"
     inkscape:zoom="1.087256"
     inkscape:cx="544.48996"
     inkscape:cy="488.38542"
     inkscape:window-width="1920"
     inkscape:window-height="1017"
     inkscape:window-x="-8"
     inkscape:window-y="-8"
     inkscape:window-maximized="1"
     inkscape:current-layer="layer1" />
  <defs
     id="defs2">
    <clipPath
       clipPathUnits="userSpaceOnUse"
       id="clipPath5857">
      <path
         id="path5859"
         style="fill:#ff0000;fill-opacity:1;fill-rule:nonzero;stroke:none;stroke-width:0.264583"
         d="m 53.441698,89.478776 c -0.257813,0.225401 -0.54487,0.445662 -0.864545,0.658357 -1.184362,0.788004 -2.457931,1.426406 -3.780647,1.950268 -0.666149,0.249195 -1.340964,0.48242 -1.992127,0.769464 v 6.621817 h 9.999906 v -9.999906 z" />
    </clipPath>
    <clipPath
       clipPathUnits="userSpaceOnUse"
       id="clipPath5901">
      <path
         id="path5903"
         style="fill:#ff0000;fill-opacity:1;fill-rule:nonzero;stroke:none;stroke-width:0.264583"
         d="m 30.629138,66.420751 v 9.999906 h 2.658753 c 0.618048,-0.464045 1.428525,-0.862544 2.446361,-1.145148 1.578758,-0.438346 3.143059,-0.920396 4.696873,-1.439707 0.06611,-0.02188 0.131921,-0.04445 0.197921,-0.06666 v -7.348389 z" />
    </clipPath>
    <clipPath
       clipPathUnits="userSpaceOnUse"
       id="clipPath5997">
      <path
         id="path5999"
         style="fill:#ff0000;fill-opacity:1;fill-rule:nonzero;stroke:none;stroke-width:0.246815"
         d="m 36.215878,57.06523 v 18.074923 c 1.415386,-0.401643 2.819677,-0.838047 4.21527,-1.304477 1.243199,-0.411667 2.465461,-0.880895 3.69001,-1.344009 0.98581,-0.372817 1.876704,-0.531769 2.653747,-0.52551 2.567812,0.02066 3.894824,1.845819 3.31837,3.720436 0.534135,1.01328 0.395412,2.376659 -0.656177,3.632074 0.143894,-0.05106 0.287861,-0.102576 0.431822,-0.153466 0.894327,-0.316121 1.707831,-0.460861 2.427805,-0.469707 3.552452,-0.04364 4.827377,3.218118 2.310613,5.492876 0.969793,1.195159 0.941613,3.185768 -0.7966,4.942948 0.144823,1.371834 -0.387552,3.101462 -1.928942,4.835986 -0.119849,0.134867 -0.237745,0.271425 -0.354748,0.409248 h 30.83931 V 57.06523 Z m 0,32.670658 v 4.640664 h 6.062386 c 0.158695,-0.185742 0.316622,-0.372413 0.472997,-0.56039 -2.017676,-0.291477 -3.003967,-2.022989 -2.352842,-3.842514 -1.784578,0.557586 -3.227462,0.365924 -4.182541,-0.23776 z" />
    </clipPath>
    <clipPath
       clipPathUnits="userSpaceOnUse"
       id="clipPath6368">
      <path
         id="path6370"
         style="fill:#ff0000;fill-opacity:1;fill-rule:nonzero;stroke:none;stroke-width:0.264583"
         d="M 61.958493,56.819787 V 170.71826 h 22.937618 c 0.316304,-0.0825 0.626335,-0.16671 0.903303,-0.27543 1.240597,-0.48702 2.532745,-0.83521 3.819922,-1.18081 0.246224,-0.0661 0.500324,-0.13016 0.753443,-0.1943 -1.126167,-0.48387 -2.234287,-1.00543 -3.310911,-1.58699 -1.348748,-0.72855 -3.818646,-2.33213 -4.671031,-3.65404 -0.597638,-0.92684 -0.756967,-2.07194 -1.135332,-3.10782 0.304297,-0.98253 0.394242,-2.05952 0.913122,-2.94762 0.392586,-0.67194 1.082852,-1.13433 1.727028,-1.57097 0.03986,-0.027 0.08326,-0.0483 0.124023,-0.0739 -3.882728,-0.62983 -4.62475,-3.96759 -2.225704,-5.68596 -0.406556,-0.23827 -0.83381,-0.47245 -1.132231,-0.83406 -0.512636,-0.62119 -1.151716,-1.27791 -1.230416,-2.07946 -0.113374,-1.15477 0.460883,-2.27397 0.69143,-3.41116 0.781836,-0.5824 1.479672,-1.29925 2.345595,-1.74718 0.188976,-0.0978 0.42717,-0.19072 0.693497,-0.27905 -0.486426,-0.25646 -0.865664,-0.53845 -0.691946,-0.95188 0.131434,-0.31283 0.288112,-0.61508 0.461986,-0.90847 -4.94801,-0.65683 -5.535851,-5.45427 0.366387,-6.57066 0.150006,-0.0284 0.299328,-0.0599 0.449583,-0.0868 -0.826344,-0.22702 -2.381454,-0.65485 -2.803962,-0.80408 -2.192422,-0.77443 -3.227356,-1.59243 -2.393654,-4.74287 -0.175781,-0.0576 -0.32998,-0.10876 -0.429947,-0.14417 -0.82168,-0.2911 -2.221553,-0.11069 -2.434477,-0.95602 -0.540985,-2.14774 0.350515,-4.41598 0.52555,-6.62388 0.319778,-0.0252 0.638834,-0.0669 0.958599,-0.092 -0.854271,-1.89991 0.568825,-4.25266 4.519104,-4.38164 0.434012,-0.0142 0.867524,-0.0494 1.301729,-0.0424 0.21612,0.003 0.431999,0.0124 0.64802,0.0191 -2.979219,-1.05851 -3.889007,-3.28053 -3.121771,-4.86533 -5.797605,-0.48563 -5.487977,-6.66611 0.930175,-6.7846 0.463134,-0.009 0.926618,-0.0132 1.389578,-0.014 3.240728,-0.005 6.477159,0.17022 9.712071,0.36018 6.006375,0.36169 11.982216,1.07688 17.939986,1.90324 V 56.819787 Z m 35.409724,54.884503 c 1.679009,0.28227 3.360293,0.55118 5.042073,0.81287 2.59833,0.391 5.20847,0.69158 7.81864,0.98961 0.0882,0.0101 0.17429,0.022 0.25993,0.0341 v -0.25476 c -0.1326,-0.0207 -0.0794,-0.0124 -0.23823,-0.0372 -4.2831,-0.60101 -8.57566,-1.14735 -12.882413,-1.54461 z M 106.1651,125.69 c 0.0146,1.05601 -0.37154,2.09388 -0.86145,3.10214 1.03171,0.32818 2.05859,0.67238 3.07733,1.0418 1.32691,0.57533 0.70036,0.25557 1.88516,0.94826 0.0788,0.046 0.15184,0.0922 0.22272,0.13849 v -4.60954 c -1.44225,-0.19977 -2.88355,-0.40694 -4.32376,-0.62115 z m 0.25321,15.10141 c 10e-4,0.54262 0.0201,1.08781 0.0357,1.63245 0.32333,0.19559 0.63718,0.40883 0.93844,0.64441 0.58925,0.46079 1.32474,0.90176 1.56166,1.61127 0.43846,1.31313 0.73706,2.8062 0.35812,4.13773 -0.31693,1.11363 -1.52066,1.74679 -2.281,2.62 -0.15198,0.0776 -0.30282,0.15734 -0.45372,0.23719 0.002,0.32728 -0.0177,0.62719 -0.0563,0.90382 0.70649,-0.002 1.25077,-0.0229 1.63039,-0.0181 1.42899,0.018 0.82225,0.42613 0.29249,3.75326 0.5972,2.77256 1.04227,3.09424 -0.36587,3.10058 -1.79314,0.11675 -3.58374,0.26042 -5.3728,0.42375 0.17384,0.21298 0.31328,0.43926 0.41651,0.67438 0.12289,0.0176 0.23738,0.0328 0.36329,0.0512 1.35546,0.19789 4.71576,0.67958 7.0037,1.28571 V 140.9108 c -0.10894,0.006 -0.21795,0.0121 -0.32711,0.014 -0.99378,0.0177 -2.47069,-0.0599 -3.74344,-0.13332 z m -21.506179,3.54603 c -0.03778,4e-5 -0.06689,0.009 -0.04909,0.0264 0.110128,0.1103 0.267671,0.19834 0.448035,0.27131 -0.102195,-0.0898 -0.204478,-0.17888 -0.296624,-0.27131 -0.01778,-0.0178 -0.06454,-0.0264 -0.102317,-0.0264 z m 2.667537,17.58446 c -0.307186,0.11438 -0.574294,0.24807 -0.670245,0.38964 -0.06888,0.10159 0.278262,0.0544 0.366903,-0.0305 0.11352,-0.10879 0.211789,-0.23116 0.303342,-0.35915 z" />
    </clipPath>
  </defs>
  <g
     inkscape:label="Vrstva 1"
     inkscape:groupmode="layer"
     id="layer1">
    <path
       style="fill:#220055;fill-rule:evenodd;stroke:#220055;stroke-width:1.5;stroke-linecap:butt;stroke-linejoin:miter;stroke-dasharray:none;stroke-opacity:1"
       d="M 67.953482,71.177001 78.36693,58.822999"
       id="path6538"
       inkscape:connector-type="polyline"
       inkscape:connector-curvature="0"
       inkscape:connection-start="#path344-5"
       inkscape:connection-end="#path344" />
    <path
       style="fill:#220055;fill-rule:evenodd;stroke:#220055;stroke-width:1.5;stroke-linecap:butt;stroke-linejoin:miter;stroke-dasharray:none;stroke-opacity:1"
       d="M 87.900537,92.354405 96.625765,78.284982"
       id="path6538-6"
       inkscape:connector-type="polyline"
       inkscape:connector-curvature="0" />
    <path
       style="fill:#220055;fill-rule:evenodd;stroke:#220055;stroke-width:1.5;stroke-linecap:butt;stroke-linejoin:miter;stroke-dasharray:none;stroke-opacity:1"
       d="M 111.59455,91.134051 103.10711,78.288589"
       id="path6538-0"
       inkscape:connector-type="polyline"
       inkscape:connector-curvature="0" />
    <path
       style="fill:#220055;fill-rule:evenodd;stroke:#220055;stroke-width:1.5;stroke-linecap:butt;stroke-linejoin:miter;stroke-dasharray:none;stroke-opacity:1"
       d="M 96.729047,71.913521 84.877066,58.086483"
       id="path6538-63"
       inkscape:connector-type="polyline"
       inkscape:connector-curvature="0" />
    <circle
       style="fill:#800080;stroke:#800080;stroke-width:0;stroke-miterlimit:1;paint-order:fill markers stroke"
       id="path344-5-3"
       cx="113.64426"
       cy="95"
       r="4.9999995" />
    <circle
       style="fill:#800080;stroke:#800080;stroke-width:0;stroke-miterlimit:1;paint-order:fill markers stroke"
       id="path344-5-1"
       cx="86.632462"
       cy="95"
       r="4.9999995" />
    <circle
       style="fill:#800080;stroke:#800080;stroke-width:0;stroke-miterlimit:1;paint-order:fill markers stroke"
       id="path342"
       cx="100"
       cy="75"
       r="4.9999995" />
    <circle
       style="fill:#800080;stroke:#800080;stroke-width:0;stroke-miterlimit:1;paint-order:fill markers stroke"
       id="path344"
       cx="81.589417"
       cy="55"
       r="4.9999995" />
    <circle
       style="fill:#800080;stroke:#800080;stroke-width:0;stroke-miterlimit:1;paint-order:fill markers stroke"
       id="path344-5"
       cx="64.730995"
       cy="75"
       r="4.9999995" />
  </g>
</svg>
