<?xml version="1.0" encoding="UTF-8" standalone="no"?>
<!-- Created with Inkscape (http://www.inkscape.org/) -->

<svg
   width="210mm"
   height="297mm"
   viewBox="0 0 210 297"
   version="1.1"
   id="svg5"
   xml:space="preserve"
   inkscape:version="1.2.1 (9c6d41e410, 2022-07-14)"
   sodipodi:docname="domov.svg"
   inkscape:export-filename="domov.png"
   inkscape:export-xdpi="96"
   inkscape:export-ydpi="96"
   xmlns:inkscape="http://www.inkscape.org/namespaces/inkscape"
   xmlns:sodipodi="http://sodipodi.sourceforge.net/DTD/sodipodi-0.dtd"
   xmlns="http://www.w3.org/2000/svg"
   xmlns:svg="http://www.w3.org/2000/svg"><sodipodi:namedview
     id="namedview7"
     pagecolor="#ffffff"
     bordercolor="#000000"
     borderopacity="0.25"
     inkscape:showpageshadow="2"
     inkscape:pageopacity="0.0"
     inkscape:pagecheckerboard="0"
     inkscape:deskcolor="#d1d1d1"
     inkscape:document-units="mm"
     showgrid="false"
     inkscape:zoom="0.74564394"
     inkscape:cx="167.64034"
     inkscape:cy="382.21996"
     inkscape:window-width="1920"
     inkscape:window-height="1017"
     inkscape:window-x="-8"
     inkscape:window-y="-8"
     inkscape:window-maximized="1"
     inkscape:current-layer="layer1" /><defs
     id="defs2" /><g
     inkscape:label="Vrstva 1"
     inkscape:groupmode="layer"
     id="layer1"><path
       style="fill:#000000;stroke:#333333;stroke-width:0;stroke-linecap:square;stroke-miterlimit:3.6;paint-order:stroke fill markers;stroke-dasharray:none"
       d="m 172.10145,681.91227 c -11.0069,-2.19783 -17.10332,-7.06365 -21.78302,-17.38598 -2.69456,-5.94358 -2.73647,-8.05869 -2.76548,-139.54032 l -0.0294,-133.50527 -8.47644,0.53975 c -13.71461,0.87327 -25.35143,-4.96358 -32.90784,-16.5061 -8.476056,-12.94729 -9.32964,-23.54853 -2.92531,-36.33139 3.51934,-7.02448 6.9627,-10.44176 30.28345,-30.05418 26.91898,-22.63847 27.65421,-23.25008 36.27471,-30.17526 2.75457,-2.21285 6.67013,-5.53213 8.70123,-7.37618 5.31297,-4.82367 10.94585,-9.56251 15.94141,-13.41122 2.39353,-1.84405 5.08305,-4.03932 5.97671,-4.87838 1.71023,-1.60574 26.41489,-22.27283 88.62052,-74.13698 40.86364,-34.07019 39.91751,-33.27219 45.24999,-38.16548 2.02135,-1.85487 4.51243,-3.85835 5.53574,-4.45219 1.70645,-0.99027 12.971,-10.37144 18.20533,-15.16149 16.15434,-14.78316 30.75492,-19.49144 45.27065,-14.59849 4.71965,1.5909 16.46476,9.36223 21.82455,14.44055 1.25944,1.19329 4.22877,3.67839 6.59852,5.52243 2.36975,1.84405 6.03658,4.86157 8.14852,6.70562 9.26125,8.08647 20.59575,17.58928 51.00566,42.76302 l 27.49302,22.75908 0.67575,-21.69679 c 0.63667,-20.44234 0.8813,-22.04572 4.23103,-27.73184 8.23755,-13.98318 14.01036,-16.09347 44.02447,-16.09347 26.10402,0 32.78961,1.49697 40.07933,8.97415 7.97909,8.1843 8.2203,10.45428 8.22553,77.40613 l 0.005,60.47265 30.22452,25.48133 c 27.10041,22.84749 30.63482,26.30056 34.1939,33.40699 5.57304,11.12766 5.52622,20.96491 -0.15044,31.61543 -7.89348,14.80968 -20.3206,22.20032 -35.68415,21.22206 l -8.47708,-0.53975 v 96.63225 96.63223 l 7.0409,3.16689 c 9.22083,4.14738 16.53385,11.28816 19.32717,18.87198 1.32256,3.59072 4.84585,8.60582 8.547,12.1659 8.69324,8.36191 13.36535,17.97842 13.36535,27.50965 0,14.07716 -9.88603,28.77828 -22.7201,33.78614 -5.77213,2.25229 -19.46371,2.39685 -244.83388,2.58496 -131.29591,0.10957 -241.23862,-0.30371 -244.31714,-0.91843 z m 142.03445,-131.71669 0.35737,-114.33071 3.10672,-5.9122 c 2.98027,-5.67156 6.88263,-9.65763 12.87508,-13.15127 4.00667,-2.33592 118.25884,-2.33592 122.26551,0 5.99245,3.49364 9.8948,7.47971 12.87507,13.15127 l 3.10673,5.9122 0.35737,114.33071 0.35738,114.33071 h 22.81142 22.81144 l -2.34601,-4.35865 c -1.5812,-2.93769 -2.35756,-7.41917 -2.38141,-13.74651 -0.0308,-8.17052 0.52182,-10.34433 4.26172,-16.76403 4.43977,-7.62109 11.01667,-13.75747 17.30933,-16.14992 1.98886,-0.75617 5.92761,-4.00085 8.75278,-7.21043 2.82518,-3.20956 7.49087,-6.77752 10.36821,-7.92881 3.9367,-1.57516 5.93011,-3.53635 8.05411,-7.92394 3.50578,-7.24197 9.58974,-13.17042 18.13906,-17.67539 9.29939,-4.90021 24.3112,-4.94282 32.79465,-0.0931 3.21016,1.83515 6.37857,3.33665 7.04089,3.33665 0.70098,0 1.18357,-40.77364 1.15479,-97.56668 l -0.0495,-97.56667 -44.83102,-37.55144 c -24.65706,-20.65329 -46.59766,-39.06019 -48.75686,-40.90424 -2.15921,-1.84404 -5.95234,-5.0341 -8.42915,-7.08903 -2.4768,-2.0549 -5.40854,-4.53272 -6.51497,-5.50624 -1.10643,-0.97352 -18.60808,-15.60976 -38.89256,-32.52498 -20.28448,-16.91522 -46.03552,-38.42673 -57.22454,-47.80336 -11.18901,-9.37664 -21.07825,-17.04844 -21.97606,-17.04844 -0.89783,0 -10.75359,7.67787 -21.9017,17.06192 -11.14812,9.38406 -36.86569,30.88767 -57.15018,47.78582 -20.28448,16.89814 -37.78613,31.52832 -38.89255,32.51148 -1.10643,0.98318 -3.8222,3.28607 -6.03505,5.11754 -11.93919,9.8815 -85.55531,71.74026 -91.68774,77.04413 -3.95835,3.42354 -8.03201,6.70722 -9.05258,7.29709 -1.56112,0.90229 -1.85557,23.05965 -1.85557,139.63117 0,138.14539 0.008,138.56924 2.77958,142.09237 l 2.77959,3.53367 h 71.63063 71.63063 z m 137.50951,0.88942 -0.35763,-113.44129 -3.76287,-3.23638 -3.76288,-3.23639 h -52.66578 -52.66578 l -3.25131,3.46049 -3.2513,3.46048 -0.35762,113.21719 -0.35761,113.21719 h 60.39519 60.3952 z m 207.36232,110.64062 c 8.50221,-6.68783 9.95196,-17.59401 3.51921,-26.47416 -2.20606,-3.04538 -5.53942,-5.92067 -7.40746,-6.38951 -4.15205,-1.04211 -7.35551,-5.34847 -7.36224,-9.89696 -0.007,-4.86659 -4.54264,-11.6157 -9.54374,-14.20186 -3.24855,-1.67989 -6.14691,-2.01649 -11.82857,-1.37368 -8.25069,0.93347 -11.09565,-0.27184 -13.89501,-5.88681 -2.80925,-5.6348 -12.45776,-11.43203 -19.02668,-11.43203 -8.30971,0 -16.73548,6.26317 -19.55142,14.53327 -2.78577,8.18146 -6.00667,11.48934 -12.14261,12.47052 -5.52998,0.88428 -8.0785,2.90573 -11.94382,9.47365 -1.76946,3.00666 -4.11183,4.71776 -7.82816,5.71847 -6.16766,1.66078 -12.90709,8.61719 -14.24358,14.70219 -1.34753,6.13533 0.2521,11.2126 5.25267,16.67194 l 4.47507,4.88564 h 58.98294 c 57.78351,0 59.05534,-0.057 62.5434,-2.80067 z M 146.58425,372.64118 c 2.36063,-1.21143 9.7236,-6.80607 16.36216,-12.43254 6.63855,-5.62646 19.01041,-15.89001 27.49301,-22.80787 8.4826,-6.91786 16.62992,-13.66446 18.10516,-14.99245 2.87018,-2.58371 9.30917,-8.06024 15.172,-12.90416 1.98204,-1.63759 15.97557,-13.40283 31.09673,-26.14499 78.06212,-65.78065 127.22563,-106.17728 131.43002,-107.9933 9.10494,-3.93275 7.1338,-5.40175 120.6792,89.93675 26.19743,21.9967 49.74397,41.79984 52.32563,44.00698 2.58166,2.20713 6.50444,5.50555 8.7173,7.32981 2.21285,1.82427 5.23037,4.41183 6.70561,5.75013 1.47523,1.33832 9.62255,8.09337 18.10516,15.01123 8.4826,6.91786 20.85445,17.18141 27.49301,22.80787 6.63856,5.62647 14.00152,11.22111 16.36215,12.43254 12.90882,6.62459 29.90658,-2.85804 29.90658,-16.68413 0,-8.77326 -3.41644,-13.99324 -15.28806,-23.35862 -2.80502,-2.21286 -5.92273,-4.79933 -6.92825,-5.74772 -1.87599,-1.76942 -31.36319,-26.43317 -120.61325,-100.88355 -28.02947,-23.38154 -65.74854,-55.03563 -83.82017,-70.34243 -18.07163,-15.30679 -34.66802,-28.97161 -36.88087,-30.36625 -5.43513,-3.42549 -17.33912,-3.43478 -22.79909,-0.0178 -2.21285,1.38486 -18.55679,14.81059 -36.31988,29.83497 -17.76308,15.02437 -34.78428,29.33433 -37.82492,31.79991 -3.04062,2.46557 -6.96928,5.78485 -8.73037,7.37617 -1.76108,1.59132 -5.4514,4.70383 -8.20069,6.91668 -2.74928,2.21285 -6.3879,5.23038 -8.0858,6.70561 -1.69789,1.47524 -4.33384,3.69963 -5.85766,4.9431 -1.52382,1.24348 -22.82205,19.04688 -47.32938,39.56312 -24.50734,20.51624 -53.96657,45.05658 -65.46497,54.53408 -11.49839,9.4775 -21.81142,18.08337 -22.91785,19.12416 -1.10643,1.0408 -4.82884,4.14957 -8.27202,6.9084 -10.41502,8.34494 -14.52786,14.4706 -14.52205,21.62919 0.0125,15.41015 16.11646,25.1394 29.90156,18.06511 z M 597.84953,209.93236 c -0.34923,-49.33851 -0.56944,-53.78847 -2.77087,-55.99187 -2.08084,-2.08271 -5.48444,-2.44776 -26.2027,-2.8104 -22.61019,-0.39574 -23.9947,-0.27245 -27.44851,2.44431 l -3.63725,2.86107 v 29.49394 29.49395 l 4.25962,3.6015 c 17.89757,15.13235 54.27818,44.50049 55.12915,44.50285 0.57747,10e-4 0.87923,-24.11631 0.67056,-53.59535 z"
       id="path983"
       transform="scale(0.26458333)" /><path
       style="fill:#000000;stroke:#333333;stroke-width:0;stroke-linecap:square;stroke-miterlimit:3.6;paint-order:stroke fill markers;stroke-dasharray:none"
       d="m 358.42541,575.36579 c -4.65279,-3.36278 -6.07709,-6.88274 -4.21544,-10.41786 2.36465,-4.49026 3.70311,-4.98622 13.51688,-5.00867 7.76866,-0.0178 9.25745,0.38053 11.06426,2.96011 2.70645,3.864 2.59755,6.33705 -0.45383,10.3061 -3.24296,4.21824 -15.2605,5.52207 -19.91187,2.16032 z"
       id="path989"
       transform="scale(0.26458333)" /><path
       style="fill:#800000;stroke:#333333;stroke-width:0;stroke-linecap:square;stroke-miterlimit:3.6;stroke-dasharray:none;paint-order:stroke fill markers"
       d="m 131.08203,372.92691 c -6.21402,-2.21741 -8.66218,-4.19156 -11.13998,-8.98311 -3.20489,-6.19757 -2.46254,-14.73514 1.76483,-20.29688 2.02845,-2.66873 41.17074,-36.1199 86.98286,-74.33594 45.81213,-38.21603 103.26606,-86.21196 127.67539,-106.6576 24.40934,-20.44565 46.05941,-37.59525 48.11127,-38.11024 4.74141,-1.19001 9.5223,-1.1898 14.2654,6.4e-4 2.05326,0.51534 23.71537,17.66495 48.13799,38.11024 24.42264,20.44529 63.17202,52.8644 86.10972,72.04245 141.98347,118.71132 132.20734,109.87999 132.20734,119.43038 0,7.80029 -2.718,12.9858 -8.76566,16.72347 -7.16835,4.43027 -17.12212,3.31756 -24.93938,-2.78797 C 622.33201,360.90828 576.004,322.32467 512.30886,268.8026 407.96353,181.12276 398.47072,173.67112 391.1316,173.68116 c -6.10925,0.008 -19.49726,10.60701 -119.55426,94.64542 -59.43313,49.91821 -111.44523,93.18101 -119.35992,99.2816 -4.6244,3.56446 -12.71899,7.36442 -15.28775,7.17675 -0.44315,-0.0323 -3.07458,-0.86849 -5.84764,-1.85802 z"
       id="path1060"
       transform="scale(0.26458333)" /><path
       style="fill:#aa0000;stroke:#aa0000;stroke-width:6.8031497;stroke-linecap:square;stroke-miterlimit:3.6;stroke-dasharray:none;paint-order:stroke fill markers"
       d="m 128.61322,370.90438 c -2.65567,-1.44339 -5.87956,-4.22847 -7.1642,-6.18908 -3.02979,-4.62403 -3.15706,-14.19375 -0.24782,-18.63379 2.99699,-4.57398 38.04321,-34.4734 145.68221,-124.28765 123.68515,-103.20318 118.16088,-99.01825 128.21739,-97.13164 6.03275,1.13175 19.41404,11.90252 136.65434,109.9948 108.74743,90.98649 128.8035,108.28518 131.42654,113.35758 3.56279,6.88967 -0.43009,18.5451 -7.62829,22.26744 -4.71727,2.4394 -12.04422,2.74556 -17.35783,0.72533 -4.24153,-1.61263 -12.29988,-8.21516 -120.5222,-98.74883 -115.30896,-96.46201 -118.02689,-98.58315 -126.31944,-98.58315 -7.79248,0 -11.20425,2.70873 -157.99857,125.44146 -43.88824,36.69437 -82.16023,68.21162 -85.04887,70.03837 -7.04872,4.45753 -13.63399,5.04243 -19.69326,1.74916 z"
       id="path1131"
       transform="scale(0.26458333)" /><path
       style="fill:#225500;stroke:#225500;stroke-width:7.55905522;stroke-linecap:square;stroke-miterlimit:3.6;stroke-dasharray:none;paint-order:stroke fill markers"
       d="m 533.31786,658.50814 c -8.35496,-10.94216 -5.54555,-22.12948 7.16541,-28.53322 3.31332,-1.66925 8.79677,-6.04466 12.18543,-9.72314 3.83933,-4.16769 7.28407,-6.68815 9.14075,-6.68815 5.02807,0 8.26159,-2.61981 11.30485,-9.15923 1.60322,-3.44503 3.81636,-7.53923 4.9181,-9.09824 2.80072,-3.96314 10.74519,-8.55967 14.74383,-8.53052 5.14873,0.0375 14.12764,4.63529 16.93009,8.66926 5.78183,8.32261 6.58268,8.73087 17.1267,8.73087 9.03367,0 10.27815,0.33775 13.97749,3.79344 2.56701,2.39795 4.87698,6.60069 6.27931,11.42454 1.91074,6.57272 2.92949,7.99386 7.34533,10.24666 6.42273,3.27663 10.76326,10.11186 10.75668,16.93902 -0.005,5.83441 -3.76937,12.97812 -8.0426,15.26509 -1.9028,1.01835 -21.79774,1.77237 -60.87125,2.30703 l -58.04459,0.79426 z"
       id="path1478"
       transform="scale(0.26458333)" /><path
       style="fill:#d5e5ff;stroke:#d5e5ff;stroke-width:0;stroke-linecap:square;stroke-miterlimit:3.6;stroke-dasharray:none;paint-order:stroke fill markers"
       d="m 134.48387,128.38888 v -14.53015 l 1.6463,0.22663 c 0.90546,0.12464 5.05707,0.22663 9.2258,0.22663 h 7.57951 v 14.07689 14.0769 h -7.57951 c -4.16873,0 -8.32034,0.10199 -9.2258,0.22663 l -1.6463,0.22663 z"
       id="path1618" /><path
       style="fill:#d5e5ff;stroke:#d5e5ff;stroke-width:0;stroke-linecap:square;stroke-miterlimit:3.6;stroke-dasharray:none;paint-order:stroke fill markers"
       d="m 218.93828,538.80156 -13.74651,-0.43464 v -52.92743 -52.92742 h 28.64696 c 15.75582,0 31.44696,-0.38379 34.86919,-0.85286 l 6.22223,-0.85285 v 54.49776 54.49776 l -21.12268,-0.28284 c -11.61748,-0.15556 -27.30861,-0.47843 -34.86919,-0.71748 z"
       id="path1620"
       transform="scale(0.26458333)" /><path
       style="fill:#000000;stroke:#333333;stroke-width:0;stroke-linecap:square;stroke-miterlimit:3.6;paint-order:stroke fill markers;stroke-dasharray:none"
       d="m 503.78274,555.85752 c -2.1077,-0.63162 -5.03614,-2.23796 -6.50763,-3.56964 -6.38214,-5.77576 -6.42421,-6.21321 -6.42421,-66.80147 0,-62.02754 -0.0418,-61.6521 7.53024,-67.60828 3.43811,-2.70441 5.00058,-2.80066 45.46584,-2.80066 h 41.90536 l 4.21487,4.31106 c 2.31817,2.37109 4.8382,6.44475 5.60006,9.05258 0.88474,3.02843 1.23645,24.64983 0.97348,59.84404 l -0.41172,55.10253 -3.77538,5.44604 c -2.91451,4.20424 -5.11411,5.78314 -9.64645,6.92439 -6.9456,1.74894 -73.14185,1.8323 -78.92446,0.0994 z m 74.9117,-70.37111 V 431.8415 l -35.20447,-0.35754 -35.20447,-0.35755 v 54.36 54.36 l 35.20447,-0.35754 35.20447,-0.35755 z"
       id="path987"
       transform="scale(0.26458333)" /><path
       style="fill:#000000;stroke:#333333;stroke-width:0;stroke-linecap:square;stroke-miterlimit:3.6;paint-order:stroke fill markers;stroke-dasharray:none"
       d="m 199.59972,555.68725 c -3.42921,-0.93963 -6.07244,-3.00878 -8.7173,-6.82405 l -3.79581,-5.47552 -0.41172,-55.10253 c -0.26297,-35.19421 0.0888,-56.81561 0.97348,-59.84404 0.76186,-2.60783 3.28189,-6.68149 5.60007,-9.05258 l 4.21486,-4.31106 h 41.90537 c 40.46525,0 42.02773,0.0962 45.46583,2.80066 7.5755,5.95889 7.53068,5.55458 7.52523,67.87696 -0.007,77.22159 4.60123,70.70332 -50.22448,71.04575 -21.85725,0.13651 -39.67569,-0.32997 -42.53553,-1.11359 z m 75.33043,-70.22311 v -54.33773 l -35.20447,0.35755 -35.20447,0.35754 -0.35134,52.30058 c -0.19323,28.76532 -0.0613,53.0564 0.29319,53.98019 0.49344,1.28588 8.82839,1.67961 35.55581,1.67961 h 34.91128 z"
       id="path985"
       transform="scale(0.26458333)" /><path
       style="fill:#fff6d5;stroke:#fff6d5;stroke-width:0;stroke-linecap:square;stroke-miterlimit:3.6;stroke-dasharray:none;paint-order:stroke fill markers"
       d="m 170.06373,662.17932 c -1.10863,-1.29083 -2.44888,-3.55397 -2.97833,-5.02921 -1.17741,-3.28068 -1.27003,-272.86252 -0.0947,-275.63586 0.46071,-1.08708 19.9412,-17.96942 43.28998,-37.51628 23.34879,-19.54687 68.4185,-57.2776 100.15492,-83.84609 68.1257,-57.03216 79.52205,-66.35965 81.07838,-66.35965 1.97253,0 26.10586,19.96513 169.40638,140.14732 l 55.96857,46.93929 0.0138,96.89612 c 0.008,53.29286 -0.31798,96.89611 -0.72341,96.89611 -0.40544,0 -2.48756,-0.90516 -4.62692,-2.01147 -17.67343,-9.13928 -40.59754,-2.59054 -51.70296,14.77004 -2.96084,4.62854 -7.24718,8.97145 -11.69063,11.8449 -3.85867,2.49529 -8.52453,6.18636 -10.36857,8.20239 -1.84404,2.01601 -5.50625,4.77006 -8.13821,6.12009 -6.07749,3.11736 -14.19198,12.06069 -17.44709,19.22914 -3.08314,6.78979 -3.35489,19.19859 -0.56659,25.87193 1.10642,2.64806 2.01168,5.04269 2.01168,5.32142 -5e-5,0.27873 -9.57016,0.50678 -21.26696,0.50678 h -21.26692 l -0.8616,-8.24347 c -0.47389,-4.5339 -0.86162,-56.36714 -0.86162,-115.18499 V 434.15632 l -4.35865,-6.42537 c -8.71039,-12.84057 -3.45508,-11.98292 -73.42647,-11.98292 -69.97138,0 -64.71607,-0.85765 -73.42646,11.98292 l -4.35865,6.42537 v 106.94151 c 0,58.81785 -0.38773,110.65109 -0.86162,115.18499 l -0.8616,8.24347 h -70.01004 c -65.01426,0 -70.15387,-0.16748 -72.02572,-2.34697 z M 281.56954,555.48438 c 7.03579,-2.43366 9.55489,-8.02465 10.86062,-24.10443 1.36308,-16.78612 0.14176,-98.98157 -1.57261,-105.83687 -0.68184,-2.72651 -2.82565,-6.2048 -4.76401,-7.72952 -3.42083,-2.69083 -4.80592,-2.76184 -47.17462,-2.41887 l -43.65031,0.35334 -4.42628,5.80403 -4.42628,5.80403 v 58.66374 58.66374 l 4.72171,5.51625 c 2.59694,3.03394 6.0671,5.77616 7.71146,6.09382 7.36428,1.42263 78.27336,0.72893 82.72032,-0.80926 z m 303.6968,-0.11722 c 2.46073,-1.02817 6.06239,-3.95177 8.00366,-6.49693 l 3.52959,-4.6276 v -58.44327 -58.44327 l -4.42628,-5.80403 -4.42627,-5.80403 -43.65031,-0.35334 c -42.31411,-0.34253 -43.75777,-0.26882 -47.16075,2.40797 -1.93075,1.51871 -4.13137,4.99699 -4.89028,7.72952 -0.84451,3.04071 -1.38194,26.82111 -1.38524,61.29535 -0.005,50.94869 0.21851,56.77536 2.33949,61.02109 4.44827,8.90445 6.98266,9.38343 49.66253,9.38578 29.402,10e-4 38.9357,-0.41822 42.40386,-1.8673 z"
       id="path3216"
       transform="scale(0.26458333)" /><path
       style="fill:#fff6d5;stroke:#502d16;stroke-width:0;stroke-linecap:square;stroke-miterlimit:3.6;stroke-dasharray:none;paint-order:stroke fill markers"
       d="M 571.31826,241.86837 C 557.67234,230.75519 544.54612,220.06892 542.14888,218.1211 l -4.35861,-3.54147 -3e-5,-28.40152 -4e-5,-28.40152 3.53366,-2.77958 c 3.26337,-2.56696 5.29554,-2.77959 26.56613,-2.77959 17.76557,0 23.62776,0.43495 25.63575,1.90207 2.46384,1.80018 2.62465,4.11705 3.00199,43.25121 0.21929,22.74202 0.21929,46.60386 0,53.0263 l -0.3987,11.67717 z"
       id="path3218"
       transform="scale(0.26458333)" /><path
       style="fill:#552200;stroke:#552200;stroke-width:3.77952761;stroke-linecap:square;stroke-miterlimit:3.6;stroke-dasharray:none;paint-order:stroke fill markers"
       d="m 332.35013,551.53705 0.42226,-112.98993 3.51674,-3.68809 3.51673,-3.68809 h 51.80196 51.80196 l 3.51674,3.68809 3.51674,3.68809 0.42226,112.98993 0.42226,112.98994 h -59.67996 -59.67996 z m 44.99504,23.03668 c 3.74213,-2.94356 4.56102,-7.54723 2.14536,-12.06093 -1.1929,-2.22897 -2.88104,-2.59408 -11.99405,-2.59408 -9.43936,0 -10.83536,0.3278 -12.69348,2.98065 -2.94216,4.20053 -2.60174,7.35625 1.20411,11.16209 4.42331,4.42332 16.01228,4.70154 21.33806,0.51227 z"
       id="path3429"
       transform="scale(0.26458333)" /></g></svg>
