<?xml version="1.0" encoding="UTF-8" standalone="no"?>
<!-- Created with Inkscape (http://www.inkscape.org/) -->

<svg
   width="210mm"
   height="297mm"
   viewBox="0 0 210 297"
   version="1.1"
   id="svg5"
   xml:space="preserve"
   inkscape:version="1.2.1 (9c6d41e410, 2022-07-14)"
   sodipodi:docname="brain_icon.svg"
   inkscape:export-filename="pencil_icon.png"
   inkscape:export-xdpi="30.975609"
   inkscape:export-ydpi="30.975609"
   xmlns:inkscape="http://www.inkscape.org/namespaces/inkscape"
   xmlns:sodipodi="http://sodipodi.sourceforge.net/DTD/sodipodi-0.dtd"
   xmlns="http://www.w3.org/2000/svg"
   xmlns:svg="http://www.w3.org/2000/svg"><sodipodi:namedview
     id="namedview7"
     pagecolor="#ffffff"
     bordercolor="#000000"
     borderopacity="0.25"
     inkscape:showpageshadow="2"
     inkscape:pageopacity="0.0"
     inkscape:pagecheckerboard="0"
     inkscape:deskcolor="#d1d1d1"
     inkscape:document-units="mm"
     showgrid="false"
     inkscape:zoom="1.4912879"
     inkscape:cx="473.08103"
     inkscape:cy="277.6124"
     inkscape:window-width="1920"
     inkscape:window-height="1017"
     inkscape:window-x="-8"
     inkscape:window-y="-8"
     inkscape:window-maximized="1"
     inkscape:current-layer="layer1" /><defs
     id="defs2" /><g
     inkscape:label="Vrstva 1"
     inkscape:groupmode="layer"
     id="layer1"><rect
       style="fill:none;stroke:#003380;stroke-width:2;stroke-miterlimit:1;stroke-dasharray:none"
       id="rect625"
       width="80"
       height="80"
       x="57.483871"
       y="40.096771"
       ry="0.054789022"
       rx="0.055" /><path
       style="fill:#003380;stroke:#003380;stroke-width:3.77952761;stroke-miterlimit:1;stroke-dasharray:none"
       d="m 439.55296,391.50563 c -2.71034,-0.5697 -9.05258,-3.85831 -9.05258,-4.69398 0,-0.47383 -0.39923,-0.70831 -0.88718,-0.52106 -0.49078,0.18832 -2.73439,-1.4727 -5.02138,-3.71749 -3.33065,-3.26919 -4.79707,-5.45743 -7.54447,-11.25811 -5.90689,-12.47141 -6.2955,-13.20287 -7.7959,-14.67362 -0.80707,-0.79112 -1.33513,-1.62094 -1.17349,-1.84404 0.16164,-0.22311 0.0917,-0.25373 -0.15549,-0.068 -0.24717,0.1857 -1.1385,-0.11388 -1.98073,-0.66573 -1.22226,-0.80085 -1.90978,-0.84967 -3.40633,-0.24187 -1.03125,0.41882 -4.43991,0.76977 -7.57478,0.77988 -6.26966,0.0202 -9.43462,-0.9882 -12.396,-3.94958 l -1.74082,-1.74082 -4.83405,1.72049 c -12.9852,4.62156 -21.86008,4.93655 -36.51808,1.29612 -0.82982,-0.20609 -1.50876,-0.57707 -1.50876,-0.8244 0,-0.24733 -0.6215,-0.49651 -1.38111,-0.55373 -1.88907,-0.1423 -8.14051,-4.37901 -10.36868,-7.02705 -1.00362,-1.19273 -2.28404,-3.13172 -2.84538,-4.30886 -0.88645,-1.85891 -1.42664,-2.18001 -4.10935,-2.44274 -3.96861,-0.38865 -5.81926,-0.86607 -8.75205,-2.25776 -1.62572,-0.77146 -4.24013,-1.14631 -8.27224,-1.1861 -3.24242,-0.032 -6.11053,-0.35992 -6.37357,-0.72872 -0.26305,-0.36881 -0.78002,-0.676 -1.14883,-0.68263 -1.28222,-0.0231 -5.69977,-1.93711 -5.69977,-2.46961 0,-0.29472 -0.39595,-0.53585 -0.87989,-0.53585 -1.39489,0 -6.49629,-2.64518 -6.49629,-3.36846 0,-0.3602 -0.60094,-0.65491 -1.33544,-0.65491 -0.73449,0 -1.71233,-0.60351 -2.17298,-1.34112 -0.46065,-0.73762 -1.17178,-1.34113 -1.58029,-1.34113 -0.40851,0 -2.16742,-1.28018 -3.90868,-2.84484 -8.2342,-7.39909 -12.31662,-25.98528 -8.43332,-38.39468 0.34624,-1.10642 1.12366,-3.67132 1.72761,-5.69977 2.3858,-8.01309 8.59399,-18.85899 10.04768,-17.55363 0.27827,0.24987 0.29045,0.0797 0.0271,-0.37826 -0.27368,-0.47582 0.1831,-1.51634 1.06597,-2.42825 0.84968,-0.87761 1.64294,-2.01172 1.7628,-2.52023 0.11986,-0.5085 0.49705,-1.02514 0.8382,-1.14808 0.34115,-0.12293 0.62027,-0.60329 0.62027,-1.06746 0,-0.46417 2.00243,-2.88617 4.44984,-5.38222 4.18167,-4.26478 8.52119,-7.025 11.09722,-7.05858 0.6215,-0.008 1.97425,-1.18924 3.00612,-2.62476 1.84235,-2.56303 5.89957,-5.56508 9.92189,-7.34147 1.11951,-0.49442 2.56368,-1.17601 3.20928,-1.51465 2.26032,-1.18564 9.89045,-3.89296 9.89045,-3.50932 0,0.21304 0.38657,0.0665 0.85903,-0.32559 0.47247,-0.39211 1.60404,-0.86159 2.51461,-1.04329 0.91057,-0.18169 3.16434,-0.62778 5.00838,-0.9913 1.9468,-0.38378 4.60953,-0.429 6.34964,-0.10783 2.48652,0.45893 3.5142,0.29593 6.03505,-0.95723 4.2797,-2.1275 10.63525,-3.29231 15.94115,-2.92161 2.89327,0.20214 5.25898,0.003 6.54335,-0.54983 1.10643,-0.47654 4.52515,-0.88005 7.59717,-0.89669 5.67103,-0.0307 17.72518,1.07802 19.56056,1.79916 0.55322,0.21736 1.27703,0.33234 1.60848,0.2555 0.89551,-0.20758 11.33315,1.93506 14.1592,2.90661 1.34797,0.46341 2.95342,1.27287 3.56765,1.7988 0.61424,0.52592 1.34311,1.02377 1.61972,1.10632 0.2766,0.0826 0.49678,0.37642 0.48927,0.65303 -0.008,0.2766 2.1802,0.67056 4.86157,0.87546 4.78216,0.36543 13.25723,3.40088 13.25723,4.74824 0,0.31845 0.42749,0.57899 0.94997,0.57899 0.52247,0 1.05054,0.22631 1.17348,0.50292 0.12293,0.27661 2.33579,1.54966 4.91745,2.829 7.22981,3.58275 15.75819,9.63436 15.75819,11.18178 0,0.33614 0.58736,1.11407 1.30523,1.72873 0.71789,0.61467 1.62514,2.30559 2.01612,3.7576 0.54065,2.00779 1.21519,2.84891 2.81669,3.51228 2.7833,1.15288 10.16534,8.46305 9.55065,9.45765 -0.26239,0.42455 -0.1784,0.58325 0.18861,0.35642 1.3152,-0.81283 5.03577,9.93071 6.96467,20.1112 0.55662,2.93777 0.58322,4.73457 0.091,6.14656 -0.56152,1.61076 -0.44736,2.45833 0.59243,4.39834 0.70838,1.3217 1.06107,2.40771 0.78375,2.41336 -0.27733,0.005 -0.0516,0.29627 0.50162,0.64582 0.7635,0.48242 1.00584,1.98941 1.00584,6.25478 0,6.32035 -0.73701,8.3411 -4.27197,11.71292 -2.2181,2.11574 -2.27334,2.28811 -1.52924,4.77173 0.4246,1.41718 0.772,3.84363 0.772,5.39211 0,2.88931 -2.38328,9.43437 -3.43538,9.43437 -0.32339,0 -0.58799,0.54388 -0.58799,1.20863 0,1.77037 -7.73103,8.65583 -12.21896,10.88253 -2.13098,1.05729 -3.87913,1.71139 -3.88478,1.45356 -0.005,-0.25782 -0.23196,-0.16541 -0.50292,0.20536 -0.63299,0.86618 -4.85863,2.34339 -6.70338,2.34339 -0.78186,0 -1.57934,0.25526 -1.77216,0.56725 -0.47528,0.76902 4.03359,14.45355 5.99945,18.20847 3.8772,7.40572 4.61746,11.95614 2.6022,15.99583 -2.39272,4.79634 -9.27597,7.64696 -15.37111,6.36578 z m 6.01111,-9.59449 c 0.8337,-0.92123 1.07381,-1.92586 0.8023,-3.35689 -0.54578,-2.8766 -0.65141,-3.16439 -3.08475,-8.40439 -1.19886,-2.58166 -3.39293,-8.31496 -4.8757,-12.74066 -1.48277,-4.42571 -2.9812,-8.58925 -3.32983,-9.25232 -0.64411,-1.22502 -2.92247,-2.35626 -5.86985,-2.91446 -0.89617,-0.16973 -1.947,-0.50488 -2.33517,-0.74478 -0.38817,-0.2399 -1.16369,-0.4801 -1.72339,-0.53378 -3.92464,-0.3764 -12.51333,-2.62474 -12.95342,-3.39093 -0.29493,-0.51349 -1.43973,-0.93361 -2.544,-0.93361 -1.2331,0 -1.95427,-0.32341 -1.86913,-0.8382 0.18574,-1.12307 -0.82902,-4.67119 -1.22322,-4.277 -0.17146,0.17147 -1.20119,0.002 -2.28827,-0.37726 -1.49346,-0.52062 -3.24131,-0.39744 -7.15153,0.50399 -4.26794,0.98391 -5.61576,1.63395 -7.68961,3.70865 -3.16736,3.16865 -3.34758,5.50856 -0.53622,6.96237 3.61694,1.87039 12.31089,0.82511 15.25145,-1.8337 1.66782,-1.50801 5.12015,-1.18285 4.50347,0.42418 -0.33908,0.88363 1.18029,2.53011 6.86538,7.43972 2.84394,2.45599 9.3383,13.94339 8.57817,15.17329 -0.20632,0.33383 -0.11619,0.60697 0.20029,0.60697 0.3165,0 0.98268,1.13158 1.48044,2.51461 1.78996,4.97351 5.92579,9.4211 11.09923,11.93595 4.0908,1.98856 7.08837,2.10174 8.69336,0.32825 z m -82.1262,-36.32978 c 0.003,-0.23556 1.01627,-0.61775 2.25058,-0.84931 3.17796,-0.59619 12.87831,-4.59326 20.82423,-8.5807 3.72435,-1.86897 6.88869,-3.33174 7.03186,-3.25061 0.14316,0.0811 0.44492,-0.14056 0.67056,-0.49263 0.56734,-0.88525 14.75373,-8.1917 15.90523,-8.1917 0.51357,0 0.93377,-0.35205 0.93377,-0.78233 0,-0.43027 0.16731,-0.61501 0.3718,-0.41053 0.20448,0.20449 2.13068,-0.48023 4.28045,-1.52159 3.61479,-1.75102 11.30534,-4.34694 14.45875,-4.8805 0.73762,-0.1248 2.60427,-0.58569 4.14812,-1.02421 1.54385,-0.43851 3.05261,-0.74296 3.35281,-0.67654 0.30019,0.0664 0.99844,-0.0695 1.55165,-0.30196 0.55321,-0.2325 5.53213,-0.71953 11.06426,-1.0823 5.53213,-0.36277 11.59291,-1.12265 13.46839,-1.6886 3.55069,-1.07147 6.31317,-2.9732 6.31317,-4.34606 0,-0.43952 0.22631,-0.65965 0.50292,-0.48918 0.8824,0.5438 0.9369,-5.14927 0.0792,-8.27753 -0.455,-1.65964 -1.44091,-3.47016 -2.19089,-4.02337 -3.82124,-2.81869 -7.70437,-4.43348 -11.09395,-4.61339 -4.3339,-0.23003 -6.08196,-1.50853 -4.38406,-3.20642 1.03855,-1.03855 1.44014,-1.03797 5.91531,0.009 9.84802,2.30306 10.4748,1.6586 8.11278,-8.34175 -2.05523,-8.70146 -3.95107,-13.0663 -6.89145,-15.86632 -3.30758,-3.1497 -8.17973,-2.89686 -9.69116,0.50292 -0.24594,0.55321 -1.20605,2.21285 -2.13356,3.68808 -0.92751,1.47524 -2.03847,3.36119 -2.4688,4.19101 -0.85683,1.65227 -2.52703,1.96289 -3.78583,0.70409 -1.13022,-1.13022 -1.00169,-4.26701 0.22511,-5.49381 0.56639,-0.56639 1.05642,-1.26688 1.08897,-1.55666 0.0697,-0.6206 3.95212,-6.40915 4.626,-6.8972 1.03506,-0.74965 1.3666,-4.8149 0.58771,-7.20622 -0.76554,-2.35032 -4.17312,-6.45859 -4.82027,-5.81144 -0.15967,0.15967 -1.07336,-0.4354 -2.03043,-1.32238 -0.95706,-0.88698 -1.85193,-1.50087 -1.98859,-1.36421 -0.13666,0.13666 -2.42334,-0.89595 -5.08149,-2.29469 -2.65816,-1.39874 -4.60179,-2.77792 -4.3192,-3.06485 0.2826,-0.28692 0.0612,-0.45724 -0.49203,-0.37848 -1.84139,0.26216 -2.76603,-0.008 -2.34696,-0.68626 0.22793,-0.36881 -0.20689,-0.67056 -0.96627,-0.67056 -0.75938,0 -1.3807,-0.25146 -1.3807,-0.5588 0,-0.69117 -0.50155,-0.78557 -6.44338,-1.21278 -2.62184,-0.18851 -6.01655,-0.006 -7.54381,0.40499 -2.47507,0.66646 -2.77684,0.96715 -2.77684,2.76686 0,1.11053 0.46038,2.90941 1.02306,3.99752 0.56268,1.08811 0.80408,1.97838 0.53645,1.97838 -0.26764,0 -0.12451,0.36211 0.31806,0.80468 2.02096,2.02096 0.43991,6.58643 -2.42664,7.00714 -1.37297,0.20151 -5.48599,-1.72028 -5.48599,-2.5633 0,-0.34856 -0.24681,-0.4812 -0.54847,-0.29476 -0.30166,0.18643 -1.34462,-0.39926 -2.31769,-1.30155 -0.97308,-0.90229 -2.10196,-1.64052 -2.50863,-1.64052 -0.40668,0 -0.52234,-0.37719 -0.25704,-0.8382 0.2653,-0.46101 0.24076,-0.61984 -0.0545,-0.35295 -0.56792,0.5133 -4.37207,-1.4471 -4.37207,-2.25307 0,-0.26005 -2.03683,-0.45419 -4.52628,-0.43142 -3.70628,0.0339 -4.69375,0.27967 -5.4506,1.3566 -1.17981,1.67876 -2.1453,5.87185 -1.35204,5.87185 0.32997,0 0.60954,0.52806 0.62127,1.17348 0.0263,1.44928 1.53669,3.52045 2.5672,3.52045 0.42036,0 0.76428,0.30175 0.76428,0.67056 0,0.36881 0.53636,0.67056 1.19192,0.67056 0.65556,0 1.89095,0.48962 2.74532,1.08804 0.85437,0.59843 2.65659,1.23598 4.00493,1.41679 5.52282,0.7406 12.84523,5.83326 12.84523,8.93373 0,2.06127 -2.23426,4.65491 -4.00991,4.65491 -0.70149,0 -1.48516,0.33936 -1.74151,0.75414 -0.6651,1.07615 -8.95524,0.37196 -11.69161,-0.99312 -1.21511,-0.60618 -2.46123,-1.10214 -2.76917,-1.10214 -0.30793,0 -1.17661,-0.52807 -1.9304,-1.17349 -0.75379,-0.64541 -1.47994,-1.0226 -1.61366,-0.8382 -0.13373,0.18441 -0.80289,-0.14165 -1.48703,-0.72456 -2.70255,-2.30269 -9.9594,-4.10146 -13.31399,-3.30016 -2.61824,0.62541 -3.08445,-0.87812 -0.86827,-2.8002 1.1889,-1.03113 2.13477,-1.20941 4.82642,-0.90969 1.84126,0.20502 3.51443,0.59586 3.71817,0.86853 0.20373,0.27266 1.1248,0.58008 2.04682,0.68315 0.92203,0.10307 1.77762,0.48214 1.90132,0.84238 0.12371,0.36024 0.48141,0.49646 0.7949,0.30271 0.3135,-0.19376 1.26842,0.33243 2.12206,1.1693 0.85363,0.83687 1.85381,1.54769 2.22262,1.5796 1.34862,0.11669 5.02921,1.92839 5.02921,2.47553 0,0.30972 0.22893,0.42164 0.50873,0.24871 0.27979,-0.17292 1.864,-0.0577 3.52044,0.256 3.467,0.65663 7.91601,-0.25607 8.48576,-1.74082 0.79751,-2.07828 -2.30277,-4.01445 -8.99448,-5.61722 -1.93625,-0.46376 -3.52045,-1.11485 -3.52045,-1.44688 0,-0.33202 -0.54661,-0.60367 -1.21468,-0.60367 -0.66808,0 -1.86247,-0.60351 -2.65421,-1.34113 -0.79174,-0.73761 -1.697,-1.34112 -2.01169,-1.34112 -1.00955,0 -3.55096,-2.73964 -3.1473,-3.39278 0.21436,-0.34682 -0.0323,-0.63059 -0.54805,-0.63059 -2.3796,0 -3.29762,-6.81497 -1.35989,-10.09527 1.6129,-2.73042 6.92451,-4.9081 10.6198,-4.35396 2.67607,0.4013 10.18925,4.34731 11.10815,5.83412 0.23214,0.37561 0.69009,0.73259 1.01766,0.79329 0.32758,0.0607 0.52015,0.33668 0.42795,0.61329 -0.0922,0.2766 0.29761,0.50292 0.86624,0.50292 0.56864,0 1.68167,0.6035 2.47341,1.34112 2.99148,2.78698 3.21479,0.88652 0.69325,-5.89949 -1.76946,-4.76199 -1.33314,-6.50017 2.14302,-8.53734 1.55476,-0.91115 3.3284,-1.65664 3.94142,-1.65664 0.61301,0 1.11457,-0.25972 1.11457,-0.57716 0,-0.31744 -1.53506,-0.75896 -3.41124,-0.98117 -1.87618,-0.2222 -4.76239,-1.15918 -6.4138,-2.08218 -2.71429,-1.51704 -3.56175,-1.65053 -8.82651,-1.3903 -3.57869,0.17688 -7.66243,-0.0853 -10.59278,-0.68016 -4.56445,-0.92652 -10.08947,-0.95939 -11.53081,-0.0686 -0.37392,0.2311 -1.42518,0.48187 -2.33612,0.55726 -1.44412,0.11952 -1.85242,0.77641 -3.18783,5.12877 -2.08497,6.79527 -6.7557,14.61919 -8.19597,13.72906 -0.38977,-0.24089 -0.49936,-0.10979 -0.24808,0.29678 0.24755,0.40056 -0.2216,1.19876 -1.04257,1.77379 -1.88578,1.32086 -0.89587,2.53242 2.28046,2.7911 2.76959,0.22556 9.91876,-1.05397 9.91876,-1.77521 0,-0.80168 2.3335,-1.3908 3.59362,-0.90725 1.40146,0.53779 1.44638,2.96099 0.0549,2.96099 -0.57498,0 -0.8862,0.25762 -0.69158,0.5725 0.76466,1.23726 -9.34069,3.97518 -11.54704,3.12852 -0.62264,-0.23893 -2.3393,-0.6027 -3.81479,-0.80837 -1.47551,-0.20568 -3.38132,-0.63891 -4.23515,-0.96274 -0.85382,-0.32384 -1.83452,-0.58879 -2.17932,-0.58879 -1.14031,0 -0.65092,7.15804 0.80892,11.83183 0.78972,2.52831 1.54292,6.49304 1.67379,8.81051 0.21794,3.85929 0.11131,4.26158 -1.2682,4.78434 -2.271,0.86061 -3.18207,-0.34561 -3.18629,-4.21846 -0.005,-4.11011 -1.04612,-8.21898 -2.18867,-8.63339 -0.45381,-0.16459 -2.88328,-0.36706 -5.39881,-0.44993 -4.0159,-0.13229 -4.73372,0.0338 -5.88568,1.36205 -0.72158,0.83199 -1.5018,2.26907 -1.73381,3.1935 -0.54545,2.17324 0.78293,7.1021 2.60296,9.65809 1.93284,2.71443 2.26055,6.67159 0.76252,9.20755 -0.65153,1.10294 -1.57215,2.00534 -2.04585,2.00534 -0.47369,0 -0.86126,0.25399 -0.86126,0.56442 0,0.48101 -4.33579,2.11783 -5.60993,2.11783 -0.23382,0 -0.42513,-0.47044 -0.42513,-1.04542 0,-0.57498 0.30176,-0.85892 0.67057,-0.63098 0.3688,0.22793 0.67056,0.0949 0.67056,-0.29571 0,-0.39057 0.67894,-0.71962 1.50876,-0.7312 2.32751,-0.0325 3.94423,-2.7928 3.71531,-6.34332 -0.10717,-1.66232 -0.36994,-3.02264 -0.58393,-3.02293 -0.21399,-3e-4 -1.54904,-2.28586 -2.96678,-5.07903 -2.45715,-4.84099 -2.53621,-5.19378 -1.69049,-7.54382 1.18651,-3.29696 2.71046,-5.55515 3.44328,-5.10224 0.32847,0.20301 0.59722,0.098 0.59722,-0.2334 0,-1.18596 3.4895,-2.15889 7.743,-2.15889 h 4.3271 v -4.02337 c 0,-2.23521 0.29802,-4.02337 0.67056,-4.02337 0.36881,0 0.67056,-0.35503 0.67056,-0.78896 0,-0.43392 2.82176,-3.52689 6.27059,-6.87325 3.44882,-3.34636 6.45688,-6.61236 6.68457,-7.25778 0.22769,-0.64542 0.74301,-1.17348 1.14516,-1.17348 0.40215,0 0.57865,-0.24681 0.39221,-0.54847 -0.18644,-0.30166 0.32382,-1.28236 1.13391,-2.17933 2.06314,-2.28443 2.21839,-4.38164 0.39652,-5.35667 -2.15372,-1.15264 -11.05544,-0.46421 -14.31432,1.10702 -2.54907,1.22901 -8.32953,7.75052 -8.38707,9.46229 -0.0841,2.50302 -9.81486,8.95076 -14.70754,9.74547 -0.59281,0.0963 -1.25586,0.4165 -1.47345,0.71159 -0.21759,0.29508 -1.04741,0.58561 -1.84404,0.64561 -0.79664,0.06 -1.44843,0.34665 -1.44843,0.63697 0,0.29033 -0.60351,0.52787 -1.34112,0.52787 -0.73762,0 -1.34113,0.12619 -1.34113,0.28043 0,0.15424 -0.19456,0.78747 -0.43237,1.40718 -0.38038,0.99127 0.0832,1.10953 3.85573,0.98356 2.35846,-0.0787 4.66529,-0.10848 5.1263,-0.0661 1.55756,0.14332 0.85151,1.16352 -1.62134,2.34274 -3.44752,1.644 -10.00374,1.36161 -12.34743,-0.53184 l -1.73103,-1.39849 2.1669,-2.17932 c 1.19179,-1.19863 2.64969,-2.17933 3.23979,-2.17933 0.59009,0 1.07289,-0.24113 1.07289,-0.53585 0,-0.52656 4.7804,-2.50861 5.28952,-2.19314 0.14317,0.0887 0.44493,-0.098 0.67056,-0.41487 0.22564,-0.31689 2.37165,-1.59995 4.7689,-2.85126 2.39726,-1.2513 4.50953,-2.45598 4.69393,-2.67706 0.18441,-0.22109 1.33914,-1.22694 2.56606,-2.23523 1.22692,-1.00829 2.03963,-1.83325 1.80602,-1.83325 -0.23361,0 0.045,-0.67065 0.61911,-1.49033 0.57412,-0.81968 1.04387,-2.20197 1.04387,-3.07175 0,-1.49736 -0.18715,-1.56609 -3.52045,-1.29283 -1.93625,0.15872 -3.97308,0.46901 -4.52629,0.68951 -0.55321,0.22051 -2.51461,0.8351 -4.35865,1.36576 -1.84404,0.53066 -5.16332,1.77447 -7.37617,2.76402 -2.21286,0.98956 -4.55144,1.84248 -5.19685,1.89539 -0.64542,0.0529 -1.17349,0.26866 -1.17349,0.47947 0,0.61043 -3.79001,2.6822 -4.26455,2.33118 -0.23616,-0.17469 -0.29053,-0.12848 -0.12084,0.10268 0.1697,0.23117 -0.12571,1.26005 -0.65646,2.28641 -0.9901,1.91463 -2.31901,11.42152 -2.32882,16.66009 -0.005,2.68077 0.29947,3.22137 3.47741,6.17381 3.00922,2.7957 3.31421,3.30051 2.24252,3.71176 -0.86541,0.33209 -1.61316,0.0156 -2.47348,-1.04681 -0.67819,-0.83754 -1.09709,-1.74283 -0.93089,-2.01175 0.32849,-0.53151 0.0177,-0.58929 -3.99746,-0.7433 -3.62186,-0.13892 -4.4593,0.12038 -5.84981,1.81131 -0.95643,1.16308 -1.15597,2.4972 -1.02212,6.8342 0.18989,6.15297 -0.47963,7.52397 -2.7238,5.57761 -2.203,-1.91065 -3.42606,-5.3374 -2.74838,-7.70035 0.86872,-3.02905 3.97874,-8.69197 5.49872,-10.01239 0.74295,-0.64542 1.14999,-1.17348 0.90452,-1.17348 -0.24546,0 0.29771,-1.17858 1.20705,-2.61906 1.69789,-2.68963 2.99055,-9.02581 1.95892,-9.60196 -1.28812,-0.71941 -4.93071,0.97274 -7.53545,3.50055 -1.52108,1.47616 -2.7656,2.91366 -2.7656,3.19444 0,0.28079 -0.67894,1.26182 -1.50876,2.18007 -0.82982,0.91826 -1.93695,2.49937 -2.46028,3.5136 -0.52333,1.01422 -1.20228,1.84404 -1.50876,1.84404 -0.30649,0 -0.55725,0.40416 -0.55725,0.89813 0,0.49397 -1.20355,2.01169 -2.67456,3.37272 -3.37539,3.12303 -5.61676,7.8414 -5.0186,10.56481 0.34472,1.56952 3.66979,6.04998 3.66979,4.94497 0,-0.45061 8.82127,4.36776 9.81428,5.36076 1.19059,1.1906 1.1684,2.78135 -0.0453,3.24709 -0.77098,0.29586 -6.34071,-3.22631 -7.75729,-4.90551 -0.49615,-0.58814 -5.13329,-0.84764 -6.63423,-0.37126 -1.83594,0.5827 -2.75363,3.77586 -2.75363,9.58143 0,7.56938 3.70491,19.55117 6.94504,22.46053 2.14206,1.92338 4.81656,1.52547 5.80625,-0.86383 1.06053,-2.56034 2.88185,-3.62073 4.62062,-2.69016 1.10495,0.59134 1.22986,1.21997 0.92046,4.63213 -0.30945,3.41267 -0.16458,4.14134 1.06852,5.37445 0.78459,0.78458 1.42652,1.26788 1.42652,1.07401 0,-0.19388 0.82982,0.0675 1.84404,0.58094 2.94514,1.49081 6.83472,1.96191 8.95323,1.0844 2.48881,-1.03091 2.9703,-3.59088 1.94614,-10.34728 -0.86612,-5.71381 -0.5762,-8.03662 1.0825,-8.67312 2.08185,-0.79888 2.94642,1.52928 2.50302,6.74029 -0.44681,5.2512 0.21156,12.52569 1.08478,11.98602 0.303,-0.18727 0.71788,0.0946 0.92196,0.62644 0.20407,0.53181 1.34577,1.47098 2.5371,2.08704 4.4704,2.31174 14.32183,-0.797 20.23769,-6.38624 1.77305,-1.67517 3.38545,-2.94089 3.58311,-2.81271 0.19766,0.12818 1.16099,-0.51686 2.14075,-1.43343 0.97976,-0.91657 2.46032,-1.87159 3.29014,-2.12228 2.65293,-0.80146 1.62339,-1.63354 -2.27756,-1.84073 -3.98564,-0.21169 -5.53512,-1.34761 -4.72346,-3.46277 0.32618,-0.85 1.34352,-1.09698 4.51865,-1.09698 h 4.09769 l -0.54174,-2.17933 c -1.07612,-4.32899 -0.42445,-9.17057 1.52414,-11.32374 0.62182,-0.6871 0.93061,-1.24928 0.6862,-1.24928 -0.24441,0 0.33237,-0.87177 1.28172,-1.93726 1.18846,-1.33385 2.14765,-1.82703 3.07945,-1.58336 2.18353,0.57101 2.13352,1.82375 -0.20528,5.14183 -1.82688,2.59181 -2.22016,3.79616 -2.32488,7.11949 -0.0693,2.19997 0.0986,3.99996 0.37322,3.99996 0.2746,0 0.84815,0.76573 1.27457,1.70161 1.76666,3.87738 2.62062,3.95994 10.16895,0.98319 2.02845,-0.79994 4.14072,-1.50494 4.69393,-1.56669 0.55321,-0.0618 1.18693,-0.35864 1.40825,-0.65977 0.22133,-0.30112 0.82483,-0.63757 1.34113,-0.74765 0.51629,-0.11008 2.80112,-1.05613 5.07739,-2.10232 3.20017,-1.47082 4.21269,-2.28929 4.46502,-3.60929 0.17949,-0.93891 0.0707,-1.86508 -0.24167,-2.05817 -0.3124,-0.19307 -0.81846,-1.84495 -1.12457,-3.67084 -0.54332,-3.24073 -0.63078,-3.34077 -3.67197,-4.19971 -4.34658,-1.22765 -8.1828,-5.10958 -9.65043,-9.76543 -1.20455,-3.82127 -1.00995,-5.58536 0.688,-6.23693 1.61566,-0.61998 3.01506,1.40805 3.20702,4.64764 0.098,1.65434 0.40455,2.86986 0.68115,2.70116 0.44797,-0.2732 0.7937,1.28368 0.58233,2.62232 -0.0436,0.27661 0.29779,0.42748 0.7588,0.33528 0.46101,-0.0922 0.75799,0.22387 0.65995,0.70239 -0.098,0.47852 0.20371,0.80732 0.67056,0.73067 0.46685,-0.0767 1.69827,0.21077 2.73651,0.63873 2.90232,1.19632 3.46513,0.97946 4.69547,-1.80917 1.42883,-3.23849 3.3228,-5.45947 4.65565,-5.45947 1.78746,0 1.8358,1.8819 0.14179,5.52056 -1.75231,3.76387 -2.18982,9.0854 -1.0035,12.20566 0.74403,1.95697 1.50327,2.14927 2.91438,0.73816 0.54004,-0.54004 1.36154,-1.0681 1.82557,-1.17348 0.46402,-0.10537 1.85652,-1.09684 3.09443,-2.20327 1.23791,-1.10643 2.47479,-2.03774 2.74862,-2.0696 1.21582,-0.14143 2.84482,-1.14985 2.84482,-1.76107 0,-0.36831 0.75447,-1.5663 1.6766,-2.66219 0.92213,-1.09588 1.87385,-2.79908 2.11493,-3.78488 0.6967,-2.84884 2.14231,-3.47419 3.92053,-1.69597 1.32125,1.32126 0.92258,3.47507 -1.20375,6.50319 -1.87605,2.6717 -5.87867,6.47636 -6.81333,6.47636 -0.39243,0 -1.0904,0.60351 -1.55105,1.34112 -0.46065,0.73762 -1.28761,1.34113 -1.8377,1.34113 -0.55009,0 -1.00016,0.31122 -1.00016,0.6916 0,0.38039 -0.52807,0.88438 -1.17348,1.11998 -0.64542,0.23561 -1.88789,0.97641 -2.76107,1.64623 -0.87316,0.66981 -1.85386,1.05327 -2.17932,0.85213 -0.32546,-0.20115 -0.59174,-0.0999 -0.59174,0.22488 0,0.63478 -5.94393,3.51191 -7.25531,3.51191 -0.43529,0 -0.79143,0.30175 -0.79143,0.67056 0,0.36881 -0.57836,0.67057 -1.28524,0.67057 -0.70688,0 -1.3903,0.31515 -1.5187,0.70035 -0.1284,0.3852 -0.90793,0.75116 -1.73228,0.81326 -0.82435,0.0621 -1.49883,0.30214 -1.49883,0.53343 0,0.2313 -1.28245,0.82494 -2.84989,1.31922 -1.56744,0.49427 -3.15164,1.11804 -3.52044,1.38615 -0.36881,0.26811 -3.98984,1.6011 -8.04674,2.9622 -7.6951,2.58172 -11.83175,4.28314 -12.41173,5.10499 -0.1879,0.26625 -0.7914,0.58372 -1.34112,0.7055 -0.54973,0.12177 -2.56772,1.78944 -4.48443,3.70593 -9.64721,9.6461 -4.24123,18.40949 12.90447,20.91887 4.47033,0.65426 14.36917,0.63986 14.37901,-0.0209 z m 83.00004,-3.95487 c 3.58945,-0.75109 7.20522,-1.64988 8.03504,-1.9973 2.49993,-1.04666 1.74727,-2.35745 -1.88871,-3.28932 -4.25684,-1.091 -7.26189,-3.64382 -6.22591,-5.28898 1.0194,-1.61882 3.01479,-1.82043 4.04693,-0.4089 0.48539,0.66381 0.88252,0.9407 0.88252,0.61531 0,-0.32538 0.44304,-0.006 0.98452,0.71004 0.54148,0.7159 0.99411,1.05479 1.00584,0.75307 0.0117,-0.30173 0.89773,0.0755 1.96889,0.8382 2.7347,1.94728 4.31333,1.73505 6.61789,-0.88969 4.44426,-5.06174 5.20304,-11.31623 1.7649,-14.54796 -1.43521,-1.34905 -2.40278,-1.61509 -5.85715,-1.6105 -5.81168,0.008 -11.25791,0.45892 -12.97074,1.07453 -0.80116,0.28795 -2.61167,0.67829 -4.02337,0.86742 -1.4117,0.18913 -4.75443,0.92981 -7.42829,1.64595 -2.67387,0.71614 -4.86157,1.14434 -4.86157,0.95155 0,-0.19279 -0.40088,-0.0178 -0.89083,0.3888 -0.48996,0.40663 -1.47066,0.84758 -2.17932,0.97989 -2.78508,0.51998 -10.33236,4.59271 -11.67577,6.30059 -1.61547,2.05374 -1.61361,5.24017 0.004,7.02913 1.58153,1.74894 9.39793,5.1774 14.15899,6.21047 6.08681,1.32074 11.05828,1.23159 18.53203,-0.3323 z"
       id="path3120"
       transform="scale(0.26458333)" /><path
       style="fill:#003380;stroke:#003380;stroke-width:3.77952761;stroke-miterlimit:1;stroke-dasharray:none"
       d="m 360.82132,338.43363 c -3.74884,-1.87024 -5.10714,-4.30349 -4.9719,-8.9066 0.0641,-2.18322 -0.17419,-3.9695 -0.52963,-3.9695 -1.26346,0 -5.7418,2.61339 -7.84491,4.578 -1.79293,1.67484 -2.13579,2.48291 -2.13579,5.03371 0,2.47339 -0.25544,3.11966 -1.3733,3.47445 -2.03799,0.64683 -3.32063,-0.82627 -3.32063,-3.8137 0,-7.09696 4.69727,-10.58099 22.54434,-16.7214 12.47009,-4.29044 22.26423,-8.56616 29.27823,-12.7817 5.71638,-3.43564 6.89685,-3.68306 8.1208,-1.70208 0.6073,0.98293 0.43731,1.43728 -0.93397,2.4963 -0.92202,0.71206 -2.51759,1.70914 -3.54571,2.21573 -1.52629,0.75205 -1.70024,1.06139 -0.94795,1.68573 3.47818,2.88664 12.63028,3.61396 18.79343,1.49353 13.79017,-4.74452 29.28672,-17.22972 29.28672,-23.59563 0,-2.06646 -1.26504,-3.12445 -7.94686,-6.64614 -5.67555,-2.99134 -8.14662,-5.36277 -8.14662,-7.81814 0,-1.1766 1.20141,-3.77091 3.04889,-6.58376 2.52455,-3.84368 3.01467,-5.0953 2.84989,-7.27769 -0.283,-3.74812 -2.32456,-5.06896 -8.60998,-5.57041 -5.08423,-0.40562 -6.67665,-1.02592 -6.67665,-2.60075 0,-1.45654 2.36277,-1.75529 7.84821,-0.99233 6.07004,0.84426 9.73088,2.89812 11.39837,6.39488 1.38562,2.90567 0.51484,6.38321 -2.90856,11.61561 -3.48297,5.32344 -3.09383,6.47197 3.35464,9.90121 10.88796,5.79014 12.57958,10.43796 6.51762,17.90745 -1.25872,1.55098 -3.7711,4.02697 -5.58306,5.5022 -1.81196,1.47524 -3.67761,3.03441 -4.14588,3.46483 -0.46827,0.43042 -3.61377,2.59645 -6.99,4.8134 -9.82128,6.449 -16.20221,8.21894 -24.45154,6.78239 -4.42554,-0.77068 -4.55318,-0.75155 -6.89278,1.03296 -2.2103,1.68587 -2.36804,2.04478 -2.16785,4.9324 0.20565,2.96639 0.12764,3.12437 -1.64315,3.32786 -1.58132,0.18171 -2.00876,-0.1447 -2.86124,-2.18497 -1.24294,-2.97477 -0.7553,-5.08111 1.74374,-7.532 2.29595,-2.25171 2.46113,-3.32657 0.60192,-3.91667 -0.90271,-0.2865 -3.92811,0.69563 -8.88494,2.88433 -4.13388,1.82532 -10.08105,4.18748 -13.21592,5.24924 -3.13488,1.06177 -6.0748,2.38382 -6.53317,2.9379 -0.45837,0.55408 -1.31369,2.60568 -1.9007,4.55909 -0.98807,3.28801 -0.98336,3.6798 0.0635,5.27749 0.62194,0.9492 1.6827,1.87014 2.35724,2.04653 1.58154,0.41358 2.22634,2.11308 1.24868,3.29109 -0.94202,1.13507 -1.06545,1.12603 -3.89352,-0.28484 z"
       id="path3122"
       transform="scale(0.26458333)" /><path
       style="fill:#003380;stroke:#003380;stroke-width:5.06881;stroke-miterlimit:1;stroke-dasharray:none"
       d=""
       id="path3124"
       transform="scale(0.26458333)" /><path
       style="fill:#003380;stroke:#003380;stroke-width:3.77952761;stroke-miterlimit:1;stroke-dasharray:none"
       d="m 321.19888,318.81234 c 0,-0.39057 -0.2889,-0.53158 -0.642,-0.31335 -0.82482,0.50976 -2.7108,-3.11446 -2.7108,-5.20925 0,-0.88297 0.67894,-2.3609 1.50876,-3.2843 1.59885,-1.77914 10.18815,-6.05554 10.84449,-5.3992 0.21307,0.21307 0.38741,-0.1478 0.38741,-0.80193 0,-0.69799 0.35874,-1.05169 0.86833,-0.85614 0.57942,0.22234 0.8583,-0.25577 0.8382,-1.43702 -0.0267,-1.56605 -0.33011,-1.79483 -2.63099,-1.98349 -2.51708,-0.20639 -4.22305,0.24329 -9.10115,2.39901 -2.00568,0.88634 -2.53828,0.89686 -3.99551,0.0789 -1.92008,-1.07771 -2.58076,-2.91986 -2.67607,-7.46154 -0.0494,-2.35451 -0.32915,-3.18517 -1.07268,-3.18517 -0.55322,0 -1.00585,0.28804 -1.00585,0.64008 0,1.04118 -3.38431,4.11353 -4.06666,3.69181 -0.345,-0.21322 -0.62727,-0.09 -0.62727,0.27373 0,0.36377 -2.28569,1.03012 -5.07933,1.48078 -3.95517,0.63804 -5.29421,1.14735 -6.05026,2.30122 -0.53401,0.81501 -0.79264,1.94646 -0.57473,2.51433 0.57593,1.50083 -0.75058,2.02869 -1.98812,0.79114 -0.58295,-0.58294 -1.07903,-0.81203 -1.10241,-0.50908 -0.0234,0.30295 -0.32462,-0.15305 -0.66944,-1.01332 -1.10439,-2.75536 0.0603,-5.25294 2.27055,-4.86899 0.30402,0.0528 0.37035,-0.19912 0.14741,-0.55986 -0.22295,-0.36073 0.73532,-0.92682 2.12948,-1.25797 1.39416,-0.33114 4.31711,-1.02417 6.49544,-1.54005 2.17832,-0.51589 4.25959,-1.41934 4.62503,-2.00767 0.96701,-1.55682 0.14,-3.97379 -2.25262,-6.58336 -1.67488,-1.82673 -2.01996,-2.68032 -1.71004,-4.22992 0.3878,-1.93897 1.82643,-3.87522 2.87928,-3.87522 0.30644,0 0.91631,-0.57509 1.35527,-1.27798 1.73501,-2.77818 9.403,-3.47545 10.79845,-0.98193 0.31978,0.57142 0.78062,1.01192 1.02407,0.97887 1.41018,-0.19141 1.78376,0.0769 1.78376,1.28104 0,0.76764 0.44704,1.34113 1.04542,1.34113 0.57498,0 0.85892,0.30175 0.63099,0.67056 -0.22794,0.36881 -0.0949,0.67056 0.2957,0.67056 0.39058,0 0.71014,0.30175 0.71014,0.67056 0,1.11743 -2.54586,0.75063 -3.49059,-0.50292 -1.48412,-1.96924 -3.70829,-2.84989 -7.19774,-2.84989 -2.6967,0 -5.75647,0.73912 -7.31602,1.76725 -0.69954,0.46118 1.52103,4.93709 2.62287,5.2868 0.71483,0.22688 1.29969,0.8448 1.29969,1.37316 0,0.52836 0.30175,0.96065 0.67056,0.96065 0.36881,0 0.67056,0.39893 0.67056,0.88651 0,0.48758 1.17066,1.86867 2.60147,3.06909 2.31283,1.94042 2.65041,2.61521 3.04263,6.08196 0.41539,3.67159 0.55571,3.91619 2.40201,4.18717 1.30777,0.19194 2.08635,-0.0392 2.33765,-0.69411 0.20724,-0.54005 0.54571,-0.81299 0.75217,-0.60653 0.20646,0.20646 0.95373,-0.20298 1.66062,-0.90986 1.97531,-1.97532 8.66142,-1.67337 8.66142,0.39116 0,0.47429 0.48463,1.04833 1.07696,1.27563 2.56196,0.98311 -0.8447,6.49182 -5.10033,8.24744 -1.29083,0.53252 -3.16163,1.31497 -4.15732,1.73877 -0.9957,0.4238 -2.18716,1.47459 -2.64768,2.33509 -0.82803,1.54719 -0.77041,1.88164 1.09448,6.35227 0.34784,0.83385 0.17764,1.17348 -0.58807,1.17348 -0.59267,0 -1.07759,-0.31956 -1.07759,-0.71014 z"
       id="path3126"
       transform="scale(0.26458333)" /><path
       style="fill:#d7eef4;stroke:#d7eef4;stroke-width:2.53441;stroke-miterlimit:1;stroke-dasharray:none"
       d="M 221.28524,302.75845 V 155.90551 H 368.47346 515.66167 V 302.75845 449.61138 H 368.47346 221.28524 Z m 227.21097,90.22907 c 3.83647,-1.35358 6.38326,-3.39799 8.15083,-6.54296 2.14668,-3.8195 1.65892,-9.87902 -1.31165,-16.2947 -1.19535,-2.58166 -3.17861,-7.63602 -4.40724,-11.2319 -1.80835,-5.29258 -2.04094,-6.53798 -1.22105,-6.53798 2.27145,0 12.79677,-5.15614 16.35559,-8.01228 8.29997,-6.66117 10.9657,-11.71528 11.01304,-20.88027 0.0324,-6.26908 0.087,-6.49006 2.20057,-8.89724 2.74731,-3.12899 3.19603,-4.79965 3.17788,-11.83174 -0.0117,-4.53937 -0.31114,-6.25937 -1.47076,-8.44845 -1.16019,-2.19016 -1.38527,-3.48458 -1.10772,-6.37034 0.40424,-4.20288 -2.56587,-16.9488 -5.38378,-23.10393 -1.80305,-3.93838 -7.9038,-10.83633 -11.60957,-13.12663 -1.23423,-0.7628 -2.68401,-2.43984 -3.22172,-3.72678 -2.3491,-5.62219 -8.27182,-10.90571 -18.16905,-16.20818 -2.91028,-1.55919 -6.19669,-3.42745 -7.30311,-4.15169 -4.0245,-2.63435 -7.99514,-4.14847 -13.31392,-5.07701 -3.33109,-0.58153 -6.37964,-1.57598 -7.88481,-2.57205 -5.53252,-3.66125 -21.79595,-6.58836 -36.80483,-6.62418 -15.82769,-0.0378 -26.88457,1.05497 -32.52222,3.21412 -3.46487,1.327 -5.36892,1.69298 -7.27178,1.39773 -8.54019,-1.32511 -30.42539,6.85188 -37.63517,14.06165 -2.02378,2.02378 -3.99993,3.6796 -4.39145,3.6796 -3.44261,0 -12.15714,7.58239 -16.90814,14.71154 -1.85832,2.78851 -4.06446,5.8244 -4.90252,6.74642 -3.6097,3.97131 -8.09173,14.13125 -10.76117,24.3936 -1.32224,5.0832 -1.28779,15.82555 0.0695,21.67815 0.57636,2.48522 2.06984,6.63918 3.31884,9.23104 2.24446,4.65755 7.43329,10.68299 9.86409,11.45449 0.6745,0.21408 1.22636,0.66828 1.22636,1.00933 0,0.34106 1.01499,1.15054 2.25552,1.79886 1.24053,0.64832 4.48437,2.3396 7.20853,3.7584 6.674,3.47597 12.05911,5.13181 16.68961,5.13181 2.2906,0 5.93083,0.67912 8.98594,1.6764 2.82453,0.92203 6.03424,1.67641 7.13268,1.67641 1.67645,0 2.33091,0.5424 4.07549,3.3777 5.33622,8.67247 18.389,14.07065 33.96557,14.04698 6.64537,-0.0101 11.90122,-0.93559 19.48157,-3.43045 l 4.23991,-1.39546 1.46901,1.38007 c 2.68158,2.51921 6.47349,3.63823 12.51497,3.69325 3.13487,0.0286 6.78445,-0.16897 8.11017,-0.43891 3.74062,-0.76169 5.23529,0.95103 10.8783,12.46524 5.44959,11.11953 8.85057,15.61878 14.78142,19.55476 8.3496,5.54115 14.30312,6.92947 20.43625,4.76558 z"
       id="path3815"
       transform="scale(0.26458333)" /></g></svg>
