<?xml version="1.0" encoding="UTF-8" standalone="no"?>
<!-- Created with Inkscape (http://www.inkscape.org/) -->

<svg
   width="210mm"
   height="297mm"
   viewBox="0 0 210 297"
   version="1.1"
   id="svg5"
   xml:space="preserve"
   inkscape:version="1.2.1 (9c6d41e410, 2022-07-14)"
   sodipodi:docname="mobile_move_1.svg"
   inkscape:export-filename="mobile.png"
   inkscape:export-xdpi="96"
   inkscape:export-ydpi="96"
   xmlns:inkscape="http://www.inkscape.org/namespaces/inkscape"
   xmlns:sodipodi="http://sodipodi.sourceforge.net/DTD/sodipodi-0.dtd"
   xmlns="http://www.w3.org/2000/svg"
   xmlns:svg="http://www.w3.org/2000/svg"><sodipodi:namedview
     id="namedview7"
     pagecolor="#ffffff"
     bordercolor="#000000"
     borderopacity="0.25"
     inkscape:showpageshadow="2"
     inkscape:pageopacity="0.0"
     inkscape:pagecheckerboard="0"
     inkscape:deskcolor="#d1d1d1"
     inkscape:document-units="mm"
     showgrid="false"
     inkscape:zoom="0.52724989"
     inkscape:cx="-75.865355"
     inkscape:cy="419.15609"
     inkscape:window-width="1920"
     inkscape:window-height="1017"
     inkscape:window-x="-8"
     inkscape:window-y="-8"
     inkscape:window-maximized="1"
     inkscape:current-layer="layer1" /><defs
     id="defs2" /><g
     inkscape:label="Vrstva 1"
     inkscape:groupmode="layer"
     id="layer1"><path
       style="fill:#000000;stroke:#000000;stroke-width:1.43368;stroke-linecap:square;stroke-miterlimit:3.6;paint-order:stroke fill markers"
       d=""
       id="path543"
       transform="scale(0.26458333)" /><path
       style="fill:#000000;stroke:#000000;stroke-width:0.506881;stroke-linecap:square;stroke-miterlimit:3.6;paint-order:stroke fill markers"
       d=""
       id="path551"
       transform="scale(0.26458333)" /><path
       style="fill:#000000;stroke:#000000;stroke-width:0.536448;stroke-linecap:square;stroke-miterlimit:3.6;paint-order:stroke fill markers"
       d="m 47.154055,116.55189 c 8.707214,-49.394874 12.318926,-69.646697 8.026024,-45.004045 -4.292902,24.64265 -11.416987,65.056645 -15.8313,89.808865 -4.414312,24.75223 -0.901939,4.59006 7.805276,-44.80482 z"
       id="path611" /><path
       style="fill:#000000;stroke:#000000;stroke-width:0.536448;stroke-linecap:square;stroke-miterlimit:3.6;paint-order:stroke fill markers"
       d="m 116.21718,38.988657 c -0.86636,-0.866527 -0.61316,-2.531384 0.50391,-3.313684 1.84992,-1.295471 4.62099,0.357513 4.23834,2.528244 -0.2186,1.24009 -1.45837,1.925209 -2.99397,1.654518 -0.58717,-0.103505 -1.37391,-0.494593 -1.74833,-0.869087 z m 3.28007,-1.066807 c 0.17771,-0.59569 0.082,-1.009189 -0.28444,-1.229318 -0.89708,-0.538825 -1.91119,-0.222637 -2.06386,0.643486 -0.18396,1.043567 0.0815,1.366591 1.17557,1.430549 0.6772,0.03958 0.97234,-0.172995 1.17273,-0.844717 z"
       id="path617" /><path
       style="fill:#000000;stroke:#000000;stroke-width:0.536448;stroke-linecap:square;stroke-miterlimit:3.6;paint-order:stroke fill markers"
       d="m 39.883104,220.15625 c -3.802988,-2.39825 -6.387315,-5.61488 -7.723201,-9.61282 l -0.793039,-2.37334 3.4156,-20.65618 C 39.191736,160.8484 54.817983,72.202793 59.79223,45.636869 l 3.853247,-20.579027 1.549193,-1.949465 c 1.976705,-2.487433 5.142318,-4.692608 7.771872,-5.41391 4.502705,-1.235115 3.160903,-1.414676 46.579648,6.233309 39.17365,6.900232 40.08734,7.076908 41.95833,8.113291 1.05195,0.582699 2.50442,1.56255 3.2277,2.177447 1.80227,1.532179 4.03992,5.164158 4.8017,7.79372 l 0.63247,2.183182 -16.07771,91.206674 -16.07771,91.20667 -1.34084,1.83534 c -1.61498,2.21058 -4.95965,4.85852 -7.17718,5.6821 -0.88995,0.33052 -2.61153,0.79139 -3.82575,1.02416 l -2.20767,0.42321 -40.896489,-7.14632 -40.89649,-7.14632 z m 86.336686,13.62172 c 4.08743,-0.86758 8.25828,-3.78527 10.03814,-7.02214 0.9031,-1.6424 1.7425,-6.18974 16.63591,-90.12313 11.23692,-63.326813 15.68892,-89.056875 15.69923,-90.732919 0.0197,-3.201709 -0.48058,-4.962143 -2.16058,-7.602347 -1.6043,-2.521248 -3.53715,-4.207519 -6.48034,-5.653638 -1.83921,-0.903685 -4.96026,-1.50007 -41.30536,-7.892828 -27.914188,-4.909842 -39.824074,-6.886984 -41.068409,-6.817706 -4.11769,0.22925 -8.827317,2.554729 -11.001923,5.432433 -2.357518,3.119757 -1.468788,-1.44419 -18.188366,93.403735 -16.713638,94.81422 -15.993617,90.25708 -14.848948,93.98177 1.033527,3.36304 4.648533,7.24035 8.170114,8.76295 0.703433,0.30414 19.057294,3.65556 41.800106,7.63272 l 40.546016,7.0905 z"
       id="path621" /><path
       style="fill:#000000;stroke:#000000;stroke-width:2.02752;stroke-linecap:square;stroke-miterlimit:3.6;paint-order:stroke fill markers"
       d=""
       id="path627"
       transform="scale(0.26458333)" /><path
       style="fill:#000000;stroke:#000000;stroke-width:0.514261;stroke-linecap:square;stroke-miterlimit:3.6;paint-order:stroke fill markers"
       d="m 43.152267,217.72805 c -3.584345,-2.31272 -6.012468,-5.42669 -7.256393,-9.30604 L 35.157429,206.11905 38.48626,186.0259 C 42.78352,160.0872 57.984661,73.853173 62.815646,48.008561 l 3.742269,-20.020262 1.47419,-1.902228 c 1.881001,-2.427151 4.884802,-4.58567 7.374611,-5.299382 4.263411,-1.222097 2.995552,-1.390177 44.012874,5.834642 37.007,6.518537 37.87009,6.685809 39.6342,7.6841 0.99186,0.561299 2.36052,1.506682 3.04145,2.100856 1.69675,1.480541 3.79508,4.999882 4.50275,7.552023 l 0.58752,2.118905 -15.64032,88.725415 -15.64032,88.72543 -1.27662,1.79031 c -1.53767,2.15632 -4.71289,4.74606 -6.81361,5.55719 -0.84305,0.32551 -2.4731,0.78174 -3.6223,1.01382 l -2.08948,0.42194 -38.634837,-6.74934 -38.634848,-6.74933 z m 81.569153,12.82476 c 3.86899,-0.86287 7.82669,-3.71876 9.52519,-6.87338 0.8618,-1.60067 1.67734,-6.02448 16.16292,-87.67496 10.92924,-61.604376 15.26143,-86.634229 15.28017,-88.263146 0.034,-3.111991 -0.43056,-4.82064 -2.0064,-7.378707 -1.5048,-2.442815 -3.32428,-4.072495 -6.10023,-5.463905 -1.7347,-0.869493 -4.68291,-1.434162 -39.01787,-7.472959 -26.37031,-4.638031 -37.622065,-6.502434 -38.798962,-6.429124 -3.894535,0.242608 -8.358837,2.525477 -10.428838,5.332913 -2.244112,3.043567 -1.381855,-1.396623 -17.646582,90.870988 -16.258949,92.23484 -15.556234,87.80206 -14.491814,91.41678 0.96108,3.26372 4.360573,7.01492 7.683046,8.47788 0.663662,0.29223 18.001823,3.46146 39.486906,7.21776 l 38.303724,6.69676 z"
       id="path621-9" /><path
       style="fill:#00ff00;stroke:#00ff00;stroke-width:0.494205;stroke-linecap:square;stroke-miterlimit:3.6;paint-order:stroke fill markers"
       d="m 64.455786,172.68058 c -1.779156,-1.1649 -3.346972,-3.22497 -4.100764,-5.38829 -0.877234,-2.51764 -0.136782,-6.71813 1.548432,-8.78405 5.181866,-6.3525 14.967876,-4.56557 17.325599,3.16365 0.491897,1.61257 0.516725,2.35388 0.148884,4.44521 -0.376705,2.14131 -0.629074,2.75251 -1.71905,4.16213 -1.439802,1.86203 -3.554451,3.25184 -5.733147,3.76801 -2.053592,0.48652 -5.642348,-0.17006 -7.469957,-1.36664 z m 8.768086,-2.65809 c 1.317682,-0.66448 1.474267,-1.75617 0.400893,-2.795 -1.012704,-0.98011 -1.487387,-1.09383 -2.576598,-0.61725 -1.107208,0.48447 -1.866235,0.036 -2.652366,-1.56695 -0.786208,-1.60315 -0.73068,-2.15689 0.276189,-2.75419 0.963756,-0.57173 1.048735,-1.08548 0.422764,-2.55588 -0.622769,-1.46288 -1.410632,-1.62889 -2.735682,-0.57647 -1.945986,1.5456 -1.797879,4.57365 0.38506,7.87238 0.548363,0.82866 1.397311,1.84455 1.88655,2.25754 1.209951,1.02141 3.347727,1.36386 4.593201,0.73576 z"
       id="path803" /><path
       style="fill:#ff0000;stroke:#ff0000;stroke-width:0.536448;stroke-linecap:square;stroke-miterlimit:3.6;paint-order:stroke fill markers"
       d="m 112.78371,163.71193 c 0.57447,-0.27191 1.8773,-0.61669 2.89519,-0.76617 5.94856,-0.87361 11.1812,3.87878 10.90458,9.90376 -0.13373,2.91302 -1.02612,4.82712 -3.18255,6.82628 -6.51197,6.03706 -16.94284,0.62557 -15.93781,-8.26846 0.40599,-3.59305 2.23144,-6.23324 5.32059,-7.69541 z m -2.09543,7.36756 c -0.60315,1.3592 -0.29991,2.21345 0.85138,2.39845 1.71902,0.27622 2.35996,-0.0248 2.93341,-1.37779 l 0.52929,-1.24878 1.68909,0.15902 c 2.10079,0.19778 2.80965,0.69872 2.62397,1.85429 -0.18054,1.12382 0.49686,1.97008 1.8393,2.29787 2.03765,0.49738 2.75312,-2.3043 1.1113,-4.35168 -0.81695,-1.01874 -3.10407,-1.99513 -5.3613,-2.28876 -3.16991,-0.41236 -5.28479,0.45769 -6.21655,2.55746 z"
       id="path886" /><path
       style="fill:#2a7fff;stroke:#2a7fff;stroke-width:0.536448;stroke-linecap:square;stroke-miterlimit:3.6;paint-order:stroke fill markers"
       d="M 95.351648,140.68968 C 87.70207,137.73866 82.17073,131.586 80.05144,123.67085 c -1.927281,-7.19804 -0.358557,-15.01718 4.270306,-21.28492 2.621295,-3.54938 8.067261,-7.301813 12.419898,-8.55768 4.479566,-1.292488 7.232416,-1.449736 11.647186,-0.665299 4.23737,0.752918 6.84509,1.856479 10.27716,4.3492 8.31125,6.036469 12.15706,17.538139 9.06365,27.106619 -1.84908,5.71956 -4.69922,9.55213 -9.74853,13.10886 -5.48634,3.86456 -11.87856,5.28061 -18.344556,4.0638 -1.53446,-0.28876 -3.462668,-0.78454 -4.284906,-1.10175 z m 23.309682,-6.45579 c 0.43198,-0.7192 -0.27813,-2.47618 -1.84235,-4.55839 -1.88526,-2.50956 -3.61713,-4.05577 -6.77432,-6.04811 -1.78421,-1.12591 -2.59037,-1.84468 -2.58255,-2.30254 0.006,-0.36611 0.73978,-1.50107 1.63004,-2.52213 0.89027,-1.02106 1.78537,-2.22802 1.98913,-2.68213 0.20376,-0.45411 0.73568,-1.02811 1.18206,-1.27556 0.89371,-0.49542 0.97312,-0.84653 1.48333,-6.5582 0.33691,-3.77171 -0.0111,-5.22918 -1.71614,-7.1865 -2.50273,-2.873081 -8.26092,-3.409466 -11.04679,-1.02902 -1.033798,0.88336 -2.120776,3.55463 -2.28287,5.61022 -0.07626,0.96712 -0.287946,1.81788 -0.470408,1.89056 -0.598741,0.23852 -0.896413,3.11195 -0.384844,3.71491 0.263427,0.31048 0.708516,1.49491 0.98909,2.63205 0.280573,1.13715 0.811697,2.65089 1.180272,3.36387 0.48063,0.92973 0.56499,1.53155 0.29831,2.12809 -0.462392,1.03435 -0.902901,1.27623 -2.764062,1.51774 -4.293902,0.55718 -10.188952,3.21997 -11.719496,5.29369 -0.635175,0.86058 -0.639874,1.00103 -0.06273,1.87434 l 0.623891,0.94405 15.997277,2.82619 c 13.44625,2.37552 16.04127,2.75295 16.27316,2.36688 z"
       id="path1109" /><path
       style="fill:#2a7fff;stroke:#2a7fff;stroke-width:0;stroke-linecap:square;stroke-miterlimit:3.6;stroke-dasharray:none;paint-order:stroke fill markers"
       id="path1160"
       d="m 111.9464,116.08747 c 0.27389,-0.62322 0.65377,-1.19261 1.01398,-1.76801 0.0189,-0.0303 0.18682,-0.29632 0.2256,-0.36893 0.006,-0.0111 0.0241,-0.0373 0.0115,-0.0363 -0.0322,0.002 -0.0639,0.0198 -0.0871,0.0422 -0.0505,0.0488 -0.0869,0.1103 -0.12913,0.16634 -0.0617,0.0818 -0.12178,0.16488 -0.18268,0.24733 -0.19956,0.2725 -0.39292,0.54945 -0.58736,0.82559 -0.0495,0.0703 -0.14305,0.22616 -0.21353,0.29736 0.0239,-0.0169 0.0536,-0.0278 0.0718,-0.0508 0.0389,-0.0493 0.0639,-0.10818 0.0965,-0.16194 0.0478,-0.0791 0.0963,-0.15768 0.14457,-0.23647 0.14019,-0.22902 0.28136,-0.45742 0.42384,-0.68504 0.0207,-0.0319 0.0585,-0.0579 0.0622,-0.0958 0.001,-0.0189 -0.0418,7.6e-4 -0.0546,0.0152 -0.0399,0.0437 -0.0639,0.0998 -0.0958,0.14971 -0.156,0.24401 -0.31224,0.48786 -0.46862,0.73164 -0.0402,0.0615 -0.0797,0.12334 -0.12054,0.18438 -0.0243,0.0362 -0.0487,0.0724 -0.0746,0.10752 -0.003,0.004 -0.0141,0.0108 -0.0106,0.008 0.0242,-0.0208 0.0547,-0.0356 0.0731,-0.0617 0.0422,-0.0596 0.0696,-0.1285 0.10637,-0.1916 0.0562,-0.0962 0.11488,-0.19088 0.17231,-0.28632 0.19978,-0.32274 0.40699,-0.64077 0.61529,-0.95803 0.0344,-0.0523 0.0697,-0.10405 0.10331,-0.1569 0.003,-0.004 0.008,-0.0141 0.004,-0.0117 -0.0435,0.0312 -0.0841,0.0663 -0.12618,0.0995 -0.369,0.50878 -0.74218,1.01473 -1.12934,1.5099 -0.0104,0.0129 -0.0475,0.0324 -0.0319,0.0386 0.0644,0.0254 0.12805,-0.11287 0.17799,-0.18251 0.23216,-0.32373 0.47634,-0.63818 0.7201,-0.95318 0.15098,-0.19225 0.31771,-0.40583 0.47202,-0.59802 0.0424,-0.0529 0.0857,-0.10529 0.12883,-0.15769 0.006,-0.008 0.0283,-0.0275 0.0195,-0.0227 -0.0429,0.0239 -0.0888,0.0458 -0.12347,0.0806 -0.0714,0.0719 -0.12749,0.15755 -0.19121,0.23633 -0.46289,0.55425 -0.91747,1.11653 -1.40208,1.65218 -0.0548,0.0349 0.0603,-0.0232 0.0826,-0.0453 0.0527,-0.0523 0.0905,-0.1178 0.13627,-0.17627 0.0662,-0.0845 0.13298,-0.16851 0.1997,-0.2526 0.21701,-0.27357 0.28183,-0.35398 0.50272,-0.63009 0.0288,-0.0359 0.35581,-0.44379 0.40935,-0.51124 0.0359,-0.0452 0.0718,-0.0902 0.10665,-0.13611 0.0106,-0.0139 0.0468,-0.0405 0.0296,-0.0432 -0.10005,-0.0166 -0.19983,0.15496 -0.2308,0.19122 -0.42873,0.51151 -0.86998,1.01232 -1.31505,1.5096 -0.0194,0.0217 -0.0866,0.0711 -0.0582,0.065 0.13994,-0.03 0.25846,-0.20937 0.33436,-0.29571 0.0838,-0.0953 0.16758,-0.1906 0.25086,-0.28635 0.27139,-0.31202 0.32986,-0.38212 0.60228,-0.7014 0.10796,-0.12858 0.37815,-0.44953 0.49693,-0.5943 0.0446,-0.0544 0.0895,-0.10867 0.13207,-0.1647 0.012,-0.0162 0.0526,-0.0506 0.0323,-0.0515 -0.12635,-0.006 -0.25273,0.18453 -0.30513,0.24018 -0.43559,0.49657 -0.8881,0.98176 -1.28759,1.50866 0.0512,-0.0261 0.11028,-0.0405 0.15369,-0.0782 0.0769,-0.0668 0.13487,-0.15272 0.20123,-0.23001 0.0905,-0.10537 0.18032,-0.21126 0.26923,-0.31793 0.28001,-0.33599 0.55112,-0.67846 0.81864,-1.0244 -0.139,-0.13283 0.24645,-0.18291 0.21752,-0.30414 -0.007,-0.0274 -0.0618,-0.0129 -0.0842,0.004 -0.0611,0.0463 -0.10085,0.11528 -0.15036,0.17371 -0.19623,0.2315 -0.31297,0.37632 -0.51096,0.61794 -0.27991,0.34764 -0.55484,0.6993 -0.82643,1.05348 -0.0467,0.0609 -0.0933,0.12192 -0.13907,0.18351 -0.0121,0.0168 -0.0563,0.0534 -0.0356,0.0514 0.0436,-0.004 0.0781,-0.0397 0.1171,-0.0596 0.47784,-0.6322 0.93493,-1.28061 1.359,-1.95016 0.0218,-0.0401 0.10915,-0.13416 0.0655,-0.12051 -0.17433,0.0546 -0.39349,0.41597 -0.46235,0.51255 -0.3036,0.42585 -0.59534,0.86001 -0.88723,1.29391 -0.0412,0.0621 -0.25084,0.37613 -0.31631,0.48025 -0.0111,0.0168 -0.0483,0.0469 -0.0292,0.0524 0.0335,0.01 0.0737,-0.009 0.0997,-0.0322 0.0555,-0.0494 0.0906,-0.11783 0.13554,-0.17707 0.0673,-0.0888 0.13407,-0.17798 0.20111,-0.26696 0.30164,-0.39453 0.5992,-0.79218 0.9004,-1.18705 0.0318,-0.0416 0.13824,-0.0941 0.0957,-0.12472 -0.0456,-0.0327 -0.0941,0.0614 -0.14112,0.0921 -0.44739,0.57822 -0.8999,1.1542 -1.39179,1.69556 -0.0132,0.0121 -0.0563,0.0425 -0.0396,0.0362 0.16893,-0.0638 0.18195,-0.14049 0.31275,-0.29735 0.0906,-0.10868 0.18196,-0.21679 0.27337,-0.32483 0.43453,-0.51144 0.21893,-0.25695 0.64682,-0.76348 0.0388,-0.0459 0.36237,-0.42912 0.43852,-0.51773 0.0224,-0.0261 0.097,-0.0581 0.0683,-0.0772 -0.0336,-0.0223 -0.0807,0.022 -0.10998,0.0496 -0.0771,0.0724 -0.13483,0.16308 -0.20301,0.24397 -0.0981,0.1164 -0.19728,0.23192 -0.29593,0.34787 -0.29597,0.34289 -0.59367,0.6843 -0.8972,1.02053 -0.0512,0.0568 -0.10247,0.11359 -0.15479,0.1694 -0.0112,0.0114 -0.0491,0.0388 -0.0345,0.0326 0.0463,-0.0194 0.0876,-0.0487 0.13139,-0.0732 0.57981,-0.69994 1.15537,-1.40336 1.70692,-2.12588 0.0369,-0.0507 0.0737,-0.10142 0.11059,-0.15213 0.003,-0.008 0.019,-0.0285 0.0113,-0.0237 -0.22928,0.15392 -0.19344,0.16198 -0.38637,0.43716 -0.19184,0.27366 -0.34549,0.49996 -0.5341,0.77568 -0.20878,0.30912 -0.18456,0.27103 -0.36034,0.53793 -0.0165,0.025 -0.0781,0.0678 -0.049,0.0754 0.0403,0.0112 0.0827,-0.0279 0.11024,-0.0592 0.0628,-0.0714 0.10285,-0.16004 0.15372,-0.2404 0.0754,-0.11897 0.14998,-0.2384 0.22499,-0.3576 0.24988,-0.40534 0.5006,-0.81029 0.74058,-1.22161 0.0489,-0.0838 0.21408,-0.33809 0.24309,-0.461 -0.04,0.0216 -0.0891,0.0315 -0.12004,0.0648 -0.056,0.0602 -0.09,0.13757 -0.13315,0.20751 -0.064,0.10373 -0.12658,0.20829 -0.18819,0.31346 -0.19772,0.33777 -0.38354,0.68133 -0.5649,1.02806 0.27368,-0.15729 -0.26337,0.33454 -0.14766,0.31806 0.13887,-0.0198 0.26705,-0.33483 0.29767,-0.39485 0.17726,-0.34754 0.2014,-0.41938 0.3613,-0.78732 0.12316,-0.32081 0.2571,-0.64153 0.33432,-0.97775 0.009,-0.0398 0.056,-0.10804 0.0173,-0.12127 -0.10414,-0.0356 -0.17166,0.18338 -0.23308,0.31758 -0.14152,0.35061 -0.26203,0.7096 -0.36588,1.07307 -0.0266,0.0931 -0.0523,0.1866 -0.0738,0.28103 -0.0118,0.0499 -0.0762,0.14969 -0.0248,0.15193 0.0686,0.003 0.0964,-0.0978 0.14468,-0.14673 0.20958,-0.56485 0.40705,-1.14565 0.48643,-1.74546 -0.002,-0.0166 0.009,-0.0475 -0.008,-0.0502 -0.10591,-0.0166 -0.11629,0.1355 -0.12983,0.18528 -0.0871,0.31849 -0.14503,0.6447 -0.20759,0.96854 -0.0558,0.30474 -0.1056,0.61053 -0.15346,0.9166 -0.005,0.0318 -0.0376,0.0735 -0.0138,0.0956 0.0725,0.068 0.0877,-0.14063 0.10748,-0.24447 0.12537,-0.68241 0.25077,-1.365 0.35643,-2.0508 0.002,-0.024 0.0243,-0.0554 0.007,-0.072 -0.0698,-0.0662 -0.0823,0.078 -0.0948,0.14475 -0.057,0.30607 -0.0883,0.61571 -0.12232,0.9249 -0.0292,0.32734 -0.0606,0.65512 -0.0678,0.98392 -0.001,0.0528 -0.002,0.10573 0.002,0.15841 0.002,0.0192 -0.006,0.0534 0.0129,0.0561 0.0299,0.004 0.053,-0.0289 0.0795,-0.0434 0.0141,-0.0567 0.0307,-0.1128 0.0414,-0.17019 0.12498,-0.66867 0.16916,-1.38361 0.2158,-2.06271 -0.1626,0.30787 0.0935,-0.42855 0.009,-0.34898 -0.11628,0.10892 -0.12001,0.48493 -0.12972,0.57343 -0.0391,0.35356 -0.0772,0.7072 -0.11621,1.06076 -0.0793,0.73887 -0.044,0.38186 -0.10704,1.07093 -6.3e-4,0.003 0.0434,0.0127 0.044,0.01 v 0 c 0.089,-0.68339 0.0425,-0.32886 0.13945,-1.06359 0.0694,-0.56197 0.0696,-0.52564 0.11873,-1.06121 0.0155,-0.16861 0.0693,-0.422 -0.0121,-0.59843 -0.0481,-0.10392 0.0736,0.71326 -0.0273,0.34258 -0.0644,0.74158 -0.11683,1.48658 -0.23023,2.22234 0.0117,0.0222 0.0149,0.0517 0.0352,0.0665 0.0122,0.009 -0.006,-0.0299 -0.006,-0.0451 -4e-5,-0.0516 0.003,-0.10316 0.006,-0.15467 0.0177,-0.32684 0.0485,-0.65284 0.0754,-0.97899 0.0302,-0.30855 0.0593,-0.61702 0.10347,-0.92397 0.0111,-0.0802 0.0526,-0.20124 -0.0278,-0.17739 -0.0223,0.007 -0.01,0.0455 -0.0141,0.0685 -0.14005,0.67988 -0.25314,1.36515 -0.35952,2.05101 -0.009,0.0684 -0.0345,0.13632 -0.028,0.20507 0.003,0.0306 0.0237,0.0826 0.0537,0.0753 0.0314,-0.008 0.0161,-0.0626 0.0227,-0.0941 0.0636,-0.30266 0.10657,-0.60914 0.16496,-0.91278 0.047,-0.25514 0.0846,-0.46831 0.13519,-0.7208 0.0166,-0.0827 0.0342,-0.16518 0.0537,-0.24725 0.0115,-0.048 0.0357,-0.0939 0.037,-0.14329 2.6e-4,-0.0245 -0.015,-0.0484 -0.0317,-0.0663 -0.008,-0.008 0.001,0.023 0.002,0.0346 -0.10693,0.58932 -0.29449,1.16196 -0.48446,1.72867 -0.005,0.0663 -0.0356,0.13592 -0.0143,0.19884 0.0158,0.0468 0.0201,-0.0968 0.0326,-0.14453 0.0905,-0.34201 0.1993,-0.68069 0.314,-1.01523 0.0381,-0.11121 0.0792,-0.22134 0.11893,-0.33198 0.0347,-0.0846 0.14804,-0.30351 0.10188,-0.36768 -0.0224,-0.031 -0.0141,0.0754 -0.0248,0.11214 -0.0925,0.32851 -0.22244,0.64547 -0.34621,0.96289 -0.16442,0.38611 -0.17378,0.42076 -0.34972,0.78726 -0.0416,0.0866 -0.2012,0.32813 -0.16668,0.46687 0.0279,0.11197 0.15565,-0.66061 0.16015,-0.30693 0.186,-0.34303 0.37378,-0.68496 0.56527,-1.02497 0.0596,-0.10583 0.11917,-0.2117 0.17973,-0.31697 0.0407,-0.0706 0.0942,-0.13472 0.12393,-0.21052 0.0161,-0.0397 0.006,-0.0854 0.009,-0.12801 -0.31736,0.56211 -0.68429,1.09574 -1.00309,1.6571 -0.0723,0.12107 -0.14543,0.24169 -0.21705,0.36317 -0.0659,0.11171 -0.21547,0.30594 -0.1443,0.38486 0.0206,0.0228 0.0416,-0.0453 0.06,-0.0698 0.0812,-0.10801 0.31888,-0.45262 0.37226,-0.52936 0.26192,-0.38233 0.27139,-0.39321 0.52829,-0.77999 0.171,-0.25746 0.21711,-0.26625 0.27248,-0.52674 0.002,-0.01 -0.015,0.0116 -0.0225,0.0174 -0.0398,0.0481 -0.0794,0.0963 -0.1192,0.14449 -0.57207,0.70732 -1.14654,1.41329 -1.69775,2.13703 -0.0127,0.0546 -0.0437,0.10776 -0.039,0.16358 0.002,0.0195 0.036,-0.0168 0.0504,-0.0299 0.0571,-0.0517 0.10999,-0.10783 0.16325,-0.16346 0.31402,-0.32803 0.61165,-0.67135 0.90414,-1.01855 0.009,-0.0111 0.44175,-0.53484 0.48312,-0.61358 0.0208,-0.0394 0.0444,-0.10329 0.0113,-0.13303 -0.0202,-0.0182 -0.53135,0.57976 -0.53173,0.5794 -0.27044,0.31922 -0.37711,0.4423 -0.64326,0.76792 -0.0898,0.10995 -0.17931,0.22027 -0.267,0.33195 -0.0604,0.0769 -0.24179,0.25029 -0.21542,0.39531 0.004,0.0215 0.0374,-0.0223 0.0562,-0.0335 0.51541,-0.52475 0.96634,-1.11068 1.39442,-1.70759 0.0108,-0.0583 0.0797,-0.13852 0.0329,-0.17489 -0.0417,-0.0324 -0.07,0.0791 -0.10359,0.11994 -0.31564,0.38432 -0.60797,0.7873 -0.90476,1.18608 -0.0649,0.0907 -0.13041,0.18104 -0.19474,0.27217 -0.0429,0.0608 -0.0969,0.11543 -0.12697,0.18344 -0.0138,0.0323 -0.0195,0.0758 -0.001,0.10571 0.0104,0.0169 0.0262,-0.0298 0.0381,-0.0457 0.1102,-0.14707 0.2307,-0.32277 0.33294,-0.4687 0.29581,-0.43065 0.58883,-0.86313 0.88264,-1.29514 0.11292,-0.16596 0.30097,-0.38149 0.33662,-0.60098 0.007,-0.044 -0.0485,0.0749 -0.0728,0.11231 -0.4454,0.65469 -0.89895,1.30374 -1.34778,1.95607 -0.007,0.0456 -0.0327,0.0924 -0.0201,0.13688 0.005,0.0207 0.032,-0.0288 0.046,-0.045 0.0501,-0.0581 0.0982,-0.11801 0.14648,-0.17762 0.28087,-0.34632 0.55461,-0.69833 0.83031,-1.04876 0.12031,-0.15136 0.3697,-0.46461 0.49794,-0.62831 0.0469,-0.0598 0.10531,-0.1124 0.13942,-0.18029 0.0124,-0.0242 0.0188,-0.0834 -0.008,-0.0812 -0.12334,0.0104 -0.0467,0.39392 -0.23167,0.2902 -0.27189,0.34144 -0.54434,0.68241 -0.8188,1.02181 -0.0872,0.10786 -0.17477,0.21545 -0.26229,0.32308 -0.0639,0.0787 -0.13794,0.15024 -0.19221,0.23595 -0.0306,0.0483 -0.0394,0.10732 -0.059,0.16099 0.4358,-0.49577 0.86222,-0.99972 1.29263,-1.50017 0.0654,-0.0758 0.21243,-0.19193 0.21045,-0.32264 -6.4e-4,-0.0194 -0.0265,0.0281 -0.0393,0.0425 -0.21806,0.24549 -0.43118,0.49537 -0.64338,0.74592 -0.0607,0.0717 -0.52874,0.6248 -0.59695,0.70562 -0.0819,0.0971 -0.16389,0.194 -0.24531,0.29146 -0.0587,0.0702 -0.24638,0.24907 -0.2408,0.38275 9.1e-4,0.0294 0.0431,-0.0403 0.0648,-0.0605 0.46412,-0.48165 0.90014,-0.98971 1.31719,-1.51253 0.0323,-0.0414 0.17671,-0.16936 0.14208,-0.26625 -0.006,-0.0164 -0.0249,0.0243 -0.0364,0.0373 -0.0383,0.0431 -0.0755,0.087 -0.11286,0.13104 -0.19367,0.22881 -0.21226,0.25441 -0.417,0.50596 -0.20348,0.25659 -0.30108,0.37729 -0.49827,0.63501 -0.0654,0.0855 -0.13035,0.17149 -0.19421,0.25818 -0.0446,0.0605 -0.0974,0.11625 -0.13122,0.18335 -0.0812,0.16095 -0.0552,0.14089 0.005,0.11827 0.51856,-0.50597 0.95741,-1.08903 1.41371,-1.64957 0.061,-0.0816 0.13215,-0.15662 0.18307,-0.24491 0.0267,-0.0464 0.042,-0.10028 0.0468,-0.15358 0.001,-0.0134 -0.0254,0.0105 -0.0349,0.0202 -0.0482,0.0485 -0.0927,0.10061 -0.13711,0.15256 -0.18503,0.21623 -0.29857,0.36416 -0.48053,0.59328 -0.23745,0.31063 -0.3041,0.39167 -0.52488,0.70347 -0.062,0.0876 -0.12272,0.17603 -0.18186,0.26556 -0.0363,0.0549 -0.0816,0.10602 -0.10432,0.16786 -0.0626,0.17062 0.0398,0.0592 0.0522,0.0481 0.41155,-0.47751 0.77817,-0.9931 1.13077,-1.51495 0.0168,-0.0547 0.0382,-0.10824 0.0492,-0.16435 0.001,-0.007 -0.0145,0.005 -0.019,0.0101 -0.0394,0.049 -0.0753,0.10072 -0.11142,0.15223 -0.21845,0.31202 -0.4231,0.63358 -0.61791,0.96083 -0.0178,0.0315 -0.23758,0.40824 -0.26535,0.49209 -0.0901,0.27212 0.0867,0.0244 0.10323,0.001 0.0427,-0.06 0.083,-0.12174 0.1245,-0.18261 0.15785,-0.24352 0.31558,-0.48706 0.46226,-0.73756 0.0308,-0.0528 0.0718,-0.10144 0.0896,-0.1599 0.007,-0.0209 -0.002,-0.0689 -0.0223,-0.0619 -0.0365,0.0125 -0.0461,0.0619 -0.0691,0.0929 -0.14826,0.22479 -0.29137,0.45215 -0.42861,0.68388 -0.0473,0.0798 -0.094,0.15993 -0.1396,0.24068 -0.0313,0.0553 -0.0697,0.10766 -0.0912,0.16751 -0.0119,0.033 -0.004,0.0701 -0.007,0.10513 0.0838,-0.0511 0.18976,-0.22945 0.23641,-0.29348 0.1988,-0.27296 0.39252,-0.54954 0.58716,-0.82545 0.0588,-0.0838 0.11768,-0.16755 0.17652,-0.25131 0.04,-0.0569 0.087,-0.1096 0.12018,-0.1708 0.0138,-0.0263 0.0183,-0.0575 0.0195,-0.0874 8.3e-4,-0.0104 -0.0103,0.0183 -0.0162,0.0271 -0.0286,0.0437 -0.058,0.0868 -0.0867,0.13032 -0.0506,0.0766 -0.10067,0.15347 -0.15106,0.2302 -0.36671,0.57437 -0.75232,1.14982 -0.99213,1.79135 -8.7e-4,0.002 0.0292,0.0143 0.0301,0.0114 z" /><path
       style="fill:#2a7fff;stroke:#2a7fff;stroke-width:0;stroke-linecap:square;stroke-miterlimit:3.6;stroke-dasharray:none;paint-order:stroke fill markers"
       id="path1724"
       d="m 113.61172,107.98573 c -0.008,0.4335 0.006,0.87075 0.0803,1.29873 0.0292,0.0924 0.0303,0.15959 0.21206,-0.008 0.0302,-0.0278 0.005,-0.0818 0.007,-0.12277 0.01,-0.17216 0.0217,-0.34408 0.0329,-0.51614 0.009,-0.16541 0.0212,-0.33106 0.0204,-0.49687 -3e-4,-0.0594 -0.005,-0.14963 -0.0125,-0.15163 -0.0562,-0.014 -0.11576,0.005 -0.17362,0.008 -0.16086,0.44706 -0.20254,0.92604 -0.23444,1.39674 -0.003,0.11426 -0.0105,0.23245 4.4e-4,0.34713 0.002,0.0216 -0.008,0.0616 0.0135,0.0636 0.0725,0.007 0.15446,-4.9e-4 0.2144,-0.0419 0.0331,-0.0228 0.0131,-0.0791 0.0189,-0.11881 0.009,-0.0605 0.0153,-0.1213 0.0229,-0.18195 0.0334,-0.39665 0.10292,-0.79756 0.0618,-1.19623 -0.0335,-0.0855 -0.0386,-0.13671 -0.22255,-0.0105 -0.0415,0.0284 -0.0323,0.0952 -0.0459,0.14362 -0.0775,0.27661 -0.12603,0.55708 -0.17277,0.84012 -0.0349,0.27269 -0.0635,0.54818 -0.0566,0.82361 8.5e-4,0.0413 0.004,0.0827 0.0103,0.12354 0.003,0.0177 -0.003,0.051 0.0153,0.0512 0.0845,0.001 0.16591,-0.032 0.24887,-0.048 0.0915,-0.38889 0.11677,-0.7897 0.12645,-1.18794 -0.007,-0.1805 0.0668,-0.32054 -0.22149,-0.2501 -0.0257,0.006 -0.023,0.0477 -0.0333,0.0721 -0.0158,0.0377 -0.0303,0.076 -0.0456,0.11399 -0.12756,0.33593 -0.18675,0.69072 -0.23608,1.0449 -0.008,0.15989 -0.0527,0.28184 0.23658,0.1465 0.028,-0.0131 0.006,-0.0616 0.009,-0.0924 0.005,-0.0388 0.009,-0.0777 0.0134,-0.11641 0.0207,-0.13453 0.0403,-0.26921 0.0592,-0.404 0.007,-0.0529 0.0245,-0.12148 0.017,-0.17671 -0.0801,0.005 -0.16938,-0.0228 -0.24015,0.0144 -0.0411,0.0218 -0.0274,0.089 -0.0396,0.13399 -0.0624,0.22987 -0.10511,0.46375 -0.14,0.69915 -0.0152,0.18313 -0.0808,0.34874 0.25198,0.20927 0.034,-0.0142 0.023,-0.0702 0.034,-0.10538 0.0137,-0.0433 0.0263,-0.0868 0.0394,-0.13036 0.043,-0.20913 0.13173,-0.42588 0.11418,-0.64314 -0.005,-0.0119 -0.01,-0.0237 -0.0143,-0.0356 -6.8e-4,-0.0134 -0.1904,-0.003 -0.18964,0.0107 v 0 c -0.004,-0.006 -0.007,-0.0116 -0.0108,-0.0175 -0.076,0.19138 -0.093,0.40451 -0.15447,0.60038 -0.01,0.0433 -0.0203,0.0864 -0.0299,0.1296 -0.008,0.0329 -0.0464,0.073 -0.0245,0.0987 0.23394,0.27437 0.21784,0.10602 0.25836,-0.0444 0.0498,-0.23039 0.0943,-0.46175 0.12663,-0.69529 0.006,-0.0459 0.0421,-0.0989 0.0172,-0.13795 -0.0457,-0.0713 -0.13551,-0.10166 -0.20326,-0.15253 -0.0871,0.14243 -0.091,0.43577 -0.1219,0.59821 -0.003,0.0415 -0.008,0.0827 -0.0109,0.12416 -0.002,0.0337 -0.028,0.0779 -0.004,0.10113 0.25583,0.24223 0.23637,0.11732 0.27455,-0.048 0.0613,-0.34184 0.14112,-0.68016 0.20339,-1.02186 0.008,-0.0394 0.0169,-0.0786 0.0249,-0.11799 0.005,-0.0259 0.0333,-0.0587 0.0147,-0.0778 -0.2336,-0.24415 -0.196,-0.0195 -0.22529,0.12757 -0.0456,0.38654 -0.0704,0.77502 -0.11021,1.16209 0.0705,0.043 0.13658,0.0945 0.21164,0.1291 0.009,0.004 0.008,-0.0174 0.0108,-0.0267 0.008,-0.037 0.0139,-0.0744 0.0194,-0.11183 0.0387,-0.26539 0.0637,-0.53268 0.0917,-0.79932 0.0289,-0.28265 0.0678,-0.56472 0.09,-0.848 0.003,-0.0472 0.0359,-0.10374 0.008,-0.1418 -0.0849,-0.11489 -0.11725,-0.10373 -0.18384,-0.0844 -0.0607,0.39045 -0.0865,0.78644 -0.10186,1.18087 -4.1e-4,0.0611 -9.2e-4,0.12212 -0.001,0.18318 4e-5,0.0401 -0.027,0.0903 -1.6e-4,0.12013 0.0504,0.0561 0.12826,0.0846 0.2013,0.10372 0.0161,0.004 0.009,-0.032 0.0116,-0.0483 0.0156,-0.0914 0.033,-0.24987 0.0428,-0.331 0.0488,-0.46097 0.0862,-0.92283 0.1182,-1.38522 -0.0477,-0.0286 -0.0895,-0.0703 -0.14289,-0.0858 -0.0137,-0.004 -0.004,0.0285 -0.006,0.0428 -0.0239,0.19294 -0.0377,0.38688 -0.0554,0.58041 -0.0168,0.17661 -0.0345,0.35296 -0.0319,0.53065 5.5e-4,0.0429 -0.0222,0.0971 0.007,0.12861 0.0495,0.0536 0.12631,0.0799 0.19805,0.0934 0.0181,0.003 0.007,-0.0363 0.0101,-0.0545 0.0132,-0.43658 -0.0298,-0.87682 -0.11467,-1.3048 3.2e-4,-0.0134 -0.18799,-0.0194 -0.18843,-0.006 z" /><path
       style="fill:#2a7fff;stroke:#2a7fff;stroke-width:0;stroke-linecap:square;stroke-miterlimit:3.6;stroke-dasharray:none;paint-order:stroke fill markers"
       id="path1726"
       d="m 113.52705,107.91775 c -0.13474,0.63936 -0.16342,1.29802 -0.18628,1.94963 0.006,0.0313 -0.0326,0.55064 0.0852,0.52303 0.0134,-0.003 0.0216,-0.0173 0.0325,-0.026 0,-0.003 -0.0403,-0.003 -0.0401,-9.8e-4 v 0 c 0.0142,0.0197 0.0209,0.0481 0.0425,0.059 0.14241,0.0715 0.19962,-0.47603 0.20107,-0.50179 0.0328,-0.37037 0.0554,-0.74022 0.0655,-1.11201 0.005,-0.1783 0.0102,-0.47779 -0.001,-0.66382 -0.004,-0.0673 -0.016,-0.13396 -0.024,-0.20094 0.002,-0.0124 -0.17314,-0.0386 -0.17493,-0.0268 z" /><path
       style="fill:#2a7fff;stroke:#2a7fff;stroke-width:0;stroke-linecap:square;stroke-miterlimit:3.6;stroke-dasharray:none;paint-order:stroke fill markers"
       id="path1728"
       d="m 113.78339,107.33866 c -0.0292,0.0824 -0.063,0.16335 -0.0874,0.24733 -0.18487,0.63634 -0.30222,1.36138 -0.35324,2.02115 -0.0109,0.14239 -0.01,0.28543 -0.0147,0.42812 0.007,0.098 0.0151,0.19598 0.0227,0.29398 -0.002,0.009 0.12591,0.0389 0.12806,0.0297 v 0 c 0.0332,-0.0883 0.0665,-0.17659 0.0996,-0.2649 0.0341,-0.13559 0.0737,-0.26991 0.10217,-0.40678 0.11118,-0.53339 0.17328,-1.07806 0.22752,-1.61961 0.0139,-0.13869 0.0304,-0.27726 0.0379,-0.41643 0.005,-0.0903 -6.9e-4,-0.181 -0.001,-0.27151 0.003,-0.0115 -0.15886,-0.0528 -0.16179,-0.0413 z" /><path
       style="fill:#2a7fff;stroke:#2a7fff;stroke-width:0;stroke-linecap:square;stroke-miterlimit:3.6;stroke-dasharray:none;paint-order:stroke fill markers"
       id="path1730"
       d="m 113.57143,108.69918 c -0.1105,0.33941 -0.16748,0.69435 -0.2141,1.04753 -0.0173,0.0972 -0.0153,0.19621 -0.0315,0.2934 -0.0157,0.0776 -0.0324,0.15488 -0.0471,0.2327 -0.0123,0.0753 -0.0245,0.15061 -0.0358,0.22607 -0.008,0.0502 -0.0179,0.1 -0.0267,0.15002 -0.025,0.0839 0.002,0.1641 0.031,0.24269 0.0459,0.10872 0.09,0.21329 0.17789,0.29403 0.0684,0.0488 0.0334,0.0281 0.10425,0.0631 0.001,0.003 0.0448,-0.0171 0.0434,-0.0202 v 0 c 0.002,-0.0605 0.002,-0.0286 -0.002,-0.0954 -0.015,-0.10715 -0.0717,-0.19762 -0.1184,-0.29374 -0.0257,-0.0484 -0.0578,-0.0886 -0.0443,-0.14135 0.009,-0.0501 0.0167,-0.10039 0.026,-0.15045 0.0151,-0.0744 0.0293,-0.14896 0.0435,-0.22352 0.0138,-0.0785 0.0257,-0.15725 0.0366,-0.23624 0.016,-0.0954 0.0483,-0.18665 0.0663,-0.2817 0.078,-0.34819 0.14911,-0.70072 0.16786,-1.05769 0.003,-0.0125 -0.17322,-0.0618 -0.17671,-0.0493 z" /><path
       style="fill:#2a7fff;stroke:#2a7fff;stroke-width:0;stroke-linecap:square;stroke-miterlimit:3.6;stroke-dasharray:none;paint-order:stroke fill markers"
       id="path1732"
       d="m 113.31943,109.44596 c -0.0947,0.27304 -0.14687,0.55897 -0.19022,0.84408 -0.0181,0.11434 -0.0128,0.22579 0.0335,0.33186 0.005,0.009 0.009,0.0187 0.0101,0.0289 -0.008,0.0246 -0.0168,0.049 -0.0213,0.0746 0.0149,-0.13623 0.14157,0.11106 0.10764,-0.0386 2.5e-4,-0.003 -0.0418,-0.005 -0.0419,-0.003 v 0 c -0.0126,0.11159 0.10104,0.24747 0.14781,0.0982 0.004,-0.0196 0.008,-0.0418 0.013,-0.0621 0.0115,-0.0539 0.0124,-0.10482 -0.0118,-0.15607 -0.0382,-0.0674 -0.0201,-0.14316 -0.008,-0.21632 0.0595,-0.27993 0.12371,-0.56011 0.15106,-0.84541 0.004,-0.0134 -0.1858,-0.0695 -0.18975,-0.0562 z" /><path
       style="fill:#2a7fff;stroke:#2a7fff;stroke-width:0;stroke-linecap:square;stroke-miterlimit:3.6;stroke-dasharray:none;paint-order:stroke fill markers"
       id="path1734"
       d="m 113.25025,109.81732 c -0.0798,0.25011 -0.14314,0.52167 -0.0771,0.78128 0.0119,0.0228 0.0192,0.0489 0.0358,0.0686 0.10408,0.12338 0.16471,0.0503 0.22644,0.12359 -0.005,-0.001 -0.0158,-0.009 -0.0146,-0.004 0.0128,0.0489 0.0739,0.0802 0.10633,0.10942 0.0135,0.0125 0.0233,0.0282 0.0349,0.0422 4.6e-4,0.003 0.0507,-0.006 0.05,-0.01 v 0 c -9e-5,-0.0168 -0.002,-0.0336 -2.9e-4,-0.0502 0.003,-0.021 0.0153,-0.0406 0.0149,-0.0617 -8.7e-4,-0.0815 -0.0722,-0.14486 -0.12631,-0.19228 -0.0602,-0.0307 -0.0417,-0.0266 -0.10362,-0.0394 -0.0124,-0.002 -0.0413,-0.0191 -0.0373,-0.007 0.004,0.011 0.0164,0.0176 0.0189,0.0288 0.002,0.01 -0.0117,-0.0151 -0.0175,-0.0226 -0.0403,-0.23703 0.0439,-0.47506 0.0619,-0.71057 0.004,-0.0122 -0.16886,-0.0689 -0.17288,-0.0566 z" /><path
       style="fill:#2a7fff;stroke:#2a7fff;stroke-width:0;stroke-linecap:square;stroke-miterlimit:3.6;stroke-dasharray:none;paint-order:stroke fill markers"
       id="path1736"
       d="m 110.81916,116.756 c 0.12963,-0.27518 0.22638,-0.56408 0.35641,-0.8392 0.0285,-0.0747 0.0819,-0.13532 0.11789,-0.20564 0.0237,-0.0719 0.0647,-0.13566 0.0983,-0.20325 0.0198,-0.0605 0.0484,-0.11073 0.0883,-0.15964 0.0558,-0.0893 0.10877,-0.17983 0.18026,-0.25768 0.0466,-0.037 0.0957,-0.0702 0.14137,-0.10851 0.0648,-0.0549 0.12483,-0.11524 0.19088,-0.16858 0.087,-0.0742 0.18199,-0.13799 0.2621,-0.21973 0.0499,-0.0507 0.0519,-0.11878 0.0789,-0.18123 0.002,-0.003 -0.0346,-0.0371 -0.0371,-0.0345 v 0 c -0.0617,0.0262 -0.12428,0.0201 -0.18285,0.0555 -0.10093,0.0616 -0.18811,0.13995 -0.2771,0.21733 -0.0616,0.0577 -0.12775,0.11079 -0.18409,0.17399 -0.0497,0.044 -0.10926,0.0731 -0.15933,0.11684 -0.0793,0.081 -0.14605,0.17579 -0.18835,0.2815 -0.0391,0.0585 -0.0793,0.11554 -0.10446,0.18187 -0.0362,0.0666 -0.0688,0.13502 -0.0871,0.20883 -0.0331,0.0704 -0.11034,0.11442 -0.13971,0.18841 -0.15995,0.27306 -0.2745,0.57175 -0.33777,0.88213 -0.005,0.0129 0.17839,0.0845 0.18344,0.0715 z" /><path
       style="fill:#2a7fff;stroke:#2a7fff;stroke-width:0;stroke-linecap:square;stroke-miterlimit:3.6;stroke-dasharray:none;paint-order:stroke fill markers"
       id="path1742"
       d="m 111.62177,115.35007 c 0.18747,-0.2401 0.35199,-0.498 0.51216,-0.75696 0.0445,-0.0841 0.11089,-0.15099 0.17265,-0.22195 0.12638,-0.14663 0.24423,-0.29915 0.35135,-0.46045 0.0299,-0.0655 0.0993,-0.14128 0.10132,-0.21877 8.9e-4,-0.0166 -0.01,-0.032 -0.0148,-0.0479 0.004,-0.005 -0.0734,-0.0572 -0.077,-0.0517 v 0 c -0.0159,0.001 -0.033,-0.003 -0.0474,0.003 -0.0686,0.0307 -0.10935,0.12262 -0.15866,0.1722 -0.11142,0.15279 -0.21928,0.30799 -0.32605,0.46404 -0.0581,0.0801 -0.12757,0.14881 -0.19172,0.22402 -0.19105,0.24343 -0.35656,0.5068 -0.49456,0.78382 -0.008,0.0122 0.16502,0.1225 0.17283,0.11027 z" /><path
       style="fill:#2a7fff;stroke:#2a7fff;stroke-width:0;stroke-linecap:square;stroke-miterlimit:3.6;stroke-dasharray:none;paint-order:stroke fill markers"
       id="path1744"
       d="m 111.57072,115.08876 c 0.18902,-0.22594 0.34847,-0.47493 0.53943,-0.69919 0.0765,-0.088 0.1646,-0.16443 0.24285,-0.2507 0.10639,-0.12311 0.20961,-0.24893 0.31022,-0.37681 0.0984,-0.12082 0.18671,-0.24942 0.28881,-0.36719 0.12037,-0.12989 0.22499,-0.26761 0.2851,-0.43502 0.0112,-0.12584 0.003,-0.0662 0.0245,-0.17918 0.002,-0.004 -0.0468,-0.0276 -0.0485,-0.0242 v 0 c -0.0631,0.0837 -0.0257,0.0447 -0.11454,0.1146 -0.11124,0.12188 -0.20041,0.26111 -0.30821,0.38604 -0.0978,0.12283 -0.1996,0.24255 -0.29613,0.36647 -0.0999,0.125 -0.19326,0.2547 -0.28697,0.38436 -0.0766,0.0887 -0.17851,0.14926 -0.25724,0.23628 -0.20904,0.2219 -0.40145,0.46216 -0.54039,0.73501 -0.008,0.0114 0.15365,0.12101 0.1614,0.10958 z" /><path
       style="fill:#2a7fff;stroke:#000000;stroke-width:0;stroke-linecap:square;stroke-miterlimit:3.6;stroke-dasharray:none;paint-order:stroke fill markers"
       id="path1746"
       d="m 111.52494,114.97438 c -0.27506,0.39069 -0.54178,0.80242 -0.70934,1.25277 -0.0306,0.0822 -0.0515,0.16775 -0.0773,0.25162 -0.015,0.0563 -0.0302,0.11246 -0.0454,0.16867 -0.003,0.007 0.0841,0.048 0.087,0.0419 v 0 c 0.0294,-0.0474 0.0588,-0.0949 0.0881,-0.1423 0.31936,-0.46509 0.59543,-0.96089 0.8051,-1.48541 0.006,-0.0105 -0.14218,-0.0978 -0.14835,-0.0873 z" /><path
       style="fill:#333333;stroke:#333333;stroke-width:1;stroke-linecap:square;stroke-miterlimit:3.6;stroke-dasharray:none;paint-order:stroke fill markers"
       d="m 44.144135,216.19828 c -2.837079,-1.65149 -5.661332,-5.06035 -6.523023,-7.87325 -0.331172,-1.08107 -0.396689,-2.7138 -0.200824,-5.00461 0.382806,-4.47724 29.160583,-167.700588 30.333132,-172.045152 0.700338,-2.594889 1.163745,-3.658676 2.045715,-4.696118 1.607959,-1.891404 4.927078,-3.953362 7.4688,-4.639894 l 2.163277,-0.584315 11.74558,1.842504 c 15.529578,2.436092 48.153118,8.18177 58.192828,10.248961 l 8.00453,1.648141 2.11789,1.550722 c 3.04283,2.227969 5.17467,5.641246 5.57139,8.920341 0.29851,2.467351 0.25228,2.740605 -15.19602,89.81688 l -15.49545,87.34201 -1.06538,1.53393 c -1.55623,2.24067 -5.24182,4.80731 -8.09405,5.6367 l -2.40497,0.69933 -38.741822,-6.85471 c -31.306179,-5.5391 -38.968259,-6.98652 -39.921613,-7.54147 z m 28.569227,-41.941 c 1.854196,-0.57742 4.194494,-2.29843 5.47802,-4.02843 1.323399,-1.78374 2.121317,-6.0826 1.544839,-8.32294 -0.579788,-2.25318 -1.951093,-4.29276 -3.811103,-5.66836 -2.084987,-1.54198 -6.048777,-2.35499 -8.458519,-1.73492 -4.956806,1.27548 -8.162226,5.69782 -7.849039,10.82889 0.200712,3.28833 2.701425,6.94545 5.653064,8.26722 1.895012,0.84859 5.739983,1.1888 7.442738,0.65854 z m 47.222888,7.98188 c 2.13811,-0.65957 4.79566,-2.86271 5.88391,-4.87781 1.745,-3.23122 1.44023,-8.09755 -0.68278,-10.90205 -2.9773,-3.93302 -8.55821,-5.15696 -13.01801,-2.85496 -4.30471,2.22196 -6.31137,8.02613 -4.42585,12.80158 0.71735,1.81681 2.92414,4.22956 4.70313,5.14205 1.69253,0.86815 5.75784,1.24083 7.5396,0.69119 z m -14.27423,-39.69755 c 4.3336,-0.31392 8.00541,-1.56578 11.70189,-3.98962 5.22084,-3.42338 8.3409,-7.22629 10.28348,-12.53414 1.25197,-3.42083 1.58557,-5.28674 1.53732,-8.59863 -0.11717,-8.04616 -4.08497,-15.74081 -10.47094,-20.306046 -1.59949,-1.143452 -3.73715,-2.435063 -4.75038,-2.870253 -2.64249,-1.134988 -9.01176,-2.152007 -11.91514,-1.90257 -7.012068,0.602431 -14.127578,4.566019 -18.336611,10.214129 -3.66342,4.91596 -5.538976,12.47766 -4.600953,18.54973 1.102381,7.13599 5.632044,14.08686 11.562946,17.74358 4.263926,2.62895 10.039508,4.05231 14.988378,3.69382 z M 120.29854,39.908696 c 1.22397,-0.857121 1.44503,-2.74681 0.45128,-3.857706 -1.75219,-1.958737 -4.94308,-1.320776 -5.36498,1.072634 -0.29573,1.677641 0.5725,2.740433 2.51907,3.08357 1.10659,0.195068 1.81611,0.106623 2.39463,-0.298498 z"
       id="path3298" /><text
       xml:space="preserve"
       style="font-size:10.5833px;font-family:Calibri;-inkscape-font-specification:Calibri;fill:#2a7fff;stroke:#000000;stroke-width:0.3;stroke-linecap:square;stroke-linejoin:bevel;stroke-miterlimit:1;paint-order:markers stroke fill"
       x="92.127808"
       y="54.646549"
       id="text363"
       transform="rotate(9.997264)"><tspan
         sodipodi:role="line"
         id="tspan361"
         style="fill:#ffffff;stroke:#ffffff;stroke-width:0.3"
         x="92.127808"
         y="54.646549">Příchozí hovor</tspan></text></g></svg>
