<?xml version="1.0" encoding="UTF-8" standalone="no"?>
<!-- Created with Inkscape (http://www.inkscape.org/) -->

<svg
   width="210mm"
   height="297mm"
   viewBox="0 0 210 297"
   version="1.1"
   id="svg5"
   xml:space="preserve"
   inkscape:version="1.2.1 (9c6d41e410, 2022-07-14)"
   sodipodi:docname="mobile_move_2.svg"
   inkscape:export-filename="mobile_move_2.png"
   inkscape:export-xdpi="96"
   inkscape:export-ydpi="96"
   xmlns:inkscape="http://www.inkscape.org/namespaces/inkscape"
   xmlns:sodipodi="http://sodipodi.sourceforge.net/DTD/sodipodi-0.dtd"
   xmlns="http://www.w3.org/2000/svg"
   xmlns:svg="http://www.w3.org/2000/svg"><sodipodi:namedview
     id="namedview7"
     pagecolor="#ffffff"
     bordercolor="#000000"
     borderopacity="0.25"
     inkscape:showpageshadow="2"
     inkscape:pageopacity="0.0"
     inkscape:pagecheckerboard="0"
     inkscape:deskcolor="#d1d1d1"
     inkscape:document-units="mm"
     showgrid="false"
     inkscape:zoom="0.52724989"
     inkscape:cx="-73.968721"
     inkscape:cy="421.05272"
     inkscape:window-width="1920"
     inkscape:window-height="1017"
     inkscape:window-x="-8"
     inkscape:window-y="-8"
     inkscape:window-maximized="1"
     inkscape:current-layer="layer1" /><defs
     id="defs2" /><g
     inkscape:label="Vrstva 1"
     inkscape:groupmode="layer"
     id="layer1"><path
       style="fill:#000000;stroke:#000000;stroke-width:1.43368;stroke-linecap:square;stroke-miterlimit:3.6;paint-order:stroke fill markers"
       d=""
       id="path543"
       transform="scale(0.26458333)" /><path
       style="fill:#000000;stroke:#000000;stroke-width:0.506881;stroke-linecap:square;stroke-miterlimit:3.6;paint-order:stroke fill markers"
       d=""
       id="path551"
       transform="scale(0.26458333)" /><path
       style="fill:#000000;stroke:#000000;stroke-width:0.536448;stroke-linecap:square;stroke-miterlimit:3.6;paint-order:stroke fill markers"
       d="M 47.81475,139.22099 C 35.670465,90.556982 30.729479,70.58782 36.834784,94.845077 c 6.105302,24.257263 16.041539,64.073263 22.08052,88.480013 6.038985,24.40676 1.043734,4.55991 -11.100554,-44.1041 z"
       id="path611" /><path
       style="fill:#000000;stroke:#000000;stroke-width:0.536448;stroke-linecap:square;stroke-miterlimit:3.6;paint-order:stroke fill markers"
       d="m 79.342945,40.26775 c -1.14398,-0.439043 -1.590096,-2.062877 -0.887984,-3.232013 1.162751,-1.936094 4.366642,-1.553642 4.900341,0.58497 0.304891,1.221741 -0.548845,2.352029 -2.061724,2.729574 -0.578482,0.144363 -1.45628,0.107226 -1.950683,-0.08252 z m 2.562203,-2.309123 c -0.08004,-0.616458 -0.33572,-0.955237 -0.760023,-1.007221 -1.038704,-0.127191 -1.836419,0.574265 -1.623466,1.427569 0.256571,1.028127 0.630497,1.21519 1.65593,0.828451 0.634712,-0.239388 0.817822,-0.553659 0.727559,-1.248799 z"
       id="path617" /><path
       style="fill:#000000;stroke:#000000;stroke-width:0.536448;stroke-linecap:square;stroke-miterlimit:3.6;paint-order:stroke fill markers"
       d="m 83.328174,236.81979 c -4.449765,-0.64336 -8.119297,-2.53015 -10.966311,-5.63863 l -1.690105,-1.84532 -5.284657,-20.25873 C 58.565023,182.92466 36.770507,95.59069 30.505041,69.299335 L 25.651559,48.933 26.2735,46.52186 c 0.793573,-3.076513 2.788035,-6.378939 4.896588,-8.107765 3.610572,-2.960344 2.311803,-2.578407 45.085757,-13.258667 38.591905,-9.63604 39.498425,-9.84642 41.629225,-9.660987 1.19803,0.10426 2.92352,0.408339 3.83441,0.675742 2.26975,0.666291 5.7916,3.073554 7.55741,5.165644 l 1.46606,1.736946 22.42418,89.857147 22.42418,89.85714 -0.47806,2.22211 c -0.57579,2.67643 -2.55366,6.45617 -4.24422,8.11078 -0.67847,0.66404 -2.06357,1.78552 -3.07802,2.49219 l -1.84446,1.28487 -40.26581,10.11225 -40.265808,10.11224 z m 84.409206,-22.68613 c 3.38077,-2.45565 6.00359,-6.81796 6.3124,-10.49897 0.15667,-1.86776 -0.92679,-6.36319 -21.47339,-89.09447 -15.50218,-62.419839 -21.9046,-87.735158 -22.57715,-89.270382 -1.28474,-2.932708 -2.45804,-4.337269 -5.06694,-6.065468 -2.49136,-1.650337 -4.9431,-2.404257 -8.22005,-2.52771 -2.04777,-0.07715 -5.14144,0.647985 -40.943041,9.596691 -27.49676,6.872889 -39.180659,9.912792 -40.289143,10.48238 -3.668142,1.884849 -7.024077,5.925411 -7.839632,9.438951 -0.884154,3.809075 -1.929329,-0.721605 21.390097,92.722918 23.311138,93.4113 22.114619,88.95548 24.675778,91.89216 2.312482,2.65154 7.19234,4.72247 11.028755,4.68045 0.766324,-0.008 18.895826,-4.41489 41.289146,-10.0356 l 39.92295,-10.02063 z"
       id="path621" /><path
       style="fill:#000000;stroke:#000000;stroke-width:2.02752;stroke-linecap:square;stroke-miterlimit:3.6;paint-order:stroke fill markers"
       d=""
       id="path627"
       transform="scale(0.26458333)" /><path
       style="fill:#000000;stroke:#000000;stroke-width:0.514261;stroke-linecap:square;stroke-miterlimit:3.6;paint-order:stroke fill markers"
       d="m 85.32648,233.27151 c -4.215238,-0.6542 -7.70031,-2.51077 -10.415066,-5.54834 l -1.611599,-1.80324 -5.134828,-19.70912 C 61.536319,180.76787 40.334717,95.809796 34.231878,70.235635 l -4.727505,-19.810759 0.572649,-2.337473 c 0.730677,-2.982505 2.596311,-6.176474 4.580298,-7.841506 3.397278,-2.851086 2.170726,-2.488748 42.578852,-12.578452 36.457408,-9.103129 37.313878,-9.30151 39.331548,-9.107386 1.13443,0.109158 2.76933,0.415856 3.63311,0.68156 2.15235,0.662056 5.50111,3.023115 7.18599,5.0665 l 1.39884,1.696518 21.81413,87.412603 21.81414,87.41261 -0.43771,2.15485 c -0.52725,2.59541 -2.37401,6.25303 -3.96293,7.84874 -0.63766,0.64038 -1.94104,1.72038 -2.89639,2.39997 l -1.73701,1.23562 -38.03831,9.55464 -38.038317,9.55466 z m 79.72989,-21.4743 c 3.18316,-2.36246 5.6364,-6.58158 5.90437,-10.15436 0.13591,-1.81283 -0.91907,-6.18572 -20.90933,-86.66568 -15.0824,-60.721229 -21.30937,-85.348173 -21.95504,-86.843779 -1.23517,-2.856571 -2.35476,-4.228361 -4.8351,-5.923911 -2.36855,-1.619175 -4.69371,-2.36753 -7.79562,-2.509054 -1.9384,-0.08844 -4.86128,0.595339 -38.682636,9.049481 -25.975864,6.492998 -37.012702,9.368102 -38.057944,9.913932 -3.458858,1.806254 -6.608033,5.708072 -7.356624,9.114861 -0.81156,3.693334 -1.830563,-0.713525 20.854463,90.18885 22.676969,90.8701 21.515243,86.53492 23.958351,89.4038 2.205892,2.59028 6.83757,4.63372 10.467838,4.61822 0.725146,-0.003 17.852702,-4.16274 39.007252,-9.47344 l 37.71445,-9.46795 z"
       id="path621-9" /><path
       style="fill:#00ff00;stroke:#00ff00;stroke-width:0.494205;stroke-linecap:square;stroke-miterlimit:3.6;paint-order:stroke fill markers"
       d="m 86.45755,183.45348 c -2.099203,-0.34019 -4.369585,-1.5841 -5.938386,-3.25353 -1.825729,-1.94288 -2.858467,-6.08122 -2.159658,-8.65408 2.148773,-7.91131 11.815162,-10.26079 17.113811,-4.15964 1.105471,1.27291 1.42978,1.93998 1.944697,4.00003 0.527168,2.10932 0.545318,2.77032 0.123208,4.50147 -0.557596,2.28676 -1.923784,4.41675 -3.703954,5.77475 -1.677953,1.27999 -5.223358,2.14045 -7.379712,1.79102 z m 6.927915,-5.99573 c 0.933305,-1.14313 0.632149,-2.20408 -0.771043,-2.71628 -1.323877,-0.48326 -1.803761,-0.39399 -2.604817,0.48453 -0.814286,0.89306 -1.690118,0.79223 -3.060451,-0.35216 -1.370485,-1.14454 -1.545072,-1.67296 -0.868352,-2.62827 0.647741,-0.9144 0.516329,-1.41828 -0.653769,-2.50676 -1.164112,-1.08291 -1.951356,-0.91398 -2.733545,0.58653 -1.148731,2.20367 0.218636,4.90946 3.554915,7.03457 0.838089,0.53384 2.026937,1.1164 2.641886,1.2946 1.520863,0.44073 3.613014,-0.11629 4.495162,-1.19682 z"
       id="path803" /><path
       style="fill:#ff0000;stroke:#ff0000;stroke-width:0.536448;stroke-linecap:square;stroke-miterlimit:3.6;paint-order:stroke fill markers"
       d="m 126.95484,155.59681 c 0.41413,-0.48213 1.46395,-1.32719 2.33295,-1.8779 5.07842,-3.21842 11.79201,-1.0063 13.99081,4.60994 1.06311,2.7154 1.02675,4.82698 -0.12967,7.5306 -3.49214,8.16436 -15.22238,7.46527 -17.92317,-1.06818 -1.0911,-3.44737 -0.49786,-6.60188 1.72908,-9.19447 z m 1.08363,7.58271 c 0.002,1.48702 0.62667,2.14397 1.75362,1.84452 1.68268,-0.44713 2.14568,-0.9829 2.119,-2.45216 l -0.0246,-1.35609 1.60765,-0.542 c 1.99949,-0.67412 2.85085,-0.50496 3.15142,0.62619 0.29235,1.10005 1.25547,1.59746 2.61513,1.35067 2.06374,-0.37475 1.57733,-3.22515 -0.75549,-4.42735 -1.16077,-0.59819 -3.6473,-0.5595 -5.8287,0.0907 -3.06342,0.91311 -4.64131,2.5684 -4.63808,4.86561 z"
       id="path886" /><path
       style="fill:#2a7fff;stroke:#2a7fff;stroke-width:0.536448;stroke-linecap:square;stroke-miterlimit:3.6;paint-order:stroke fill markers"
       d="m 101.66357,141.65936 c -8.188458,0.41682 -15.744656,-2.95287 -20.901154,-9.32087 -4.68932,-5.79108 -6.437832,-13.57199 -4.759728,-21.18085 0.950299,-4.30886 4.398255,-9.95252 7.8633,-12.870759 3.566089,-3.003337 6.016777,-4.26708 10.368751,-5.346826 4.177099,-1.036357 7.008221,-1.089326 11.157591,-0.208744 10.04832,2.132444 18.24126,11.074169 19.30879,21.073429 0.63812,5.97707 -0.406,10.63772 -3.57125,15.94121 -3.43921,5.76252 -8.70219,9.65696 -15.10384,11.17636 -1.51919,0.36057 -3.4823,0.69225 -4.36246,0.73705 z m 18.66611,-15.38164 c 0.10197,-0.83274 -1.26159,-2.14876 -3.53769,-3.41436 -2.74325,-1.52534 -4.95441,-2.2331 -8.6491,-2.76844 -2.08795,-0.30251 -3.11682,-0.63108 -3.29597,-1.0525 -0.14349,-0.33688 0.065,-1.67221 0.46277,-2.96716 0.39779,-1.29496 0.72435,-2.7617 0.72571,-3.25942 0.001,-0.49773 0.2537,-1.23849 0.56078,-1.64616 0.6148,-0.8162 0.54448,-1.16924 -1.31346,-6.59433 -1.22689,-3.58245 -2.13783,-4.772221 -4.49175,-5.866432 -3.455209,-1.606168 -8.933439,0.246789 -10.509698,3.554802 -0.584925,1.22758 -0.49095,4.11 0.197373,6.0537 0.323847,0.91446 0.47664,1.77775 0.339537,1.91838 -0.449886,0.46151 0.447359,3.20744 1.160002,3.55008 0.366965,0.17643 1.255474,1.07728 1.97446,2.00187 0.718989,0.92461 1.82008,2.09127 2.446868,2.59259 0.81734,0.65373 1.139275,1.16915 1.138393,1.82258 -0.0015,1.133 -0.3055,1.5332 -1.907362,2.51109 -3.695678,2.2561 -7.997224,7.08712 -8.551573,9.60418 -0.23006,1.04457 -0.177205,1.17478 0.705342,1.73769 l 0.954033,0.60852 15.763105,-3.92742 c 13.24943,-3.30112 15.7735,-4.01222 15.82824,-4.45925 z"
       id="path1109" /><path
       style="fill:#2a7fff;stroke:#2a7fff;stroke-width:0;stroke-linecap:square;stroke-miterlimit:3.6;stroke-dasharray:none;paint-order:stroke fill markers"
       id="path1160"
       d="m 106.8122,112.43358 c -0.003,-0.68074 0.11194,-1.35544 0.2069,-2.02761 0.005,-0.0353 0.0501,-0.3467 0.056,-0.4288 9.6e-4,-0.0126 0.007,-0.0439 -0.005,-0.0379 -0.0287,0.0149 -0.0504,0.044 -0.0624,0.074 -0.0263,0.0651 -0.0345,0.13612 -0.0502,0.20449 -0.0231,0.0998 -0.0442,0.20016 -0.0662,0.30026 -0.0714,0.33012 -0.13541,0.66178 -0.20062,0.99315 -0.0166,0.0844 -0.0387,0.2648 -0.0741,0.35851 0.0149,-0.0251 0.0376,-0.0472 0.045,-0.0756 0.0155,-0.0609 0.0146,-0.1248 0.0222,-0.18719 0.0116,-0.0917 0.0238,-0.18322 0.0359,-0.27483 0.0348,-0.26625 0.0709,-0.53233 0.1084,-0.79823 0.006,-0.0375 0.0299,-0.0767 0.0178,-0.11282 -0.007,-0.0177 -0.0378,0.0177 -0.0437,0.0361 -0.0186,0.0562 -0.0178,0.11717 -0.0266,0.17575 -0.0432,0.28637 -0.0867,0.57268 -0.13041,0.859 -0.0114,0.0725 -0.0226,0.1451 -0.0351,0.21748 -0.008,0.0429 -0.0152,0.0859 -0.0244,0.12857 -0.001,0.005 -0.009,0.0156 -0.007,0.0116 0.0137,-0.0288 0.0355,-0.0547 0.0417,-0.0861 0.0143,-0.0716 0.0108,-0.14572 0.0192,-0.21829 0.0117,-0.11078 0.0273,-0.22111 0.0409,-0.33166 0.0512,-0.3761 0.11105,-0.75093 0.17225,-1.12549 0.01,-0.0618 0.0213,-0.12341 0.0305,-0.18537 0.001,-0.005 0.002,-0.0161 -0.001,-0.0123 -0.027,0.0463 -0.0498,0.0948 -0.0748,0.14224 -0.13007,0.61489 -0.26509,1.22891 -0.41727,1.83878 -0.004,0.016 -0.0302,0.049 -0.0134,0.0483 0.0691,-0.003 0.071,-0.1552 0.0883,-0.23914 0.0804,-0.39018 0.17546,-0.77678 0.26996,-1.1637 0.0597,-0.23705 0.12512,-0.49999 0.18785,-0.73835 0.0172,-0.0656 0.0355,-0.13105 0.0536,-0.19646 0.003,-0.01 0.0146,-0.0366 0.009,-0.0286 -0.0294,0.0393 -0.0625,0.078 -0.08,0.12387 -0.036,0.0947 -0.0523,0.19578 -0.0785,0.29368 -0.19733,0.69464 -0.3838,1.39323 -0.60853,2.07971 -0.0358,0.0542 0.0456,-0.0457 0.057,-0.075 0.0268,-0.0692 0.0348,-0.14443 0.0528,-0.21647 0.0261,-0.10412 0.053,-0.20803 0.0797,-0.312 0.0869,-0.3382 0.11346,-0.43801 0.20285,-0.78012 0.0117,-0.0445 0.14445,-0.55016 0.16592,-0.63357 0.0144,-0.0559 0.0289,-0.11161 0.042,-0.16773 0.004,-0.017 0.0262,-0.056 0.009,-0.0515 -0.0981,0.0255 -0.11948,0.22286 -0.13302,0.26859 -0.18351,0.6417 -0.38281,1.27872 -0.58703,1.91406 -0.009,0.0277 -0.0501,0.10019 -0.0267,0.0831 0.11563,-0.0844 0.15091,-0.29642 0.18511,-0.40617 0.0378,-0.12116 0.0756,-0.2423 0.11266,-0.36365 0.121,-0.39545 0.14585,-0.48328 0.26479,-0.88577 0.0463,-0.16138 0.16252,-0.5645 0.21211,-0.74508 0.0186,-0.0678 0.0376,-0.13568 0.0536,-0.20418 0.004,-0.0197 0.0274,-0.0677 0.009,-0.0602 -0.11786,0.046 -0.15578,0.27139 -0.181,0.34355 -0.19585,0.63084 -0.4118,1.25817 -0.56233,1.90203 0.0362,-0.0447 0.0843,-0.0819 0.10857,-0.13397 0.0431,-0.0923 0.0611,-0.19438 0.0902,-0.29198 0.0398,-0.13308 0.0787,-0.26637 0.11657,-0.39997 0.11903,-0.42087 0.22737,-0.844 0.331,-1.26886 -0.18103,-0.0648 0.1507,-0.26737 0.075,-0.36634 -0.0176,-0.0222 -0.0617,0.0134 -0.0753,0.0379 -0.037,0.0672 -0.0452,0.14633 -0.0667,0.21985 -0.085,0.29132 -0.13277,0.4711 -0.21531,0.77238 -0.11426,0.43146 -0.2223,0.86455 -0.32629,1.2986 -0.0178,0.0747 -0.0356,0.14933 -0.0523,0.22421 -0.004,0.0203 -0.0297,0.0717 -0.0117,0.0614 0.0382,-0.0214 0.0552,-0.068 0.0827,-0.10209 0.17926,-0.77193 0.33298,-1.55023 0.44793,-2.3344 0.004,-0.0455 0.0451,-0.16696 0.0113,-0.1367 -0.13703,0.12081 -0.19019,0.54009 -0.2138,0.65633 -0.10404,0.51254 -0.1939,1.02784 -0.28398,1.54296 -0.0125,0.0735 -0.0761,0.44565 -0.0935,0.5674 -0.003,0.0198 -0.025,0.0625 -0.006,0.0598 0.0347,-0.005 0.0636,-0.0382 0.078,-0.07 0.0306,-0.0677 0.0348,-0.14449 0.0518,-0.2169 0.0253,-0.1085 0.0501,-0.21712 0.0751,-0.32569 0.11498,-0.48313 0.22503,-0.96745 0.33951,-1.45071 0.0121,-0.051 0.0879,-0.14221 0.0367,-0.15286 -0.0549,-0.0113 -0.061,0.0944 -0.0914,0.14156 -0.17341,0.71022 -0.35241,1.42049 -0.58147,2.11515 -0.007,0.0164 -0.0341,0.0618 -0.0214,0.0492 0.12835,-0.12701 0.10902,-0.20236 0.16471,-0.39887 0.0385,-0.13614 0.078,-0.27208 0.11754,-0.40795 0.18884,-0.644 0.0954,-0.3238 0.28021,-0.96061 0.0168,-0.0577 0.15642,-0.53944 0.18993,-0.65137 0.01,-0.0329 0.065,-0.0925 0.031,-0.0983 -0.0398,-0.006 -0.0648,0.0529 -0.0803,0.09 -0.041,0.0975 -0.0568,0.20383 -0.0862,0.30546 -0.0422,0.14625 -0.0858,0.29214 -0.12878,0.43819 -0.13084,0.43365 -0.26387,0.86664 -0.40433,1.29729 -0.0236,0.0727 -0.0474,0.14545 -0.0725,0.21772 -0.006,0.015 -0.0291,0.0554 -0.0183,0.0438 0.0344,-0.0366 0.0602,-0.0801 0.0902,-0.12033 0.24484,-0.8753 0.48439,-1.75204 0.69424,-2.63647 0.0127,-0.0613 0.026,-0.12264 0.0392,-0.18396 -5.2e-4,-0.008 0.006,-0.0338 6.7e-4,-0.0262 -0.14681,0.2339 -0.11079,0.22667 -0.17507,0.55655 -0.0639,0.32803 -0.11216,0.59728 -0.17228,0.92588 -0.0649,0.36733 -0.0583,0.32268 -0.11032,0.638 -0.005,0.0296 -0.0437,0.0937 -0.0144,0.0888 0.0414,-0.007 0.0642,-0.0591 0.0766,-0.0989 0.0283,-0.0908 0.0288,-0.18804 0.0426,-0.28215 0.0204,-0.13936 0.04,-0.2788 0.0601,-0.4182 0.0633,-0.47195 0.12763,-0.94387 0.1794,-1.41725 0.0109,-0.0964 0.058,-0.39594 0.0345,-0.52003 -0.0277,0.036 -0.0686,0.0651 -0.0833,0.10804 -0.0266,0.0778 -0.0262,0.16229 -0.0372,0.24373 -0.0163,0.12079 -0.0309,0.24178 -0.0444,0.36291 -0.0432,0.389 -0.0731,0.77844 -0.0978,1.16896 0.186,-0.25503 -0.10441,0.41276 -0.005,0.35062 0.1188,-0.0746 0.10773,-0.41451 0.11129,-0.4818 0.0206,-0.38959 0.0133,-0.46505 0.01,-0.8662 -0.018,-0.34317 -0.0262,-0.69064 -0.0924,-1.02919 -0.008,-0.0401 0.007,-0.12148 -0.0336,-0.11781 -0.10961,0.01 -0.0822,0.23736 -0.0837,0.38494 0.0134,0.37785 0.0494,0.75482 0.10239,1.12909 0.0136,0.0959 0.0282,0.19174 0.047,0.28675 0.009,0.0504 -0.009,0.16771 0.0392,0.14887 0.0638,-0.0252 0.0483,-0.12856 0.0725,-0.1929 -0.0384,-0.60125 -0.0943,-1.21215 -0.26586,-1.79236 -0.008,-0.0143 -0.0111,-0.0471 -0.0277,-0.0426 -0.10351,0.0279 -0.0511,0.17109 -0.0432,0.22207 0.05,0.32638 0.12984,0.64794 0.20446,0.96921 0.073,0.30108 0.15196,0.60068 0.23277,0.89974 0.008,0.0311 -0.004,0.0825 0.0263,0.093 0.0939,0.0326 0.0229,-0.16414 -0.001,-0.26705 -0.16314,-0.67437 -0.32633,-1.34893 -0.50885,-2.01839 -0.008,-0.0227 -3.5e-4,-0.0605 -0.0229,-0.0686 -0.0907,-0.032 -0.0434,0.10474 -0.0277,0.17081 0.0725,0.30278 0.16986,0.59836 0.26459,0.89464 0.10651,0.3109 0.2112,0.6231 0.33841,0.92638 0.0206,0.0486 0.0412,0.0974 0.0662,0.14389 0.01,0.0167 0.0162,0.0513 0.0346,0.046 0.029,-0.008 0.0367,-0.048 0.0549,-0.072 -0.0101,-0.0575 -0.0179,-0.11553 -0.0314,-0.1723 -0.15791,-0.66168 -0.40846,-1.33274 -0.64216,-1.97206 -0.023,0.34741 -0.089,-0.42951 -0.13377,-0.32244 -0.0619,0.14681 0.0877,0.4918 0.11482,0.57659 0.10813,0.33888 0.21722,0.67742 0.32545,1.01627 0.22819,0.70721 0.11519,0.36672 0.33797,1.02182 6.4e-4,0.003 0.0449,-0.006 0.0442,-0.009 v 0 c -0.19676,-0.66047 -0.095,-0.31769 -0.30538,-1.0283 -0.16526,-0.54159 -0.15029,-0.50849 -0.32333,-1.0177 -0.0544,-0.16033 -0.10841,-0.41369 -0.25454,-0.54173 -0.0862,-0.0753 0.35744,0.6216 0.11445,0.32404 0.24291,0.70362 0.49814,1.40549 0.69393,2.12374 0.0197,0.0155 0.0347,0.0412 0.0592,0.0465 0.0148,0.003 -0.0176,-0.0249 -0.0238,-0.0388 -0.021,-0.0472 -0.0392,-0.0954 -0.0574,-0.14373 -0.11682,-0.30576 -0.22134,-0.61609 -0.32946,-0.92496 -0.098,-0.29414 -0.19689,-0.58777 -0.28144,-0.88613 -0.0225,-0.0778 -0.0339,-0.20523 -0.0976,-0.15073 -0.0176,0.0155 0.009,0.0456 0.015,0.0683 0.1487,0.67804 0.32422,1.35003 0.50611,2.01984 0.0196,0.0661 0.024,0.13856 0.0579,0.19872 0.0152,0.0268 0.0552,0.0658 0.0797,0.0469 0.0255,-0.0201 -0.0108,-0.0638 -0.0176,-0.0952 -0.0651,-0.30235 -0.1505,-0.5998 -0.22071,-0.90093 -0.0609,-0.25219 -0.11327,-0.46221 -0.16979,-0.71344 -0.0185,-0.0823 -0.036,-0.16481 -0.0515,-0.24771 -0.009,-0.0485 -0.006,-0.10032 -0.0245,-0.14595 -0.01,-0.0225 -0.0334,-0.0381 -0.0559,-0.0477 -0.0106,-0.004 0.0103,0.0207 0.0159,0.0308 0.14211,0.58184 0.20378,1.18125 0.26084,1.77622 0.0225,0.0626 0.0228,0.13865 0.0678,0.18746 0.0335,0.0363 -0.021,-0.0966 -0.029,-0.14529 -0.0565,-0.34924 -0.0949,-0.70289 -0.12625,-1.05515 -0.0104,-0.1171 -0.0177,-0.23442 -0.0264,-0.35165 -0.002,-0.0914 0.0114,-0.33751 -0.0565,-0.37732 -0.0331,-0.0192 0.0178,0.0746 0.0229,0.11253 0.0492,0.33773 0.0594,0.68013 0.0755,1.02044 0.007,0.4196 0.0124,0.45506 8.9e-4,0.86145 -0.003,0.096 -0.0503,0.38159 0.0377,0.4943 0.071,0.0909 -0.12661,-0.66679 0.0214,-0.34554 0.0305,-0.38903 0.0628,-0.77778 0.0993,-1.16629 0.0113,-0.12093 0.0226,-0.24188 0.0352,-0.36268 0.009,-0.081 0.0312,-0.16139 0.0275,-0.24273 -0.001,-0.0428 -0.0293,-0.0804 -0.0439,-0.1206 -0.0612,0.6426 -0.17925,1.27936 -0.24205,1.92187 -0.0165,0.14003 -0.0345,0.27995 -0.0505,0.42006 -0.0148,0.12886 -0.0723,0.36714 0.0248,0.41027 0.0281,0.0124 0.0196,-0.0583 0.0264,-0.0882 0.0302,-0.1317 0.10709,-0.54321 0.12467,-0.63503 0.0837,-0.45582 0.0879,-0.46961 0.16521,-0.92745 0.0515,-0.30476 0.09,-0.33156 0.0348,-0.59202 -0.002,-0.0102 -0.009,0.0167 -0.0134,0.025 -0.0168,0.0601 -0.0333,0.12028 -0.0501,0.1805 -0.23477,0.87888 -0.47229,1.75752 -0.68133,2.64292 0.0106,0.055 0.004,0.11622 0.031,0.1653 0.01,0.017 0.0261,-0.03 0.0339,-0.0478 0.0311,-0.0705 0.0566,-0.14326 0.0826,-0.21575 0.15338,-0.42742 0.28557,-0.86213 0.41148,-1.2983 0.004,-0.0138 0.18591,-0.66831 0.19166,-0.75707 0.003,-0.0445 -0.001,-0.11241 -0.0438,-0.12611 -0.0258,-0.009 -0.24948,0.74579 -0.24997,0.74561 -0.11717,0.40164 -0.16452,0.55748 -0.27515,0.96322 -0.0373,0.13697 -0.0742,0.27417 -0.10887,0.41186 -0.0239,0.0948 -0.11907,0.32702 -0.0362,0.44875 0.0124,0.018 0.0251,-0.0356 0.0377,-0.0534 0.25731,-0.68906 0.43081,-1.40777 0.57898,-2.12721 -0.0138,-0.0576 0.0166,-0.15896 -0.0411,-0.17315 -0.0512,-0.0131 -0.0317,0.10073 -0.0458,0.15171 -0.13196,0.47949 -0.23502,0.96656 -0.34388,1.45159 -0.0223,0.10926 -0.0455,0.21844 -0.0671,0.32787 -0.0144,0.073 -0.0415,0.14486 -0.0413,0.21922 8.8e-4,0.0351 0.0131,0.0772 0.0421,0.097 0.0164,0.0112 0.0113,-0.0379 0.0162,-0.0572 0.0408,-0.17919 0.0794,-0.38872 0.11344,-0.56361 0.095,-0.51376 0.1867,-1.02805 0.2793,-1.54222 0.0356,-0.19755 0.11976,-0.47094 0.0629,-0.68595 -0.0115,-0.0431 -0.0133,0.0881 -0.0208,0.13221 -0.14051,0.77927 -0.29069,1.55671 -0.43527,2.33522 0.0121,0.0445 0.008,0.0977 0.0373,0.13321 0.013,0.0169 0.0175,-0.0393 0.0237,-0.0598 0.0222,-0.0735 0.0417,-0.14775 0.0615,-0.22185 0.11561,-0.43064 0.22248,-0.86357 0.33174,-1.29586 0.0483,-0.18722 0.14867,-0.57483 0.1992,-0.77655 0.0185,-0.0737 0.0505,-0.14553 0.054,-0.22142 0.001,-0.0272 -0.0168,-0.0839 -0.0404,-0.071 -0.10843,0.0597 0.11762,0.37883 -0.0936,0.35935 -0.10942,0.42253 -0.21958,0.84485 -0.3322,1.26656 -0.0358,0.13401 -0.072,0.26792 -0.10816,0.40185 -0.0264,0.0979 -0.0649,0.19336 -0.0796,0.29374 -0.008,0.0566 0.008,0.11406 0.0116,0.17106 0.19637,-0.63019 0.38084,-1.26404 0.57038,-1.89632 0.0289,-0.0958 0.11592,-0.26177 0.061,-0.38035 -0.009,-0.0175 -0.0128,0.0364 -0.0186,0.0548 -0.0993,0.31298 -0.19232,0.62796 -0.28421,0.94317 -0.0263,0.0902 -0.22877,0.78588 -0.2582,0.88746 -0.0353,0.12202 -0.0708,0.24391 -0.10549,0.36606 -0.0251,0.0881 -0.12372,0.32777 -0.0643,0.44761 0.0128,0.0265 0.0229,-0.0543 0.0346,-0.0817 0.22798,-0.62882 0.41956,-1.27034 0.5878,-1.91762 0.0131,-0.0509 0.0924,-0.22661 0.0212,-0.30104 -0.0122,-0.0125 -0.0129,0.0323 -0.0181,0.0489 -0.0174,0.055 -0.0336,0.11019 -0.0498,0.16563 -0.0838,0.28781 -0.0904,0.31876 -0.17505,0.63185 -0.0815,0.31718 -0.12153,0.46715 -0.19679,0.78281 -0.025,0.10471 -0.0493,0.20968 -0.0723,0.31486 -0.0162,0.0735 -0.0417,0.14582 -0.0452,0.22088 -0.009,0.18006 0.007,0.15116 0.0527,0.106 0.26783,-0.67319 0.43147,-1.38436 0.62021,-2.08206 0.0225,-0.0994 0.057,-0.19684 0.0675,-0.29822 0.005,-0.0533 -0.002,-0.10869 -0.0197,-0.15933 -0.004,-0.0126 -0.0189,0.0199 -0.0236,0.0326 -0.0243,0.0639 -0.0437,0.12962 -0.0632,0.19515 -0.081,0.2728 -0.12454,0.45413 -0.19755,0.73746 -0.0905,0.38037 -0.11839,0.48152 -0.19323,0.85618 -0.021,0.10524 -0.0405,0.21073 -0.058,0.31658 -0.0109,0.0649 -0.0314,0.13005 -0.027,0.19578 0.0123,0.18133 0.0604,0.0379 0.0673,0.0227 0.18166,-0.60365 0.30677,-1.2238 0.41653,-1.84397 -0.007,-0.0568 -0.009,-0.11441 -0.022,-0.17015 -0.002,-0.007 -0.0113,0.0104 -0.0132,0.0169 -0.016,0.0609 -0.0278,0.12265 -0.0398,0.18439 -0.0726,0.37391 -0.12868,0.75093 -0.17351,1.12912 -0.003,0.0361 -0.0509,0.46959 -0.0417,0.55751 0.0284,0.28523 0.0892,-0.013 0.0948,-0.0411 0.0146,-0.0721 0.0263,-0.14497 0.0394,-0.21747 0.0451,-0.28668 0.0901,-0.57332 0.12216,-0.86183 0.007,-0.0607 0.0243,-0.12188 0.017,-0.18251 -0.002,-0.0219 -0.0298,-0.0621 -0.0455,-0.0474 -0.0282,0.0262 -0.0169,0.0753 -0.0254,0.11298 -0.044,0.26566 -0.0821,0.53158 -0.11325,0.7991 -0.0106,0.0921 -0.0212,0.18432 -0.0296,0.27666 -0.006,0.0633 -0.0199,0.12671 -0.0155,0.1901 0.003,0.035 0.0249,0.0656 0.0364,0.0989 0.0558,-0.0808 0.08,-0.28681 0.0966,-0.36427 0.0706,-0.33023 0.135,-0.66171 0.2005,-0.99295 0.0196,-0.10047 0.0393,-0.20093 0.059,-0.30138 0.0131,-0.0682 0.0348,-0.13553 0.0402,-0.20493 0.002,-0.0296 -0.007,-0.06 -0.0177,-0.0877 -0.003,-0.0102 -0.002,0.0209 -0.004,0.0313 -0.008,0.0516 -0.0177,0.10289 -0.0262,0.15433 -0.0155,0.0905 -0.0295,0.18114 -0.0443,0.27174 -0.10127,0.67388 -0.21938,1.35644 -0.1774,2.04005 3e-5,0.002 0.0325,0.001 0.0322,-0.002 z" /><path
       style="fill:#2a7fff;stroke:#2a7fff;stroke-width:0;stroke-linecap:square;stroke-miterlimit:3.6;stroke-dasharray:none;paint-order:stroke fill markers"
       id="path1724"
       d="m 105.03693,104.35522 c 0.16908,0.39925 0.35978,0.79296 0.60179,1.15368 0.0642,0.0725 0.0926,0.13346 0.19046,-0.0936 0.0163,-0.0377 -0.0287,-0.0768 -0.0435,-0.115 -0.0609,-0.16133 -0.12018,-0.32313 -0.17996,-0.48486 -0.0591,-0.15476 -0.11534,-0.31104 -0.18353,-0.46218 -0.0245,-0.0542 -0.0655,-0.13465 -0.0731,-0.13343 -0.057,0.0101 -0.10371,0.0516 -0.15534,0.078 0.0349,0.47383 0.19177,0.92833 0.35415,1.37128 0.0437,0.10559 0.085,0.21661 0.14164,0.31691 0.0106,0.0189 0.0177,0.0596 0.0382,0.0526 0.069,-0.0231 0.1409,-0.0633 0.17879,-0.12551 0.021,-0.0343 -0.0203,-0.0776 -0.031,-0.11621 -0.0164,-0.0589 -0.0354,-0.11705 -0.0531,-0.17553 -0.13088,-0.37592 -0.2305,-0.77043 -0.43027,-1.11788 -0.0654,-0.0645 -0.0909,-0.10918 -0.20757,0.081 -0.0263,0.0428 0.009,0.10015 0.0165,0.14987 0.0417,0.28421 0.11154,0.56016 0.18401,0.83773 0.079,0.26329 0.16504,0.52659 0.28341,0.77538 0.0176,0.0373 0.0373,0.0739 0.0596,0.10866 0.01,0.0149 0.0181,0.0478 0.0348,0.0406 0.0776,-0.0335 0.13854,-0.0967 0.20781,-0.1451 -0.0746,-0.39248 -0.21465,-0.7689 -0.36785,-1.13662 -0.0799,-0.16204 -0.0694,-0.31998 -0.30409,-0.13833 -0.021,0.016 -0.001,0.0529 -8e-4,0.0794 5.4e-4,0.0408 0.003,0.0817 0.005,0.12267 0.0202,0.35878 0.11045,0.70695 0.2095,1.05056 0.0578,0.14931 0.0666,0.2789 0.27572,0.0375 0.0203,-0.0233 -0.0196,-0.0587 -0.0293,-0.088 -0.0113,-0.0374 -0.0234,-0.0747 -0.0351,-0.11179 -0.0358,-0.13131 -0.0727,-0.26231 -0.1103,-0.39313 -0.0151,-0.0512 -0.0271,-0.12094 -0.0563,-0.16834 -0.0712,0.0372 -0.16401,0.0481 -0.21352,0.11087 -0.0287,0.0366 0.0111,0.0924 0.0184,0.13852 0.0366,0.23536 0.0927,0.46638 0.1566,0.69562 0.0606,0.17347 0.0681,0.35144 0.31532,0.0886 0.0253,-0.0268 -0.008,-0.0735 -0.0118,-0.11009 -0.005,-0.0451 -0.0113,-0.0901 -0.0171,-0.13512 -0.0458,-0.20852 -0.053,-0.44262 -0.15739,-0.63395 -0.01,-0.009 -0.0188,-0.0176 -0.0275,-0.0267 -0.006,-0.012 -0.17514,0.0748 -0.16888,0.087 v 0 c -0.006,-0.003 -0.0112,-0.008 -0.017,-0.0115 0.008,0.20575 0.0796,0.40736 0.10317,0.61129 0.008,0.0436 0.0167,0.0872 0.0255,0.13055 0.006,0.0333 -0.0122,0.0856 0.0178,0.10016 0.32534,0.15545 0.24211,0.009 0.21795,-0.14567 -0.0483,-0.23073 -0.10174,-0.46018 -0.16724,-0.68667 -0.0132,-0.0444 -0.002,-0.10745 -0.0404,-0.13301 -0.0707,-0.0466 -0.16514,-0.0377 -0.24773,-0.0567 -0.0216,0.16554 0.0942,0.43509 0.13205,0.59605 0.0142,0.0391 0.0264,0.0788 0.0406,0.11784 0.0119,0.0316 0.006,0.0825 0.0375,0.094 0.33225,0.11717 0.26366,0.0109 0.23126,-0.15556 -0.0831,-0.3372 -0.14783,-0.67874 -0.22999,-1.0162 -0.009,-0.0392 -0.0166,-0.0786 -0.0252,-0.11792 -0.006,-0.0257 0.006,-0.0672 -0.0182,-0.077 -0.31274,-0.12798 -0.18698,0.0619 -0.1539,0.20821 0.11562,0.37165 0.25104,0.7366 0.37217,1.10638 0.0819,0.011 0.16321,0.0307 0.24586,0.0318 0.01,0 2.2e-4,-0.0191 -0.001,-0.0288 -0.008,-0.037 -0.0176,-0.0736 -0.0278,-0.11005 -0.0726,-0.25817 -0.15855,-0.51252 -0.24147,-0.76748 -0.0886,-0.26995 -0.16784,-0.54344 -0.26282,-0.81125 -0.0164,-0.0444 -0.009,-0.10937 -0.0504,-0.13278 -0.12429,-0.0704 -0.14931,-0.047 -0.20227,-0.002 0.10342,0.38137 0.24097,0.7536 0.38743,1.12015 0.0245,0.056 0.0488,0.11193 0.0736,0.16774 0.0163,0.0366 0.0121,0.0935 0.0488,0.1098 0.0689,0.0307 0.15158,0.0251 0.22609,0.0128 0.0163,-0.003 -0.005,-0.0329 -0.009,-0.0488 -0.0229,-0.0898 -0.0715,-0.24168 -0.0956,-0.31977 -0.14299,-0.44095 -0.29675,-0.87806 -0.45566,-1.31347 -0.0552,-0.006 -0.11036,-0.0278 -0.16544,-0.0202 -0.0142,0.002 0.008,0.0277 0.0119,0.0415 0.0567,0.18597 0.12298,0.36874 0.18555,0.55274 0.0566,0.16816 0.11211,0.33645 0.18678,0.49771 0.018,0.039 0.0192,0.0977 0.0587,0.11464 0.067,0.0288 0.14789,0.0216 0.21888,0.005 0.0177,-0.005 -0.008,-0.036 -0.013,-0.0539 -0.16558,-0.40417 -0.38398,-0.78883 -0.63565,-1.14525 -0.005,-0.0123 -0.17962,0.0588 -0.17457,0.0712 z" /><path
       style="fill:#2a7fff;stroke:#2a7fff;stroke-width:0;stroke-linecap:square;stroke-miterlimit:3.6;stroke-dasharray:none;paint-order:stroke fill markers"
       id="path1726"
       d="m 104.93193,104.32757 c 0.13706,0.63886 0.37887,1.2522 0.62311,1.85674 0.0183,0.0262 0.19428,0.51627 0.29065,0.44311 0.011,-0.008 0.0127,-0.0246 0.0191,-0.037 -8.2e-4,-0.003 -0.038,0.0136 -0.037,0.0154 v 0 c 0.021,0.0122 0.0386,0.0354 0.0628,0.0366 0.15916,0.008 -0.0114,-0.51607 -0.0205,-0.5402 -0.12074,-0.35166 -0.25058,-0.69871 -0.39263,-1.04244 -0.068,-0.16491 -0.1851,-0.44061 -0.27102,-0.60598 -0.031,-0.0599 -0.0691,-0.11586 -0.10368,-0.17378 -0.003,-0.0121 -0.17386,0.0352 -0.1707,0.0467 z" /><path
       style="fill:#2a7fff;stroke:#2a7fff;stroke-width:0;stroke-linecap:square;stroke-miterlimit:3.6;stroke-dasharray:none;paint-order:stroke fill markers"
       id="path1728"
       d="m 104.93047,103.69428 c 0.007,0.0872 0.009,0.17486 0.0208,0.26149 0.09,0.65651 0.27785,1.36656 0.4997,1.99002 0.048,0.1345 0.107,0.2648 0.16077,0.39705 0.0463,0.0867 0.0935,0.17288 0.14034,0.25931 0.001,0.009 0.13085,-0.0157 0.12907,-0.025 v 0 c -0.006,-0.0942 -0.0111,-0.18836 -0.0168,-0.2825 -0.024,-0.13774 -0.0425,-0.27654 -0.0722,-0.41316 -0.11547,-0.53247 -0.28036,-1.05529 -0.45117,-1.57205 -0.0437,-0.13235 -0.085,-0.26564 -0.13482,-0.39582 -0.0322,-0.0845 -0.0743,-0.16506 -0.11139,-0.24761 -0.002,-0.0118 -0.16659,0.0164 -0.1646,0.0281 z" /><path
       style="fill:#2a7fff;stroke:#2a7fff;stroke-width:0;stroke-linecap:square;stroke-miterlimit:3.6;stroke-dasharray:none;paint-order:stroke fill markers"
       id="path1730"
       d="m 105.29042,105.02333 c 0.0371,0.35501 0.12954,0.70242 0.23066,1.04401 0.0238,0.0958 0.0658,0.18546 0.0906,0.28083 0.0173,0.0773 0.0334,0.15466 0.0517,0.23174 0.0194,0.0738 0.0389,0.14754 0.0592,0.22107 0.0132,0.0491 0.0243,0.0987 0.0366,0.1479 0.0113,0.0868 0.0686,0.1491 0.12707,0.20909 0.0862,0.0806 0.16899,0.15821 0.28214,0.1962 0.0823,0.0167 0.0419,0.0126 0.12089,0.0153 0.002,0.002 0.034,-0.0338 0.0314,-0.0361 v 0 c -0.0228,-0.0561 -0.01,-0.0269 -0.0407,-0.0863 -0.0573,-0.0917 -0.1459,-0.15136 -0.22768,-0.22015 -0.0431,-0.0338 -0.0889,-0.0575 -0.098,-0.1111 -0.0121,-0.0494 -0.0256,-0.0985 -0.0374,-0.14801 -0.0165,-0.0741 -0.0338,-0.14799 -0.0512,-0.22188 -0.0194,-0.0773 -0.0405,-0.1541 -0.0627,-0.23069 -0.0242,-0.0936 -0.0319,-0.19016 -0.054,-0.28431 -0.0704,-0.3498 -0.14891,-0.70076 -0.27704,-1.03447 -0.002,-0.0127 -0.18337,0.014 -0.18147,0.0269 z" /><path
       style="fill:#2a7fff;stroke:#2a7fff;stroke-width:0;stroke-linecap:square;stroke-miterlimit:3.6;stroke-dasharray:none;paint-order:stroke fill markers"
       id="path1732"
       d="m 105.36409,105.80804 c 0.0245,0.28795 0.0933,0.57036 0.16968,0.84844 0.03,0.11182 0.0802,0.21147 0.16563,0.28952 0.009,0.007 0.0158,0.0134 0.021,0.0223 0.002,0.0257 0.005,0.0516 0.0109,0.0768 -0.0418,-0.13051 0.17451,0.0438 0.0826,-0.0791 -8.1e-4,-0.003 -0.0402,0.0124 -0.0395,0.0143 v 0 c 0.0339,0.10706 0.19298,0.18495 0.17497,0.0295 -0.004,-0.0195 -0.01,-0.0415 -0.0134,-0.062 -0.0115,-0.0539 -0.0314,-0.10078 -0.0743,-0.13777 -0.0623,-0.046 -0.0766,-0.1226 -0.0953,-0.19435 -0.0596,-0.27992 -0.1149,-0.56198 -0.20601,-0.83373 -0.002,-0.0139 -0.198,0.0121 -0.1962,0.0259 z" /><path
       style="fill:#2a7fff;stroke:#2a7fff;stroke-width:0;stroke-linecap:square;stroke-miterlimit:3.6;stroke-dasharray:none;paint-order:stroke fill markers"
       id="path1734"
       d="m 105.45199,106.17542 c 0.0289,0.26094 0.0815,0.53477 0.24747,0.74505 0.0202,0.0159 0.0374,0.0368 0.0606,0.048 0.14527,0.0704 0.17093,-0.0211 0.25714,0.0206 -0.005,7e-4 -0.0181,-0.002 -0.0149,0.002 0.0316,0.0395 0.10013,0.0432 0.14165,0.0567 0.0174,0.006 0.0328,0.0163 0.049,0.0243 0.002,0.002 0.0439,-0.0261 0.0416,-0.0294 v 0 c -0.007,-0.0153 -0.0155,-0.0299 -0.0207,-0.0457 -0.006,-0.0204 -0.002,-0.0433 -0.0115,-0.0624 -0.034,-0.0741 -0.1249,-0.10293 -0.19362,-0.12424 -0.0675,-0.004 -0.049,-0.007 -0.11068,0.006 -0.0121,0.003 -0.0455,-7.5e-4 -0.0369,0.009 0.008,0.009 0.0222,0.009 0.029,0.0186 0.006,0.008 -0.0169,-0.009 -0.0252,-0.0135 -0.13326,-0.20012 -0.1532,-0.45182 -0.23258,-0.67427 -0.001,-0.0128 -0.18229,0.006 -0.18096,0.0186 z" /><path
       style="fill:#2a7fff;stroke:#2a7fff;stroke-width:0;stroke-linecap:square;stroke-miterlimit:3.6;stroke-dasharray:none;paint-order:stroke fill markers"
       id="path1736"
       d="m 106.05451,113.50293 c 0.006,-0.30412 -0.0228,-0.60739 -0.0159,-0.91162 -0.004,-0.0798 0.0197,-0.15693 0.0243,-0.23579 -0.008,-0.0753 0.004,-0.15024 0.007,-0.22569 -0.006,-0.0633 -7e-4,-0.12083 0.016,-0.18174 0.0143,-0.10429 0.0261,-0.20853 0.0598,-0.30873 0.0275,-0.0527 0.0588,-0.10306 0.085,-0.15664 0.0369,-0.0765 0.0671,-0.15606 0.10578,-0.23166 0.0493,-0.10317 0.11008,-0.2001 0.15001,-0.30737 0.025,-0.0666 -0.001,-0.12962 -0.002,-0.19765 6.3e-4,-0.004 -0.0467,-0.0198 -0.0479,-0.0164 v 0 c -0.0457,0.049 -0.10535,0.069 -0.14445,0.1251 -0.0671,0.0973 -0.11489,0.20437 -0.16469,0.31127 -0.0328,0.0778 -0.0716,0.15319 -0.0974,0.23383 -0.0275,0.0604 -0.07,0.11124 -0.098,0.17157 -0.0395,0.10625 -0.0619,0.22 -0.0576,0.33377 -0.0122,0.0693 -0.0255,0.13781 -0.0216,0.20863 -0.006,0.0756 -0.008,0.15131 0.005,0.2262 -0.002,0.0777 -0.0542,0.14942 -0.0509,0.22896 -0.035,0.31451 -0.0181,0.63397 0.0504,0.94324 0.001,0.0139 0.19732,0.005 0.19666,-0.009 z" /><path
       style="fill:#2a7fff;stroke:#2a7fff;stroke-width:0;stroke-linecap:square;stroke-miterlimit:3.6;stroke-dasharray:none;paint-order:stroke fill markers"
       id="path1742"
       d="m 106.21562,111.89206 c 0.0736,-0.29559 0.11893,-0.59813 0.15984,-0.89985 0.006,-0.095 0.0398,-0.18304 0.0674,-0.27299 0.0558,-0.18537 0.10138,-0.37264 0.13357,-0.56358 3.5e-4,-0.072 0.0332,-0.16946 0.004,-0.24106 -0.006,-0.0155 -0.0221,-0.0252 -0.033,-0.0378 0.001,-0.006 -0.0903,-0.0224 -0.0914,-0.0159 v 0 c -0.0141,0.007 -0.0314,0.0107 -0.0421,0.022 -0.0502,0.056 -0.05,0.1565 -0.0748,0.22186 -0.0396,0.18491 -0.075,0.37056 -0.109,0.55656 -0.0205,0.0968 -0.0559,0.18784 -0.084,0.28264 -0.0755,0.3001 -0.11953,0.60803 -0.13283,0.91723 -0.002,0.0144 0.20058,0.0448 0.20275,0.0304 z" /><path
       style="fill:#2a7fff;stroke:#2a7fff;stroke-width:0;stroke-linecap:square;stroke-miterlimit:3.6;stroke-dasharray:none;paint-order:stroke fill markers"
       id="path1744"
       d="m 106.06266,111.67414 c 0.0808,-0.2833 0.12508,-0.57563 0.20826,-0.85818 0.0341,-0.11151 0.0835,-0.21718 0.11982,-0.32782 0.0471,-0.15575 0.0901,-0.31269 0.13005,-0.47044 0.0408,-0.1504 0.0691,-0.30381 0.11446,-0.45293 0.0571,-0.16763 0.0967,-0.336 0.0834,-0.51338 -0.041,-0.11951 -0.0242,-0.0617 -0.0505,-0.17365 1.7e-4,-0.004 -0.0539,-0.006 -0.0541,-0.002 v 0 c -0.0236,0.10213 -0.005,0.0513 -0.0581,0.15129 -0.052,0.15659 -0.0769,0.32006 -0.12449,0.47804 -0.0393,0.152 -0.0836,0.30278 -0.12141,0.45525 -0.0404,0.15484 -0.0729,0.3113 -0.10574,0.46787 -0.0339,0.11219 -0.10231,0.20899 -0.13885,0.3205 -0.10066,0.28776 -0.17867,0.58552 -0.19456,0.8913 -0.003,0.0137 0.18959,0.048 0.19202,0.0345 z" /><path
       style="fill:#2a7fff;stroke:#000000;stroke-width:0;stroke-linecap:square;stroke-miterlimit:3.6;stroke-dasharray:none;paint-order:stroke fill markers"
       id="path1746"
       d="m 105.9743,111.58828 c -0.0923,0.46881 -0.16841,0.95344 -0.13828,1.43299 0.006,0.0876 0.0212,0.1742 0.0318,0.26131 0.009,0.0576 0.0182,0.11502 0.0271,0.17255 9e-5,0.008 0.0964,0.01 0.0965,0.003 v 0 c 0.007,-0.0553 0.0147,-0.11065 0.0226,-0.16585 0.10249,-0.55479 0.15291,-1.12002 0.13105,-1.68447 0.001,-0.012 -0.16967,-0.0315 -0.17103,-0.0194 z" /><path
       style="fill:#333333;stroke:#333333;stroke-width:1;stroke-linecap:square;stroke-miterlimit:3.6;stroke-dasharray:none;paint-order:stroke fill markers"
       d="m 85.610086,231.47052 c -3.26358,-0.35423 -7.230495,-2.31901 -9.162165,-4.53791 -0.742391,-0.85279 -1.466577,-2.31759 -2.219759,-4.4899 C 72.756115,218.19709 32.630516,57.386776 31.933866,52.941016 31.517783,50.285682 31.508254,49.125381 31.891793,47.818838 32.591041,45.436823 34.784,42.202762 36.826468,40.541436 L 38.564824,39.127467 50.043849,36.03143 C 65.220999,31.937963 97.359742,23.912416 107.37191,21.715723 l 7.98257,-1.7514 2.56562,0.55481 c 3.6861,0.797113 7.0223,3.047649 8.71892,5.881612 1.27661,2.132411 1.34557,2.400834 22.6641,88.228855 l 21.38357,86.08993 -0.34906,1.83471 c -0.50988,2.68001 -2.83226,6.5242 -5.10024,8.44237 l -1.91234,1.61737 -38.17891,9.50192 c -30.85131,7.67824 -38.439392,9.47365 -39.536063,9.35462 z m 9.032121,-49.93666 c 1.458824,-1.28191 2.896375,-3.80624 3.364937,-5.90882 0.483112,-2.16788 -0.537152,-6.41945 -1.97532,-8.2314 -1.446415,-1.82232 -3.52895,-3.12747 -5.787743,-3.62723 -2.532003,-0.56021 -6.483643,0.30993 -8.432592,1.85685 -4.008959,3.18198 -5.137648,8.52594 -2.763792,13.08563 1.521326,2.92215 5.293708,5.24534 8.527777,5.25177 2.076334,0.004 5.727059,-1.24959 7.066733,-2.4268 z m 46.384813,-11.92311 c 1.68475,-1.47247 3.21593,-4.56631 3.3901,-6.84986 0.27931,-3.66166 -1.97916,-7.98295 -5.0596,-9.68097 -4.32,-2.3813 -9.91605,-1.22855 -13.05332,2.68892 -3.02818,3.78124 -2.49958,9.89971 1.16588,13.49479 1.39452,1.36773 4.39209,2.67381 6.38844,2.7835 1.89933,0.10438 5.76454,-1.20931 7.1685,-2.43638 z M 111.83539,139.1559 c 3.83093,-2.05005 6.67568,-4.6876 9.06611,-8.40578 3.37619,-5.25148 4.67895,-9.99486 4.29376,-15.63388 -0.24825,-3.63427 -0.70273,-5.47447 -2.09437,-8.48018 -3.38091,-7.302321 -10.13626,-12.716771 -17.82724,-14.288647 -1.92637,-0.393707 -4.40461,-0.703779 -5.507245,-0.689046 -2.875669,0.03841 -9.107672,1.700958 -11.658355,3.11016 -6.160251,3.403429 -11.047383,9.919283 -12.594101,16.791323 -1.346214,5.98122 0.01727,13.6518 3.344776,18.81684 3.910544,6.07003 10.876512,10.57644 17.782135,11.50356 4.96469,0.66656 10.81971,-0.38324 15.19452,-2.72435 z M 83.445531,39.447533 c 0.76932,-1.280979 0.202359,-3.097116 -1.157415,-3.707551 -2.397573,-1.07632 -5.052805,0.804775 -4.464354,3.162769 0.412468,1.652818 1.638014,2.270383 3.555782,1.791797 1.090217,-0.272066 1.702361,-0.641553 2.065987,-1.247015 z"
       id="path3298" /><text
       xml:space="preserve"
       style="font-size:10.5833px;font-family:Calibri;-inkscape-font-specification:Calibri;fill:#2a7fff;stroke:#000000;stroke-width:0.3;stroke-linecap:square;stroke-linejoin:bevel;stroke-miterlimit:1;paint-order:markers stroke fill"
       x="38.138874"
       y="94.706039"
       id="text363"
       transform="rotate(-14.012175)"><tspan
         sodipodi:role="line"
         id="tspan361"
         style="fill:#ffffff;stroke:#ffffff;stroke-width:0.3"
         x="38.138874"
         y="94.706039">Příchozí hovor</tspan></text></g></svg>
