<?xml version="1.0" encoding="UTF-8" standalone="no"?>
<!-- Created with Inkscape (http://www.inkscape.org/) -->

<svg
   width="210mm"
   height="297mm"
   viewBox="0 0 210 297"
   version="1.1"
   id="svg5"
   xml:space="preserve"
   inkscape:version="1.2.1 (9c6d41e410, 2022-07-14)"
   sodipodi:docname="pencil_icon.svg"
   xmlns:inkscape="http://www.inkscape.org/namespaces/inkscape"
   xmlns:sodipodi="http://sodipodi.sourceforge.net/DTD/sodipodi-0.dtd"
   xmlns="http://www.w3.org/2000/svg"
   xmlns:svg="http://www.w3.org/2000/svg"><sodipodi:namedview
     id="namedview7"
     pagecolor="#ffffff"
     bordercolor="#000000"
     borderopacity="0.25"
     inkscape:showpageshadow="2"
     inkscape:pageopacity="0.0"
     inkscape:pagecheckerboard="0"
     inkscape:deskcolor="#d1d1d1"
     inkscape:document-units="mm"
     showgrid="false"
     inkscape:zoom="0.74564394"
     inkscape:cx="396.97231"
     inkscape:cy="240.06096"
     inkscape:window-width="1920"
     inkscape:window-height="1017"
     inkscape:window-x="-8"
     inkscape:window-y="-8"
     inkscape:window-maximized="1"
     inkscape:current-layer="layer1" /><defs
     id="defs2" /><g
     inkscape:label="Vrstva 1"
     inkscape:groupmode="layer"
     id="layer1"><path
       style="fill:#008080;stroke:#008080;stroke-width:1.01376;stroke-miterlimit:1"
       d="m 231.00838,440.90524 c -0.92202,-0.31347 -1.6764,-1.49111 -1.6764,-2.61699 0,-3.98795 26.98216,-84.90242 28.31201,-84.90242 0.74304,0 1.047,-0.49186 0.67546,-1.09302 -0.37153,-0.60116 41.38559,-43.07624 92.7936,-94.38906 103.66771,-103.47576 97.74451,-98.44495 115.59764,-98.18153 12.04968,0.1778 19.21089,3.89982 30.62758,15.91864 6.83005,7.19026 9.89742,11.6307 11.62298,16.82586 3.2103,9.6653 2.1906,21.62982 -2.59239,30.41775 -2.53993,4.66668 -30.55916,33.527 -95.72167,98.59502 l -92.13055,91.99697 -35.53975,11.61198 c -19.54687,6.3866 -38.85903,12.68631 -42.91593,13.99938 -4.0569,1.31306 -8.13056,2.13091 -9.05258,1.81742 z m 17.89521,-12.43105 c 4.35677,-1.48323 8.78381,-3.0145 9.83787,-3.40285 1.36111,-0.50146 -0.17063,-2.81941 -5.28591,-7.99903 -3.96131,-4.01114 -7.4385,-7.05685 -7.72709,-6.76826 -1.27428,1.27428 -6.69533,20.86689 -5.77363,20.86689 0.56504,0 4.59198,-1.21354 8.94876,-2.69675 z m 43.11318,-14.22863 c 11.24168,-3.59935 20.44513,-7.15406 20.45212,-7.89936 0.0174,-1.8584 -47.98287,-49.6689 -48.9226,-48.72917 -0.41399,0.41399 -3.98774,10.41772 -7.94167,22.23049 l -7.18895,21.47777 10.2316,10.2316 c 5.62738,5.62738 10.83876,10.00689 11.58084,9.73226 0.74208,-0.27464 10.54697,-3.44426 21.78866,-7.04359 z m 106.96274,-91.70106 79.11322,-79.12175 -25.46386,-25.49035 -25.46386,-25.49034 -79.4659,79.45748 -79.4659,79.45748 25.12848,25.15462 c 13.82066,13.83503 25.4381,25.1546 25.81653,25.1546 0.37844,0 36.28901,-35.60478 79.80129,-79.12174 z M 500.27803,218.52189 c 4.15909,-8.59153 3.62871,-20.95555 -1.26488,-29.48709 -7.78629,-13.57468 -20.67652,-22.00612 -33.64358,-22.00612 -9.77508,0 -16.43101,3.28079 -25.45172,12.54548 l -7.34655,7.54525 25.42411,25.45055 25.4241,25.45055 7.10777,-7.01947 c 3.90927,-3.86071 8.29711,-9.47633 9.75075,-12.47915 z"
       id="path371"
       transform="scale(0.26458333)" /><path
       style="fill:#008080;stroke:#008080;stroke-width:1.01376;stroke-miterlimit:1"
       d="m 302.18598,345.87516 c -1.02267,-2.66503 115.81612,-120.15069 118.91114,-119.5695 6.53777,1.2277 2.40765,5.98719 -55.16446,63.57071 -33.21489,33.22147 -59.15998,58.14497 -60.52828,58.14497 -1.31716,0 -2.76544,-0.96579 -3.2184,-2.14618 z"
       id="path511"
       transform="scale(0.26458333)" /><path
       style="fill:#008080;stroke:#008080;stroke-width:1.01376;stroke-miterlimit:1"
       d="m 322.30282,365.992 c -1.02267,-2.66503 115.81612,-120.15069 118.91114,-119.5695 6.53777,1.2277 2.40765,5.98719 -55.16446,63.57071 -33.21489,33.22147 -59.15997,58.14497 -60.52828,58.14497 -1.31716,0 -2.76544,-0.96579 -3.2184,-2.14618 z"
       id="path513"
       transform="scale(0.26458333)" /><rect
       style="fill:none;stroke:#008080;stroke-width:1;stroke-miterlimit:1;stroke-dasharray:none"
       id="rect625"
       width="80"
       height="80"
       x="57.483871"
       y="40.096771"
       ry="0.054789022"
       rx="0.055" /><path
       style="fill:#afe9dd;stroke:#afe9dd;stroke-width:1.8897638;stroke-miterlimit:1;stroke-dasharray:none"
       d="M 219.94412,302.42316 V 153.55855 H 368.80874 517.67336 V 302.42316 451.28778 H 368.80874 219.94412 Z m 57.29203,125.82157 41.94397,-13.65517 92.96739,-93.29936 c 73.34508,-73.60698 93.64872,-94.71467 96.19547,-100.00496 2.54369,-5.28395 3.22027,-8.8381 3.19127,-16.76403 -0.0456,-12.45732 -2.91638,-18.55071 -14.34897,-30.45657 -10.93927,-11.39211 -18.73013,-15.1416 -31.46189,-15.1416 -12.79878,0 -16.52493,1.95886 -34.05629,17.90362 -19.05429,17.32988 -173.44231,172.46705 -175.40253,176.25366 -2.11244,4.08065 -23.79988,68.66142 -26.35314,78.47428 -2.2335,8.58392 -1.81129,10.34532 2.47979,10.34532 1.59553,0 21.77574,-6.14483 44.84493,-13.65519 z"
       id="path1450"
       transform="scale(0.26458333)" /><path
       style="fill:#008080;stroke:#008080;stroke-width:6.69354339;stroke-miterlimit:1;stroke-dasharray:none"
       d="m 242.14805,425.46311 c 0.51395,-2.33996 1.64266,-6.3001 2.50825,-8.8003 l 1.5738,-4.54583 4.32184,3.63659 c 8.09116,6.80826 7.94866,8.12611 -1.2132,11.22012 l -8.12512,2.74389 z"
       id="path1521"
       transform="scale(0.26458333)" /><path
       style="fill:#008080;stroke:#008080;stroke-width:8.97686;stroke-miterlimit:1;stroke-dasharray:none"
       d="m 458.66396,211.89451 -24.81077,-24.97236 7.36219,-6.8328 c 4.0492,-3.75804 9.7825,-7.93232 12.74067,-9.27617 13.78449,-6.26213 31.03432,0.19172 41.62932,15.57519 3.87954,5.63293 5.03096,8.76268 5.6221,15.2819 0.97574,10.76069 -1.59837,17.36359 -10.68402,27.40578 l -7.04872,7.79082 z"
       id="path1523"
       transform="scale(0.26458333)" /><path
       style="fill:#ffffff;stroke:#ffffff;stroke-width:0;stroke-miterlimit:1;stroke-dasharray:none"
       d="m 293.76717,375.17907 -24.38352,-23.80493 78.89087,-78.79564 78.89088,-78.79565 24.80186,24.89737 24.80185,24.89737 -78.13285,77.70321 c -42.97307,42.73676 -78.66221,77.7032 -79.30921,77.7032 -0.64699,0 -12.14894,-10.71222 -25.55988,-23.80493 z m 90.51065,-62.3622 c 31.18379,-31.16434 57.64425,-58.56312 58.80103,-60.88619 1.83722,-3.68952 1.85625,-4.42873 0.15046,-5.8444 -1.59068,-1.32015 -3.13836,-0.6259 -8.34669,3.74408 -13.50941,11.3349 -113.01318,112.89303 -113.01318,115.34647 0,3.02242 1.1155,4.30247 3.74938,4.30247 1.07867,0 27.47522,-25.4981 58.659,-56.66243 z m -20.11684,-20.11684 c 31.18378,-31.16434 57.64425,-58.56312 58.80103,-60.88619 1.83722,-3.68952 1.85625,-4.42873 0.15046,-5.8444 -1.59068,-1.32015 -3.13836,-0.6259 -8.34669,3.74408 -13.50941,11.3349 -113.01318,112.89303 -113.01318,115.34647 0,3.02242 1.1155,4.30247 3.74938,4.30247 1.07867,0 27.47522,-25.4981 58.659,-56.66243 z"
       id="path2400"
       transform="scale(0.26458333)" /><path
       style="fill:#ffffff;stroke:#ffffff;stroke-width:0;stroke-miterlimit:1;stroke-dasharray:none"
       d="m 259.71263,410.89978 -10.06057,-9.2702 6.59554,-19.68771 c 3.62754,-10.82825 7.12365,-20.21584 7.76914,-20.86132 1.19005,-1.19006 45.7826,42.12325 45.7826,44.46922 0,0.68597 -9.00588,4.25615 -20.01307,7.93371 l -20.01307,6.68649 z"
       id="path2402"
       transform="scale(0.26458333)" /></g></svg>
